<svg width="44" height="44" viewBox="0 0 44 44" fill="none" xmlns="http://www.w3.org/2000/svg">
<circle cx="22" cy="22" r="22" fill="white"/>
<g clip-path="url(#clip0_50_1054)">
<path d="M31.8587 13.5022C30.4756 12.1191 28.6367 11.3574 26.6807 11.3574C24.9508 11.3574 23.3124 11.9533 22 13.0477C20.6876 11.9533 19.0492 11.3574 17.3193 11.3574C15.3633 11.3574 13.5244 12.1191 12.1413 13.5022C9.28623 16.3573 9.28623 21.003 12.1413 23.8582L20.1709 31.8878C20.658 32.3749 21.3076 32.6431 22 32.6431C22.6925 32.6431 23.342 32.3749 23.8291 31.8878L31.8587 23.8582C34.7137 21.003 34.7137 16.3573 31.8587 13.5022ZM30.864 22.8636L22.8345 30.8931C22.6131 31.1145 22.3167 31.2364 22 31.2364C21.6833 31.2364 21.3869 31.1145 21.1655 30.8931L13.136 22.8636C10.8294 20.5568 10.8294 16.8035 13.136 14.4968C14.2534 13.3794 15.7391 12.764 17.3193 12.764C18.8996 12.764 20.3853 13.3794 21.5027 14.4968C21.7772 14.7715 22.2226 14.7715 22.4973 14.4968C23.6148 13.3793 25.1005 12.764 26.6807 12.764C28.261 12.764 29.7467 13.3793 30.8641 14.4967C33.1707 16.8035 33.1707 20.5568 30.864 22.8636Z" fill="black"/>
</g>
<defs>
<clipPath id="clip0_50_1054">
<rect width="24" height="24" fill="white" transform="translate(10 10)"/>
</clipPath>
</defs>
</svg>
