<svg width="129" height="161" viewBox="0 0 129 161" fill="none" xmlns="http://www.w3.org/2000/svg">
<rect y="160.254" width="160" height="129" rx="23" transform="rotate(-90 0 160.254)" fill="#CD0B09"/>
<path d="M64.6494 81.9521C71.5303 81.9521 77.1084 76.3741 77.1084 69.4932C77.1084 62.6123 71.5303 57.0342 64.6494 57.0342C57.7685 57.0342 52.1904 62.6123 52.1904 69.4932C52.1904 76.3741 57.7685 81.9521 64.6494 81.9521Z" fill="#2C2220"/>
<path d="M85.8692 69.5852C85.8692 71.6759 81.7639 73.0855 81.1518 74.9704C80.5185 76.9238 82.9881 80.477 81.8061 82.1031C80.6135 83.7451 76.4607 82.4885 74.8196 83.6817C73.1943 84.8644 73.1152 89.2095 71.1628 89.843C69.2789 90.4555 66.6722 87.0079 64.5826 87.0079C62.493 87.0079 59.8862 90.4555 58.0024 89.843C56.05 89.2095 55.9708 84.8644 54.3455 83.6817C52.7045 82.4885 48.5516 83.7451 47.359 82.1031C46.177 80.477 48.6466 76.9238 48.0134 74.9704C47.4013 73.0855 43.2959 71.6706 43.2959 69.5852C43.2959 67.4997 47.4013 66.0848 48.0134 64.2C48.6466 62.2465 46.177 58.6933 47.359 57.0672C48.5516 55.4252 52.7045 56.6818 54.3455 55.4886C55.9708 54.306 56.05 49.9608 58.0024 49.3273C59.8862 48.7149 62.493 52.1624 64.5826 52.1624C66.6722 52.1624 69.2789 48.7149 71.1628 49.3273C73.1152 49.9608 73.1943 54.306 74.8196 55.4886C76.4607 56.6818 80.6135 55.4252 81.8061 57.0672C82.9881 58.6933 80.5185 62.2465 81.1518 64.2C81.7586 66.0795 85.8692 67.4944 85.8692 69.5852Z" stroke="white" stroke-width="2.5" stroke-miterlimit="10"/>
<path d="M64.2505 90.7355L73.1736 111.131C73.7699 112.493 75.6167 112.646 76.0758 111.373L77.5481 106.479C77.833 105.682 78.7512 105.371 79.5744 105.793L84.3815 108.512C85.6955 109.182 86.9408 107.995 86.3498 106.638L75.9808 82.9375" stroke="white" stroke-width="2.5" stroke-miterlimit="10"/>
<path d="M65.7384 87.3354L55.3272 111.131C54.731 112.493 52.8841 112.646 52.425 111.373L50.9528 106.479C50.6678 105.682 49.7497 105.371 48.9265 105.793L44.1193 108.512C42.8054 109.182 41.56 107.995 42.151 106.638L52.5253 82.9375" stroke="white" stroke-width="2.5" stroke-miterlimit="10"/>
</svg>
