<svg width="129" height="161" viewBox="0 0 129 161" fill="none" xmlns="http://www.w3.org/2000/svg">
<rect y="160.254" width="160" height="129" rx="23" transform="rotate(-90 0 160.254)" fill="#CD0B09"/>
<g clip-path="url(#clip0_60_863)">
<circle cx="60" cy="81" r="15" fill="#2C2220"/>
<path d="M83.3616 67.6578C85.7793 71.8289 87.0572 76.5953 87.0572 81.4414C87.0572 88.7946 84.1937 95.7077 78.9942 100.907C73.7947 106.106 66.8817 108.97 59.5286 108.97C52.1755 108.97 45.2624 106.106 40.063 100.907C34.8635 95.7077 32 88.7946 32 81.4414C32 74.0883 34.8635 67.1752 40.063 61.9758C45.2625 56.7764 52.1755 53.9128 59.5286 53.9128C64.375 53.9128 69.1414 55.1908 73.3124 57.6085C73.7975 57.8897 73.9627 58.5108 73.6817 58.9958C73.4004 59.4809 72.7792 59.6461 72.2943 59.3651C68.4323 57.1264 64.018 55.9432 59.5287 55.9432C45.4688 55.9431 34.0303 67.3816 34.0303 81.4414C34.0303 95.5012 45.4688 106.94 59.5286 106.94C73.5884 106.94 85.0269 95.5012 85.0269 81.4416C85.0269 76.9525 83.8436 72.5383 81.605 68.676C81.3238 68.191 81.4891 67.5698 81.9742 67.2886C82.4591 67.0074 83.0804 67.1726 83.3616 67.6578ZM96.6727 56.9499L88.0583 65.5643C87.8654 65.7571 87.6062 65.8616 87.3405 65.8616C87.2529 65.8616 87.1646 65.8503 87.0778 65.8271L78.7976 63.6083L60.2465 82.1593C60.0483 82.3575 59.7885 82.4566 59.5286 82.4566C59.2687 82.4566 59.009 82.3575 58.8108 82.1593C58.4144 81.7628 58.4144 81.1201 58.8108 80.7237L77.3619 62.1726L75.1431 53.8924C75.0492 53.542 75.1495 53.1682 75.4059 52.9117L84.0203 44.2974C84.2767 44.0409 84.6506 43.9408 85.0008 44.0346C85.3512 44.1285 85.6247 44.4021 85.7186 44.7524L87.9373 53.0327L96.2176 55.2513C96.568 55.3452 96.8416 55.6188 96.9355 55.9691C97.0294 56.3195 96.9291 56.6934 96.6727 56.9499ZM93.9937 56.7575L86.8456 54.8422C86.4952 54.7483 86.2216 54.4747 86.1277 54.1243L84.2124 46.9764L77.2558 53.933L79.3228 61.6471L87.0369 63.7141L93.9937 56.7575ZM59.5286 67.2218C61.6424 67.2218 63.6771 67.675 65.5759 68.5689C66.083 68.8074 66.688 68.5899 66.9267 68.0827C67.1655 67.5754 66.9479 66.9708 66.4406 66.7319C64.2693 65.7098 61.9437 65.1914 59.5286 65.1914C50.5683 65.1914 43.2786 72.4811 43.2786 81.4414C43.2786 90.4017 50.5683 97.6914 59.5286 97.6914C68.4889 97.6914 75.7786 90.4017 75.7786 81.4414C75.7786 79.0267 75.2604 76.7012 74.2381 74.5295C73.9994 74.0223 73.3946 73.8047 72.8873 74.0432C72.38 74.282 72.1624 74.8867 72.4011 75.394C73.2949 77.2932 73.7482 79.3277 73.7482 81.4413C73.7482 89.2821 67.3693 95.661 59.5285 95.661C51.6877 95.661 45.3088 89.2821 45.3088 81.4413C45.3088 73.6005 51.6878 67.2218 59.5286 67.2218Z" fill="white"/>
</g>
<defs>
<clipPath id="clip0_60_863">
<rect width="64.97" height="64.97" fill="white" transform="translate(32 44)"/>
</clipPath>
</defs>
</svg>
