<svg width="129" height="161" viewBox="0 0 129 161" fill="none" xmlns="http://www.w3.org/2000/svg">
<rect y="160.254" width="160" height="129" rx="23" transform="rotate(-90 0 160.254)" fill="#CD0B09"/>
<path d="M81.6645 90.1177L72.9814 98.7742C71.8689 99.8827 70.3702 100.501 68.7995 100.501H45.9226C42.6523 100.501 40 97.8462 40 94.5723V60.1835C40 56.9096 42.6523 54.2544 45.9226 54.2544H77.4826C80.7529 54.2544 83.4052 56.9096 83.4052 60.1835V85.9158C83.4103 87.4935 82.782 89.0041 81.6645 90.1177Z" stroke="white" stroke-width="2.5" stroke-miterlimit="10"/>
<path d="M86.9281 95.65L78.245 104.306C77.1326 105.415 75.6339 106.034 74.0631 106.034H51.1914C47.9211 106.034 45.2688 103.378 45.2688 100.105V65.7157C45.2688 62.4418 47.9211 59.7866 51.1914 59.7866H82.7514C86.0217 59.7866 88.674 62.4418 88.674 65.7157V91.448C88.674 93.0257 88.0457 94.5363 86.9281 95.65Z" fill="#2C2220"/>
<path d="M53.7258 73.8036C53.7258 73.1602 54.2474 72.6387 54.8908 72.6387H79.7427C80.386 72.6387 80.9076 73.1602 80.9076 73.8036C80.9076 74.447 80.386 74.9685 79.7427 74.9685H54.8908C54.2474 74.9685 53.7258 74.447 53.7258 73.8036Z" fill="white"/>
<path d="M53.7258 79.2401C53.7258 78.5968 54.2474 78.0752 54.8908 78.0752H79.7427C80.386 78.0752 80.9076 78.5968 80.9076 79.2401C80.9076 79.8835 80.386 80.4051 79.7427 80.4051H54.8908C54.2474 80.4051 53.7258 79.8835 53.7258 79.2401Z" fill="white"/>
<path d="M53.7258 84.6767C53.7258 84.0333 54.2474 83.5117 54.8908 83.5117H79.7427C80.386 83.5117 80.9076 84.0333 80.9076 84.6767C80.9076 85.32 80.386 85.8416 79.7427 85.8416H54.8908C54.2474 85.8416 53.7258 85.32 53.7258 84.6767Z" fill="white"/>
<path d="M53.7258 90.1127C53.7258 89.4693 54.2474 88.9478 54.8908 88.9478H67.3167C67.9601 88.9478 68.4816 89.4693 68.4816 90.1127C68.4816 90.7561 67.9601 91.2776 67.3167 91.2776H54.8908C54.2474 91.2776 53.7258 90.7561 53.7258 90.1127Z" fill="white"/>
</svg>
