<svg width="129" height="161" viewBox="0 0 129 161" fill="none" xmlns="http://www.w3.org/2000/svg">
<rect y="160.254" width="160" height="129" rx="23" transform="rotate(-90 0 160.254)" fill="#CD0B09"/>
<path d="M89.1213 69.5813C89.1213 54.9929 76.9173 43.2856 62.27 44.3178C49.969 45.1802 39.9822 55.215 39.0708 67.6475C38.2693 78.597 44.3518 88.2006 53.4014 92.506C54.7588 93.1527 55.625 94.5312 55.625 96.0469V102.051V106.585C55.625 110.962 58.7988 114.803 63.1038 115.287C68.191 115.855 72.5024 111.844 72.5024 106.813V96.0469C72.5024 94.5312 73.3751 93.1527 74.7325 92.506C83.2326 88.4489 89.1213 79.7141 89.1213 69.5813Z" stroke="white" stroke-width="2.5" stroke-miterlimit="10"/>
<path d="M72.4961 101.705H55.6187" stroke="white" stroke-width="2.5" stroke-miterlimit="10"/>
<path d="M64.0603 71.208C59.1542 71.208 55.1594 75.2455 55.1594 80.2041V85.4436C57.7644 87.0116 60.8089 87.9197 64.0603 87.9197C67.3117 87.9197 70.3562 87.0181 72.9612 85.4436V80.2041C72.9612 75.2455 68.9665 71.208 64.0603 71.208Z" fill="#2C2220"/>
<path d="M50.7705 80.204C50.7705 72.7955 56.7303 66.7719 64.0604 66.7719C71.3906 66.7719 77.3503 72.7955 77.3503 80.204V81.687C79.923 78.6165 81.4743 74.6509 81.4743 70.3194C81.4743 60.5982 73.6788 52.7192 64.0604 52.7192C54.442 52.7192 46.6465 60.5982 46.6465 70.3194C46.6465 74.6574 48.1978 78.623 50.7705 81.687V80.204Z" fill="#2C2220"/>
</svg>
