<svg width="64" height="63" viewBox="0 0 64 63" fill="none" xmlns="http://www.w3.org/2000/svg">
<g clip-path="url(#clip0_595_2321)">
<circle cx="32.0347" cy="31.4483" r="30.4483" fill="white" stroke="#CD0B09" stroke-width="2"/>
<g clip-path="url(#clip1_595_2321)">
<path d="M46.8809 21.6736C46.4922 21.2141 45.9479 20.9334 45.3481 20.8833L24.2218 19.1193C23.6219 19.0692 23.0386 19.2557 22.5791 19.6444C22.1214 20.0315 21.8412 20.5731 21.7895 21.17L21.3644 25.1576H19.6673C18.4249 25.1576 17.4141 26.1684 17.4141 27.4108V40.6355C17.4141 41.8779 18.4249 42.8887 19.6673 42.8887H40.8672C42.1097 42.8887 43.1204 41.8779 43.1204 40.6355V38.4902L43.8727 38.553C43.9362 38.5583 43.9993 38.5609 44.0619 38.5609C45.2201 38.5609 46.2076 37.6698 46.3056 36.4951L47.4061 23.3163C47.4561 22.7165 47.2696 22.1331 46.8809 21.6736ZM19.6673 26.3295H40.8672C41.4634 26.3295 41.9486 26.8146 41.9486 27.4108V28.6159H18.5859V27.4108C18.5859 26.8146 19.071 26.3295 19.6673 26.3295ZM18.5859 29.7877H41.9486V32.2187H18.5859V29.7877ZM40.8672 41.7169H19.6673C19.071 41.7169 18.5859 41.2318 18.5859 40.6355V33.3906H41.9486V40.6355C41.9486 41.2318 41.4634 41.7169 40.8672 41.7169ZM46.2383 23.2188L45.1378 36.3976C45.0882 36.9918 44.5643 37.435 43.9702 37.3852L43.1204 37.3143V27.4108C43.1204 26.1684 42.1097 25.1576 40.8672 25.1576H22.543L22.9554 21.2881C22.9559 21.2837 22.9563 21.2793 22.9567 21.2747C23.0063 20.6805 23.5299 20.2373 24.1243 20.2872L45.2506 22.0512C45.5385 22.0752 45.7998 22.2099 45.9863 22.4304C46.1728 22.651 46.2623 22.9309 46.2383 23.2188Z" fill="#CD0B09"/>
<path d="M39.4966 35.1328H33.8574C33.5338 35.1328 33.2715 35.3951 33.2715 35.7187V39.3978C33.2715 39.7214 33.5338 39.9837 33.8574 39.9837H39.4966C39.8202 39.9837 40.0825 39.7214 40.0825 39.3978V35.7187C40.0825 35.3951 39.8202 35.1328 39.4966 35.1328ZM38.9107 38.8119H34.4434V36.3047H38.9107V38.8119Z" fill="#CD0B09"/>
</g>
</g>
<defs>
<clipPath id="clip0_595_2321">
<rect width="62.8966" height="62.8966" fill="white" transform="translate(0.586426)"/>
</clipPath>
<clipPath id="clip1_595_2321">
<rect width="30" height="30" fill="white" transform="translate(17.4141 16)"/>
</clipPath>
</defs>
</svg>
