<svg width="125" height="125" viewBox="0 0 125 125" fill="none" xmlns="http://www.w3.org/2000/svg">
<path d="M7.10205 61.082H24.1475V115.059H7.10205V61.082Z" fill="#CD0B09"/>
<path d="M65.64 119.319C58.9601 119.326 52.4287 117.348 46.8745 113.637V62.5011H50.2031C52.7506 62.501 55.2732 61.9992 57.6268 61.0243C59.9803 60.0493 62.1189 58.6204 63.9202 56.819C65.7215 55.0176 67.1504 52.879 68.1253 50.5254C69.1001 48.1717 69.6018 45.6492 69.6018 43.1016V35.5124C69.6018 33.6288 70.3501 31.8223 71.682 30.4904C73.0139 29.1584 74.8204 28.4102 76.7041 28.4102C78.5877 28.4102 80.3942 29.1584 81.7261 30.4904C83.0581 31.8223 83.8063 33.6288 83.8063 35.5124V48.5934C83.7965 52.7871 82.4377 56.8665 79.9306 60.2283L78.2313 62.5011H110.795C112.633 62.5004 114.399 63.2126 115.723 64.4879C117.046 65.7631 117.823 67.502 117.891 69.3387C117.958 71.1753 117.31 72.9665 116.084 74.3353C114.858 75.7041 113.148 76.5439 111.315 76.6779L108.41 76.8901L110.366 79.0492C111.263 80.032 111.864 81.2475 112.102 82.5564C112.339 83.8653 112.203 85.2146 111.709 86.4498C111.215 87.6849 110.383 88.7559 109.309 89.54C108.234 90.3241 106.96 90.7896 105.633 90.8832L102.729 91.0954L104.684 93.2538C105.61 94.2702 106.22 95.5339 106.441 96.891C106.661 98.2481 106.482 99.6399 105.925 100.897C105.368 102.154 104.458 103.222 103.305 103.971C102.152 104.72 100.806 105.117 99.4313 105.115H94.0589L96.1867 107.484C97.1056 108.503 97.7091 109.767 97.9239 111.122C98.1386 112.477 97.9555 113.865 97.3967 115.118C96.8378 116.371 95.9273 117.435 94.7757 118.181C93.624 118.927 92.2806 119.322 90.9086 119.319H65.64Z" fill="#FFDDD4"/>
<path d="M24.1475 56.8184H46.8747V119.318H24.1475V56.8184Z" fill="#CD0B09"/>
<path d="M36.9317 112.217C38.5007 112.217 39.7726 110.945 39.7726 109.376C39.7726 107.807 38.5007 106.535 36.9317 106.535C35.3627 106.535 34.0908 107.807 34.0908 109.376C34.0908 110.945 35.3627 112.217 36.9317 112.217Z" fill="#CD0B09"/>
<path d="M119.318 69.6039C119.316 67.3443 118.417 65.1779 116.819 63.5801C115.221 61.9823 113.055 61.0836 110.795 61.0811H81.0684C83.7624 57.4747 85.2208 53.0954 85.2271 48.5939V35.513C85.2271 33.2526 84.3292 31.0848 82.7309 29.4865C81.1325 27.8882 78.9647 26.9902 76.7044 26.9902C74.444 26.9902 72.2762 27.8882 70.6779 29.4865C69.0796 31.0848 68.1816 33.2526 68.1816 35.513V43.1022C68.1818 45.4632 67.7168 47.8011 66.8134 49.9824C65.91 52.1637 64.5857 54.1457 62.9163 55.8153C61.2468 57.4848 59.2649 58.8091 57.0836 59.7126C54.9023 60.6162 52.5644 61.0812 50.2034 61.0811H48.2953V56.8198C48.2953 56.4431 48.1456 56.0818 47.8792 55.8154C47.6129 55.549 47.2516 55.3993 46.8748 55.3993H24.1476C23.7708 55.3993 23.4095 55.549 23.1431 55.8154C22.8767 56.0818 22.7271 56.4431 22.7271 56.8198V59.6607H7.1021C6.72537 59.6607 6.36407 59.8103 6.09768 60.0767C5.8313 60.3431 5.68164 60.7044 5.68164 61.0811C5.68164 61.4579 5.8313 61.8192 6.09768 62.0856C6.36407 62.3519 6.72537 62.5016 7.1021 62.5016H22.7271V113.638H7.1021C6.72537 113.638 6.36407 113.788 6.09768 114.054C5.8313 114.32 5.68164 114.682 5.68164 115.058C5.68164 115.435 5.8313 115.796 6.09768 116.063C6.36407 116.329 6.72537 116.479 7.1021 116.479H22.7271V119.32C22.7271 119.697 22.8767 120.058 23.1431 120.324C23.4095 120.591 23.7708 120.74 24.1476 120.74H46.8748C47.2516 120.74 47.6129 120.591 47.8792 120.324C48.1456 120.058 48.2953 119.697 48.2953 119.32V116.178C53.5847 119.174 59.5612 120.746 65.6403 120.74H90.9089C92.5554 120.743 94.1673 120.268 95.5492 119.373C96.9311 118.478 98.0236 117.201 98.6942 115.697C99.3649 114.194 99.5848 112.528 99.3274 110.902C99.0701 109.275 98.3464 107.759 97.2441 106.536H99.4316C101.082 106.538 102.697 106.061 104.081 105.162C105.464 104.263 106.557 102.982 107.225 101.473C107.893 99.9645 108.108 98.2941 107.844 96.6653C107.58 95.0366 106.848 93.5198 105.737 92.2996C107.33 92.1865 108.858 91.6273 110.148 90.6861C111.437 89.7448 112.435 88.4595 113.028 86.9772C113.621 85.495 113.785 83.8758 113.5 82.305C113.216 80.7341 112.494 79.2751 111.419 78.0951C113.564 77.9365 115.57 76.9734 117.034 75.3988C118.499 73.8243 119.315 71.7544 119.318 69.6039ZM45.4544 117.899H25.568V58.2402H45.4544V117.899ZM110.795 75.2857H96.5907C96.214 75.2857 95.8527 75.4353 95.5863 75.7017C95.3199 75.9681 95.1703 76.3294 95.1703 76.7061C95.1703 77.0829 95.3199 77.4442 95.5863 77.7106C95.8527 77.9769 96.214 78.1266 96.5907 78.1266H105.113C106.62 78.1266 108.066 78.7252 109.131 79.7908C110.197 80.8563 110.795 82.3015 110.795 83.8084C110.795 85.3153 110.197 86.7605 109.131 87.8261C108.066 88.8916 106.62 89.4902 105.113 89.4902H90.9089C90.5322 89.4902 90.1709 89.6399 89.9045 89.9063C89.6381 90.1727 89.4885 90.534 89.4885 90.9107C89.4885 91.2874 89.6381 91.6487 89.9045 91.9151C90.1709 92.1815 90.5322 92.3311 90.9089 92.3311H99.4316C100.939 92.3311 102.384 92.9298 103.449 93.9953C104.515 95.0609 105.113 96.5061 105.113 98.013C105.113 99.5199 104.515 100.965 103.449 102.031C102.384 103.096 100.939 103.695 99.4316 103.695H82.3862C82.0095 103.695 81.6482 103.844 81.3818 104.111C81.1154 104.377 80.9657 104.739 80.9657 105.115C80.9657 105.492 81.1154 105.853 81.3818 106.12C81.6482 106.386 82.0095 106.536 82.3862 106.536H90.9089C92.4158 106.536 93.861 107.134 94.9266 108.2C95.9921 109.265 96.5907 110.711 96.5907 112.218C96.5907 113.724 95.9921 115.17 94.9266 116.235C93.861 117.301 92.4158 117.899 90.9089 117.899H65.6403C59.4955 117.9 53.4782 116.146 48.2953 112.845V63.9221H50.2034C55.725 63.9219 61.0205 61.7283 64.9248 57.8238C68.8291 53.9193 71.0226 48.6238 71.0226 43.1022V35.513C71.0226 34.006 71.6212 32.5609 72.6867 31.4953C73.7523 30.4298 75.1975 29.8311 76.7044 29.8311C78.2113 29.8311 79.6565 30.4298 80.722 31.4953C81.7876 32.5609 82.3862 34.006 82.3862 35.513V48.5939C82.3805 52.6753 80.9923 56.6345 78.448 59.8257L77.0169 61.6138C76.8497 61.8227 76.7448 62.0745 76.7144 62.3403C76.6841 62.6061 76.7294 62.8751 76.8451 63.1163C76.9609 63.3575 77.1424 63.5611 77.3688 63.7036C77.5952 63.8462 77.8573 63.9219 78.1248 63.9221H110.795C112.302 63.9221 113.747 64.5207 114.813 65.5862C115.878 66.6518 116.477 68.097 116.477 69.6039C116.477 71.1108 115.878 72.556 114.813 73.6215C113.747 74.6871 112.302 75.2857 110.795 75.2857Z" fill="#232328"/>
<path d="M76.7041 21.3091C77.0809 21.3091 77.4422 21.1595 77.7086 20.8931C77.9749 20.6267 78.1246 20.2654 78.1246 19.8887V5.68413C78.1246 5.3074 77.9749 4.9461 77.7086 4.67971C77.4422 4.41333 77.0809 4.26367 76.7041 4.26367C76.3274 4.26367 75.9661 4.41333 75.6997 4.67971C75.4333 4.9461 75.2837 5.3074 75.2837 5.68413V19.8887C75.2837 20.2654 75.4333 20.6267 75.6997 20.8931C75.9661 21.1595 76.3274 21.3091 76.7041 21.3091Z" fill="#232328"/>
<path d="M63.647 25.8852C63.7783 26.0199 63.935 26.1271 64.1081 26.2007C64.2811 26.2743 64.467 26.3128 64.6551 26.314C64.8431 26.3152 65.0296 26.2791 65.2035 26.2077C65.3775 26.1362 65.5355 26.031 65.6685 25.898C65.8015 25.7651 65.9067 25.607 65.9781 25.433C66.0496 25.2591 66.0857 25.0727 66.0845 24.8846C66.0833 24.6966 66.0448 24.5106 65.9712 24.3376C65.8976 24.1645 65.7903 24.0078 65.6557 23.8765L55.612 13.8321C55.4811 13.6956 55.3244 13.5866 55.1509 13.5115C54.9774 13.4364 54.7907 13.3966 54.6016 13.3946C54.4126 13.3926 54.225 13.4283 54.05 13.4997C53.8749 13.5711 53.7159 13.6768 53.5822 13.8104C53.4485 13.9441 53.3428 14.1031 53.2714 14.2781C53.1999 14.4532 53.1641 14.6407 53.1661 14.8297C53.1681 15.0188 53.2077 15.2055 53.2828 15.379C53.3579 15.5526 53.4668 15.7093 53.6033 15.8402L63.647 25.8852Z" fill="#232328"/>
<path d="M45.4541 38.3546H59.6587C60.0354 38.3546 60.3967 38.2049 60.6631 37.9385C60.9295 37.6722 61.0791 37.3109 61.0791 36.9341C61.0791 36.5574 60.9295 36.1961 60.6631 35.9297C60.3967 35.6633 60.0354 35.5137 59.6587 35.5137H45.4541C45.0774 35.5137 44.7161 35.6633 44.4497 35.9297C44.1833 36.1961 44.0337 36.5574 44.0337 36.9341C44.0337 37.3109 44.1833 37.6722 44.4497 37.9385C44.7161 38.2049 45.0774 38.3546 45.4541 38.3546Z" fill="#232328"/>
<path d="M88.7576 26.3019C88.9442 26.3021 89.1289 26.2655 89.3013 26.1941C89.4736 26.1227 89.6302 26.0179 89.7619 25.8858L99.8063 15.8408C100.061 15.5721 100.201 15.2147 100.196 14.8447C100.191 14.4746 100.041 14.1211 99.7796 13.8594C99.5179 13.5977 99.1644 13.4485 98.7944 13.4435C98.4243 13.4385 98.0669 13.5781 97.7982 13.8327L87.7538 23.8772C87.5552 24.0758 87.4199 24.3289 87.3652 24.6044C87.3104 24.8799 87.3385 25.1655 87.446 25.425C87.5535 25.6846 87.7356 25.9064 87.9691 26.0624C88.2027 26.2185 88.4767 26.3018 88.7576 26.3019Z" fill="#232328"/>
<path d="M92.3296 36.9341C92.3296 37.3109 92.4792 37.6722 92.7456 37.9385C93.012 38.2049 93.3733 38.3546 93.75 38.3546H107.955C108.331 38.3546 108.693 38.2049 108.959 37.9385C109.225 37.6722 109.375 37.3109 109.375 36.9341C109.375 36.5574 109.225 36.1961 108.959 35.9297C108.693 35.6633 108.331 35.5137 107.955 35.5137H93.75C93.3733 35.5137 93.012 35.6633 92.7456 35.9297C92.4792 36.1961 92.3296 36.5574 92.3296 36.9341Z" fill="#232328"/>
<path d="M36.9318 105.115C36.089 105.115 35.2651 105.365 34.5643 105.833C33.8635 106.302 33.3173 106.967 32.9948 107.746C32.6723 108.525 32.5879 109.381 32.7523 110.208C32.9167 111.035 33.3226 111.794 33.9185 112.39C34.5145 112.986 35.2738 113.392 36.1004 113.556C36.927 113.721 37.7839 113.636 38.5625 113.314C39.3412 112.991 40.0067 112.445 40.475 111.744C40.9432 111.043 41.1931 110.219 41.1931 109.377C41.1919 108.247 40.7425 107.164 39.9436 106.365C39.1448 105.566 38.0616 105.116 36.9318 105.115ZM36.9318 110.797C36.6508 110.797 36.3762 110.714 36.1426 110.558C35.909 110.402 35.727 110.18 35.6194 109.92C35.5119 109.661 35.4838 109.375 35.5386 109.099C35.5934 108.824 35.7287 108.571 35.9274 108.372C36.126 108.174 36.3791 108.038 36.6547 107.983C36.9302 107.929 37.2158 107.957 37.4754 108.064C37.7349 108.172 37.9568 108.354 38.1128 108.587C38.2689 108.821 38.3522 109.096 38.3522 109.377C38.3519 109.753 38.2021 110.114 37.9358 110.381C37.6695 110.647 37.3084 110.797 36.9318 110.797Z" fill="#232328"/>
</svg>
