<svg width="125" height="125" viewBox="0 0 125 125" fill="none" xmlns="http://www.w3.org/2000/svg">
<g clip-path="url(#clip0_999_878)">
<path fill-rule="evenodd" clip-rule="evenodd" d="M106.25 64.2891V93.7474C106.25 99.5004 101.586 104.164 95.8333 104.164H52.0833L22.7291 122.518C21.9268 123.019 20.9161 123.044 20.0893 122.586C19.2625 122.127 18.7497 121.255 18.7499 120.31V104.164H12.4999C9.73725 104.164 7.08773 103.067 5.13422 101.113C3.18072 99.1596 2.08325 96.5101 2.08325 93.7474V39.5807C2.08325 33.8278 6.74695 29.1641 12.4999 29.1641H56.8333C56.4485 31.2252 56.2533 33.3173 56.2499 35.4141C56.2472 47.3243 62.5995 58.3309 72.9133 64.2872C83.2272 70.2435 95.9354 70.2442 106.25 64.2891Z" fill="#FFE543"/>
<path fill-rule="evenodd" clip-rule="evenodd" d="M83.3333 68.7474C84.375 68.7474 85.4167 68.6828 86.4292 68.5891C69.3192 66.9686 56.2487 52.6006 56.25 35.4141C56.2533 33.3173 56.4486 31.2252 56.8333 29.1641H50.5833C50.1986 31.2252 50.0033 33.3173 50 35.4141C50 53.8236 64.9238 68.7474 83.3333 68.7474Z" fill="#FFE69C"/>
<path fill-rule="evenodd" clip-rule="evenodd" d="M122.917 35.4155C122.917 53.825 107.993 68.7489 89.5833 68.7489C71.1738 68.7489 56.25 53.825 56.25 35.4155C56.2533 33.3188 56.4486 31.2267 56.8333 29.1655C60.0387 12.2572 75.5889 0.568504 92.7219 2.1889C109.855 3.80931 122.938 18.2061 122.917 35.4155Z" fill="#CD0B09"/>
<path d="M89.5833 3.51391e-05C73.2551 0.0339127 59.062 11.2164 55.2083 27.0834H12.5C5.5993 27.0903 0.00689038 32.6827 0 39.5834V93.75C0.00689038 100.651 5.5993 106.243 12.5 106.25H16.6667V120.31C16.6651 122.014 17.5887 123.584 19.0784 124.41C20.5681 125.237 22.389 125.189 23.8333 124.285L52.6813 106.25H95.8333C102.734 106.243 108.326 100.651 108.333 93.75V65.4167C121.75 57.0635 127.999 40.8253 123.645 25.6327C119.29 10.44 105.388 -0.022126 89.5833 3.51391e-05ZM104.167 93.75C104.167 98.3524 100.436 102.083 95.8333 102.083H52.0833C51.6929 102.083 51.3103 102.193 50.9792 102.4L21.625 120.754C21.4644 120.852 21.2635 120.856 21.0995 120.764C20.9355 120.672 20.8337 120.498 20.8333 120.31V104.167C20.8333 103.016 19.9006 102.083 18.75 102.083H12.5C7.89763 102.083 4.16667 98.3524 4.16667 93.75V39.5834C4.16667 34.981 7.89763 31.25 12.5 31.25H54.4333C53.1882 41.3062 56.3307 51.412 63.0589 58.9888C69.7871 66.5656 79.4505 70.8808 89.5833 70.8334C94.6159 70.8295 99.5891 69.7453 104.167 67.6542V93.75ZM89.5833 66.6667C72.3244 66.6667 58.3333 52.6756 58.3333 35.4167C58.3333 18.1578 72.3244 4.1667 89.5833 4.1667C106.842 4.1667 120.833 18.1578 120.833 35.4167C120.814 52.6675 106.834 66.6472 89.5833 66.6667Z" fill="#2C2220"/>
<path fill-rule="evenodd" clip-rule="evenodd" d="M14.5833 43.7487H45.8333C46.9839 43.7487 47.9167 42.816 47.9167 41.6654C47.9167 40.5148 46.9839 39.582 45.8333 39.582H14.5833C13.4327 39.582 12.5 40.5148 12.5 41.6654C12.5 42.816 13.4327 43.7487 14.5833 43.7487Z" fill="#2C2220"/>
<path fill-rule="evenodd" clip-rule="evenodd" d="M14.5833 56.2487H50C51.1506 56.2487 52.0833 55.316 52.0833 54.1654C52.0833 53.0148 51.1506 52.082 50 52.082H14.5833C13.4327 52.082 12.5 53.0148 12.5 54.1654C12.5 55.316 13.4327 56.2487 14.5833 56.2487Z" fill="#2C2220"/>
<path fill-rule="evenodd" clip-rule="evenodd" d="M14.5833 68.7487H58.3333C59.4839 68.7487 60.4167 67.816 60.4167 66.6654C60.4167 65.5148 59.4839 64.582 58.3333 64.582H14.5833C13.4327 64.582 12.5 65.5148 12.5 66.6654C12.5 67.816 13.4327 68.7487 14.5833 68.7487Z" fill="#2C2220"/>
<path fill-rule="evenodd" clip-rule="evenodd" d="M31.25 79.1654C31.25 80.316 32.1827 81.2487 33.3333 81.2487H93.75C94.9006 81.2487 95.8333 80.316 95.8333 79.1654C95.8333 78.0148 94.9006 77.082 93.75 77.082H33.3333C32.1827 77.082 31.25 78.0148 31.25 79.1654Z" fill="#2C2220"/>
<path fill-rule="evenodd" clip-rule="evenodd" d="M25 77.082H14.5833C13.4327 77.082 12.5 78.0148 12.5 79.1654C12.5 80.316 13.4327 81.2487 14.5833 81.2487H25C26.1506 81.2487 27.0833 80.316 27.0833 79.1654C27.0833 78.0148 26.1506 77.082 25 77.082Z" fill="#2C2220"/>
<g clip-path="url(#clip1_999_878)">
<path d="M107.471 47.2234L77.781 17.5336C76.4861 16.2388 74.3868 16.2388 73.094 17.5336L71.5292 19.096C70.2344 20.3912 70.2344 22.4905 71.5292 23.7833L101.219 53.4731C102.514 54.7679 104.614 54.7679 105.906 53.4731L107.469 51.9108C108.766 50.6179 108.766 48.5187 107.471 47.2234Z" fill="white"/>
<path d="M101.219 17.5333L71.5292 47.2231C70.2344 48.5184 70.2344 50.6176 71.5292 51.9105L73.0916 53.4728C74.3868 54.7676 76.4861 54.7676 77.7789 53.4728L107.471 23.785C108.766 22.4902 108.766 20.3909 107.471 19.0981L105.908 17.5358C104.614 16.2385 102.514 16.2385 101.219 17.5333Z" fill="white"/>
<path d="M102.781 54.9977C101.791 54.9977 100.799 54.6198 100.043 53.8664L89.5001 43.325L78.9588 53.8664C77.443 55.3777 74.9876 55.3777 73.4783 53.8664L71.1338 51.5215C69.6245 50.0121 69.6221 47.5527 71.1314 46.0434L81.6747 35.5001L71.1338 24.9588C69.6221 23.4474 69.6221 20.9876 71.1338 19.4783L73.4783 17.1338C74.9876 15.6245 77.445 15.6221 78.9567 17.1314L89.5001 27.6771L100.041 17.1338C101.557 15.6221 104.012 15.6221 105.521 17.1338L107.866 19.4783C109.378 20.99 109.378 23.4495 107.866 24.9588L97.325 35.5001L107.866 46.041C107.866 46.041 107.868 46.041 107.868 46.0434C109.378 47.5548 109.376 50.0146 107.866 51.5215L105.521 53.8664C104.766 54.6198 103.774 54.9977 102.781 54.9977ZM89.5001 39.3231C89.9241 39.3231 90.3486 39.4846 90.6711 39.8091L102.383 51.5215C102.6 51.7383 102.963 51.7383 103.177 51.5215L105.521 49.177C105.738 48.9605 105.736 48.5979 105.519 48.3814L93.8091 36.6711C93.1617 36.0237 93.1617 34.974 93.8091 34.3266L105.521 22.6143C105.738 22.3978 105.738 22.0352 105.521 21.8208L103.177 19.4783C102.96 19.2618 102.6 19.2638 102.381 19.4807L90.6711 31.1931C90.0504 31.8138 88.9498 31.8138 88.3266 31.1931L76.6163 19.4783C76.3998 19.2618 76.0373 19.2618 75.8232 19.4783L73.4783 21.8232C73.2618 22.0397 73.2618 22.4018 73.4783 22.6163L85.1906 34.3286C85.8381 34.9761 85.8381 36.0261 85.1906 36.6735L73.4783 48.3859C73.2638 48.6024 73.2618 48.9649 73.4783 49.179L75.8232 51.5239C76.0397 51.7404 76.3998 51.7383 76.6187 51.5215L88.3286 39.8115C88.6515 39.4866 89.0756 39.3231 89.5001 39.3231Z" fill="#2C2220"/>
</g>
</g>
<defs>
<clipPath id="clip0_999_878">
<rect width="125" height="125" fill="white"/>
</clipPath>
<clipPath id="clip1_999_878">
<rect width="39" height="39" fill="white" transform="translate(70 16)"/>
</clipPath>
</defs>
</svg>
