<svg width="290" height="125" viewBox="0 0 290 125" fill="none" xmlns="http://www.w3.org/2000/svg">
<g opacity="0.1">
<path d="M51.0104 0.628119C50.3151 1.14832 50.6449 1.88158 51.0024 2.41586C51.7675 3.74996 52.7224 5.00986 53.8483 6.17092C57.1851 9.33464 60.2465 12.6756 63.0117 16.1706C63.844 17.2007 64.8699 18.1344 65.72 19.1558C68.2174 22.1381 70.6723 25.1607 73.1346 28.1606C74.2778 29.1797 74.9635 30.4718 75.0835 31.8342C74.108 30.9338 73.2983 30.136 72.433 29.376C71.1345 28.236 69.8434 27.0731 68.4435 26.0224C66.6258 24.6426 64.6829 23.3836 62.8161 22.0186C59.4779 19.5896 56.1959 17.123 52.8686 14.7081C51.1505 13.4546 49.2955 12.3079 47.5563 11.0745C45.8172 9.84118 43.8976 8.34634 42.0174 7.0269C41.7873 6.81237 41.4906 6.64951 41.1568 6.55453C40.8229 6.45955 40.4636 6.43582 40.1146 6.48561C39.7656 6.53539 39.4391 6.65705 39.1675 6.83842C38.8961 7.01978 38.689 7.25452 38.5671 7.51931C37.9143 8.27815 37.5297 9.16245 37.4533 10.0799C37.377 10.9973 37.6118 11.9142 38.1332 12.7348C38.9696 13.8688 39.9299 14.942 41.003 15.9419C44.2356 19.0959 48.4604 21.4362 52.1941 24.1662C55.5423 26.632 59.2188 28.7999 63.1583 30.6314C63.8639 31.0142 64.539 31.4315 65.1796 31.8808L64.9222 32.1936C62.1696 31.2776 59.3703 30.5211 56.6741 29.4114C53.1316 27.9415 49.7581 26.2026 46.2952 24.6152C43.9264 23.5219 41.5251 22.4706 39.0915 21.4613C38.3567 21.1497 37.5455 20.969 36.7142 20.9318C35.8828 20.8946 35.0512 21.0018 34.2772 21.2458C32.9614 21.6156 32.6541 22.2553 33.2468 23.2773C33.396 23.5772 33.6123 23.853 33.8852 24.0916C34.9644 24.947 36.0636 25.7862 37.1826 26.609C39.8342 28.4268 42.8157 29.9159 46.0262 31.026C49.4763 32.3467 53.0445 33.5212 56.635 34.5677C61.1311 35.9253 65.6849 37.1375 70.2187 38.418C75.0616 39.7795 79.9967 41.134 84.0538 43.6354C85.7567 44.628 87.6182 45.4357 89.589 46.0374C90.7197 46.4985 91.8012 47.0313 92.8238 47.6307C92.0844 47.627 91.3549 47.4925 90.6892 47.2368C86.2388 45.7197 81.4775 45.1176 76.7984 44.2306C73.1823 43.544 69.6325 42.6525 66.1762 41.563C62.9826 40.5537 59.7171 39.6873 56.4219 38.7673L47.3376 36.2632C46.4713 35.9953 45.5418 35.8818 44.6144 35.9307C43.687 35.9796 42.7844 36.1897 41.9703 36.5461C40.4644 37.205 40.029 38.0253 40.9734 39.1362C41.5343 39.8794 42.3589 40.4744 43.3436 40.8462C45.9211 41.7418 48.4433 42.7234 51.064 43.4709C53.2816 44.0863 55.5391 44.6069 57.8267 45.0304C59.6608 45.3687 61.4952 45.707 63.3446 45.9401C65.4342 46.2294 67.5363 46.425 69.602 46.746C73.6624 47.3908 77.6989 48.0632 81.7122 48.7635C83.4755 48.9687 85.1931 49.3705 86.8151 49.957C85.8588 50.1189 84.8748 50.1484 83.9059 50.0445C79.1691 49.4591 74.3806 49.1042 69.6716 48.32C64.9627 47.5353 59.8404 47.0829 54.9052 46.557C52.9277 46.3484 50.9146 46.3133 48.9511 46.2633C48.2108 46.2475 47.4775 46.3801 46.8186 46.6489C46.1597 46.9177 45.5964 47.3143 45.1807 47.8016C44.9455 48.0025 44.7761 48.2462 44.6874 48.5114C44.5988 48.7767 44.5936 49.0552 44.6724 49.3225C44.7511 49.5899 44.9113 49.8378 45.1389 50.044C45.3665 50.2507 45.6544 50.4089 45.9774 50.506C46.9981 50.912 48.0663 51.238 49.1667 51.4784C52.1757 52.0338 55.2046 52.52 58.2592 52.8675C62.2796 53.3206 66.3182 53.6575 70.3699 53.9001C72.917 54.07 75.4894 54.052 78.0385 54.1137C80.1008 54.1343 82.1506 54.0436 84.2169 54.0526C88.211 54.129 92.2283 54.1253 96.1912 54.4117C98.5036 54.4903 100.771 54.9454 102.853 55.7486C103.174 55.8409 103.455 56.0054 103.659 56.2222C103.864 56.4394 103.985 56.6994 104.007 56.97C104.093 57.4214 104.308 57.8512 104.636 58.2262C104.964 58.6012 105.396 58.9107 105.898 59.1322C106.418 59.4202 106.92 59.7171 107.465 59.9734C109.128 60.8573 110.854 61.6647 112.633 62.3919C117.43 64.117 122.231 65.7228 127.119 67.393C127.119 67.393 127.151 67.5433 127.172 67.6788C124.932 67.1567 122.727 66.5418 120.568 65.8362C116.527 64.301 112.238 63.2188 107.825 62.6218C105.787 62.4299 103.737 62.336 101.685 62.3418C101.289 62.3218 100.897 62.4088 100.571 62.5881C100.244 62.7679 100.003 63.0295 99.8869 63.3312C99.7204 63.56 99.5301 63.7784 99.3192 63.983L90.7919 59.5161C88.9033 58.4408 86.8257 57.5923 84.6261 56.9979C82.9908 56.6003 81.7786 56.8213 81.1977 57.8307C80.4583 59.1232 79.748 60.1089 81.329 61.3134C83.6519 63.1112 86.2342 64.6839 89.0227 65.9986C91.9776 67.3598 94.9014 68.7758 97.8464 70.1717C98.8816 70.6627 99.8948 71.1737 100.961 71.6104C103.293 72.585 105.645 73.5311 108.014 74.4487C109.371 74.975 110.764 75.3758 112.124 75.8911C113.494 76.2334 114.793 76.7359 115.977 77.382C112.592 76.882 109.272 76.1368 106.057 75.1565C104.335 74.5384 102.581 73.9746 100.859 73.3571C100.24 73.1466 99.6634 72.8481 99.0546 72.604C97.5321 71.9748 95.975 71.4116 94.4869 70.7165C92.2236 69.6749 90.0532 68.4699 87.7481 67.4684C85.7388 66.5935 83.6692 65.9237 81.5465 65.1237L69.8209 60.7518C68.5383 60.37 67.3162 59.87 66.1782 59.2635C65.3931 58.7325 64.4852 58.3285 63.5051 58.0738C62.0926 57.741 60.7259 57.5612 59.3623 57.2136C56.7944 56.5961 54.4108 57.4172 51.9551 57.7088C51.7915 57.7426 51.6393 57.8048 51.5095 57.8908C51.1514 58.0854 50.8647 58.3522 50.6784 58.6639C50.492 58.9756 50.4128 59.3205 50.4487 59.6643C50.4589 59.9866 50.6092 60.2956 50.8741 60.5392C51.1389 60.7829 51.5018 60.9464 51.901 61.0012C52.8467 61.1753 53.7923 61.3498 54.7468 61.5977C57.2543 62.0602 59.8028 62.4346 62.2836 62.9878C67.2989 64.4355 72.1955 66.1331 76.943 68.0696C80.5027 69.3263 83.9789 70.7118 87.4941 72.0687C88.2959 72.373 89.085 72.7226 89.8775 73.0607C89.1374 73.1044 88.3934 73.0449 87.6792 72.8835C87.1354 72.7458 86.5651 72.6852 85.9948 72.7047C84.008 72.8677 82.0001 72.6978 80.1002 72.2063C77.4191 71.6916 74.7984 70.995 72.2665 70.1248C69.5105 69.2203 66.9103 68.0923 64.2127 67.0903C62.0873 66.3019 59.9717 65.4797 57.7952 64.8141C55.1382 63.9587 52.3967 63.2805 49.5987 62.7859C45.5238 62.1061 41.5541 61.0139 37.405 60.5366C33.2559 60.0599 29.6014 59.0257 25.5443 59.0099C24.4099 59.0167 23.2878 58.7736 22.148 58.6955C20.6682 58.5452 19.1783 58.4672 17.6866 58.4609C16.9102 58.5036 16.1866 58.7889 15.6743 59.2551C15.1621 59.7208 14.9028 60.3293 14.9534 60.9469C14.9788 61.7712 15.2973 62.5728 15.8722 63.2594C16.4471 63.9456 17.2547 64.4882 18.2015 64.8242C22.2151 66.1742 26.4479 67.0681 30.775 67.4795C34.7819 67.9784 38.822 68.3634 42.8488 68.7937L53.7199 69.9344C54.3217 70.0452 54.9379 70.1591 55.5596 70.2018C55.5371 70.3015 55.5082 70.4001 55.4732 70.4976C54.2081 70.5984 52.9362 70.6363 51.6651 70.6121C47.5068 70.3732 43.3664 70.7988 39.182 70.3389C35.466 69.9297 31.7152 70.0546 27.8921 69.8057C24.069 69.5568 20.7365 69.3865 17.1572 69.0268C13.1185 68.7019 9.06099 68.5469 5.00178 68.5617C4.37691 68.5759 3.75661 68.6513 3.15481 68.7858C2.35978 69.0231 1.6536 69.417 1.10233 69.9307C0.551131 70.4444 0.172891 71.0609 0.00315393 71.7227C-0.04623 73.1224 0.59218 74.4819 1.78278 75.513C2.97344 76.544 4.62254 77.1657 6.38005 77.2459C9.74488 77.2538 13.1175 77.1315 16.4628 76.8957C22.3341 76.4897 28.1769 75.9222 34.0362 75.4539C36.8821 75.2224 39.729 75.0388 42.5758 74.8553C43.0286 74.8363 43.4823 74.8363 43.9352 74.8543L43.9744 75.1855L38.8443 76.2086C35.3331 76.8578 31.8021 77.4194 28.336 78.173C25.4101 78.8344 22.5547 79.6165 19.7257 80.464C16.1375 81.4021 12.8398 82.9342 10.0496 84.9593C9.58082 85.2799 9.22134 85.6897 9.00436 86.1501C8.78738 86.6105 8.71994 87.1073 8.80833 87.594C8.89666 88.0808 9.13798 88.5417 9.5098 88.9346C9.88169 89.328 10.3722 89.6397 10.9359 89.8422C13.0325 90.6148 15.3662 90.8864 17.6534 90.6249C19.7518 90.3722 21.7793 89.8317 23.6454 89.028C26.5422 87.8451 29.605 86.9211 32.5402 85.8653C37.9242 83.8681 43.3291 81.8509 48.6328 79.7673C52.7819 78.2136 57.1683 77.0967 61.6808 76.4459C62.2292 76.3736 62.7823 76.3272 63.3367 76.3072L55.6406 80.2794C54.5925 80.8183 53.5224 81.3294 52.4489 81.852L41.5247 87.2101L31.8704 91.89C31.395 92.0962 31.0032 92.4058 30.7408 92.7829C30.4785 93.1599 30.3565 93.5882 30.389 94.0185C30.4528 94.9905 31.3893 95.4034 32.3978 95.6734C34.8594 96.3136 37.499 96.3838 40.009 95.8764C42.913 95.358 45.6779 94.4325 48.1745 93.1436C50.3563 92.0604 52.4563 90.8759 54.4636 89.5965C56.3417 88.3339 58.0824 86.8177 60.0179 85.5658C62.6815 83.8354 65.5164 82.2449 68.2141 80.6048C68.5456 80.4603 68.8978 80.3479 69.2632 80.2699C69.2048 80.5858 69.0025 80.8732 68.6948 81.0778C65.1199 83.4262 62.0237 86.2012 59.5167 89.3038C56.9247 92.4533 54.0344 95.4408 50.8708 98.2401C50.0291 99.0929 49.0553 99.8571 47.9726 100.516C47.5568 100.856 47.2619 101.278 47.1175 101.739C47.0618 101.832 47.03 101.933 47.0242 102.036C47.0183 102.139 47.0385 102.242 47.0835 102.339C47.1285 102.435 47.1974 102.524 47.2861 102.599C47.3748 102.674 47.4816 102.734 47.6001 102.777C48.4573 103.276 49.4534 103.605 50.5038 103.733C51.5543 103.862 52.6284 103.788 53.6352 103.518C55.198 103.06 56.6382 102.372 57.8804 101.49C59.9384 100.129 62.2266 98.8577 62.8771 96.5763C62.9037 96.485 63.0237 96.4349 63.0787 96.349C64.2313 94.8322 65.2817 93.2491 66.5496 91.8014C69.6014 88.22 73.2612 84.9914 77.4251 82.208C79.2838 81.0135 81.518 80.2366 83.5041 79.174C85.7435 78.0248 88.4186 77.5365 91.0638 77.7944C94.4114 78.0159 97.733 78.4842 101.059 78.8818C103.556 79.174 106.023 79.569 108.516 79.8248C111.372 80.1233 114.249 80.3057 117.112 80.5336C116.634 80.6912 116.128 80.7846 115.612 80.8094C111.23 81.13 106.844 81.4137 102.481 81.7734C100.892 81.9116 99.3146 82.1304 97.7602 82.4279C96.168 82.7106 94.6932 83.1594 93.1375 83.4726C91.152 83.8998 89.2999 84.6513 87.7004 85.6797C86.1009 86.7075 84.7879 87.9901 83.8462 89.4441C83.5326 89.9314 83.3137 90.454 83.1977 90.9935C83.0239 91.5762 83.1022 92.189 83.4212 92.7317C83.7395 93.2744 84.2799 93.7153 84.9537 93.9832C86.2514 94.451 87.2103 93.9072 88.1911 93.2354C88.9066 92.7185 89.723 92.2971 90.6089 91.9881C93.2946 91.1148 96.0208 90.309 98.7476 89.5026C101.74 88.6134 104.768 87.7554 107.76 86.8663C109.579 86.3252 111.353 85.6797 113.198 85.2035C114.369 84.7921 115.65 84.616 116.926 84.6903L114.731 85.4861C113.042 86.0989 111.357 86.7012 109.662 87.3367C107.134 88.2875 104.723 89.4641 102.12 90.2088C99.5169 90.9534 97.1567 91.6949 94.658 92.651C91.7734 93.8054 89.4179 95.6523 87.9245 97.9295C87.5127 98.5349 87.3934 99.239 87.589 99.9093C87.7548 100.463 88.0678 100.982 88.5074 101.432C88.9464 101.882 89.5015 102.251 90.1354 102.516C91.6447 103.347 92.034 103.359 93.5035 102.513C94.7018 101.822 95.8165 101.054 97.0102 100.326C99.4399 98.8287 102.018 97.4427 104.36 95.8337C106.747 94.0802 109.271 92.448 111.916 90.9466C114.687 89.3681 117.689 88.0629 120.855 87.0598C124.166 86.0615 127.601 85.3142 131.021 84.5638C132.724 84.2405 134.446 83.9847 136.181 83.7985C136.69 83.7374 137.203 83.7078 137.717 83.7094C140.06 83.8038 142.381 84.115 144.634 84.6371C147.815 85.2235 151.043 85.6507 154.237 86.1917C157.431 86.7328 160.24 87.2992 163.235 87.8514C164.396 88.0655 165.544 88.3735 166.685 88.6562C168.167 89.1366 169.701 89.5079 171.268 89.7658C174.905 90.136 178.046 91.688 181.564 92.313C181.564 92.313 181.564 92.313 181.624 92.468C181.478 92.5065 181.328 92.5355 181.176 92.5535C178.944 92.5983 176.717 92.6199 174.493 92.69C173.516 92.7259 172.564 92.9347 171.601 92.9247C169.538 92.9047 167.485 92.6943 165.435 92.7365C161.085 92.7312 156.743 93.0191 152.455 93.5966C149.937 93.9969 147.398 94.3692 144.841 94.5939C143.251 94.75 141.713 95.1423 140.306 95.7509C138.987 96.2878 137.678 96.8389 136.389 97.4301C135.73 97.7043 135.122 98.0487 134.58 98.4532C134.197 98.7353 133.915 99.0939 133.764 99.4916C133.612 99.8892 133.597 100.312 133.719 100.716C133.841 101.12 134.096 101.491 134.458 101.79C134.82 102.09 135.276 102.308 135.779 102.421C137.202 102.745 138.671 102.927 140.151 102.963C142.494 102.91 144.805 102.523 146.976 101.82C150.085 101.049 153.16 100.187 156.157 99.1789C158.743 98.2908 161.461 97.67 164.245 97.332C168.012 96.8479 171.822 96.6148 175.637 96.6353C176.722 96.6432 177.802 96.6142 178.891 96.6111C177.749 97.0583 176.549 97.4048 175.313 97.6442C172.444 98.3161 169.577 98.8798 166.742 99.5939C164.194 100.253 161.65 100.948 159.182 101.802C156.713 102.655 154.517 103.715 152.12 104.582C149.999 105.387 148.017 106.405 146.223 107.613C145.905 107.804 145.617 108.025 145.367 108.272C145.016 108.637 144.816 109.079 144.796 109.538C144.776 109.997 144.936 110.449 145.254 110.833C145.844 111.71 146.745 111.624 147.622 111.462C149.634 111.089 151.642 110.726 153.603 110.164C156.406 109.407 159.14 108.471 161.884 107.656C163.813 107.099 165.802 106.649 167.749 106.132C169.697 105.614 171.724 104.98 173.747 104.464C177.274 103.554 180.865 102.787 184.357 101.786C189.373 100.256 194.654 99.3471 200.016 99.0903C202.189 99.0497 204.348 99.3703 206.356 100.032C209.718 101.084 213.121 102.048 216.514 103.046C216.844 103.107 217.126 103.279 217.424 103.394C216.375 103.474 215.32 103.492 214.268 103.448C209.021 103.681 203.749 103.273 198.564 104.226C196.456 104.618 194.248 104.631 192.146 105.108C186.375 106.401 180.724 108.01 175.234 109.926C174.531 110.227 173.953 110.684 173.568 111.24C173.394 111.442 173.28 111.673 173.233 111.915C173.187 112.157 173.209 112.404 173.299 112.638C173.389 112.873 173.543 113.088 173.751 113.269C173.959 113.449 174.215 113.59 174.501 113.682C175.658 114.201 177.001 114.394 178.313 114.229C181.609 113.696 184.954 113.304 188.239 112.757C193.178 111.927 198.077 110.969 202.984 110.145C203.337 110.11 203.694 110.1 204.049 110.113C201.561 111.504 199.021 112.704 196.459 113.877C195.046 114.529 193.509 115.038 192.151 115.76C191.202 116.324 190.335 116.969 189.566 117.685C187.977 118.934 186.793 120.471 186.115 122.164C185.665 123.45 186.159 124.19 187.784 124.261C189.409 124.332 191.265 124.231 193.013 124.193C193.171 124.222 193.335 124.072 193.495 124.041C195.749 123.493 197.846 122.599 199.668 121.409C203.547 119.243 207.242 116.874 211.04 114.621C212.345 113.804 213.721 113.062 215.16 112.403C217.776 111.3 220.474 110.333 223.227 109.28C223.251 109.199 223.193 108.985 223.183 108.707C226.572 107.855 229.976 107.21 233.534 108.214C232.862 108.413 232.177 108.584 231.483 108.725C228.406 109.694 225.363 110.706 222.331 111.732C221.533 111.995 220.782 112.341 220.098 112.761C219.793 112.914 219.542 113.125 219.367 113.376C219.191 113.626 219.098 113.908 219.096 114.195C219.093 114.481 219.182 114.764 219.353 115.016C219.524 115.268 219.772 115.483 220.074 115.639C220.51 115.93 221.003 116.163 221.534 116.328C222.326 116.59 223.144 116.797 223.981 116.948C224.743 117.118 225.536 117.183 226.326 117.14C228.776 116.882 231.158 116.307 233.375 115.438C236.995 113.972 240.8 112.814 244.726 111.983C245.176 111.936 245.594 111.773 245.918 111.519C246.545 110.819 247.245 111.007 248.045 111.215C250.273 111.806 252.512 112.363 254.747 112.932C256.226 113.288 257.594 113.888 258.763 114.693C255 114.755 251.502 114.998 248.012 115.316C244.522 115.633 240.735 115.883 237.165 116.269C234.845 116.59 232.633 117.285 230.664 118.312C230.13 118.501 229.691 118.828 229.42 119.241C229.149 119.653 229.062 120.126 229.172 120.583C229.279 121.08 229.544 121.547 229.942 121.94C230.34 122.333 230.858 122.639 231.446 122.827C233.233 123.439 235.211 123.607 237.119 123.309C240.518 122.736 243.899 122.014 247.3 121.381C249.745 120.919 252.117 120.396 254.647 120.058C259.525 119.558 264.437 119.297 269.355 119.276C270.356 119.18 271.369 119.188 272.367 119.303C274.932 119.776 277.497 120.25 279.995 120.95C282.147 121.562 284.255 122.268 286.31 123.064C287.679 123.545 288.588 123.484 289.394 121.807C290.413 119.762 289.231 118.067 288.346 116.391L286.341 116.381C285.503 116.264 284.643 116.286 283.816 116.443C283.048 116.731 282.172 116.779 281.361 116.579C278.768 115.993 276.189 115.361 273.59 114.798C269.837 113.998 266.016 113.329 262.293 112.426C259.682 111.8 257.165 110.904 254.615 110.121C254.271 110.058 253.999 109.852 253.419 109.612L257.195 108.784C258.903 108.414 260.602 107.971 262.327 107.701C265.175 107.254 268.022 106.554 270.967 107.277C271.289 107.368 271.638 107.38 271.969 107.31C272.299 107.24 272.595 107.092 272.817 106.886C273.892 106.003 274.522 104.838 274.588 103.61C274.783 102.217 274.286 101.693 272.509 101.521C271.04 101.383 269.664 101.441 268.252 101.313C264.994 101.201 261.757 100.837 258.588 100.227C258.319 100.15 258.031 100.125 257.748 100.156C256.716 100.288 255.66 100.2 254.686 99.8998C253.712 99.6002 252.856 99.0992 252.206 98.4495C248.911 95.5184 246.216 92.1933 244.223 88.5955C242.957 86.6205 241.609 84.6671 240.173 82.757C238.737 80.8468 237.161 79.1033 235.741 77.2443C234.311 75.3083 232.396 73.6265 230.115 72.3039C229.524 71.9484 228.839 71.7058 228.113 71.5946C227.386 71.4833 226.637 71.507 225.923 71.6631C224.789 71.8741 224.508 72.2185 224.709 73.1324C225.076 74.6206 225.906 76.0119 227.123 77.18C228.723 78.7837 230.102 80.5272 231.721 82.1225C233.964 84.3734 236.653 86.3347 238.396 88.9014C238.89 89.6413 239.497 90.3053 239.973 91.0536L239.667 91.2735C239.235 91.0953 238.826 90.8833 238.448 90.6401C237.558 89.9999 236.713 89.3228 235.913 88.6119C234.283 87.1104 232.736 85.5278 231.129 83.9947C229.523 82.4616 227.954 81.0077 226.395 79.5194C223.617 76.9295 220.863 74.3079 218.089 71.7554C217.526 71.2433 216.821 70.842 216.031 70.5831C215.734 70.4649 215.402 70.4159 215.071 70.4412C214.742 70.4665 214.427 70.5651 214.164 70.726C213.902 70.8868 213.701 71.1031 213.586 71.3504C213.471 71.5977 213.445 71.8656 213.512 72.1241C213.609 72.8909 213.837 73.644 214.189 74.3622C215.825 77.4695 218.033 80.3659 220.742 82.9558C223.739 86.1237 227.277 88.9425 231.255 91.331C233.621 92.6922 235.936 94.1277 238.257 95.5405C238.669 95.7847 239.032 96.0916 239.503 96.4428C237.399 96.3068 235.57 96.2097 233.761 96.0442C233.202 96.032 232.66 95.8859 232.207 95.6254C229.43 93.6003 226.717 91.5145 223.944 89.4783C222.069 88.0877 220.217 86.7255 218.204 85.3933C217.521 84.9756 216.749 84.6581 215.926 84.4567C215.63 84.3702 215.315 84.3364 215.001 84.3575C214.687 84.3792 214.384 84.4546 214.111 84.5796C213.838 84.7046 213.603 84.876 213.423 85.0811C213.242 85.2862 213.121 85.5204 213.067 85.7672C212.886 86.284 212.875 86.8293 213.035 87.3509C213.195 87.8725 213.52 88.3524 213.981 88.7453C215.533 89.9445 217.03 91.1812 218.541 92.4206C219.054 92.8889 219.536 93.3788 219.985 93.8877C218.619 93.8213 217.296 93.4864 216.132 92.9126C213.418 91.457 210.167 90.7688 206.903 90.9582C205.931 90.0463 204.921 89.0559 203.887 88.0966C201.927 86.4417 200.204 84.6175 198.754 82.6589C197.96 81.4438 196.994 80.3047 196.098 79.1307C194.816 77.4173 193.368 75.7571 192.276 73.9588C191.33 72.4036 189.91 71.0603 188.146 70.0509C187.826 69.8189 187.426 69.6681 186.997 69.6169C186.569 69.5658 186.131 69.6164 185.739 69.763C184.881 70.1665 184.205 70.775 183.808 71.5023C183.412 72.229 183.315 73.0375 183.531 73.8111C184.137 74.9856 184.868 76.1168 185.716 77.1921C186.817 78.596 187.961 79.8517 189.202 81.1854C188.646 80.9834 188.155 80.6833 187.767 80.3084C184.993 77.3946 182.216 74.541 179.432 71.6621C177.312 69.4577 175.185 67.2765 172.983 65.0931C172.43 64.5795 171.738 64.1729 170.959 63.9028C170.702 63.7953 170.414 63.743 170.124 63.7515C169.834 63.7599 169.552 63.829 169.305 63.9508C169.059 64.0732 168.857 64.2446 168.72 64.4481C168.583 64.6517 168.514 64.8801 168.523 65.1111C168.476 65.4755 168.522 65.8436 168.66 66.1932C169.06 67.3334 169.545 68.453 170.113 69.5468C172.283 73.2758 175.153 76.7201 178.625 79.7625C182.288 83.0444 186.507 85.9238 190.515 88.9562C191.748 89.9045 193.127 90.8189 194.428 91.7434C193.007 91.3806 191.624 90.9286 190.293 90.3923C189.35 90.0505 188.325 89.8375 187.428 89.4441C184.028 87.9521 180.665 86.3832 177.265 84.8918C175.234 84.203 173.471 83.0945 172.162 81.6806C171.788 81.2882 171.369 80.9254 170.908 80.5968C170.044 79.9424 169.24 79.2399 168.5 78.4958C168.001 77.8445 167.569 77.1626 167.207 76.4559C166.626 75.6786 166.099 74.8754 165.629 74.0516C164.184 71.083 162.836 68.0965 161.412 65.1084C161.297 64.9064 161.168 64.7102 161.025 64.5204C160.031 62.7521 158.848 61.0086 158.055 59.1697C157.148 56.7706 155.715 54.5177 153.82 52.5163C152.87 51.6324 152.155 50.564 151.261 49.6427C150.651 48.9898 149.932 48.4012 149.266 47.7858C148.689 47.3001 147.945 46.9603 147.127 46.8093C146.309 46.6585 145.452 46.703 144.666 46.9374C143.966 47.0605 143.565 47.347 143.803 47.9793C143.89 48.2862 143.854 48.6069 143.702 48.8969C143.333 49.6822 143.368 50.5508 143.797 51.316C144.059 51.8687 144.32 52.4214 144.645 52.9619C146 55.5645 147.727 58.0347 149.792 60.323C153.229 63.6128 156.13 67.2343 158.426 71.102C158.32 71.1542 158.2 71.2043 158.091 71.2681C156.644 69.7045 155.145 68.1672 153.737 66.5745C152.033 64.6512 150.441 62.6524 148.74 60.7175C147.372 59.1443 145.962 57.6118 144.523 56.0734C141.905 52.9873 138.977 50.074 135.769 47.3618C134.746 46.5729 133.752 45.789 132.658 45.0349C132.164 44.7196 131.56 44.5338 130.928 44.5033C130.296 44.4728 129.667 44.5989 129.129 44.8644C128.651 45.1972 128.298 45.6286 128.11 46.1109C127.921 46.5932 127.904 47.1077 128.06 47.5975C128.494 48.7741 129.101 49.9058 129.871 50.969C132.085 53.5689 134.68 55.95 137.602 58.0627C140.867 60.5862 144.203 63.0749 147.469 65.6469C149.926 67.577 152.281 69.5484 154.555 71.5888C157.721 74.2615 161.1 76.7702 164.671 79.0981C165.101 79.4292 165.502 79.7842 165.87 80.1602C165.584 80.1001 165.304 80.0204 165.034 79.9218C161.184 77.5908 156.808 76.1833 152.607 74.4355C150.076 73.3803 147.537 72.2997 145.121 71.1094C141.922 69.3522 139.11 67.1863 136.798 64.6992C134.95 62.8576 133.034 61.0392 131.227 59.157C129.369 57.3639 127.765 55.4132 126.446 53.3395C125.253 51.2701 123.861 49.2603 122.661 47.2136C122.413 46.7796 122.038 46.3989 121.568 46.1032C121.097 45.8075 120.544 45.6056 119.955 45.514C119.631 45.4259 119.279 45.4305 118.959 45.527C118.638 45.6236 118.37 45.8061 118.201 46.043C117.557 46.6936 117.147 47.4709 117.014 48.292C116.88 49.1132 117.03 49.9475 117.445 50.7069C118.426 52.5548 119.528 54.3611 120.744 56.1183C121.575 57.1282 122.483 58.0975 123.461 59.0209C124.177 59.8257 124.873 60.6505 125.583 61.478C125.725 61.6684 125.855 61.8645 125.97 62.066C125.436 62.0006 124.931 61.8334 124.497 61.5776C121.715 59.9839 119.01 58.2842 116.149 56.8081C113.724 55.544 111.429 54.0404 108.455 53.5758C107.959 53.473 107.499 53.2858 107.104 53.0263C106.025 52.4251 105.155 51.6156 104.575 50.6747C103.29 48.7535 102.365 46.6936 101.828 44.5601C101.594 43.4964 101.599 42.3925 101.479 41.3017C101.211 39.815 101.334 38.3002 101.84 36.8533C101.953 36.4999 102.023 36.1389 102.049 35.775C102.359 33.9349 102.63 32.0756 103 30.2346C103.603 27.2357 104.735 24.2864 104.858 21.223C104.872 20.7268 104.809 20.2311 104.67 19.7472C104.468 18.9895 104.202 18.244 103.919 17.5073C103.683 16.8085 103.376 16.1257 103.004 15.4654C102.899 15.2768 102.74 15.1103 102.539 14.9789C102.34 14.8475 102.104 14.7549 101.851 14.7083C101.598 14.6616 101.335 14.6623 101.083 14.7103C100.831 14.7581 100.596 14.852 100.396 14.9844C99.0951 15.5267 97.9949 16.3311 97.2065 17.3172C96.4187 18.3034 95.9691 19.4367 95.9041 20.6041C95.8152 21.7886 95.8265 22.9915 95.666 24.1627C95.0433 28.7813 95.0466 33.4398 95.6759 38.0579C95.8232 39.1057 96.0599 40.1581 96.2681 41.2051C95.8039 40.9299 95.4167 40.5805 95.1328 40.1792C92.8715 36.978 91.0545 33.5909 89.7137 30.0776C88.9623 28.0355 88.0313 26.038 86.9272 24.0999C85.3854 21.7742 83.7514 19.4555 82.3847 17.102C81.5849 15.9986 80.4649 15.0633 79.118 14.3741C78.9761 14.2731 78.8057 14.2003 78.6214 14.1619C78.4363 14.1234 78.2434 14.1202 78.057 14.1527C77.8707 14.1851 77.6969 14.2522 77.5497 14.3485C77.4019 14.4448 77.2858 14.5674 77.2095 14.7065C75.9562 16.6729 74.7685 18.6753 75.931 20.955C76.2467 21.5894 76.6346 22.1996 77.0902 22.778C78.8051 24.8714 80.6293 26.901 82.2554 29.0382C83.2673 30.4878 84.1672 31.9851 84.9497 33.5218C87.4391 37.5194 90.5512 41.2522 94.2117 44.6324C94.981 45.4108 95.7224 46.1839 96.5453 46.9842C95.0201 46.571 93.5851 45.9701 92.2933 45.2033C89.5764 43.532 87.2687 41.4782 85.4842 39.1441C84.4198 37.7975 83.4994 36.3825 82.7315 34.9139C82.1499 33.7499 81.0896 32.7258 80.3588 31.6064C79.2195 29.8711 78.2281 28.0913 77.1028 26.3587C75.5272 23.9427 73.9874 21.5092 72.2453 19.1465C70.2592 16.3786 68.1106 13.7008 65.98 11.0143C64.8055 9.50081 63.3831 8.06166 62.1901 6.5087C60.773 4.63484 58.9525 2.97393 56.8115 1.60202C55.8571 1.01975 54.8189 0.529974 53.7188 0.142988C53.2591 -0.00610103 52.7531 -0.0395891 52.2688 0.0471639C51.7845 0.133917 51.3453 0.336692 51.0104 0.628119ZM243.759 104.841C241.814 103.377 239.836 101.932 237.895 100.457C237.678 100.217 237.511 99.9509 237.4 99.6693C238.2 99.721 238.8 99.7352 239.401 99.798C240.077 99.8929 240.747 100.016 241.407 100.168L256.531 103.498C256.278 103.595 256.014 103.671 255.741 103.724C252.362 104.23 248.994 104.702 245.637 105.235C245.308 105.306 244.961 105.307 244.631 105.238C244.301 105.169 244 105.032 243.759 104.841Z" fill="white"/>
<path d="M70.1194 50.5633C70.6797 50.5586 71.2421 50.4942 71.6705 50.9931C71.0398 51.5495 70.2334 51.3649 69.5584 51.3486C66.7593 51.3982 63.9615 51.1925 61.2214 50.7353C60.4316 50.6213 59.6231 50.6229 58.8344 50.7395C57.4136 50.8407 55.9816 50.7237 54.6167 50.3935C53.9146 50.2643 53.0549 50.1056 53.0539 49.2291C54.2862 49.4564 55.4038 49.6621 56.5358 49.8709C57.2067 49.97 57.8922 49.9911 58.5709 49.9342C61.1146 49.7549 63.547 50.3719 66.0265 50.5169C67.3979 50.5776 68.7639 50.5533 70.1194 50.5633ZM25.1819 72.5232C21.5932 72.558 18.0025 72.4963 14.4062 72.5052C12.4084 72.5211 10.4194 72.6107 8.42834 72.6033C7.42614 72.6228 6.41962 72.6054 5.41305 72.5875C5.1838 73.3738 5.74031 73.5368 6.38302 73.5589C7.29364 73.5948 8.20088 73.6423 9.11382 73.6185C11.4534 73.5695 13.7775 73.4698 16.1171 73.4213C19.4158 73.3454 22.7189 73.3058 26.0287 73.2441C27.1058 73.2267 28.1996 73.1518 29.2734 73.146C31.657 73.1534 34.0483 73.1861 36.4385 73.1708C36.904 73.118 37.3573 73.0115 37.784 72.8544L37.7414 72.5342C36.4714 72.3892 35.1927 72.298 33.9106 72.26C31.0077 72.3249 28.0925 72.4836 25.1819 72.5232ZM53.7188 0.142358C54.8203 0.518006 55.8618 0.996334 56.8215 1.56716C58.9629 2.94999 60.7804 4.62261 62.1902 6.50807C63.3832 8.06103 64.8056 9.50013 66.0199 11.0329C68.1505 13.7195 70.2958 16.4087 72.2819 19.1766C74.0093 21.5366 75.5637 23.9728 77.1394 26.3888C78.2647 28.1214 79.2554 29.9012 80.3954 31.6365C81.1261 32.7559 82.1865 33.78 82.7681 34.944C83.536 36.4125 84.4564 37.8275 85.5208 39.1742C87.3053 41.5083 89.613 43.562 92.3299 45.2333C93.5958 45.9693 94.9957 46.5474 96.4805 46.9476C95.7291 46.1604 94.9877 45.3873 94.1469 44.5957C90.5122 41.2238 87.422 37.5034 84.9498 33.5211C84.1123 31.9829 83.1567 30.4873 82.0884 29.0427C80.4617 26.9055 78.6374 24.8759 76.9225 22.7824C76.4676 22.2041 76.079 21.5939 75.7634 20.9595C74.6009 18.6797 75.7892 16.6773 77.0419 14.7109C77.1181 14.5719 77.2349 14.4492 77.3821 14.353C77.5293 14.2567 77.703 14.1896 77.8894 14.1572C78.0757 14.1247 78.2693 14.1278 78.4537 14.1663C78.6381 14.2048 78.8085 14.2776 78.9504 14.3785C80.2952 15.0536 81.4193 15.9729 82.2303 17.0608C83.6547 19.425 85.2316 21.7331 86.7728 24.0588C87.8769 25.9968 88.8079 27.9943 89.5593 30.0364C90.9114 33.5668 92.745 36.9691 95.0262 40.1828C95.31 40.5841 95.6966 40.9335 96.1615 41.2088C95.9533 40.1617 95.7165 39.1094 95.5693 38.0615C94.94 33.4319 94.94 28.7618 95.5693 24.1322C95.7298 22.961 95.7185 21.758 95.8067 20.5735C95.8724 19.4062 96.3213 18.2728 97.1098 17.2867C97.8982 16.3006 98.9977 15.4962 100.299 14.9539C100.498 14.8214 100.734 14.7276 100.986 14.6797C101.238 14.6318 101.501 14.6311 101.754 14.6777C102.007 14.7243 102.242 14.817 102.443 14.9484C102.643 15.0797 102.802 15.2463 102.908 15.4348C103.28 16.0951 103.585 16.7779 103.822 17.4768C104.105 18.2135 104.371 18.959 104.573 19.7167C104.712 20.2006 104.775 20.6962 104.762 21.1925C104.638 24.2558 103.506 27.2052 102.904 30.2041C102.533 32.045 102.262 33.9044 101.952 35.7445C101.926 36.1083 101.856 36.4694 101.744 36.8227C101.228 38.2986 101.112 39.8446 101.402 41.3589C101.522 42.4497 101.517 43.5535 101.75 44.6173C102.288 46.7507 103.213 48.8103 104.497 50.7316C105.077 51.6729 105.948 52.4819 107.028 53.0837C107.422 53.3431 107.882 53.5303 108.377 53.6327C111.352 54.0973 113.646 55.6013 116.072 56.8649C118.933 58.3416 121.638 60.0413 124.42 61.635C124.853 61.8903 125.359 62.058 125.893 62.1228C125.777 61.9214 125.648 61.7252 125.506 61.5353C124.796 60.7079 124.1 59.8831 123.383 59.0783C122.406 58.1549 121.499 57.1856 120.666 56.1756C119.45 54.4179 118.349 52.6117 117.367 50.7637C116.952 50.0048 116.804 49.17 116.937 48.3489C117.07 47.5278 117.48 46.7508 118.124 46.1001C118.293 45.8632 118.561 45.6808 118.881 45.5842C119.202 45.4876 119.554 45.483 119.879 45.5712C120.467 45.6627 121.02 45.8647 121.49 46.1603C121.961 46.456 122.336 46.8368 122.584 47.2709C123.777 49.3404 125.169 51.3502 126.369 53.3969C127.688 55.47 129.291 57.4213 131.151 59.2138C132.977 61.028 134.95 62.8569 136.799 64.6985C139.114 67.1872 141.931 69.3542 145.136 71.1114C147.545 72.3244 150.091 73.3823 152.621 74.4375C156.823 76.1852 161.242 77.6007 165.049 79.9238C165.318 80.0224 165.598 80.1021 165.885 80.1622C165.517 79.7862 165.116 79.4312 164.685 79.1C161.114 76.7722 157.735 74.2635 154.569 71.5908C152.295 69.5504 149.912 67.5738 147.484 65.6489C144.26 63.0848 140.924 60.5961 137.616 58.0647C134.689 55.952 132.089 53.5699 129.871 50.9684C129.102 49.9052 128.494 48.7734 128.06 47.5969C127.905 47.107 127.921 46.5926 128.11 46.1102C128.299 45.6279 128.651 45.1965 129.129 44.8637C129.667 44.5983 130.296 44.4721 130.928 44.5027C131.56 44.5332 132.165 44.7189 132.658 45.0343C133.765 45.7428 134.733 46.6178 135.769 47.3611C138.977 50.0734 141.905 52.9866 144.524 56.0728C145.963 57.6112 147.372 59.1437 148.74 60.7169C150.441 62.6518 152.033 64.6505 153.737 66.5739C155.145 68.1665 156.644 69.7038 158.091 71.2675C158.2 71.2037 158.32 71.1536 158.426 71.1014C156.13 67.2336 153.229 63.6121 149.792 60.3224C147.679 58.061 145.9 55.6135 144.49 53.0283C144.165 52.4882 143.903 51.9356 143.642 51.3829C143.212 50.6177 143.178 49.7491 143.547 48.9638C143.699 48.6738 143.734 48.3531 143.648 48.0457C143.416 47.3907 143.817 47.1044 144.51 47.0041C145.297 46.7697 146.153 46.7252 146.971 46.8761C147.789 47.027 148.534 47.3669 149.11 47.8526C149.776 48.4676 150.495 49.0566 151.105 49.7095C151.992 50.6535 152.708 51.722 153.664 52.5832C155.559 54.5846 156.993 56.837 157.9 59.2365C158.774 61.0544 159.885 62.7847 160.869 64.5873C161.012 64.7771 161.142 64.9733 161.256 65.1747C162.666 68.1607 164.043 71.1525 165.473 74.1185C165.944 74.9422 166.471 75.7449 167.052 76.5228C167.414 77.2295 167.845 77.9113 168.345 78.5627C169.084 79.3068 169.889 80.0087 170.752 80.6637C171.229 80.9854 171.666 81.3435 172.056 81.7327C173.365 83.1461 175.128 84.2551 177.159 84.9433C180.56 86.4353 183.922 88.0037 187.322 89.4956C188.219 89.8891 189.244 90.1021 190.187 90.4444C191.518 90.9802 192.901 91.4322 194.323 91.7955C193.079 90.8816 191.685 89.964 190.409 89.0083C186.401 85.9754 182.182 83.096 178.519 79.8146C175.047 76.7722 172.177 73.3274 170.008 69.5989C169.439 68.5051 168.954 67.385 168.555 66.2448C168.417 65.8951 168.37 65.527 168.417 65.1626C168.409 64.9322 168.477 64.7033 168.614 64.4997C168.751 64.2961 168.953 64.1247 169.2 64.0029C169.446 63.8806 169.728 63.812 170.019 63.8036C170.308 63.7951 170.596 63.8473 170.853 63.9549C171.632 64.2249 172.324 64.6316 172.877 65.1447C175.086 67.3053 177.196 69.5435 179.326 71.7137C182.1 74.6274 184.86 77.538 187.661 80.3599C188.049 80.7354 188.541 81.0355 189.096 81.237C187.97 79.9243 186.689 78.6196 185.61 77.2437C184.762 76.1684 184.031 75.0377 183.426 73.8627C183.209 73.089 183.306 72.2811 183.703 71.5539C184.1 70.8266 184.775 70.218 185.633 69.8151C186.025 69.6685 186.463 69.6173 186.891 69.6685C187.32 69.7202 187.72 69.871 188.04 70.1031C189.805 71.1119 191.224 72.4551 192.171 74.0109C193.262 75.8092 194.71 77.4694 195.992 79.1828C196.888 80.3568 197.854 81.4954 198.648 82.7104C200.099 84.6696 201.821 86.4933 203.781 88.1482C204.815 89.1075 205.825 90.0984 206.797 91.0103C210.062 90.8204 213.312 91.5092 216.026 92.9647C217.19 93.538 218.513 93.8734 219.879 93.9393C219.43 93.4304 218.948 92.941 218.435 92.4721C216.924 91.2328 215.428 89.9961 213.875 88.7974C213.396 88.4003 213.058 87.9098 212.892 87.3756C212.727 86.8414 212.742 86.2823 212.935 85.7539C212.989 85.5071 213.111 85.273 213.291 85.0678C213.471 84.8627 213.706 84.6918 213.979 84.5668C214.251 84.4418 214.555 84.3659 214.869 84.3448C215.182 84.3237 215.498 84.3574 215.794 84.4439C216.617 84.6454 217.389 84.9623 218.072 85.3805C220.027 86.7016 221.937 88.0749 223.812 89.465C226.585 91.5018 229.298 93.587 232.075 95.6121C232.528 95.8732 233.07 96.0192 233.629 96.0309C235.438 96.1964 237.267 96.2935 239.372 96.4295C238.872 96.0736 238.508 95.7661 238.124 95.5272C235.803 94.1144 233.489 92.6789 231.123 91.3177C227.145 88.9298 223.606 86.1104 220.61 82.9425C217.901 80.3526 215.692 77.4562 214.056 74.3489C213.704 73.6307 213.477 72.8781 213.38 72.1108C213.313 71.8529 213.338 71.5844 213.453 71.3371C213.569 71.0898 213.769 70.8736 214.032 70.7127C214.295 70.5518 214.609 70.4532 214.94 70.4279C215.27 70.4026 215.602 70.4516 215.898 70.5698C216.69 70.8292 217.394 71.2306 217.957 71.7421C220.788 74.3057 223.542 76.9273 226.263 79.5061C227.851 80.9996 229.452 82.4963 230.997 83.9819C232.542 85.4676 234.154 87.0855 235.781 88.5986C236.58 89.31 237.427 89.9872 238.315 90.6274C238.694 90.8705 239.103 91.0825 239.535 91.2602L239.84 91.0408C239.308 90.3299 238.74 89.637 238.263 88.8886C236.521 86.3214 233.831 84.3606 231.589 82.1098C229.985 80.5171 228.605 78.7736 226.99 77.1667C225.773 75.9991 224.944 74.6073 224.577 73.1191C224.375 72.2052 224.657 71.8613 225.79 71.6498C226.505 71.4937 227.254 71.4705 227.981 71.5818C228.708 71.6931 229.393 71.9357 229.983 72.2911C232.236 73.6191 234.125 75.2998 235.533 77.2295C236.968 79.0911 238.577 80.8768 239.966 82.7421C241.354 84.6074 242.883 86.6663 244.223 88.5949C246.245 92.1705 248.961 95.4713 252.272 98.3766C252.922 99.0269 253.778 99.5279 254.752 99.8274C255.727 100.127 256.783 100.216 257.814 100.084C258.097 100.053 258.386 100.077 258.654 100.154C261.823 100.765 265.06 101.129 268.318 101.24C269.788 101.379 271.164 101.321 272.576 101.449C274.353 101.621 274.849 102.145 274.654 103.537C274.588 104.765 273.958 105.931 272.884 106.814C272.661 107.02 272.365 107.167 272.034 107.238C271.704 107.307 271.355 107.296 271.033 107.205C268.088 106.481 265.242 107.181 262.394 107.629C260.669 107.899 258.969 108.342 257.261 108.712L253.486 109.54C254.065 109.779 254.351 109.94 254.681 110.049C257.232 110.832 259.748 111.728 262.359 112.354C266.082 113.256 269.904 113.925 273.656 114.725C276.255 115.289 278.834 115.921 281.426 116.507C281.846 116.635 282.293 116.695 282.741 116.685C283.19 116.675 283.631 116.595 284.041 116.449C284.868 116.29 285.728 116.269 286.566 116.386L288.571 116.395C289.456 118.072 290.61 119.762 289.619 121.812C288.829 123.432 287.89 123.547 286.535 123.069C284.48 122.272 282.372 121.567 280.22 120.955C277.712 120.288 275.156 119.781 272.592 119.308C271.594 119.193 270.581 119.184 269.58 119.281C264.596 119.295 259.618 119.556 254.675 120.062C252.203 120.411 249.774 120.923 247.329 121.385C243.945 121.962 240.553 122.718 237.148 123.314C235.22 123.618 233.22 123.446 231.418 122.821C230.83 122.633 230.312 122.327 229.914 121.934C229.516 121.541 229.251 121.074 229.143 120.577C229.033 120.12 229.121 119.647 229.391 119.235C229.663 118.822 230.101 118.495 230.636 118.307C232.604 117.279 234.816 116.584 237.135 116.263C240.763 115.888 244.412 115.648 247.983 115.31C251.555 114.972 254.986 114.752 258.734 114.687C257.566 113.882 256.197 113.282 254.719 112.926C252.483 112.357 250.245 111.8 248.016 111.209C247.2 111.058 246.517 110.813 245.89 111.513C245.565 111.767 245.147 111.93 244.697 111.978C240.781 112.811 236.986 113.971 233.375 115.437C231.163 116.298 228.789 116.866 226.347 117.119C225.557 117.162 224.764 117.097 224.002 116.927C223.166 116.776 222.347 116.569 221.555 116.307C221.024 116.143 220.531 115.91 220.095 115.618C219.793 115.462 219.545 115.248 219.374 114.995C219.203 114.743 219.115 114.46 219.117 114.174C219.119 113.887 219.212 113.606 219.387 113.355C219.563 113.105 219.814 112.893 220.119 112.74C220.812 112.316 221.574 111.968 222.384 111.705C225.416 110.679 228.46 109.668 231.535 108.698C232.23 108.557 232.915 108.386 233.587 108.187C230.023 107.206 226.619 107.851 223.236 108.68C223.245 108.958 223.275 109.168 223.28 109.253C220.527 110.306 217.829 111.273 215.213 112.376C213.774 113.035 212.398 113.777 211.093 114.594C207.295 116.847 203.599 119.216 199.721 121.382C197.9 122.572 195.802 123.466 193.548 124.014C193.388 124.045 193.234 124.16 193.066 124.166C191.319 124.204 189.566 124.313 187.837 124.234C186.108 124.155 185.737 123.462 186.116 122.163C186.791 120.461 187.977 118.916 189.572 117.662C190.342 116.946 191.208 116.3 192.157 115.737C193.516 115.014 195.053 114.505 196.466 113.853C199.028 112.681 201.567 111.48 204.056 110.09C203.701 110.076 203.344 110.087 202.99 110.121C198.071 110.991 193.181 111.915 188.246 112.734C184.948 113.326 181.615 113.672 178.32 114.205C177.008 114.37 175.664 114.177 174.508 113.658C174.226 113.567 173.973 113.427 173.767 113.248C173.562 113.069 173.408 112.857 173.318 112.626C173.229 112.394 173.204 112.15 173.247 111.91C173.29 111.67 173.4 111.441 173.568 111.239C173.953 110.683 174.531 110.227 175.234 109.926C180.724 108.01 186.375 106.4 192.146 105.107C194.235 104.676 196.457 104.618 198.564 104.226C203.749 103.273 209.034 103.635 214.268 103.447C215.32 103.492 216.375 103.474 217.424 103.394C217.126 103.278 216.834 103.14 216.514 103.045C213.121 102.047 209.718 101.083 206.356 100.031C204.348 99.3697 202.189 99.049 200.016 99.0896C194.654 99.3465 189.373 100.256 184.358 101.786C180.865 102.787 177.274 103.553 173.747 104.464C171.724 104.979 169.75 105.587 167.749 106.131C165.749 106.675 163.813 107.098 161.884 107.655C159.083 108.459 156.348 109.396 153.603 110.163C151.652 110.691 149.644 111.054 147.622 111.461C146.745 111.624 145.844 111.71 145.254 110.832C144.936 110.449 144.776 109.996 144.796 109.537C144.817 109.079 145.016 108.636 145.367 108.271C145.617 108.024 145.905 107.803 146.223 107.613C148.017 106.405 149.999 105.386 152.12 104.582C154.517 103.715 156.77 102.617 159.182 101.801C161.595 100.986 164.165 100.247 166.741 99.5933C169.567 98.9135 172.464 98.2469 175.313 97.6436C176.549 97.4041 177.749 97.0576 178.891 96.6104C177.802 96.6136 176.722 96.6426 175.637 96.6347C171.822 96.6141 168.012 96.8472 164.245 97.3314C161.461 97.6694 158.743 98.2901 156.157 99.1782C153.16 100.187 150.085 101.048 146.976 101.82C144.805 102.522 142.494 102.909 140.151 102.962C138.671 102.927 137.202 102.745 135.779 102.42C135.276 102.307 134.82 102.089 134.458 101.79C134.096 101.49 133.841 101.119 133.719 100.716C133.597 100.312 133.612 99.8886 133.764 99.491C133.915 99.0933 134.197 98.7347 134.58 98.4525C135.122 98.048 135.73 97.7037 136.389 97.4294C137.679 96.8383 138.986 96.2872 140.306 95.7503C141.713 95.1417 143.252 94.7493 144.841 94.5932C147.392 94.3913 149.931 94.0189 152.455 93.596C156.725 93.0375 161.048 92.7659 165.375 92.7849C167.426 92.7427 169.478 92.9531 171.541 92.9731C172.505 92.9826 173.456 92.7743 174.433 92.7379C176.658 92.6683 178.884 92.6467 181.117 92.6019C181.269 92.5834 181.419 92.5549 181.564 92.5164C181.588 92.4368 181.533 92.3667 181.504 92.3614C177.993 91.7138 174.846 90.1844 171.209 89.8142C169.642 89.5563 168.107 89.185 166.625 88.7046C165.485 88.4219 164.333 88.1255 163.176 87.8998C160.181 87.3476 157.172 86.7928 154.177 86.2402C151.183 85.688 147.762 85.2492 144.575 84.6855C142.322 84.1634 140.001 83.8522 137.657 83.7578C137.143 83.7562 136.63 83.7858 136.122 83.8469C134.374 84.0257 132.638 84.2746 130.921 84.5926C127.558 85.3051 124.166 86.0609 120.855 87.0592C117.647 88.0232 114.598 89.2958 111.778 90.8489C109.133 92.3498 106.61 93.982 104.223 95.7355C101.924 97.353 99.3452 98.7384 96.873 100.228C95.6787 100.956 94.5647 101.723 93.3664 102.415C91.8962 103.261 91.5003 103.272 89.9983 102.418C89.3643 102.153 88.8086 101.783 88.3696 101.334C87.9306 100.884 87.6176 100.365 87.4512 99.8111C87.2555 99.1408 87.3756 98.4367 87.7874 97.8313C89.2801 95.5541 91.6356 93.7072 94.5209 92.5528C96.9592 91.6457 99.4294 90.8404 101.983 90.1106C104.536 89.3807 107.069 88.203 109.524 87.239C111.219 86.603 112.905 86.0013 114.593 85.3879L116.788 84.5921C115.512 84.5178 114.232 84.6939 113.06 85.1053C111.215 85.5815 109.441 86.227 107.623 86.7681C104.63 87.6572 101.602 88.5153 98.6098 89.4044C95.883 90.2108 93.1568 91.0166 90.4711 91.8899C89.5858 92.199 88.7695 92.6203 88.054 93.1377C87.1017 93.8143 86.1859 94.3659 84.8158 93.885C84.1421 93.6176 83.6023 93.1762 83.2833 92.6335C82.965 92.0908 82.8861 91.4786 83.0605 90.8958C83.1759 90.3558 83.3947 89.8332 83.7084 89.3459C84.6501 87.8919 85.9631 86.6098 87.5626 85.5815C89.1627 84.5531 91.0142 83.8016 92.9996 83.3744C94.5985 83.0691 96.0733 82.6203 97.623 82.3297C99.1774 82.0322 100.754 81.8139 102.343 81.6757C106.717 81.2813 111.093 81.0318 115.474 80.7112C115.99 80.6864 116.497 80.593 116.974 80.4354C114.111 80.2075 111.235 80.0251 108.378 79.7266C105.886 79.4708 103.419 79.0758 100.922 78.7836C97.5952 78.386 94.2742 77.9177 90.926 77.6967C88.2807 77.4383 85.6057 77.9266 83.3669 79.0763C81.3808 80.139 79.1314 80.9126 77.2879 82.1098C73.1088 84.889 69.4344 88.115 66.3687 91.6958C65.1014 93.143 63.9787 94.7129 62.8985 96.2429C62.8719 96.3341 62.7227 96.3789 62.6962 96.4701C62.0317 98.7489 59.7578 100.023 57.6998 101.384C56.4576 102.267 55.0174 102.954 53.4546 103.411C52.4478 103.682 51.3737 103.756 50.3232 103.628C49.2728 103.498 48.2768 103.17 47.4196 102.67C47.301 102.629 47.1942 102.568 47.1055 102.493C47.0168 102.418 46.9479 102.329 46.9029 102.233C46.8579 102.136 46.8378 102.033 46.8436 101.93C46.8495 101.827 46.8812 101.726 46.937 101.633C47.0892 101.198 47.3763 100.801 47.772 100.478C48.8548 99.8195 49.8285 99.0548 50.6703 98.2026C53.8338 95.4027 56.7242 92.4157 59.3161 89.2662C61.8229 86.1637 64.919 83.3886 68.4947 81.0403C68.8024 80.8356 69.0046 80.5482 69.0623 80.2323C68.6969 80.3104 68.3448 80.4227 68.0133 80.5672C65.2725 82.1994 62.5384 83.8084 59.8174 85.5282C57.9392 86.7907 56.1985 88.3069 54.2631 89.5589C52.2558 90.8383 50.1558 92.0228 47.974 93.106C45.4774 94.3949 42.7125 95.32 39.8085 95.8389C37.2985 96.3462 34.6588 96.2761 32.1972 95.6358C31.1955 95.3432 30.2523 94.9529 30.1886 93.9804C30.156 93.5506 30.278 93.1224 30.5403 92.7453C30.8026 92.3682 31.1944 92.0587 31.6699 91.8525L41.2955 87.1673L52.2197 81.8092C53.2932 81.2865 54.3633 80.7755 55.4114 80.2365L63.0928 76.2132C62.5377 76.2332 61.9847 76.2797 61.4362 76.3524C56.9238 77.0032 52.5374 78.1197 48.3883 79.6733C43.0747 81.7918 37.6796 83.7747 32.2957 85.7713C29.3472 86.873 26.2843 87.797 23.4009 88.934C21.5394 89.7377 19.5169 90.2788 17.4231 90.5335C15.136 90.7956 12.8023 90.5235 10.7057 89.7509C10.142 89.5484 9.6515 89.2367 9.27961 88.8438C8.90772 88.4509 8.66647 87.9895 8.57807 87.5027C8.48974 87.0159 8.55719 86.5197 8.77416 86.0587C8.99108 85.5984 9.35063 85.1891 9.8194 84.8679C12.6096 82.8433 15.9072 81.3113 19.4955 80.3726C22.5735 79.6554 25.4455 78.8163 28.3217 78.1698C31.7879 77.4161 35.3188 76.8545 38.83 76.2053L43.9999 75.2017L43.9606 74.87C43.5078 74.8521 43.054 74.8526 42.6013 74.8716C39.7544 75.0551 36.9075 75.2386 34.0617 75.4701C28.2024 75.9384 22.3596 76.5059 16.4883 76.912C13.143 77.1477 9.77026 77.2701 6.4055 77.2616C4.63976 77.1867 2.98105 76.565 1.78449 75.5297C0.587919 74.4945 -0.0514723 73.1275 0.0032433 71.7221C0.16739 71.0623 0.538449 70.4469 1.08189 69.9322C1.6254 69.4169 2.32368 69.0198 3.11189 68.7772C3.71369 68.6428 4.33399 68.5673 4.95886 68.5531C9.02609 68.5468 13.0909 68.7113 17.1363 69.0462C20.7022 69.4518 24.2851 69.6442 27.8712 69.8251C31.4573 70.0065 35.3878 69.9385 39.1611 70.3583C43.3455 70.8182 47.4859 70.3931 51.6442 70.6315C52.9398 70.6468 54.2352 70.5972 55.5229 70.4822C55.5579 70.3847 55.5868 70.286 55.6093 70.1859C55.0075 70.0751 54.3914 69.9612 53.7696 69.919L42.8985 68.7783C38.8717 68.348 34.8316 67.963 30.8247 67.4641C26.4976 67.0527 22.2648 66.1588 18.2512 64.8087C17.3044 64.4728 16.4968 63.9301 15.9219 63.2435C15.3471 62.5574 15.0285 61.7558 15.0031 60.9315C14.9571 60.3229 15.2119 59.7238 15.7132 59.2618C16.2144 58.8004 16.9225 58.513 17.6866 58.4602C19.1784 58.4666 20.6683 58.5446 22.1481 58.6949C23.2879 58.773 24.4099 59.0161 25.5444 59.0092C29.6016 59.025 33.4289 60.1389 37.4051 60.536C41.3812 60.9331 45.5438 62.0374 49.5988 62.7852C52.3968 63.2799 55.1383 63.9581 57.7952 64.8135C59.9717 65.479 62.0874 66.3012 64.2128 67.0896C66.939 68.0969 69.5119 69.2677 72.2666 70.1242C74.7985 70.9943 77.4192 71.691 80.1003 72.2057C82.0002 72.6972 84.0081 72.867 85.9949 72.7041C86.5652 72.6846 87.1355 72.7452 87.6793 72.8828C88.3935 73.0442 89.1375 73.1038 89.8776 73.06C89.0851 72.722 88.296 72.3723 87.4943 72.068C83.979 70.7111 80.5028 69.3257 76.9431 68.069C72.1778 66.1646 67.2672 64.5013 62.2393 63.0874C59.7719 62.4883 57.2101 62.1598 54.7026 61.6973C53.7569 61.5227 52.8278 61.2912 51.8568 61.1003C51.4577 61.0454 51.0947 60.8825 50.8299 60.6388C50.5651 60.3952 50.4147 60.0856 50.4045 59.7639C50.3686 59.42 50.4479 59.0746 50.6342 58.7629C50.8205 58.4518 51.1073 58.1849 51.4653 57.9898C51.5952 57.9038 51.7473 57.8416 51.9109 57.8079C54.3666 57.5162 56.7645 56.6977 59.3181 57.3127C60.7313 57.6454 62.0981 57.8258 63.4615 58.1733C64.4409 58.4281 65.3488 58.832 66.1339 59.3626C67.2719 59.9696 68.494 60.469 69.7772 60.8508L81.5996 65.2533C83.668 66.0307 85.7946 66.7115 87.8013 67.5975C90.1064 68.599 92.2762 69.804 94.5395 70.8456C96.0282 71.5407 97.5852 72.1039 99.1078 72.7331C99.7159 72.9772 100.294 73.2763 100.912 73.4862C102.634 74.1037 104.387 74.6675 106.109 75.2856C109.324 76.2659 112.645 77.0111 116.03 77.5116C114.845 76.865 113.547 76.3624 112.176 76.0202C110.817 75.5049 109.424 75.1041 108.067 74.5778C105.697 73.6602 103.346 72.7141 101.013 71.7395C99.9473 71.3028 98.9341 70.7918 97.8996 70.3008C94.9546 68.9049 92.0301 67.4894 89.0752 66.1277C86.2874 64.813 83.7044 63.2403 81.3821 61.4425C79.8005 60.238 80.5108 59.2523 81.2502 57.9597C81.8317 56.9504 83.0433 56.7294 84.6792 57.127C86.8537 57.7114 88.9094 58.5436 90.7834 59.5978L99.3107 64.0646C99.5216 63.86 99.7113 63.6422 99.8777 63.4128C99.9944 63.1111 100.235 62.8496 100.561 62.6703C100.888 62.4904 101.28 62.4039 101.676 62.4234C103.728 62.4182 105.778 62.5115 107.815 62.7035C112.23 63.3005 116.519 64.3826 120.558 65.9183C122.718 66.6234 124.922 67.2384 127.163 67.761C127.2 67.6355 127.15 67.4941 127.111 67.4752C122.279 65.8155 117.493 64.2118 112.624 62.4735C110.845 61.7463 109.119 60.9389 107.455 60.055C106.912 59.7987 106.409 59.5018 105.889 59.2138C105.363 58.9829 104.914 58.6543 104.581 58.2567C104.247 57.8585 104.04 57.4028 103.974 56.9272C103.952 56.6566 103.831 56.3966 103.626 56.1793C103.422 55.9626 103.141 55.798 102.82 55.7058C100.738 54.9026 98.4705 54.4474 96.1588 54.3694C92.1813 54.0799 88.1601 54.0946 84.1839 54.0097C82.1242 53.9781 80.0744 54.0683 78.0054 54.0709C75.4464 54.0435 72.8747 54.0614 70.3369 53.8573C66.2957 53.5804 62.2565 53.244 58.2263 52.8247C55.1717 52.4772 52.1527 51.9567 49.1337 51.4356C48.0334 51.1951 46.9652 50.8692 45.9445 50.4631C45.6335 50.3614 45.3579 50.2016 45.1408 49.9969C44.9236 49.7928 44.7712 49.5503 44.6964 49.2892C44.6216 49.0282 44.6266 48.7571 44.7109 48.4981C44.7951 48.2392 44.9563 47.9998 45.1808 47.8009C45.5982 47.339 46.1506 46.9647 46.7904 46.7104C47.43 46.456 48.1379 46.3292 48.853 46.3407C50.8594 46.3985 52.8725 46.4336 54.8071 46.6343C59.7422 47.1602 64.7042 47.5953 69.5736 48.3969C74.443 49.199 79.0711 49.5365 83.8079 50.1219C84.7767 50.2258 85.7608 50.1958 86.7171 50.0339C85.095 49.4479 83.3775 49.0461 81.6142 48.8409C77.6022 48.1005 73.5657 47.4281 69.504 46.8233C67.4383 46.5023 65.3362 46.3067 63.2466 46.0173C61.4064 45.7501 59.5527 45.4802 57.7286 45.1077C55.4409 44.6842 53.1835 44.1636 50.9659 43.5482C48.3551 42.7665 45.8329 41.7849 43.2454 40.9234C42.2607 40.5516 41.4361 39.9567 40.8752 39.2134C39.9308 38.1026 40.3663 37.2823 41.8721 36.6234C42.6989 36.2592 43.6174 36.0462 44.5608 36C45.5042 35.9538 46.4487 36.0755 47.3254 36.3564L56.4098 38.8604C59.6476 39.7698 62.9131 40.6363 66.1638 41.6562C69.6306 42.7194 73.1877 43.5842 76.8091 44.244C81.4949 45.1082 86.2502 45.7331 90.6999 47.2504C91.3663 47.5056 92.0951 47.6401 92.8352 47.6438C91.812 47.0447 90.7304 46.5118 89.6004 46.0508C87.6289 45.4491 85.7675 44.6413 84.0645 43.6488C79.9358 41.1342 75.0724 39.7929 70.2301 38.4314C65.6962 37.1509 61.1425 35.9387 56.6461 34.5811C53.0656 33.5004 49.4874 32.3601 46.0373 31.0393C42.8267 29.9293 39.8453 28.4402 37.1937 26.6224C36.0725 25.8072 34.9733 24.968 33.8963 24.1049C33.6234 23.8664 33.4071 23.5905 33.258 23.2907C32.6651 22.2687 32.9725 21.629 34.2883 21.2592C35.0595 21.0143 35.8884 20.9055 36.7178 20.9403C37.547 20.975 38.357 21.1526 39.0915 21.4607C41.509 22.491 43.9117 23.5545 46.2996 24.6514C49.7626 26.2388 53.136 27.9777 56.6785 29.4476C59.3031 30.5441 62.1743 31.3138 64.927 32.2298L65.1843 31.917C64.5437 31.4677 63.8686 31.0504 63.1631 30.6676C59.2232 28.836 55.5467 26.6681 52.1985 24.2024C48.4649 21.4724 44.2687 19.1374 41.0075 15.9781C39.9343 14.9782 38.974 13.905 38.1377 12.771C37.6163 11.9504 37.3815 11.0335 37.4578 10.116C37.5341 9.19863 37.9187 8.31433 38.5715 7.55549C38.6934 7.2907 38.9005 7.05596 39.172 6.8746C39.4435 6.69323 39.7701 6.57157 40.119 6.52178C40.468 6.472 40.8273 6.49573 41.1612 6.59071C41.495 6.68569 41.7918 6.84855 42.0219 7.06308C43.902 8.38252 45.6839 9.7799 47.5607 11.1107C49.4375 12.4416 51.1549 13.4908 52.8731 14.7443C56.2147 17.1618 59.4967 19.6284 62.8209 22.0547C64.673 23.4171 66.5875 24.6708 68.4476 26.0586C69.8475 27.1093 71.1393 28.2721 72.4377 29.4122C73.3031 30.1722 74.1254 30.9244 75.0876 31.8704C74.9676 30.5079 74.2826 29.2158 73.1393 28.1967C70.6771 25.1969 68.2215 22.1743 65.7241 19.1919C64.8746 18.1706 63.8481 17.2369 63.0158 16.2068C60.2512 12.699 57.1884 9.34571 53.8484 6.17029C52.7379 5.01371 51.7964 3.7604 51.0422 2.43453C50.6703 1.89762 50.3549 1.16699 51.0502 0.64679C51.3791 0.358475 51.81 0.156017 52.2863 0.0659942C52.7626 -0.0240284 53.2619 0.00255078 53.7188 0.142358ZM212.481 104.967C212.464 105.024 212.444 105.093 212.499 105.163L213.515 105.098C213.515 105.098 213.545 104.995 213.562 104.938L212.481 104.967ZM203.609 108.362C206.597 107.797 209.585 107.183 212.565 106.592C213.046 106.5 213.518 106.383 213.986 106.278C213.888 106.18 213.765 106.101 213.625 106.046C213.484 105.991 213.329 105.961 213.173 105.959C211.223 106.02 209.272 106.08 207.334 106.203C205.568 106.289 203.809 106.446 202.063 106.672C199.147 107.095 196.258 107.631 193.367 108.118C189.663 108.756 185.911 109.145 182.474 110.576C181.967 110.699 181.44 110.759 180.911 110.756C181.356 110.156 182.022 109.68 182.819 109.391C185.852 108.465 188.99 107.778 192.191 107.337C194.647 106.889 197.156 106.62 199.604 106.303C201.34 106.046 203.075 105.742 204.799 105.472C204.914 105.493 205.021 105.333 205.122 105.243L207.065 105.469L209.647 105.105L209.819 105.136L209.948 105.161L211.414 105.311C211.402 105.21 211.396 105.109 211.397 105.007L210.006 105.171L209.848 105.142L209.705 105.115C208.947 105.072 208.219 105.034 207.451 105.024C207.351 105.006 207.229 105.319 207.122 105.48C206.566 104.849 205.877 104.986 205.18 105.254C204.821 105.145 204.445 105.076 204.062 105.047C202.363 105.179 200.661 105.321 198.974 105.514C196.436 105.826 193.895 106.151 191.374 106.514C186.465 107.371 181.685 108.644 177.115 110.308C176.487 110.546 175.895 110.839 175.35 111.184C174.885 111.434 174.275 111.766 174.646 112.254C174.786 112.413 174.97 112.545 175.182 112.64C175.395 112.735 175.631 112.791 175.874 112.806C179.007 112.952 182.149 112.679 185.169 111.998C186.358 111.701 187.551 111.392 188.769 111.149C192.208 110.47 195.651 109.813 199.098 109.176C200.582 108.801 202.138 108.644 203.609 108.362ZM221.089 106.411C218.211 107.01 215.456 107.934 212.906 109.152C211.809 109.729 210.672 110.257 209.5 110.734C206.022 112.194 202.742 113.935 199.711 115.929C198.777 116.489 197.987 117.232 197.069 117.843C195.72 118.795 194.344 119.574 192.964 120.425L192.528 120.056C194.124 118.417 196.493 117.437 198.249 115.971C200.175 114.543 202.258 113.255 204.475 112.124C206.591 110.978 208.882 110.007 211.089 108.962C211.016 108.911 210.928 108.876 210.833 108.858C210.738 108.841 210.639 108.842 210.545 108.861C207.121 110.247 203.717 111.564 200.286 112.973C197.25 114.322 194.303 115.784 191.46 117.349C189.689 118.447 188.299 119.884 187.419 121.527C187.279 121.903 187.196 122.291 187.172 122.682C187.698 122.863 188.261 122.966 188.834 122.989C191.167 122.807 193.623 122.671 195.495 121.48C197.368 120.288 199.444 118.606 201.388 117.115C202.772 116.049 204.096 114.925 205.504 113.875C207.933 112.208 210.672 110.85 213.624 109.849C214.013 109.705 214.536 109.465 214.595 109.211C214.808 108.483 215.471 108.281 216.151 108.07C217.211 107.749 218.301 107.482 219.436 107.163C220.07 107.051 220.646 106.789 221.089 106.411ZM221.333 104.955L216.116 104.929L216.123 105.267C217.857 105.274 219.578 105.796 221.333 104.955ZM234.438 109.774C233.92 109.876 233.393 109.951 232.862 109.999C229.003 110.564 225.301 111.67 221.929 113.266C221.331 113.599 220.771 113.974 220.258 114.387C222.792 115.431 224.999 116.15 227.426 115.385C230.751 114.341 234.105 113.194 237.334 112.061L242.132 110.472C240.974 109.948 239.698 109.613 238.376 109.487C237.054 109.361 235.714 109.446 234.434 109.737L234.438 109.774ZM264.762 117.215L261.873 117.283C259.299 117.36 256.727 117.378 254.175 117.532C252.116 117.657 250.089 117.98 248.04 118.118C247.548 118.229 247.03 118.245 246.528 118.167C246.027 118.089 245.555 117.919 245.151 117.67L252.116 116.828C251.848 116.631 251.499 116.519 251.135 116.516C247.884 116.658 244.645 116.942 241.434 117.368C238.644 117.594 235.94 118.268 233.488 119.349C232.517 119.717 231.506 120.013 230.467 120.233C230.215 120.63 230.521 121.083 231.128 121.435C231.601 121.73 232.16 121.925 232.753 122C233.346 122.076 233.954 122.031 234.519 121.868C236.379 121.395 238.25 120.984 240.113 120.499C244.757 119.371 249.529 118.615 254.362 118.24C257.46 117.97 260.727 117.901 263.909 117.706C264.069 117.724 264.254 117.506 264.757 117.179L264.762 117.215ZM261.287 116.238L260.277 116.232C260.254 116.312 260.231 116.392 260.211 116.46L261.221 116.467C261.233 116.377 261.253 116.288 261.282 116.202L261.287 116.238ZM161.207 69.5367L160.988 69.6163L161.35 70.3435L161.69 70.2143L161.207 69.5367ZM156.075 71.6045C155.516 70.8614 154.891 70.1521 154.203 69.4818C152.33 67.3591 150.543 65.2043 148.688 63.0732C147.916 62.1982 147.039 61.3761 146.197 60.536C145.705 59.8931 145.234 59.2297 144.707 58.6042C142.468 55.922 139.584 53.5409 137.596 50.6762C137.499 50.5686 137.385 50.471 137.258 50.3856C136.048 49.3578 134.712 48.2951 133.423 47.2767C132.559 46.6015 131.398 46.2195 130.186 46.2114C130.11 46.3971 130.054 46.5878 130.02 46.7812C129.873 48.2893 130.458 49.7855 131.655 50.9615C133.142 52.4366 134.399 53.977 135.945 55.3551C137.145 56.4172 138.519 57.2467 139.771 58.234C142.014 59.9685 144.228 61.7299 146.414 63.5183C148.666 65.3746 150.876 67.2711 153.124 69.139C154.059 69.9717 155.054 70.7554 156.042 71.5623L156.075 71.6045ZM163.453 74.418C163.001 73.4034 162.318 72.4631 161.438 71.6451C160.762 71.1267 160.274 70.4727 160.028 69.7513C159.892 69.3605 159.709 68.9813 159.483 68.6185C158.254 66.7706 157.083 64.8857 155.725 63.1222C153.198 59.7739 150.565 56.4784 148.061 53.1585C147.809 52.773 147.587 52.3749 147.397 51.9677C147.688 51.9013 147.861 51.8248 147.883 51.8533C152.229 56.8491 156.177 62.0574 159.703 67.4462L160.117 67.2705L156.132 60.7954C156.01 60.5929 155.773 60.3688 155.798 60.1816C156.046 58.6058 154.957 57.4208 154.038 56.1704C153.449 55.3413 152.829 54.5181 152.257 53.6806C151.38 52.2541 150.235 50.9415 148.862 49.7881C148.303 49.3435 147.645 48.986 146.92 48.7333C145.744 48.3125 145.232 48.5182 144.914 49.5044C144.786 49.8994 144.79 50.3139 144.925 50.7073C145.195 51.433 145.533 52.1418 145.938 52.8274C147.211 55.2095 148.784 57.483 150.633 59.6131C153.085 62.1313 155.286 64.7977 157.216 67.588C158.27 69.1511 159.243 70.7354 160.296 72.299C160.992 73.2852 162.113 74.0383 163.453 74.418ZM168.481 80.5809C168.508 80.4897 168.66 80.4338 168.741 80.3647L167.023 79.3152L166.831 79.5082L168.481 80.5809ZM93.7271 52.1433L93.804 51.8812L91.0202 51.5363C89.7397 51.2964 88.4353 51.1445 87.1216 51.0812C82.2827 51.2094 77.5903 50.3682 72.8316 49.9104C68.0729 49.4532 63.6239 48.6569 59.0033 48.1406C55.9488 47.7936 52.8654 47.5969 49.8084 47.4655C48.9802 47.3601 48.1317 47.4835 47.4036 47.8141C46.6754 48.1453 46.1114 48.6637 45.8049 49.285C47.2221 49.7554 48.671 50.1631 50.1449 50.5053C53.0823 51.0475 56.0483 51.5944 59.0488 51.9197C62.476 52.3358 65.9502 52.6401 69.4165 52.8711C72.1996 53.0605 75.0014 53.0847 77.7727 53.2118C78.4398 53.1622 79.1023 53.0842 79.7588 52.9776C77.8131 52.0901 75.4775 52.4883 73.7282 51.289C77.0631 51.3997 80.3344 51.8828 83.6408 51.9883C86.9472 52.0938 90.3623 52.1354 93.7284 52.1919L93.7271 52.1433ZM61.602 69.9343C62.61 70.0482 63.5788 70.2992 64.5676 70.4812C65.8859 70.7243 67.1896 70.9648 68.8866 71.2058C67.9436 70.3478 67.313 69.7149 66.122 69.7592C65.4575 69.7703 64.7937 69.7165 64.1458 69.5989C63.0278 69.3927 61.9568 69.0272 60.85 68.8353C56.1647 67.9709 51.6664 66.5169 46.7991 66.3276L46.5842 66.288L40.2077 65.2681C39.1044 65.0645 37.9724 64.8557 36.8692 64.6521C33.8786 64.293 30.8714 63.9903 27.8808 63.6306C26.8113 63.4877 25.7538 63.2925 24.7142 63.0468C24.1411 62.9413 23.5505 62.6882 23.5657 62.0664C27.1757 62.5279 30.7207 62.954 34.2667 63.4276C36.2277 63.6934 38.1797 64.0414 40.134 64.3299C41.8304 64.5704 43.5168 64.8457 45.2189 65.0155C48.7741 65.479 52.2873 66.1272 55.7362 66.9552C58.1577 67.4018 60.5052 68.051 62.8965 68.6C61.6292 67.6312 60.1159 66.8892 58.4578 66.4246C55.85 65.9437 53.2301 65.4005 50.6931 64.7281C47.3526 63.7777 43.9206 63.0442 40.4309 62.5352C38.7855 62.3617 37.1564 62.1012 35.5545 61.7558C30.4793 60.5196 25.2108 60.2565 20.0234 59.612C19.1144 59.563 18.2033 59.6785 17.3582 59.949C17.1615 59.9917 16.9781 60.0666 16.8198 60.1689C16.6613 60.2712 16.5314 60.3983 16.4383 60.5428C16.345 60.6868 16.2906 60.845 16.2784 61.0069C16.2661 61.1688 16.2964 61.3312 16.3672 61.4831C16.4629 61.8628 16.6542 62.223 16.9296 62.5421C17.205 62.8612 17.559 63.1328 17.9699 63.34C19.3608 64.1479 20.9495 64.7154 22.6333 65.0044C26.9361 65.8197 31.297 66.4278 35.692 66.8249C39.0333 67.0685 42.3566 67.6334 45.6833 68.031C50.9534 68.7029 56.293 69.2914 61.602 69.9343ZM70.7394 72.2563L71.8435 72.664C72.2089 72.7789 72.5624 72.9166 72.9012 73.0753C73.4556 73.3548 74.0982 73.5041 74.7547 73.5062C75.4112 73.5083 76.0551 73.3633 76.6122 73.0869L70.7394 72.2563ZM68.4297 73.7034C69.2314 73.647 70.0425 73.7129 70.8561 73.7187L70.9563 73.377C69.4549 72.7468 67.8793 72.2347 66.2526 71.8487C63.8925 71.4916 61.4966 71.3028 59.0939 71.2849C55.5031 71.2232 51.9233 71.3313 48.3236 71.3519C45.994 71.3666 43.6458 71.3419 41.3118 71.3197C38.9779 71.2976 36.9758 71.2765 34.8084 71.201C31.3876 71.074 27.9678 70.9959 24.5724 70.7296C20.3051 70.3989 16.0956 69.7666 11.796 69.7545C9.45534 69.755 7.11811 69.7439 4.77856 69.793C2.97044 69.8315 1.10842 71.3492 1.38687 72.5174C1.80232 74.2514 4.08073 76.1726 6.16239 76.0761C10.0831 75.8868 14.0256 75.8815 17.9639 75.6832C21.0291 75.5282 23.9964 75.1384 27.0109 74.9501C32.4125 74.6015 37.7721 74.293 43.2287 74.0146C44.9321 73.9207 46.6651 74.0362 48.3532 73.8912C49.7348 73.7614 51.236 74.0504 52.7021 73.3722C49.6233 73.0569 46.5619 73.7166 43.8224 72.7552C44.3411 72.5042 44.9334 72.365 45.5406 72.3518C46.857 72.3423 48.1688 72.452 49.4742 72.4288C51.3573 72.3919 53.2383 72.2584 55.1082 72.2669C55.673 72.3048 56.228 72.4072 56.7559 72.5712C57.4721 72.8364 58.2333 73.0173 59.0153 73.1075C61.3892 72.9931 63.7466 72.7795 66.2592 72.4984C66.7268 73.4851 66.6505 73.5911 65.6352 73.656C63.6505 73.7825 61.6511 73.9059 59.6864 74.1201C58.3393 74.2862 57.0042 74.5087 55.6868 74.7872C53.0258 75.3172 50.3307 75.757 47.6651 76.4062C44.298 77.2859 41.0696 78.3116 37.7386 79.3785C34.4076 80.4454 31.6292 81.3256 28.6181 82.3313C25.9323 83.2051 23.1728 83.9688 20.5244 84.9212C18.2864 85.7091 15.6709 86.0313 14.1183 87.8344C13.2268 87.5259 13.3488 87.056 13.8343 86.7375C14.6755 86.1294 15.6177 85.6163 16.6345 85.2123C19.3655 84.2873 22.1856 83.5226 24.9387 82.6255C30.073 80.9664 35.1744 79.2656 40.29 77.5675C40.6408 77.452 40.9585 77.2943 41.5774 77.0364C41.2727 76.9805 40.9606 76.9552 40.6481 76.961C33.8838 77.9688 27.2177 79.3553 20.6994 81.1109C17.7005 82.0201 14.8547 83.2215 12.2275 84.6881C11.4665 85.1527 10.7966 85.7049 10.2396 86.3267C10.0878 86.468 9.9765 86.6341 9.91324 86.8134C9.84997 86.9922 9.83625 87.1805 9.87312 87.364C9.90999 87.5475 9.99646 87.7231 10.1266 87.8777C10.2569 88.0322 10.4276 88.1624 10.6272 88.2595C12.3353 88.8744 14.1037 89.6449 16.0435 89.2583C18.3794 88.8443 20.6672 88.2737 22.8824 87.5538C26.4109 86.3794 29.8646 85.0467 33.315 83.7262C36.2524 82.6108 39.1381 81.4136 42.079 80.2872C44.3403 79.4191 46.6269 78.5679 48.9476 77.8075C51.2682 77.0465 53.5245 76.6103 55.7129 75.8367C59.7788 74.5831 64.0735 73.8627 68.4297 73.7034ZM70.3601 84.1702C71.3084 83.1445 72.1963 81.9632 73.2706 80.9728C74.3449 79.9818 75.583 79.1533 76.7726 78.232C76.6725 78.2135 76.5578 78.1924 76.5001 78.1819C73.693 79.3136 71.1015 80.756 68.8037 82.4663C66.2049 84.3174 63.8726 86.392 61.8507 88.6529C59.9105 91.0034 57.7953 93.26 55.5163 95.4096C53.4631 97.5091 51.2517 99.5073 48.8942 101.393C48.7228 101.577 48.5787 101.777 48.4645 101.986C48.7248 102.024 48.9898 102.037 49.2539 102.024C52.9224 101.265 56.1809 99.5769 58.5379 97.2159C60.3898 95.5098 62.0835 93.6993 63.606 91.7987C64.3501 90.9032 65.0517 89.9998 65.7672 89.0991C64.6571 89.4904 63.7466 90.1686 63.1823 91.024C61.0476 93.4894 58.578 95.7603 55.8173 97.7949C55.6451 97.9194 55.3673 97.9399 55.1511 98.0085L54.9254 97.7986L57.2091 95.8183C57.6749 95.4117 58.1881 95.0499 58.6142 94.6243C60.0669 93.163 61.4548 91.6658 62.919 90.2187C63.6133 89.4983 64.368 88.8148 65.1763 88.1735C66.7593 86.9405 68.4251 85.7829 70.0478 84.5689C70.1684 84.4445 70.2732 84.311 70.3601 84.1702ZM81.083 77.7421C77.6831 78.5816 74.697 80.2429 72.5398 82.4948L72.7447 82.7247L81.083 77.7421ZM129.818 83.5606L126.676 83.9783C124.134 84.2103 121.613 84.5715 119.129 85.0594C116.257 85.8283 113.443 86.7285 110.702 87.7564C109.016 88.3581 107.301 89.0621 105.599 89.7208C104.577 90.1206 103.548 90.5435 102.51 90.8921C100.286 91.6832 98.0952 92.3598 95.8438 93.0375C92.8325 94.0548 90.3749 95.8916 88.9121 98.2189C88.6932 98.5738 88.5798 98.9636 88.5798 99.3586C88.55 100.29 89.3928 100.817 90.1601 101.343C91.3126 102.156 91.7921 102.221 93.0434 101.503C94.2941 100.785 95.129 100.098 96.1913 99.4055C99.1688 97.4811 102.139 95.5794 105.105 93.6408C106.263 92.8814 107.365 92.0523 108.487 91.2623L108.356 90.986C107.894 90.9828 107.433 91.0187 106.981 91.0925C106.676 91.1563 106.435 91.4121 106.116 91.5213C102.038 92.8587 98.4407 94.9803 95.6482 97.6963C95.1933 98.1166 94.7715 98.7352 93.5122 98.5992C93.9579 98.2189 94.377 97.8192 94.7676 97.402C96.7092 95.1971 99.2597 93.3755 102.225 92.0766C104.638 91.0461 107.139 90.1512 109.709 89.3986C110.963 88.9814 112.263 88.6687 113.513 88.2146C115.011 87.6862 116.422 86.9859 117.962 86.5255C119.5 86.0645 120.916 85.8694 122.379 85.563C123.537 85.3204 124.698 85.0662 125.849 84.7978C126.999 84.5299 128.531 84.0916 129.859 83.7842L129.818 83.5606ZM140.983 82.0897L143.089 82.4779C139.942 81.4653 136.737 80.5983 133.553 79.7107C130.21 78.9086 126.982 77.8301 123.922 76.4932C122.887 76.0023 121.849 75.5229 120.784 75.0857C116.827 73.4313 112.867 71.7885 108.894 70.1911C107.818 69.6727 106.634 69.312 105.399 69.1264C104.508 69.032 103.672 68.7314 102.994 68.2625C101.024 67.0944 99.1536 65.8967 97.0958 64.7729C94.6873 63.4523 92.2238 62.2172 89.7503 61.0164C87.9578 60.1215 86.1514 59.2239 84.2999 58.4265C83.2555 57.9692 82.7813 58.1459 82.1228 58.9011C81.9935 59.0303 81.8974 59.1785 81.8403 59.3367C81.7827 59.4955 81.7654 59.6616 81.7893 59.8256C81.8132 59.9896 81.8775 60.1483 81.9783 60.2923C82.0797 60.4368 82.2157 60.5634 82.3788 60.6657C82.9922 61.1509 83.6089 61.625 84.2641 62.0701C88.0314 64.6859 92.4771 66.3708 96.5733 68.531C99.6231 70.1384 102.961 71.3782 106.197 72.7077C107.813 73.378 109.451 74.0283 111.143 74.5926C113.788 75.4649 116.471 76.2596 119.146 77.0776C119.908 77.3138 120.697 77.5074 121.845 77.8154C119.367 76.4221 116.722 76.0181 114.489 74.8737C111.27 73.3311 107.867 72.0549 104.514 70.6083C102.558 69.755 100.557 68.9539 98.6708 68.0173C95.5156 66.4626 92.4088 64.8451 89.3438 63.1871C87.8908 62.549 86.6382 61.6566 85.6806 60.5782C86.7767 60.2881 87.3166 60.8197 87.8762 61.1272C89.5188 62.0184 91.0785 63.0389 92.7423 63.9101C95.1601 65.1964 97.6383 66.4341 100.116 67.6713C102.168 68.6623 104.24 69.6332 106.329 70.5466C107.81 71.2158 109.297 71.8624 110.817 72.5031C112.336 73.1434 113.667 73.6533 115.106 74.2071C118.225 75.4184 121.394 76.5676 124.521 77.8048C125.388 78.1444 126.273 78.4762 127.106 78.8817C127.321 78.9213 127.394 79.3432 127.359 79.5652C127.325 79.7867 126.936 79.7751 126.68 79.8241C126.424 79.8727 126.351 79.763 126.193 79.734C124.76 79.4697 123.161 79.2588 121.651 79.0526C118.949 78.6861 116.241 78.3427 113.55 77.9905C112.303 77.8881 111.071 77.693 109.869 77.4077C106.602 76.4447 103.333 75.4338 100.208 74.293C97.7126 73.3765 95.3538 72.1967 92.9512 71.1652C91.0706 70.314 89.2562 69.3911 87.3855 68.5056C86.3079 68.0068 85.2018 67.5026 84.0751 67.0664C82.3808 66.4056 80.6454 65.8334 78.9292 65.1927C75.7315 63.9908 72.5922 62.6913 69.3362 61.5865C66.0795 60.4811 63.3521 59.0657 59.8728 58.88C57.7837 57.9666 55.6098 58.5863 53.4742 58.6606C52.6826 58.6828 51.8951 58.8979 51.9169 59.9105C52.6511 60.1104 53.3993 60.2765 54.1576 60.4078C59.3566 61.134 64.4071 62.4208 69.1684 64.2329C73.4934 65.9194 77.9179 67.4198 82.288 69.0546C85.5241 70.228 88.7184 71.4415 91.9651 72.5807C93.3279 73.0843 94.7079 73.5305 96.1522 74.0135C95.7052 73.7029 95.2172 73.4318 94.6973 73.2045C93.2284 72.5975 91.7317 72.0332 90.2668 71.4146C86.6687 69.7218 82.9126 68.2504 79.0326 67.0132C76.9291 66.47 74.8927 65.7733 72.951 64.9306C70.9085 64.1073 68.8057 63.3827 66.6532 62.7604L58.7842 60.0244C58.3169 59.8662 57.9765 59.6352 58.5242 59.0519L61.4038 60.0513C62.8673 60.5734 64.2851 61.1472 65.7725 61.6377C68.1379 62.434 70.6406 63.0157 72.8807 63.9813C75.1208 64.9469 77.9298 65.6689 80.4146 66.5718C81.7846 67.0522 83.231 67.2711 84.5738 67.8433C87.0334 68.8848 89.3822 70.0988 91.804 71.2179C92.8418 71.6973 93.9731 72.0622 94.9519 72.5912C97.127 73.8511 99.5196 74.8542 102.055 75.5703C102.843 75.7159 102.956 76.1568 102.487 76.5745C101.713 76.4321 101.094 76.1736 100.471 76.0344C98.5514 75.5724 96.623 75.1448 94.7006 74.6944C94.2563 74.6121 93.8113 74.3263 93.4055 74.3711C90.8995 74.6295 88.2549 73.7572 85.857 74.9364C85.857 74.9364 85.5997 74.889 85.3855 74.7413L86.0566 74.4085L86.8451 74.0858L80.5287 73.5331C80.2594 74.4565 79.4511 74.5351 78.2945 74.514C76.1334 74.2888 73.9384 74.64 72.0544 75.5128C67.9735 77.4093 64.051 79.5135 60.3122 81.8129C56.8284 84.0758 52.9725 85.9585 49.2698 87.9895C48.3706 88.4841 47.4847 88.9329 46.5018 89.3522C44.1277 90.4512 41.7537 91.5508 39.361 92.6103C39.0498 92.7453 38.577 92.6578 38.1668 92.6662L38.0824 92.3867C38.4969 92.0935 38.9383 91.8261 39.4031 91.5856C40.5482 91.0762 41.7593 90.6511 42.8537 90.1084C44.2626 89.4197 45.5207 88.5226 47.0032 87.9436C50.2474 86.6568 52.939 84.7276 55.9454 83.1687C57.4271 82.4193 58.8546 81.604 60.2207 80.727C61.3467 79.9101 62.5702 79.1823 63.8739 78.5547C65.362 77.8317 66.7971 77.0417 68.1731 76.1895C65.4754 76.5618 62.9303 77.443 60.7492 78.7594C57.6604 80.2909 54.7364 82.0333 51.6803 83.607C49.7837 84.6739 47.689 85.4886 45.6767 86.4864C41.3719 88.5622 37.1002 90.6801 32.7987 92.7448C32.4722 92.8503 32.1946 93.0333 32.0042 93.269C31.8138 93.5047 31.7198 93.7816 31.7353 94.0616C33.5017 94.6317 35.4362 94.7889 37.311 94.5136C42.692 93.5928 47.704 91.6299 51.9026 88.7995C54.7186 87.0133 57.4179 85.1095 60.1862 83.2784C63.3474 81.0439 66.8475 79.1317 70.6041 77.5865C73.581 76.4611 76.6811 75.554 79.8655 74.8758C80.3662 74.764 80.9199 74.6258 81.2979 75.14C81.6766 75.6542 81.2004 75.8905 80.8224 76.2533C80.6414 76.4584 80.4955 76.682 80.3874 76.9173L80.6673 77.1493C82.9843 76.556 85.3125 75.9764 87.6077 75.3552C88.2496 75.1732 88.7907 74.9734 89.2934 75.7866L87.4087 76.5555C88.0307 76.6789 88.6727 76.7285 89.3133 76.7026C94.8412 76.7495 100.208 77.7632 105.674 78.2789C108.334 78.5294 110.959 78.9534 113.62 79.2525C116.28 79.5509 118.971 79.6986 121.597 80.063C124.822 80.7064 128.161 80.9163 131.472 80.6838C132.049 80.66 132.627 80.698 133.191 80.7966C133.498 80.7992 133.793 80.89 134.023 81.0513C134.253 81.2127 134.403 81.4347 134.444 81.6763C132.234 81.749 130.146 81.8682 128.051 81.854C124.915 81.8398 121.776 81.729 118.642 81.6557C113.462 81.5529 108.39 82.4304 103.226 82.7389C100.78 82.8982 98.3731 83.327 96.0746 84.0136C94.2351 84.5752 92.2423 84.8321 90.4167 85.5519C87.8285 86.7301 85.6965 88.4509 84.2548 90.5277C84.0811 90.9111 84.0513 91.3267 84.1686 91.7233C84.286 92.1204 84.546 92.4811 84.9166 92.7632C85.6395 93.1846 86.3497 93.0275 87.3457 92.4067C87.9127 92.0218 88.5447 91.7016 89.2237 91.4559C92.548 90.4122 95.9486 89.4181 99.3233 88.4077C101.62 87.7263 103.992 87.1552 106.215 86.3161C108.711 85.4132 111.274 84.6306 113.889 83.973C114.521 83.8338 115.164 83.7241 115.812 83.6434C115.629 83.5216 115.417 83.4308 115.188 83.3786C114.959 83.3259 114.718 83.3122 114.482 83.338C111.314 83.8464 107.914 83.9039 104.767 84.8605C103.237 85.2229 101.681 85.5092 100.108 85.7181C99.7225 85.785 99.3459 85.8805 98.9825 86.0028C97.6615 86.4437 96.3651 86.901 95.066 87.3698L89.4505 89.3844C89.0467 89.5262 88.6276 89.6169 88.1667 89.7477C87.8484 89.233 87.8278 88.9408 88.4691 88.7109C90.1276 88.2004 91.6833 87.5264 93.3683 87.0808C96.2855 86.3462 98.8591 85.0794 101.92 84.6834C102.697 84.5336 103.463 84.3464 104.212 84.1217C105.636 83.7958 107.038 83.4419 108.502 83.1835C110.469 82.9103 112.474 82.7152 114.449 82.6234C115.76 82.529 117.08 82.5565 118.397 82.547C118.671 82.5375 119.138 82.4916 119.2 82.587C119.768 83.5922 120.754 83.0058 121.564 83.0232C122.694 82.9177 123.834 82.9145 124.965 83.0137C125.914 83.1381 126.885 83.1044 127.817 82.9156C129.881 82.6034 131.964 82.374 134.057 82.229C135.069 82.1757 135.907 82.1499 136.305 81.0466L136.978 81.9995C138.197 82.1161 139.644 81.3983 140.43 82.7442C140.613 82.4779 140.784 82.3049 140.973 82.124L140.983 82.0897ZM113.704 70.574L115.169 71.1441C115.936 71.4658 116.733 71.7332 117.458 72.0949C120.746 73.7456 124.194 75.1848 127.77 76.3983C130.706 77.4251 133.709 78.3274 136.765 79.1022C140.862 80.1221 145.016 80.9965 149.163 81.845C151.612 82.297 154.089 82.6577 156.543 83.0981C158.997 83.539 161.658 84.0415 164.203 84.5832C164.805 84.6944 165.392 84.8025 166.052 84.9244C165.966 84.7524 165.953 84.6417 165.888 84.6058L155.698 80.4565C155.319 80.2655 154.957 80.0541 154.614 79.8247C153.414 78.9867 152.112 78.2441 150.73 77.6071C146.925 76.3292 142.979 75.3362 138.943 74.6406C135.738 73.9777 132.48 73.4487 129.242 72.8512C126.562 72.357 123.903 71.7949 121.218 71.3714C118.762 70.9906 116.271 70.7834 113.785 70.5049L113.704 70.574ZM161.104 86.6172C163.167 86.998 165.231 87.3782 167.279 87.7564C168.554 87.9916 169.783 88.386 171.056 88.6808C172.903 89.1296 174.772 89.5584 176.715 89.9887C178.033 90.2318 179.337 90.4723 180.815 90.841C179.385 89.772 177.619 89.0315 175.702 88.6972C172.979 88.1951 170.28 87.6134 167.599 87.0228C163.688 86.1452 159.799 85.188 155.881 84.3332C154.02 83.9297 152.107 83.7093 150.234 83.3997L149.669 84.3042C151.689 84.6765 153.623 85.0335 155.557 85.39C157.492 85.7471 159.209 86.2797 161.094 86.6515L161.104 86.6172ZM174.59 94.376C173.994 94.3986 173.397 94.4804 172.806 94.5394L191.803 95.2572C190.755 94.8121 190.006 94.4814 189.246 94.1856C189.014 94.0638 188.734 94.0121 188.458 94.04C186.968 94.3533 185.408 94.3902 183.897 94.1476C182.5 93.9477 181.075 93.9034 179.663 94.0147C177.988 94.2531 176.29 94.3738 174.59 94.376ZM170.291 93.5833C169.174 93.5812 168.05 93.5543 166.934 93.6007C164.367 93.7036 161.802 93.8549 159.271 93.9883C156.741 94.1223 154.372 94.1655 151.963 94.454C149.038 94.8026 146.149 95.3389 143.273 95.8774C142.344 96.0994 141.453 96.4106 140.618 96.804C139.351 97.315 138.104 97.8656 136.848 98.3903C136.486 98.5201 136.135 98.6677 135.798 98.8333C135.422 99.0063 135.13 99.2758 134.97 99.5969C134.811 99.9186 134.793 100.274 134.919 100.604C135.02 100.919 135.256 101.196 135.585 101.388C135.915 101.58 136.318 101.676 136.726 101.658C138.324 101.706 139.923 101.618 141.498 101.397C143.939 100.923 146.333 100.309 148.662 99.5606C153.068 98.1577 157.596 97.0107 162.211 96.1279C163.298 95.9201 164.385 95.6638 165.439 95.4143L165.375 95.1143C160.959 95.2788 156.563 95.696 152.222 96.3626C147.853 97.1062 143.974 98.7563 139.515 99.6513C139.643 98.75 140.407 98.6145 141.092 98.441C143.059 97.855 145.012 97.2185 146.972 96.6073C147.665 96.4032 148.37 96.2291 149.087 96.0846C149.808 95.9417 150.56 95.9001 151.262 95.7176C155.913 94.6344 160.742 94.116 165.587 94.1808C167.205 94.2816 168.828 94.0569 170.308 93.5264L170.291 93.5833ZM195.478 96.7876C192.312 96.611 189.133 96.6104 185.966 96.7866C182.558 97.0909 179.189 97.6267 175.896 98.3877C172.635 99.2151 169.184 99.8638 165.859 100.703C163.748 101.256 161.678 101.904 159.66 102.646C157.076 103.587 154.561 104.6 152.001 105.664C150.302 106.404 148.667 107.234 147.109 108.148C146.489 108.514 145.636 109.005 146.1 109.848C146.392 110.346 147.329 110.447 148.613 110.083C152.05 109.12 155.479 108.131 158.912 107.179C162.073 106.349 165.14 105.308 168.08 104.067C168.694 103.823 169.338 103.628 170.001 103.484L182.415 100.371C182.852 100.266 183.295 100.18 183.743 100.111C188.363 99.1466 193.041 98.3666 197.758 97.7728C198.02 97.7153 198.272 97.6325 198.51 97.527C197.553 97.1478 196.533 96.8789 195.481 96.728L195.478 96.7876ZM286.236 118.138C286.408 118.17 286.621 118.005 286.862 117.905C286.759 117.742 286.662 117.556 286.616 117.56C286.379 117.605 286.149 117.666 285.928 117.745C286.04 117.826 286.12 118.069 286.238 118.079L286.236 118.138ZM287.31 119.633C287.6 120.191 287.838 120.775 288.092 121.351C288.17 120.464 288.621 119.539 287.882 118.706C287.075 118.833 287.013 119.098 287.255 119.563L287.31 119.633ZM280.269 117.422C278.363 117.07 276.492 116.653 274.574 116.239C272.656 115.826 270.737 115.364 268.806 114.947C266.873 114.531 265.062 114.113 263.179 113.79C261.295 113.466 259.561 112.63 257.289 112.343C257.523 112.681 257.849 112.972 258.245 113.194C258.64 113.417 259.094 113.565 259.571 113.629C260.815 113.746 262.018 114.057 263.109 114.545C264.2 115.153 265.471 115.524 266.797 115.622C267.398 115.732 268.001 115.844 268.745 115.981C268.656 116.289 268.475 116.496 268.38 116.718L268.308 116.705L264.536 116.177L264.449 116.473C264.994 116.795 265.641 116.986 266.317 117.026C266.992 117.065 267.668 116.951 268.265 116.697L268.38 116.718C268.938 116.821 269.512 116.927 270.111 116.941C270.711 116.956 271.211 116.796 271.414 116.978C272.441 117.912 273.942 117.684 275.18 118.044C276.419 118.405 277.468 118.587 278.599 118.903C280.595 119.463 282.556 120.089 284.555 120.638C285.167 120.758 285.791 120.837 286.419 120.874L285.928 118.622C284.043 118.202 282.132 117.765 280.214 117.352L280.269 117.422ZM250.668 110.918L249.797 110.541L249.631 110.798L250.579 111.069L250.668 110.918ZM235.377 103.811C234.285 103.527 233.22 103.183 232.19 102.779C229.883 101.885 227.608 100.936 225.308 100.02C223.873 99.4551 222.412 98.9219 220.998 98.3365C220.497 98.1361 220.119 97.6219 219.611 97.5523C218.316 97.3857 217.201 96.8077 215.961 96.5551C213.993 96.0604 212.14 95.3131 210.476 94.3422C210.292 94.2483 210.244 93.9994 209.965 93.5037C211.394 93.8971 212.762 94.4192 214.041 95.06C215.221 95.6253 216.472 96.0894 217.774 96.4454C219.121 96.6938 219.907 98.0391 221.739 97.6567C221.162 97.3582 220.765 97.1167 220.325 96.9158C218.051 95.8595 215.757 94.8722 213.499 93.7595C212.117 92.971 210.508 92.4721 208.819 92.3076L207.536 93.548C208.233 94.3259 209.038 95.0383 209.937 95.6722C213.039 97.3841 216.379 98.8059 219.89 99.9092C223.059 100.95 226.312 101.862 229.487 102.88C232.024 103.708 234.492 104.668 237.001 105.539C237.699 105.788 238.395 105.94 239.166 106.142C238.246 105.071 236.911 104.268 235.364 103.856L235.377 103.811ZM255.172 106.813C254.727 106.756 254.27 106.781 253.839 106.887C253.408 106.993 253.012 107.176 252.684 107.423L249.429 107.711L249.493 108.011C250.049 108.101 250.624 108.092 251.177 107.987C251.729 107.881 252.246 107.681 252.691 107.4C253.565 107.433 254.429 107.243 255.159 106.859L255.172 106.813ZM258.053 104.546C254.21 105.038 250.239 104.882 246.601 106.277C246.767 106.538 247.05 106.741 247.394 106.845C247.739 106.948 248.12 106.945 248.461 106.836L257.49 105.235C257.748 105.167 257.995 105.071 258.222 104.95L258.053 104.546ZM256.492 103.478L241.367 100.148C240.707 99.9967 240.037 99.8728 239.361 99.7784C238.773 99.6697 238.161 99.7008 237.36 99.6492C237.471 99.9313 237.638 100.197 237.856 100.437C239.796 101.912 241.775 103.358 243.719 104.821C243.968 105.006 244.274 105.135 244.606 105.197C244.938 105.258 245.284 105.248 245.61 105.17C248.98 104.59 252.336 104.165 255.715 103.659C255.981 103.619 256.241 103.559 256.492 103.478ZM270.156 103.224C270.197 103.808 270.211 104.327 270.237 104.861L270.723 105.058C271.007 104.81 271.452 104.58 271.538 104.284C271.57 103.867 271.507 103.449 271.354 103.049L270.156 103.224ZM246.228 94.56L246.514 94.4086C245.447 92.8909 244.376 91.3847 243.139 89.7757C242.352 90.1949 241.95 89.7604 241.562 89.2805C240.428 87.991 239.402 86.7449 238.379 85.4396C236.178 82.6319 233.497 80.072 231.045 77.3982C230.68 76.9948 230.117 76.5908 230.254 75.9674C231.751 76.3756 232.091 76.6066 236.562 81.574C238.419 83.6455 240.078 85.8251 241.819 87.9831C241.86 87.8703 241.872 87.7516 241.854 87.6351C241.836 87.5185 241.789 87.4057 241.716 87.3039C239.317 83.5854 236.665 79.9734 233.773 76.4843C232.705 74.9744 231.146 73.7203 229.259 72.8544C228.754 72.5933 228.178 72.4314 227.578 72.3813C226.979 72.3312 226.373 72.3945 225.81 72.5664C225.941 73.6723 226.395 74.7392 227.137 75.6806C228.824 77.4568 230.513 79.2213 232.256 80.9601C235.271 84.0136 238.309 87.0238 241.37 89.9898C242.986 91.4886 244.646 92.9958 246.271 94.5679L246.228 94.56ZM239.803 94.9482C239.666 94.676 239.438 94.4387 239.143 94.2615C238.85 94.0848 238.5 93.9746 238.133 93.944C238.342 94.6787 239.185 94.7383 239.846 94.9561L239.803 94.9482ZM247.988 98.4151C246.104 96.9511 244.184 95.5641 242.183 94.2462C240.398 93.0649 238.399 92.0476 236.686 90.8309C232.393 87.6377 229.012 83.7478 225.189 80.1849C224.086 79.1528 223.091 78.0569 222.027 76.9958C220.788 75.7586 219.569 74.5008 218.255 73.31C217.52 72.6756 216.721 72.0907 215.866 71.5607C215.739 71.4806 215.59 71.4236 215.432 71.3946C215.273 71.3651 215.108 71.364 214.949 71.3914C214.824 71.4674 214.722 71.5649 214.65 71.6762C214.579 71.7875 214.54 71.9104 214.535 72.0354C214.52 72.3534 214.593 72.6698 214.747 72.9635C215.068 73.7905 215.487 74.591 215.998 75.3552C217.749 77.6355 219.444 79.9533 221.452 82.0771C223.289 83.9371 225.304 85.6817 227.479 87.2954C229.525 88.8739 231.771 90.2846 234.003 91.6932C235.277 92.5043 236.696 93.1746 238.072 93.8966C237.845 93.5791 237.564 93.289 237.236 93.0338C233.613 90.4776 230.188 87.7485 226.981 84.8621C225.771 83.8343 224.432 82.7827 223.117 81.748C221.454 80.5166 220.215 78.965 219.524 77.2426C219.912 77.3834 220.269 77.5712 220.585 77.7985C221.91 79.0515 223.106 80.3889 224.509 81.5845C227.075 83.7626 229.735 85.8747 232.393 87.9979C234.084 89.3427 235.794 90.6785 237.562 91.9653C239.332 93.2521 241.33 94.5816 243.242 95.8948C243.449 96.072 243.635 96.2629 243.8 96.4659L243.587 96.679L240.092 95.0974C240.92 95.7218 241.793 96.3077 242.706 96.8525C244.309 97.6625 246.108 98.1952 247.988 98.4151ZM235.632 97.0851C235.063 97.0044 234.489 96.9506 233.912 96.9237C234.142 97.4284 234.556 97.8661 235.103 98.181C235.649 98.4958 236.301 98.673 236.976 98.6899C238.685 98.8149 240.379 99.0511 242.039 99.3955C246.695 100.31 251.338 101.27 255.967 102.277C259.447 103.026 262.887 103.865 266.358 104.649C267.16 104.797 267.977 105.152 268.831 104.661C268.902 104.495 268.952 104.323 268.98 104.148C268.994 103.791 268.965 103.425 268.963 103.016C268.533 102.937 268.146 102.866 267.754 102.865C264.548 102.82 261.361 102.462 258.265 101.8C257.993 101.76 257.715 101.753 257.44 101.78C256.444 101.824 255.444 101.777 254.461 101.638C252.321 101.16 250.256 100.527 248.134 99.9313C246.742 99.5305 245.506 99.0021 244.141 98.7141C241.309 98.0718 238.476 97.5855 235.707 97.0867L235.632 97.0851ZM230.838 99.9593C234.037 101.931 237.284 103.742 240.629 105.632C241.12 105.914 241.625 106.152 242.12 106.423C242.136 106.366 242.153 106.309 242.266 106.282L241.204 105.317L241.731 104.958L231.741 96.7038C231.266 96.3156 230.773 95.9364 230.276 95.5689C226.916 93.1118 223.562 90.6321 220.163 88.2036C218.879 87.3055 217.538 86.4611 216.144 85.6732C215.932 85.5604 215.692 85.486 215.44 85.456C215.187 85.4264 214.929 85.4412 214.685 85.5003C214.414 85.6353 214.213 85.843 214.12 86.0867C214.027 86.3298 214.048 86.5919 214.178 86.824C214.272 87.1794 214.457 87.5159 214.721 87.8123C216.685 89.8173 218.794 91.7301 221.038 93.5406C224.162 95.822 227.5 97.8904 230.841 99.9477L230.838 99.9593ZM193.877 85.1928C194.696 86.2602 195.811 87.1641 197.138 87.8355C195.826 86.2249 194.366 84.7066 193.08 83.1123C191.793 81.5181 190.619 79.8489 189.441 78.1909C188.264 76.5323 186.702 75.1036 186.182 73.2662L186.693 73.0126C187.009 73.2267 187.293 73.4682 187.54 73.733C188.573 75.1964 189.594 76.6657 190.604 78.1408C192.252 80.7391 194.259 83.183 196.587 85.4285C198.189 86.9247 199.923 88.2774 201.606 89.7045L202.367 90.253C202.343 89.8722 202.189 89.5041 201.923 89.1866C199.915 86.5951 197.891 84.012 195.898 81.4226C193.905 78.8337 192.283 76.5771 190.454 74.1986C189.683 73.3021 188.83 72.4509 187.906 71.6514C187.701 71.4574 187.423 71.3218 187.113 71.2649C186.803 71.2074 186.478 71.2316 186.187 71.3339C185.847 71.4162 185.533 71.5554 185.267 71.7421C185.001 71.9288 184.788 72.1588 184.643 72.4166C184.497 72.674 184.423 72.9535 184.425 73.2357C184.427 73.5183 184.505 73.7968 184.653 74.0536C184.758 74.3141 184.897 74.5652 185.069 74.8025C186.455 76.5233 187.855 78.2462 189.293 79.9407C190.732 81.6346 192.227 83.4477 193.877 85.1928ZM201.279 94.3992C201.446 94.5215 201.605 94.6512 201.754 94.7873L205.228 96.8567L205.426 96.6416L203.98 95.5942C202.458 94.4967 200.929 93.4225 199.415 92.3503C197.901 91.2787 196.59 90.2324 195.165 89.165C194.063 88.3855 192.825 87.7126 191.742 86.9242C189.139 85.0272 186.501 83.1482 184.042 81.1215C181.966 79.3774 180.01 77.5459 178.183 75.6336C177.346 74.63 176.597 73.5811 175.943 72.4947C176.294 72.452 176.653 72.5063 176.96 72.6482C177.268 72.79 177.505 73.011 177.633 73.2747C178.562 74.4623 179.581 75.6046 180.682 76.6952C183.312 79.0173 186.076 81.2923 188.799 83.4999C189.031 83.6196 189.285 83.7109 189.551 83.7705C187.848 82.2559 186.289 80.7676 184.816 79.2946C182.742 77.2432 180.727 75.1426 178.706 73.0643C176.379 70.69 174.061 68.281 171.727 65.9294C171.344 65.6225 170.915 65.3535 170.45 65.1294L170.066 65.3588C170.585 66.8787 171.212 68.3738 171.946 69.8362C172.892 71.2775 173.942 72.674 175.091 74.0188C176.941 76.3714 179.115 78.5532 181.574 80.5224C184.596 83.001 187.842 85.2803 191.015 87.6551C194.051 90.2245 197.474 92.4853 201.207 94.386L201.279 94.3992ZM155.652 77.1461C155.537 77.125 155.394 77.0981 155.077 77.1482L155.694 78.2948L155.012 78.9255C155.301 79.1291 155.611 79.3147 155.937 79.4803C157.903 80.2993 159.883 81.1204 161.87 81.9194C163.612 82.625 165.339 83.328 167.091 83.9994C169.193 84.8189 171.364 85.5556 173.451 86.3731C175.017 87.132 176.727 87.6831 178.517 88.0037C179.055 88.1224 179.55 88.3412 179.961 88.6423C180.37 88.9973 180.808 89.3306 181.271 89.6401C182.59 90.292 184.094 90.8336 185.435 91.5134C187.697 92.663 190.563 92.8313 192.558 94.376C192.698 94.4551 192.856 94.5125 193.022 94.5458C195.948 95.5415 198.864 96.5714 201.796 97.5449C205.554 98.7742 209.324 99.9819 213.106 101.168C215.952 102.113 218.901 102.85 221.916 103.369C222.204 103.387 222.478 103.471 222.706 103.611C223.665 104.569 225.119 104.5 226.41 104.786C228.158 105.109 230.172 104.832 231.572 106.087C231.644 106.1 231.787 106.126 231.887 106.145C233.043 106.385 234.175 106.694 235.272 107.069C238.325 108.203 241.536 109.045 244.838 109.578C245.23 109.614 245.628 109.611 246.019 109.568C246.045 109.477 246.075 109.374 246.102 109.283C245.844 109.144 245.571 109.025 245.284 108.928C242.814 108.184 240.323 107.509 237.876 106.733C235.807 106.063 233.787 105.222 231.754 104.583C226.909 103.077 222.056 101.594 217.155 100.173C216.463 99.9867 215.786 99.7657 215.129 99.5115C213.494 98.8581 211.906 98.1319 210.372 97.3372C208.641 96.468 207.14 95.3384 205.951 94.0126C205.457 93.4262 204.908 92.8714 204.307 92.3519C203.972 92.0502 203.544 91.911 203.201 92.364C203.174 92.4553 203.216 92.5713 203.274 92.6298C205.631 95.0916 208.432 97.2633 211.587 99.0743C211.989 99.358 212.352 99.6745 212.671 100.019C211.574 100.465 211.184 100.561 210.615 100.18C209.555 99.5759 208.41 99.0706 207.204 98.6746C205.044 97.7475 202.98 96.6943 200.705 95.9027C196.207 94.3406 191.795 92.5903 187.346 90.9169C187.187 90.8631 187.034 90.7988 186.889 90.7244C184.165 89.2631 181.276 88.0063 178.259 86.9716C177.432 86.6505 176.649 86.2781 175.843 85.9374L168.837 83.0364C168.247 82.7832 167.621 82.5475 167.019 82.2806L155.652 77.1461ZM146.725 75.4997L151.857 76.9025L151.933 76.6404C150.232 76.1584 149.173 74.3537 146.67 75.4295L146.725 75.4997ZM106.384 63.6765C104.633 63.5214 102.886 63.4513 101.104 63.3506C100.632 64.9691 102.621 65.5518 102.908 66.7453C104.079 67.3876 105.361 67.8907 106.715 68.2404C107.928 68.4097 109.128 68.6312 110.311 68.9033C111.589 69.1527 112.882 69.351 114.184 69.4976C115.812 69.7139 117.447 69.9074 119.086 70.0893C119.816 70.2243 120.592 70.1031 121.318 70.2491C125.196 71.0365 129.054 71.8919 132.938 72.6566C134.729 72.9867 136.553 73.203 138.35 73.4624C138.262 73.194 138.121 73.108 137.967 73.0674C135.496 72.4799 132.997 71.9352 130.554 71.3039C126.798 70.3594 123.086 69.3146 119.304 68.4608C115.844 67.6487 112.327 67 108.772 66.518C107.894 66.3355 107.033 66.1045 106.195 65.8266C106.6 65.0608 107.184 65.3367 107.721 65.4115C109.727 65.7818 111.772 66.0149 113.778 66.3851C116.831 66.9478 119.897 67.5131 122.916 68.1903C127.171 69.1311 131.073 70.7153 135.47 71.1182C134.356 70.7443 133.225 70.4279 132.094 70.1115C127.655 68.8722 123.208 67.6555 118.792 66.3851C114.817 65.0571 110.65 64.1274 106.387 63.6164L106.384 63.6765ZM139.544 70.7649C141.29 72.2658 143.606 73.271 146.139 73.6264C144.09 72.453 141.878 71.4732 139.547 70.7053L139.544 70.7649ZM129.175 60.4468C129.919 61.7415 130.909 62.9371 132.113 63.9908C132.937 64.8393 133.611 65.7918 134.498 66.5802C134.872 66.9821 135.348 67.318 135.895 67.5659C136.441 67.8132 137.047 67.9672 137.673 68.0178L129.175 60.4468ZM131.064 64.842C131.515 65.2132 132.043 65.5265 132.531 65.8688L132.696 65.719C131.529 64.5435 130.348 63.4128 129.198 62.1803C127.718 60.1758 126.088 58.2429 124.318 56.3929C123.907 56.0116 123.574 55.5813 123.33 55.1177C123.216 54.9405 123.353 54.6779 123.388 54.4559L123.696 54.381L128.195 59.6653C128.253 59.5814 128.285 59.487 128.287 59.391C128.288 59.2951 128.26 59.2001 128.204 59.1147C126.375 56.6492 124.777 54.0788 123.426 51.4251C122.645 50.1108 121.761 48.8367 120.779 47.6106C120.667 47.4682 120.518 47.3464 120.342 47.2535C120.165 47.1613 119.966 47.0998 119.757 47.0739C119.119 47.0882 119.076 47.5483 119.038 47.9861C118.786 50.0333 119.45 52.0859 120.911 53.783C121.71 54.7227 122.381 55.7353 123.082 56.693C124.07 58.0721 125.146 59.409 126.308 60.6984C127.799 62.1624 129.469 63.4787 131.064 64.842ZM107.318 55.8149C107.93 56.3681 108.584 56.8902 109.278 57.3775C109.982 57.7736 110.721 58.1269 111.492 58.4339C109.207 58.3969 107.769 57.2193 106.256 56.1957C105.095 56.9662 105.069 57.4176 106.176 58.1259C109.044 59.8636 112.172 61.3117 115.489 62.4372C119.397 63.8426 123.319 65.2027 127.228 66.6076C128.594 67.1002 129.937 67.6719 131.379 68.214C130.928 67.7536 130.379 67.3597 129.756 67.0501C128.212 66.2854 126.651 65.5291 125.08 64.8066C122.565 63.6464 120.035 62.4836 117.495 61.3545C115.957 60.6747 114.353 60.0666 112.797 59.3953C112.556 59.2908 112.436 59.0282 112.18 58.765C114.025 58.7571 120.509 61.2738 124.297 63.4017L127.202 64.7296C126.419 63.9971 125.642 63.2414 124.297 63.4017C124.177 63.1391 124.138 62.8079 123.903 62.6803C122.003 61.5854 120.121 60.4816 118.123 59.5129C115.477 58.2324 112.797 57.0659 110.117 55.8988C109.715 55.6646 109.233 55.5312 108.734 55.5159C108.235 55.5011 107.742 55.605 107.318 55.8149ZM85.8152 48.4148C85.7907 48.4739 85.7728 48.5351 85.7621 48.5973L94.696 51.049C94.7125 50.9921 94.7324 50.9241 94.749 50.8671L85.8152 48.4148ZM81.8616 46.0765C76.8807 45.0858 71.7885 44.3747 67.0192 42.7625C63.2811 41.4967 59.3997 40.5166 55.5589 39.448C52.5161 38.6466 49.4257 37.9565 46.3452 37.2323C45.7515 37.0647 45.1201 36.9984 44.4921 37.0377C43.864 37.077 43.2534 37.2211 42.7001 37.4606C41.5693 37.9725 41.3768 38.4774 42.4244 39.0789C43.7588 39.9442 45.2264 40.6709 46.7917 41.2413C50.4592 42.386 54.2372 43.359 57.9689 44.3355C59.1818 44.6131 60.4197 44.8173 61.671 44.9463C65.7188 45.5127 69.8004 46.0134 73.8349 46.6254C76.5266 47.0258 79.1652 47.6085 81.8649 48.0346C80.8728 47.5905 79.8204 47.2393 78.7276 46.9874C76.9344 46.5606 75.1168 46.1653 73.3204 45.7499C72.7043 45.6363 72.1247 45.3973 71.5193 45.2977C68.3329 44.782 65.1087 44.3434 61.9455 43.748C59.0795 43.2194 56.2636 42.5199 53.3651 41.7932C50.5138 41.2614 47.8379 40.2521 45.5161 38.8325C46.3981 38.0346 47.1018 38.5727 47.7244 38.8196C49.2275 39.4835 50.7795 40.0745 52.3723 40.5894C55.954 41.5622 59.5623 42.4439 63.2227 43.2511C65.3488 43.7273 67.5411 43.9755 69.7467 44.3343C70.9072 44.5484 72.1221 44.6283 73.2726 44.8766C77.6108 45.8448 81.8762 47.0637 86.3424 47.6955C87.8119 47.9956 89.2456 48.3964 90.6283 48.8942L95.3067 50.2495C95.4785 50.2812 95.7125 50.2042 96.2457 50.1346C94.8995 49.574 93.8969 49.0767 92.8226 48.7223C89.2569 47.6238 85.5931 46.7393 81.8616 46.0765ZM100.583 45.771L99.5349 42.6356C99.19 41.5393 98.7849 40.4439 98.5541 39.3205C97.7073 36.2367 97.7762 33.0383 98.7563 29.9795C98.9646 29.2704 99.0044 28.5366 98.8737 27.8158C98.7172 26.3339 99.6483 25.1607 100.269 23.654C100.49 23.91 100.624 24.2069 100.658 24.5162C100.692 24.8255 100.625 25.1365 100.464 25.4192C99.9652 26.5797 99.7617 27.8073 99.8638 29.0309C99.8817 29.6662 99.8034 30.3009 99.6297 30.9211C99.1317 32.6055 98.9871 34.3437 99.2013 36.0656C99.3426 36.8241 99.2663 37.6027 99.3293 38.3708C99.3671 38.8101 99.4944 39.2538 99.5873 39.7633C99.755 39.6021 99.8645 39.5382 99.8843 39.4699C100.514 36.3798 101.175 33.2836 101.726 30.2031C101.912 28.7789 102.301 27.3761 102.885 26.0218C103.139 25.3238 103.321 24.6105 103.431 23.8891C103.807 21.5728 103.456 19.2187 102.41 17.0362C102.181 16.5962 101.893 16.1768 101.552 15.7852C100.687 15.9947 99.9016 16.3727 99.2676 16.8847C98.633 17.3968 98.1695 18.0268 97.9188 18.7175C97.6071 19.5907 97.4016 20.4858 97.3054 21.3903C96.6913 25.8647 96.3876 30.3627 96.3956 34.8637C96.3054 38.7603 97.7716 42.5793 100.583 45.771ZM95.8863 44.6884L96.3419 44.4723C96.0494 44.1301 95.753 43.7993 95.4778 43.4483C94.4731 42.1823 93.4685 40.9162 92.4844 39.63C91.9778 38.9843 91.5699 38.2606 91.0573 37.6376C90.3272 36.7225 89.4386 35.8862 88.8259 34.9326C87.9034 33.4895 86.4273 32.2327 86.2336 30.5158C84.9936 29.5906 84.9246 28.221 84.215 27.0814C83.7084 26.2314 83.1162 25.4137 82.524 24.5961C81.9319 23.7784 81.2475 22.9677 80.7084 22.1238C80.4186 21.783 80.2276 21.3949 80.15 20.988C80.0731 20.5811 80.1109 20.1656 80.2621 19.7718C80.6129 20.1728 80.8463 20.408 81.0161 20.6554C81.4325 21.352 81.8947 22.0304 82.4014 22.6881C84.5188 25.1081 85.6527 27.899 87.3 30.4843C88.479 32.3429 89.67 34.1957 90.873 36.0426C91.0288 36.212 91.2131 36.3633 91.4214 36.492C89.9008 32.8012 88.2814 29.1884 86.4114 25.6612C84.9717 22.9341 83.2555 20.276 81.583 17.674C80.8642 16.545 79.6958 15.637 78.2594 15.0917C76.9139 17.065 76.0094 18.9756 77.514 21.0662C78.6759 22.6734 79.8423 24.3175 81.1984 25.8286C82.8941 27.7122 84.3291 29.7363 85.4777 31.8654C86.0413 33.0423 86.7184 34.1829 87.5029 35.2769C89.5155 37.7976 91.6488 40.2685 93.7855 42.7279C94.4539 43.4396 95.1979 44.0452 95.8863 44.6884ZM75.4344 35.7048C75.6944 35.8116 75.9702 35.8909 76.2561 35.9405C75.6128 35.2985 74.8893 34.7103 74.0956 34.1851C71.5451 32.3704 68.7613 30.7743 65.7904 29.4231C63.3063 28.213 60.9853 26.803 58.8639 25.2155C58.0875 24.616 57.2481 24.077 56.4165 23.5633C54.6331 22.4298 52.7692 21.3656 51.0487 20.1717C49.0782 18.7996 47.1773 17.3442 45.3437 15.8653C44.8063 15.4299 43.9678 15.0951 43.8984 14.1938C44.2706 14.2936 44.6267 14.4279 44.9596 14.5936C46.364 15.5251 47.7298 16.4855 49.1131 17.4371C50.7102 18.5362 52.2897 19.6441 53.9221 20.7257C55.3298 21.6458 56.8281 22.4625 58.2292 23.4053C59.6303 24.3482 60.6624 25.0549 61.8686 25.8898C63.6863 27.1212 65.6492 28.211 67.7294 29.1442C69.502 29.9515 71.2328 30.7991 73.0352 31.6599C72.439 30.8573 71.7626 30.0941 71.0133 29.3776C69.6578 28.227 68.1651 27.1832 66.6969 26.1079C63.6372 23.8625 60.5569 21.6372 57.4938 19.4031C56.3627 18.5701 55.2492 17.7283 54.0938 16.9268C51.1343 14.8559 48.1428 12.7911 45.1799 10.7317L40.6563 7.60374C39.9276 8.10929 39.3921 8.76745 39.1108 9.50319C38.8295 10.2389 38.8137 11.0228 39.0651 11.7653C40.181 13.7179 41.7653 15.4785 43.7293 16.9484C45.3469 18.3395 47.2879 19.5021 49.0391 20.7977C51.3013 22.4653 53.7495 23.9659 56.3535 25.2809C56.724 25.4932 57.0748 25.7264 57.4032 25.9788C59.2129 27.1772 60.9986 28.4071 62.8321 29.574C63.6273 30.0117 64.4529 30.4127 65.3057 30.7746L75.4344 35.7048ZM85.7018 42.798C85.0718 42.423 84.4982 41.9909 83.9936 41.5103C83.4796 40.8391 82.6142 41.0638 81.9438 40.7721C81.8297 40.7509 81.7946 40.6124 81.7004 40.5711C80.8669 40.1961 80.0081 39.8573 79.1281 39.5562C77.7415 39.1324 76.2282 38.7812 74.7826 38.4064C73.3794 38.0396 72.0491 37.7342 70.7169 37.3324C67.628 36.3784 64.549 35.3902 61.4774 34.4275C60.5649 34.1391 59.6358 33.9077 58.708 33.5685C56.1031 32.5596 53.5668 31.4194 50.889 30.5052C48.695 29.7568 46.5501 28.9203 44.4627 27.9991C42.4428 27.1487 40.5677 26.0967 38.8829 24.8685C39.7478 24.4397 40.2479 24.7961 40.8395 25.0973C43.1511 26.3506 45.5473 27.5021 48.0174 28.5466C50.4207 29.4702 52.9211 30.2676 55.3255 31.2394C58.8239 32.6532 62.4847 33.8208 66.1167 34.983C69.1054 35.9185 72.1698 36.6997 75.2023 37.5353C75.4809 37.5722 75.7647 37.576 76.0445 37.5465C76.071 37.4554 76.1009 37.3528 76.1281 37.2617C75.0306 36.9088 73.957 36.5105 72.9125 36.0682C70.2586 34.8959 67.4595 33.945 64.5596 33.2307C61.7128 32.5098 58.9476 31.5981 56.2945 30.5055C53.7801 29.3933 51.4093 28.1515 48.9545 26.9903C45.7835 25.5409 42.554 24.1887 39.3897 22.7165C38.6421 22.349 37.7923 22.1335 36.9152 22.089C36.0381 22.0444 35.1607 22.1723 34.3605 22.4614C34.5235 22.9007 34.7682 23.3182 35.0864 23.7C36.0396 24.4893 37.0467 25.2363 38.1031 25.9375C41.0128 27.8544 44.27 29.4105 47.7645 30.5534C52.8952 32.3763 58.0867 34.0422 63.3089 35.6539C66.815 36.7327 70.4231 37.6144 74.0001 38.5504C74.1864 38.5848 74.4583 38.4307 74.6997 38.3792C75.2912 38.7631 75.9245 39.1048 76.591 39.4005C79.3987 40.3867 82.3888 41.0583 84.8696 42.5965C85.0473 42.7133 85.29 42.71 85.6587 42.7901L85.7018 42.798ZM87.5725 43.011L87.2065 43.2316L88.0957 44.1161L88.43 43.9017L87.5725 43.011ZM52.3887 1.33797C52.0963 2.34077 52.8561 2.99724 53.3834 3.62287C54.6845 5.06365 56.1433 6.53349 57.4731 7.9796C59.9191 10.7243 62.2028 13.5591 64.7228 16.2574C67.2427 18.9557 69.2281 21.5193 71.2911 24.2295C71.8263 25.0255 72.4244 25.7935 73.0823 26.529C74.6612 28.0245 75.9384 29.7063 76.8675 31.5142C77.4205 32.8465 78.2501 34.0956 79.3231 35.2093C81.7953 37.5025 83.975 39.9698 86.2953 42.3672C86.422 42.2849 86.5553 42.2092 86.6939 42.1404C85.7575 41.0551 84.7462 40.0161 83.9127 38.8896C82.1295 36.4594 81.0651 33.7413 79.1162 31.3645C77.9955 30.029 77.0704 28.6455 75.957 27.3355C74.3098 25.3745 72.5524 23.4774 70.8555 21.5313C69.1578 19.5851 67.5935 17.6995 65.937 15.8209L58.8155 7.51868C58.2265 6.8457 57.695 6.18326 57.0841 5.48217C56.8166 5.15668 56.709 4.8006 57.5684 4.44277C62.8587 10.2218 67.9728 16.0883 72.9105 22.0424C72.0776 20.1722 70.9092 18.4075 69.4403 16.8033C66.7811 13.599 64.1452 10.471 61.4681 7.27551C60.0403 5.51946 58.292 3.9423 56.2799 2.59602C55.1868 1.85474 53.8222 1.41354 52.3887 1.33797ZM236.482 101.625C236.432 101.483 236.422 101.314 236.324 101.236C231.103 97.4621 225.869 93.6951 220.625 89.9339C220.458 89.8136 220.267 89.7171 220.058 89.6496C220.058 89.6496 219.849 89.695 219.508 89.7762C219.786 90.1533 220.107 90.5098 220.465 90.8415C222.103 92.1283 223.806 93.403 225.572 94.665C228.812 97.016 232.091 99.338 235.349 101.68C235.791 101.978 236.116 102.001 236.482 101.625ZM223.897 113.713C223.688 113.759 223.615 114.166 223.326 114.689C228.027 114.103 231.809 112.471 235.889 111.53C236.276 111.445 236.59 111.143 237.151 110.826C236.635 110.731 236.533 110.616 236.436 110.634C232.217 111.642 228.022 112.669 223.851 113.717L223.897 113.713ZM186.525 97.5623C185.004 97.7469 183.495 97.9937 182.006 98.3017C180.507 98.5559 179.028 98.876 177.574 99.2615C173.641 100.373 169.473 100.842 165.642 102.224C164.509 102.64 163.288 102.895 162.154 103.31C159.959 104.106 157.822 104.913 155.67 105.717C154.8 106.06 153.951 106.432 153.077 106.788L153.179 107.059C153.475 107.133 153.786 107.157 154.095 107.131C155.825 106.75 157.498 106.221 159.084 105.554C162.471 104.046 166.066 102.856 169.798 102.006C174.192 100.763 178.733 99.8954 183.222 98.8982C184.26 98.6846 185.315 98.5264 186.379 98.4241C189.031 98.1324 191.691 97.8666 194.34 97.5866L194.436 97.2559C193.947 97.1114 193.437 97.017 192.917 96.9759C190.785 97.1948 188.629 97.3377 186.479 97.5655L186.525 97.5623ZM141.642 56.79C139.035 54.9616 136.785 52.8347 134.966 50.4795C134.444 49.8129 133.85 49.1848 133.188 48.6026L132.748 48.7133C132.747 49.0255 132.535 49.4427 132.764 49.641C134.681 51.6634 136.616 53.6775 138.569 55.623C139.429 56.4541 140.532 57.1254 141.469 57.8991C142.821 59.0129 144.116 60.1642 145.413 61.3044C145.589 61.5037 145.817 61.6704 146.08 61.7938C146.344 61.9166 146.638 61.9936 146.942 62.0184L146.122 60.5344C145.563 60.1752 145.029 59.7924 144.524 59.3868C143.592 58.5425 142.687 57.6069 141.642 56.79ZM236.345 118.975C236.345 118.975 236.391 119.128 236.464 119.345C238.677 119.186 240.844 118.746 242.883 118.043C240.764 117.749 238.834 118.57 236.794 118.626C236.626 118.631 236.46 118.84 236.345 118.975Z" fill="#101A24"/>
</g>
</svg>
