<svg width="94" height="94" viewBox="0 0 94 94" fill="none" xmlns="http://www.w3.org/2000/svg">
<path d="M49.5314 4.06868C51.6917 2.70531 54.5223 3.11214 56.2109 5.02899C57.5367 6.53393 59.6096 7.14267 61.5386 6.59334C63.9954 5.89379 66.5968 7.08176 67.6768 9.3966C68.5249 11.2142 70.3423 12.382 72.3479 12.3986C74.9022 12.4195 77.0635 14.2921 77.4477 16.8177C77.7495 18.8006 79.1642 20.4333 81.0839 21.0141C83.529 21.7538 85.0749 24.1595 84.7322 26.6909C84.463 28.6784 85.3605 30.6436 87.0388 31.7417C89.1763 33.1404 89.9821 35.8841 88.94 38.2164C88.1218 40.0476 88.4292 42.1861 89.7302 43.7124C91.3872 45.6567 91.3872 48.5162 89.7302 50.4605C88.4292 51.9871 88.1218 54.1254 88.94 55.9565C89.9821 58.2888 89.1765 61.0327 87.0388 62.4312C85.3605 63.5293 84.463 65.4945 84.7322 67.482C85.0751 70.0134 83.529 72.4191 81.0839 73.1589C79.1642 73.7396 77.7493 75.3724 77.4477 77.3552C77.0635 79.8806 74.9022 81.7533 72.3479 81.7743C70.3423 81.7907 68.5249 82.9587 67.6768 84.7763C66.5966 87.0912 63.9954 88.2791 61.5386 87.5796C59.6097 87.0303 57.5369 87.639 56.2109 89.1439C54.5223 91.0608 51.6917 91.4678 49.5314 90.1042C47.8353 89.0338 45.675 89.0338 43.9789 90.1042C41.8185 91.4676 38.988 91.0606 37.2994 89.1439C35.9736 87.639 33.9007 87.0303 31.9717 87.5796C29.5149 88.2791 26.9135 87.0912 25.8335 84.7763C24.9854 82.9587 23.168 81.7909 21.1624 81.7743C18.6081 81.7535 16.4468 79.8808 16.0625 77.3552C15.7608 75.3724 14.3461 73.7396 12.4264 73.1589C9.98131 72.4191 8.43538 70.0134 8.77811 67.482C9.04732 65.4945 8.14981 63.5293 6.47154 62.4312C4.33398 61.0325 3.52821 58.2888 4.57029 55.9565C5.38847 54.1254 5.08109 51.9869 3.78013 50.4605C2.1231 48.5162 2.1231 45.6565 3.78013 43.7124C5.08109 42.1859 5.38847 40.0476 4.57029 38.2164C3.52821 35.8841 4.33379 33.1403 6.47154 31.7417C8.14981 30.6436 9.04732 28.6784 8.77811 26.6909C8.4352 24.1595 9.98131 21.7538 12.4264 21.0141C14.3461 20.4333 15.761 18.8006 16.0625 16.8177C16.4468 14.2923 18.6081 12.4196 21.1624 12.3986C23.168 12.3822 24.9854 11.2142 25.8335 9.3966C26.9137 7.08176 29.5149 5.89379 31.9717 6.59334C33.9005 7.14267 35.9736 6.53393 37.2994 5.02899C38.988 3.11214 41.8185 2.70531 43.9789 4.06868C45.675 5.13916 47.8353 5.13916 49.5314 4.06868Z" fill="#CD0B09"/>
<path d="M37.4419 28.9434V42.6956H32.851L29.4128 31.3703H29.2105V42.6956H26.4197V28.9434H31.1319L34.4486 40.2689H34.6509V28.9434H37.4419Z" fill="white"/>
<path d="M43.2259 31.3701V34.5856H48.1201V36.9721H43.2259V40.2687H49.3335V42.6956H40.4351V28.9434H49.3337V31.3703H43.2259V31.3701Z" fill="white"/>
<path d="M50.5264 28.9434H53.459L55.1577 40.3093H55.461L57.9283 28.9434H61.1642L63.6315 40.3093H63.9347L65.6335 28.9434H68.5661L65.9371 42.6956H61.7103L59.5462 32.2398L57.3824 42.6956H53.1556L50.5264 28.9434Z" fill="white"/>
<path d="M20.9899 63.8099C20.1539 63.3113 19.5506 62.5458 19.1799 61.5144C18.809 60.483 18.6238 59.145 18.6238 57.5C18.6238 55.8417 18.809 54.49 19.1799 53.4451C19.5506 52.4003 20.1539 51.6183 20.9899 51.099C21.8258 50.5801 22.938 50.3203 24.3269 50.3203C25.7153 50.3203 26.8277 50.5801 27.6639 51.099C28.4998 51.6183 29.1029 52.4003 29.474 53.4451C29.8447 54.4902 30.0301 55.8417 30.0301 57.5C30.0301 59.1178 29.8513 60.4394 29.4941 61.4638C29.1367 62.4886 28.5402 63.2607 27.7044 63.7794C26.8681 64.2987 25.7426 64.5581 24.3269 64.5581C22.938 64.5583 21.8258 64.3088 20.9899 63.8099ZM26.0359 61.6765C26.447 61.373 26.7367 60.8878 26.9054 60.2202C27.0738 59.5528 27.1582 58.6463 27.1582 57.5002C27.1582 56.3542 27.0704 55.4409 26.8954 54.7597C26.72 54.0792 26.4267 53.5735 26.0158 53.2431C25.6044 52.9128 25.0415 52.7476 24.3271 52.7476C23.6124 52.7476 23.0495 52.9128 22.6385 53.2431C22.2272 53.5737 21.9337 54.0792 21.7587 54.7597C21.5833 55.4409 21.4959 56.3542 21.4959 57.5002C21.4959 58.5654 21.5697 59.4284 21.7183 60.0888C21.8666 60.7496 22.1461 61.2551 22.5575 61.6056C22.9686 61.9564 23.5586 62.1314 24.3271 62.1314C25.0549 62.1312 25.6243 61.9797 26.0359 61.6765Z" fill="white"/>
<path d="M35.2071 52.9894V57.0342H40.1013V59.4611H35.2071V64.3147H32.4163V50.5625H41.1934V52.9894H35.2071Z" fill="white"/>
<path d="M45.9459 52.9894V57.0342H50.8401V59.4611H45.9459V64.3147H43.155V50.5625H51.9322V52.9894H45.9459Z" fill="white"/>
<path d="M56.6847 52.9896V56.2051H61.5789V58.5914H56.6847V61.8878H62.7922V64.3147H53.8938V50.5625H62.7922V52.9894H56.6847V52.9896Z" fill="white"/>
<path d="M65.0976 50.5625H70.4366C73.6725 50.5625 75.2902 52.0727 75.2902 55.0927C75.2902 56.8861 74.6158 58.2071 73.2677 59.0567L75.2297 64.3149H72.1758L70.5782 59.7038H67.8883V64.3149H65.0974V50.5625H65.0976ZM70.477 57.3173C71.1106 57.3173 71.596 57.1184 71.9331 56.7208C72.27 56.3232 72.4386 55.7872 72.4386 55.1128C72.4386 54.4389 72.2632 53.9096 71.9128 53.5254C71.5622 53.1411 71.0702 52.949 70.4364 52.949H67.8881V57.3173H70.477Z" fill="white"/>
</svg>
