<svg width="24" height="24" viewBox="0 0 24 24" fill="none" xmlns="http://www.w3.org/2000/svg">
<path d="M14.2 2H11.8C11.4684 2 11.2 2.26841 11.2 2.6C11.2 2.93159 11.4684 3.2 11.8 3.2H14.2C14.5316 3.2 14.8 2.93159 14.8 2.6C14.8 2.26841 14.5316 2 14.2 2Z" fill="#CD0B09"/>
<path d="M16.8 0H7.2C5.87682 0 4.8 1.07681 4.8 2.4V21.6C4.8 22.9232 5.87682 24 7.2 24H16.8C18.1232 24 19.2 22.9232 19.2 21.6V2.4C19.2 1.07681 18.1232 0 16.8 0ZM18 21.6C18 22.2628 17.4628 22.8 16.8 22.8H7.2C6.53719 22.8 6 22.2628 6 21.6V2.4C6 1.73719 6.53719 1.2 7.2 1.2H16.8C17.4628 1.2 18 1.73719 18 2.4V21.6Z" fill="#CD0B09"/>
<path d="M12 22.0016C12.6627 22.0016 13.2 21.4643 13.2 20.8016C13.2 20.1388 12.6627 19.6016 12 19.6016C11.3372 19.6016 10.8 20.1388 10.8 20.8016C10.8 21.4643 11.3372 22.0016 12 22.0016Z" fill="#CD0B09"/>
<path d="M9.80001 3.2C10.1314 3.2 10.4 2.93137 10.4 2.6C10.4 2.26863 10.1314 2 9.80001 2C9.46864 2 9.20001 2.26863 9.20001 2.6C9.20001 2.93137 9.46864 3.2 9.80001 3.2Z" fill="#CD0B09"/>
</svg>
