<svg width="64" height="63" viewBox="0 0 64 63" fill="none" xmlns="http://www.w3.org/2000/svg">
<g clip-path="url(#clip0_593_2056)">
<circle cx="32" cy="31.4483" r="30.4483" fill="white" stroke="#CD0B09" stroke-width="2"/>
<g clip-path="url(#clip1_593_2056)">
<path d="M46.8463 21.6736C46.4575 21.2141 45.9132 20.9334 45.3134 20.8833L24.1871 19.1193C23.5872 19.0692 23.004 19.2557 22.5444 19.6444C22.0867 20.0315 21.8065 20.5731 21.7548 21.17L21.3298 25.1576H19.6326C18.3902 25.1576 17.3794 26.1684 17.3794 27.4108V40.6355C17.3794 41.8779 18.3902 42.8887 19.6326 42.8887H40.8325C42.075 42.8887 43.0858 41.8779 43.0858 40.6355V38.4902L43.8381 38.553C43.9015 38.5583 43.9646 38.5609 44.0272 38.5609C45.1855 38.5609 46.1729 37.6698 46.271 36.4951L47.3714 23.3163C47.4215 22.7165 47.235 22.1331 46.8463 21.6736ZM19.6326 26.3295H40.8325C41.4288 26.3295 41.9139 26.8146 41.9139 27.4108V28.6159H18.5513V27.4108C18.5513 26.8146 19.0364 26.3295 19.6326 26.3295ZM18.5513 29.7877H41.9139V32.2187H18.5513V29.7877ZM40.8325 41.7169H19.6326C19.0364 41.7169 18.5513 41.2318 18.5513 40.6355V33.3906H41.9139V40.6355C41.9139 41.2318 41.4288 41.7169 40.8325 41.7169ZM46.2036 23.2188L45.1032 36.3976C45.0535 36.9918 44.5296 37.435 43.9356 37.3852L43.0858 37.3143V27.4108C43.0858 26.1684 42.075 25.1576 40.8325 25.1576H22.5083L22.9208 21.2881C22.9212 21.2837 22.9216 21.2793 22.922 21.2747C22.9716 20.6805 23.4952 20.2373 24.0896 20.2872L45.2159 22.0512C45.5038 22.0752 45.7651 22.2099 45.9516 22.4304C46.1381 22.651 46.2276 22.9309 46.2036 23.2188Z" fill="#CD0B09"/>
<path d="M39.4619 35.1328H33.8228C33.4991 35.1328 33.2368 35.3951 33.2368 35.7187V39.3978C33.2368 39.7214 33.4991 39.9837 33.8228 39.9837H39.4619C39.7855 39.9837 40.0479 39.7214 40.0479 39.3978V35.7187C40.0479 35.3951 39.7855 35.1328 39.4619 35.1328ZM38.876 38.8119H34.4087V36.3047H38.876V38.8119Z" fill="#CD0B09"/>
</g>
</g>
<defs>
<clipPath id="clip0_593_2056">
<rect width="62.8966" height="62.8966" fill="white" transform="translate(0.551758)"/>
</clipPath>
<clipPath id="clip1_593_2056">
<rect width="30" height="30" fill="white" transform="translate(17.3794 16)"/>
</clipPath>
</defs>
</svg>
