<svg width="64" height="63" viewBox="0 0 64 63" fill="none" xmlns="http://www.w3.org/2000/svg">
<g clip-path="url(#clip0_617_1853)">
<circle cx="32.0347" cy="31.4483" r="30.4483" fill="white" stroke="#939393" stroke-width="2"/>
<g clip-path="url(#clip1_617_1853)">
<path d="M42.52 35.2191H42.3653L40.6731 31.2722C40.9601 31.398 41.2693 31.4649 41.5825 31.4691C41.7068 31.4691 41.8261 31.4197 41.914 31.3318C42.0019 31.2439 42.0513 31.1247 42.0513 31.0004V27.2504C42.0513 27.126 42.0019 27.0068 41.914 26.9189C41.8261 26.831 41.7068 26.7816 41.5825 26.7816C41.0944 26.7843 40.6192 26.9393 40.2234 27.225C39.8276 27.5107 39.5309 27.9129 39.3747 28.3754C39.2368 28.1828 39.0608 28.0206 38.8576 27.8988C38.6544 27.7771 38.4283 27.6983 38.1935 27.6675C37.8957 27.6291 37.5934 27.6482 37.3028 27.7238H36.895C36.1028 27.7238 35.7513 27.255 35.1981 26.491L34.9216 26.1019C35.2052 26.0874 35.4801 25.9985 35.7185 25.8441C35.8993 25.7128 36.0525 25.5471 36.1691 25.3564C36.2858 25.1658 36.3636 24.954 36.3981 24.7332C36.5505 24.6454 36.6837 24.528 36.79 24.3879C36.8963 24.2478 36.9734 24.0879 37.0169 23.9175C37.0367 23.7832 37.0236 23.646 36.9787 23.5178C36.9338 23.3896 36.8584 23.2742 36.7591 23.1816C36.5677 22.8539 36.4628 22.4829 36.4544 22.1035C36.5754 22.0962 36.6889 22.0424 36.7711 21.9532C36.8532 21.8641 36.8977 21.7466 36.895 21.6254C36.8951 21.1285 36.7964 20.6366 36.6047 20.1783C36.413 19.7199 36.1322 19.3042 35.7785 18.9553C35.4248 18.6064 35.0053 18.3313 34.5444 18.1459C34.0834 17.9605 33.5902 17.8685 33.0935 17.8754C32.1186 17.8945 31.189 18.2904 30.4995 18.9798C29.81 19.6693 29.4142 20.5989 29.395 21.5738C29.3863 22.0708 29.4771 22.5645 29.6623 23.0259C29.8475 23.4872 30.1232 23.9067 30.4731 24.2597C30.5769 24.3628 30.6864 24.4598 30.8013 24.5504C28.9919 24.991 28.0403 26.6879 27.5528 28.1597C27.4141 28.0199 27.2491 27.909 27.0672 27.8334C26.8854 27.7578 26.6904 27.7189 26.4935 27.7191H21.5153C21.2653 27.7187 21.0193 27.7811 20.7997 27.9007C20.5802 28.0203 20.3943 28.1932 20.2591 28.4035C20.1913 28.5079 20.1678 28.635 20.1938 28.7567C20.2197 28.8785 20.2929 28.9849 20.3974 29.0527C20.5018 29.1205 20.6289 29.1439 20.7506 29.118C20.8724 29.0921 20.9788 29.0188 21.0466 28.9144C21.0971 28.8362 21.1665 28.772 21.2485 28.7277C21.3304 28.6835 21.4222 28.6606 21.5153 28.6613H22.3638V30.0675C22.3638 30.1919 22.4132 30.3111 22.5011 30.399C22.589 30.4869 22.7082 30.5363 22.8325 30.5363H25.1763C25.3006 30.5363 25.4198 30.4869 25.5077 30.399C25.5956 30.3111 25.645 30.1919 25.645 30.0675V28.6566H26.4935C26.5667 28.6566 26.6392 28.671 26.7069 28.6991C26.7746 28.7271 26.8361 28.7682 26.8879 28.82C26.9397 28.8718 26.9808 28.9333 27.0088 29.001C27.0368 29.0686 27.0513 29.1412 27.0513 29.2144V32.791C27.05 32.9381 26.9907 33.0788 26.8862 33.1824C26.7818 33.286 26.6406 33.3441 26.4935 33.3441H21.5153C21.3811 33.3478 21.2501 33.3021 21.1473 33.2157C21.0445 33.1293 20.977 33.0082 20.9575 32.8754H21.895C22.0193 32.8754 22.1386 32.826 22.2265 32.7381C22.3144 32.6502 22.3638 32.5309 22.3638 32.4066C22.3638 32.2823 22.3144 32.1631 22.2265 32.0751C22.1386 31.9872 22.0193 31.9379 21.895 31.9379H20.9575V31.0004H21.4263C21.5506 31.0004 21.6698 30.951 21.7577 30.8631C21.8456 30.7752 21.895 30.6559 21.895 30.5316C21.895 30.4073 21.8456 30.2881 21.7577 30.2001C21.6698 30.1122 21.5506 30.0629 21.4263 30.0629H19.0825C18.9582 30.0629 18.839 30.1122 18.7511 30.2001C18.6632 30.2881 18.6138 30.4073 18.6138 30.5316C18.6138 30.6559 18.6632 30.7752 18.7511 30.8631C18.839 30.951 18.9582 31.0004 19.0825 31.0004H20.02V31.9379H18.145C18.0207 31.9379 17.9015 31.9872 17.8136 32.0751C17.7257 32.1631 17.6763 32.2823 17.6763 32.4066C17.6763 32.5309 17.7257 32.6502 17.8136 32.7381C17.9015 32.826 18.0207 32.8754 18.145 32.8754H20.02C20.0415 33.2551 20.2074 33.6122 20.4837 33.8736C20.7599 34.1351 21.1256 34.281 21.506 34.2816H23.8497C23.6328 34.4943 23.448 34.7375 23.3013 35.0035C22.6753 36.2311 22.3538 37.5912 22.3638 38.9691C22.3638 39.0934 22.4132 39.2127 22.5011 39.3006C22.589 39.3885 22.7082 39.4379 22.8325 39.4379H24.2716C24.3915 40.3387 24.8346 41.1654 25.5183 41.7641C26.2021 42.3628 27.0799 42.6929 27.9888 42.6929C28.8976 42.6929 29.7755 42.3628 30.4592 41.7641C31.143 41.1654 31.586 40.3387 31.706 39.4379H38.8028C38.8931 40.154 39.1881 40.8289 39.6524 41.3815C40.1168 41.9342 40.7308 42.341 41.4207 42.5533C42.1106 42.7656 42.8471 42.7742 43.5418 42.5782C44.2365 42.3822 44.8598 41.9898 45.337 41.4482C45.8142 40.9066 46.125 40.2388 46.232 39.525C46.339 38.8111 46.2377 38.0816 45.9403 37.4239C45.6428 36.7662 45.1619 36.2083 44.5552 35.8172C43.9485 35.4261 43.2418 35.2184 42.52 35.2191ZM24.7075 29.5941H23.3013V28.6566H24.7075V29.5941ZM41.1138 27.7988V30.4519C40.8391 30.3553 40.6012 30.1758 40.4329 29.9382C40.2646 29.7005 40.1742 29.4165 40.1742 29.1254C40.1742 28.8342 40.2646 28.5502 40.4329 28.3126C40.6012 28.0749 40.8391 27.8954 41.1138 27.7988ZM38.0575 28.591C38.2413 28.6185 38.412 28.7022 38.5463 28.8306C38.6806 28.959 38.7718 29.1258 38.8075 29.3082L38.9294 29.5941C38.2768 29.9296 37.5486 30.091 36.8153 30.0629C36.7508 29.7844 36.7846 29.4922 36.9111 29.2358C37.0375 28.9795 37.2488 28.7748 37.5091 28.6566C37.6859 28.5993 37.8725 28.5785 38.0575 28.5957V28.591ZM35.7466 24.016C35.6686 24.0553 35.6031 24.1156 35.5575 24.1902C35.512 24.2647 35.4882 24.3505 35.4888 24.4379C35.4853 24.5559 35.4572 24.6718 35.4064 24.7784C35.3555 24.8849 35.283 24.9797 35.1935 25.0566C34.9263 25.2347 34.4294 25.1925 33.7872 24.9394C33.7529 24.9356 33.7184 24.9356 33.6841 24.9394L33.6138 24.8785V23.0832C33.6138 22.8209 33.718 22.5693 33.9035 22.3838C34.0889 22.1983 34.3405 22.0941 34.6028 22.0941H35.4888C35.5035 22.7009 35.694 23.2903 36.0372 23.791C35.9524 23.8817 35.8544 23.9591 35.7466 24.0207V24.016ZM30.3325 21.5832C30.356 20.8559 30.6554 20.1648 31.1699 19.6502C31.6844 19.1357 32.3755 18.8363 33.1028 18.8129H33.145C33.81 18.8124 34.4536 19.0476 34.9616 19.4767C35.4696 19.9057 35.8092 20.5009 35.92 21.1566H34.6028C34.0923 21.1578 33.6029 21.3612 33.2419 21.7222C32.8809 22.0833 32.6775 22.5726 32.6763 23.0832V24.4004C32.0142 24.2885 31.414 23.9435 30.9841 23.4277C30.5543 22.9118 30.3231 22.2592 30.3325 21.5879V21.5832ZM31.7388 25.3754C33.2716 25.3754 33.8341 26.1769 34.4294 27.0207C34.8606 27.6394 35.3669 28.3144 36.2106 28.5535C35.9452 28.9823 35.8252 29.4854 35.8685 29.9879C35.2867 29.8608 34.7379 29.6132 34.2576 29.2613C33.7772 28.9093 33.3759 28.4606 33.0794 27.9441C33.0539 27.8821 33.0153 27.8264 32.9664 27.7806C32.9175 27.7348 32.8593 27.7 32.7958 27.6786C32.7323 27.6572 32.665 27.6496 32.5983 27.6564C32.5317 27.6632 32.4672 27.6843 32.4094 27.7181C32.3515 27.7519 32.3016 27.7978 32.263 27.8525C32.2244 27.9073 32.1979 27.9697 32.1855 28.0355C32.173 28.1014 32.1748 28.1691 32.1907 28.2342C32.2067 28.2993 32.2364 28.3602 32.2778 28.4129C32.4478 28.698 32.6422 28.9678 32.8591 29.2191L32.8169 29.2472C32.3799 29.7498 32.0726 30.3517 31.9216 31.0004H27.9888V30.5316C28.0216 30.2457 28.556 25.3754 31.7388 25.3754ZM27.9888 32.7863V31.9379H32.2075C32.3013 31.9379 34.5513 31.966 34.5513 34.2816V36.6254H32.6763V35.6879C32.6881 35.3769 32.6356 35.0668 32.522 34.7771C32.4084 34.4874 32.2362 34.2243 32.0162 34.0042C31.7961 33.7842 31.533 33.612 31.2433 33.4984C30.9535 33.3848 30.6435 33.3323 30.3325 33.3441H27.881C27.9526 33.1669 27.9892 32.9774 27.9888 32.7863ZM27.9888 41.7816C27.3246 41.7809 26.6821 41.5452 26.1751 41.1163C25.668 40.6873 25.3292 40.0927 25.2185 39.4379H26.1794C26.2873 39.8351 26.523 40.1857 26.85 40.4357C27.177 40.6857 27.5772 40.8211 27.9888 40.8211C28.4004 40.8211 28.8006 40.6857 29.1276 40.4357C29.4545 40.1857 29.6902 39.8351 29.7981 39.4379H30.7591C30.6484 40.0927 30.3095 40.6873 29.8025 41.1163C29.2954 41.5452 28.6529 41.7809 27.9888 41.7816ZM27.1825 39.4379H28.795C28.712 39.5778 28.594 39.6936 28.4527 39.7741C28.3113 39.8546 28.1514 39.897 27.9888 39.897C27.8261 39.897 27.6662 39.8546 27.5249 39.7741C27.3835 39.6936 27.2655 39.5778 27.1825 39.4379ZM23.3013 38.5004C23.3611 37.4214 23.652 36.368 24.1544 35.4113C24.341 35.0644 24.6194 34.7755 24.9592 34.5762C25.299 34.377 25.6871 34.275 26.081 34.2816H30.3325C30.5199 34.2715 30.7072 34.3009 30.8824 34.368C31.0577 34.435 31.2168 34.5383 31.3494 34.6709C31.4821 34.8036 31.5853 34.9627 31.6524 35.1379C31.7195 35.3131 31.7489 35.5005 31.7388 35.6879V37.0941C31.7388 37.6012 31.9032 38.0947 32.2075 38.5004H23.3013ZM34.0825 38.5004C33.7924 38.4995 33.5096 38.409 33.273 38.2412C33.0363 38.0733 32.8574 37.8364 32.7606 37.5629H35.02C35.1424 37.555 35.2651 37.5727 35.3802 37.615C35.4953 37.6572 35.6003 37.723 35.6886 37.8081C35.7768 37.8933 35.8463 37.9959 35.8926 38.1095C35.9389 38.223 35.961 38.345 35.9575 38.4675C35.8021 38.4883 35.6456 38.4992 35.4888 38.5004H34.0825ZM37.0872 37.9519C37.0195 38.0285 36.9423 38.0963 36.8575 38.1535C36.8061 37.7991 36.6473 37.469 36.4026 37.2075C36.1579 36.946 35.839 36.7658 35.4888 36.691V34.2816C35.5311 33.5168 35.2863 32.7637 34.8026 32.1698C34.3188 31.5759 33.6307 31.1839 32.8731 31.0707C32.9933 30.6502 33.1992 30.2592 33.4778 29.9222C33.4899 29.9058 33.5009 29.8886 33.5106 29.8707C34.2382 30.4608 35.1137 30.8402 36.0419 30.9675L37.3638 36.7144C37.438 37.1472 37.3386 37.5919 37.0872 37.9519ZM38.3013 36.5222L37.0122 31.0004C37.8054 31.0077 38.5891 30.8278 39.2997 30.4754L41.5122 35.6316L39.4685 38.5004H37.8325C38.0382 38.2184 38.1857 37.8982 38.2662 37.5585C38.3466 37.2189 38.3586 36.8666 38.3013 36.5222ZM42.52 38.5004H41.7138C41.817 38.3216 41.9762 38.1819 42.1669 38.103C42.3576 38.024 42.569 38.0101 42.7683 38.0635C42.9677 38.117 43.1438 38.2347 43.2694 38.3984C43.3951 38.5621 43.4632 38.7627 43.4632 38.9691C43.4632 39.1755 43.3951 39.3761 43.2694 39.5398C43.1438 39.7035 42.9677 39.8212 42.7683 39.8747C42.569 39.9281 42.3576 39.9142 42.1669 39.8352C41.9762 39.7563 41.817 39.6166 41.7138 39.4379H42.52C42.6443 39.4379 42.7636 39.3885 42.8515 39.3006C42.9394 39.2127 42.9888 39.0934 42.9888 38.9691C42.9888 38.8448 42.9394 38.7256 42.8515 38.6376C42.7636 38.5497 42.6443 38.5004 42.52 38.5004ZM40.6169 38.5004L40.781 38.2707C40.7526 38.3456 40.7291 38.4224 40.7106 38.5004H40.6169ZM42.52 41.7816C41.8559 41.7809 41.2134 41.5452 40.7063 41.1163C40.1993 40.6873 39.8604 40.0927 39.7497 39.4379H40.7106C40.8133 39.8333 41.0423 40.1843 41.3628 40.4376C41.6832 40.6909 42.0777 40.8327 42.4861 40.8413C42.8945 40.8498 43.2945 40.7248 43.6254 40.4852C43.9562 40.2455 44.1997 39.9044 44.3189 39.5137C44.4381 39.1229 44.4264 38.704 44.2856 38.3205C44.1448 37.937 43.8827 37.61 43.539 37.3892C43.1953 37.1684 42.7889 37.0658 42.3816 37.0972C41.9743 37.1285 41.5884 37.2921 41.2825 37.5629L42.281 36.1566C42.3606 36.1566 42.4403 36.1566 42.52 36.1566C43.2659 36.1566 43.9813 36.4529 44.5088 36.9804C45.0362 37.5078 45.3325 38.2232 45.3325 38.9691C45.3325 39.715 45.0362 40.4304 44.5088 40.9578C43.9813 41.4853 43.2659 41.7816 42.52 41.7816Z" fill="#939393"/>
</g>
</g>
<defs>
<clipPath id="clip0_617_1853">
<rect width="62.8966" height="62.8966" fill="white" transform="translate(0.586426)"/>
</clipPath>
<clipPath id="clip1_617_1853">
<rect width="30" height="30" fill="white" transform="translate(17.2075 16)"/>
</clipPath>
</defs>
</svg>
