<svg width="63" height="63" viewBox="0 0 63 63" fill="none" xmlns="http://www.w3.org/2000/svg">
<g clip-path="url(#clip0_617_1874)">
<circle cx="31.4483" cy="31.4483" r="30.4483" fill="white" stroke="#CD0B09" stroke-width="2"/>
<g clip-path="url(#clip1_617_1874)">
<path d="M30.9375 21.5625V20.625C30.9375 18.0405 28.8345 15.9375 26.25 15.9375C23.6655 15.9375 21.5625 18.0405 21.5625 20.625V21.5625H15.9375V40.3125C15.9375 42.3843 17.6157 44.0625 19.6875 44.0625H29.7002C28.9407 43.5278 28.2564 42.8998 27.6654 42.1875H19.6875C18.6562 42.1875 17.8125 41.3434 17.8125 40.3125V23.4375H21.5625V25.3125H23.4375V23.4375H29.0625V25.3125H30.9375V23.4375H34.6875V25.3592C34.9969 25.3308 35.3064 25.3125 35.625 25.3125C35.9436 25.3125 36.2531 25.3308 36.5625 25.3592V21.5625H30.9375ZM23.4375 21.5625V20.625C23.4375 19.0741 24.6991 17.8125 26.25 17.8125C27.8009 17.8125 29.0625 19.0741 29.0625 20.625V21.5625H23.4375ZM35.625 44.0625C30.9723 44.0625 27.1875 40.2777 27.1875 35.625C27.1875 30.9723 30.9723 27.1875 35.625 27.1875C40.2777 27.1875 44.0625 30.9723 44.0625 35.625C44.0625 40.2777 40.2777 44.0625 35.625 44.0625ZM35.625 29.0625C32.0068 29.0625 29.0625 32.0068 29.0625 35.625C29.0625 39.2432 32.0068 42.1875 35.625 42.1875C39.2432 42.1875 42.1875 39.2432 42.1875 35.625C42.1875 32.0068 39.2432 29.0625 35.625 29.0625ZM34.6875 38.8257L31.4868 35.625L32.8125 34.2993L34.6875 36.1743L38.4375 32.4243L39.7632 33.75L34.6875 38.8257Z" fill="#CD0B09"/>
</g>
</g>
<defs>
<clipPath id="clip0_617_1874">
<rect width="62.8966" height="62.8966" fill="white"/>
</clipPath>
<clipPath id="clip1_617_1874">
<rect width="30" height="30" fill="white" transform="translate(15 15)"/>
</clipPath>
</defs>
</svg>
