<svg width="64" height="63" viewBox="0 0 64 63" fill="none" xmlns="http://www.w3.org/2000/svg">
<g clip-path="url(#clip0_617_1863)">
<circle cx="31.6206" cy="31.4483" r="30.4483" fill="white" stroke="#939393" stroke-width="2"/>
<g clip-path="url(#clip1_617_1863)">
<path d="M42.9893 32.7764V32.7578C42.9893 27.2505 39.2635 22.5976 34.2002 21.1857V20.4531C34.2002 18.6762 32.7545 17.2305 30.9775 17.2305C29.2006 17.2305 27.7549 18.6762 27.7549 20.4531V21.1857C22.6916 22.5976 18.9658 27.2505 18.9658 32.7578V33.6367H18.0869C17.6015 33.6367 17.208 34.0302 17.208 34.5156C17.208 36.9388 19.1794 38.9102 21.6025 38.9102H34.9105C35.0639 42.167 37.7615 44.7695 41.0557 44.7695C44.4481 44.7695 47.208 42.0096 47.208 38.6172C47.208 35.9 45.4373 33.5889 42.9893 32.7764ZM29.5127 20.4531C29.5127 19.6454 30.1698 18.9883 30.9775 18.9883C31.7853 18.9883 32.4424 19.6454 32.4424 20.4531V20.8356C31.9621 20.7769 31.4734 20.7461 30.9775 20.7461C30.4817 20.7461 29.993 20.7769 29.5127 20.8356V20.4531ZM20.7236 32.7578C20.7236 27.1038 25.3235 22.5039 30.9775 22.5039C36.5344 22.5039 41.0728 26.9471 41.2271 32.4674C41.1701 32.4658 41.113 32.4648 41.0557 32.4648C39.7091 32.4648 38.4624 32.9 37.4482 33.6367H20.7236V32.7578ZM35.08 37.1523H21.6025C20.4566 37.1523 19.4792 36.4176 19.1164 35.3945H35.817C35.4855 35.9315 35.2343 36.5231 35.08 37.1523ZM41.0557 43.0117C38.6325 43.0117 36.6611 41.0403 36.6611 38.6172C36.6611 36.194 38.6325 34.2227 41.0557 34.2227C43.4788 34.2227 45.4502 36.194 45.4502 38.6172C45.4502 41.0403 43.4788 43.0117 41.0557 43.0117Z" fill="#939393"/>
<path d="M41.0557 35.9805C40.5703 35.9805 40.1768 36.374 40.1768 36.8594V37.7383H39.2979C38.8125 37.7383 38.4189 38.1318 38.4189 38.6172C38.4189 39.1026 38.8125 39.4961 39.2979 39.4961H41.0557C41.5411 39.4961 41.9346 39.1026 41.9346 38.6172V36.8594C41.9346 36.374 41.5411 35.9805 41.0557 35.9805Z" fill="#939393"/>
</g>
</g>
<defs>
<clipPath id="clip0_617_1863">
<rect width="62.8966" height="62.8966" fill="white" transform="translate(0.172363)"/>
</clipPath>
<clipPath id="clip1_617_1863">
<rect width="30" height="30" fill="white" transform="translate(17.208 16)"/>
</clipPath>
</defs>
</svg>
