<svg width="40" height="40" viewBox="0 0 40 40" fill="none" xmlns="http://www.w3.org/2000/svg">
<path d="M38.7188 19.4687L1.28125 21.75L7.5625 17.3437C8.0625 17 8.6875 16.875 9.28125 17.0625C9.6875 17.1875 10.0937 17.25 10.5 17.25C12.0937 17.25 13.4063 16.2812 13.4063 15.0937C13.4063 14.9687 13.4062 14.875 13.375 14.75C13.2188 13.9687 13.5313 13.1562 14.1875 12.7187L24.6875 5.375C24.6562 5.4375 37.9062 6.28125 38.7188 19.4687Z" fill="#FFE17D"/>
<path d="M38.7188 19.4688V28.9687C38.7188 29.9687 37.9688 30.8438 36.9375 30.9375L28.9375 31.8125C28.25 31.875 27.5938 31.5625 27.1875 31.0313C26.375 30.0313 24.9063 29.8438 23.9063 30.6562C23.625 30.875 23.4063 31.125 23.2813 31.4375C23 32.0625 22.4063 32.5 21.7188 32.5938L3.5 34.5625C2.40625 34.6875 1.4375 33.9062 1.3125 32.8125C1.3125 32.75 1.3125 32.6563 1.3125 32.5938V21.75L38.7188 19.4688Z" fill="#FFC369"/>
<path d="M30.6562 16.8125C31.9679 16.8125 33.0312 16.015 33.0312 15.0312C33.0312 14.0475 31.9679 13.25 30.6562 13.25C29.3446 13.25 28.2812 14.0475 28.2812 15.0312C28.2812 16.015 29.3446 16.8125 30.6562 16.8125Z" fill="#FFC369"/>
<path d="M21.2812 15.875C22.3513 15.875 23.2188 15.2314 23.2188 14.4375C23.2188 13.6436 22.3513 13 21.2812 13C20.2112 13 19.3438 13.6436 19.3438 14.4375C19.3438 15.2314 20.2112 15.875 21.2812 15.875Z" fill="#FFC369"/>
<path d="M25.9063 11.1563C26.9763 11.1563 27.8438 10.5127 27.8438 9.71875C27.8438 8.92484 26.9763 8.28125 25.9063 8.28125C24.8362 8.28125 23.9688 8.92484 23.9688 9.71875C23.9688 10.5127 24.8362 11.1563 25.9063 11.1563Z" fill="#FFC369"/>
<path d="M34.8438 24.375C34.8438 25.375 34.0313 26.1562 33.0625 26.1562C32.0938 26.1562 31.25 25.375 31.25 24.375C31.25 23.375 32.0625 22.5938 33.0312 22.5938C34.0312 22.5938 34.8438 23.375 34.8438 24.375Z" fill="#FFAA5F"/>
<path d="M9.125 26.1562C9.125 27 8.4375 27.6875 7.59375 27.6875C6.75 27.6875 6.0625 27 6.0625 26.1562C6.0625 25.3125 6.75 24.625 7.59375 24.625C8.4375 24.625 9.125 25.3125 9.125 26.1562Z" fill="#FFAA5F"/>
<path d="M16.3438 29.0938C17.5001 29.0938 18.4375 28.1563 18.4375 27C18.4375 25.8437 17.5001 24.9062 16.3438 24.9062C15.1874 24.9062 14.25 25.8437 14.25 27C14.25 28.1563 15.1874 29.0938 16.3438 29.0938Z" fill="#FFAA5F"/>
<path d="M29.5 31.75C29.5312 32.0625 29.3125 32.3125 29 32.3438C28.125 32.4062 27.2812 32.0313 26.75 31.3438C25.9375 30.3125 24.3437 30.5 23.75 31.6563C23.375 32.4688 22.625 33 21.75 33.125L3.53125 35.0938C2.03125 35.25 0.71875 34.0938 0.71875 32.5938V21.75C0.71875 21.5938 0.78125 21.4062 0.9375 21.3125C10.625 14.5312 5.84375 17.875 7.25 16.9062C7.875 16.4375 8.6875 16.3125 9.4375 16.5625C10.4375 16.9063 11.5312 16.7188 12.3438 16.0625C12.6875 15.7813 12.875 15.3437 12.7813 14.9062C12.5625 13.9062 12.9688 12.875 13.8125 12.3125C14.0625 12.125 14.4062 12.1875 14.5625 12.4375C14.7188 12.6875 14.6875 13.0312 14.4375 13.1875C13.9688 13.5 13.75 14.0938 13.875 14.6562C14.0625 15.5 13.75 16.3438 13.0938 16.875C11.9688 17.7813 10.4688 18.0625 9.09375 17.5937C8.6875 17.4687 8.21875 17.5313 7.875 17.7813L3.1875 21.0625L9.71875 20.6562C10.0312 20.625 10.2812 20.8438 10.3125 21.1562C10.3438 21.4688 10.125 21.7188 9.8125 21.75C9.8125 21.75 9.8125 21.75 9.78125 21.75L1.84375 22.2813V32.5938C1.84375 33.4375 2.59375 34.125 3.4375 34.0312L21.6562 32.0625C22.1562 32 22.5938 31.6563 22.8125 31.1875C23.75 29.3125 26.3438 29.0312 27.6562 30.6875C27.9375 31.0938 28.4375 31.3125 28.9375 31.2812C29.1875 31.2188 29.4688 31.4375 29.5 31.75ZM9.125 25.625C8.8125 25.625 8.59375 25.875 8.5625 26.1562C8.5625 26.6875 8.125 27.125 7.59375 27.125C7.0625 27.125 6.625 26.6875 6.625 26.1562C6.625 25.625 7.0625 25.1875 7.59375 25.1875C7.90625 25.1875 8.15625 24.9375 8.15625 24.625C8.15625 24.3125 7.90625 24.0625 7.59375 24.0625C6.4375 24.0625 5.53125 25 5.53125 26.125C5.53125 27.25 6.46875 28.1875 7.59375 28.1875C8.71875 28.1875 9.65625 27.25 9.65625 26.125C9.6875 25.875 9.4375 25.625 9.125 25.625ZM16.7188 17.6875C16.9062 17.5 16.9375 17.125 16.7188 16.9062C16.5312 16.7188 16.1875 16.6875 15.9375 16.9062C15.6875 17.1875 15.75 17.5937 16.0312 17.75C16.25 17.9062 16.5625 17.875 16.7188 17.6875ZM13.7188 27C13.7188 25.5313 14.9063 24.3438 16.375 24.3438C17.8438 24.3438 19.0312 25.5313 19.0312 27C19.0312 28.4688 17.8438 29.6562 16.375 29.6562C14.875 29.625 13.7188 28.4688 13.7188 27ZM14.8125 27C14.8125 27.8438 15.5 28.5625 16.375 28.5625C17.25 28.5625 17.9375 27.875 17.9375 27C17.9375 26.125 17.25 25.4375 16.375 25.4375C15.5 25.4375 14.8125 26.1562 14.8125 27ZM8.40625 29.75C8.1875 30 8.21875 30.3125 8.40625 30.5312C8.625 30.75 8.96875 30.75 9.1875 30.5312C9.40625 30.3125 9.40625 29.9688 9.1875 29.75C8.9375 29.5312 8.625 29.5312 8.40625 29.75ZM16.4062 11.8438L16.6562 11.6875C16.9062 11.5313 16.9688 11.1875 16.8125 10.9375C16.6562 10.6875 16.3125 10.625 16.0625 10.7812L15.8125 10.9375C15.5625 11.125 15.5 11.4375 15.6875 11.6875C15.8125 11.9688 16.1562 12.0313 16.4062 11.8438ZM13.4063 20.4688H13.1562C12.8438 20.4688 12.625 20.7188 12.625 21.0313C12.625 21.3438 12.875 21.5625 13.1875 21.5625H13.2188H13.4688C13.7812 21.5625 14 21.2812 14 21C14 20.6875 13.75 20.4688 13.4063 20.4688ZM27.7187 15.0312C27.7187 13.75 29.0312 12.7188 30.6562 12.7188C32.2812 12.7188 33.5938 13.75 33.5938 15.0312C33.5938 16.3125 32.2812 17.3438 30.6562 17.3438C29.0312 17.3438 27.7187 16.3125 27.7187 15.0312ZM28.8125 15.0312C28.8125 15.6875 29.6562 16.25 30.6562 16.25C31.6562 16.25 32.5 15.6875 32.5 15.0312C32.5 14.375 31.6562 13.8125 30.6562 13.8125C29.6562 13.8125 28.8125 14.375 28.8125 15.0312ZM25.9062 10.625C25.1562 10.625 24.5312 10.2188 24.5312 9.75C24.5312 9.4375 24.2812 9.1875 23.9687 9.1875C23.6562 9.1875 23.4062 9.4375 23.4062 9.75C23.4062 10.8438 24.5 11.7188 25.875 11.7188C27.25 11.7188 28.3437 10.8438 28.3437 9.75C28.3437 8.65625 27.25 7.78125 25.875 7.78125C25.5625 7.78125 25.3125 8.03125 25.3125 8.34375C25.3125 8.65625 25.5625 8.90625 25.875 8.90625C26.625 8.90625 27.25 9.3125 27.25 9.78125C27.2812 10.1875 26.625 10.625 25.9062 10.625ZM39.25 19.4375C38.4375 5.90625 24.8125 4.90625 24.6875 4.875C24.5625 4.875 24.4375 4.90625 24.3438 4.96875L18.125 9.3125C17.875 9.5 17.8125 9.8125 18 10.0625C18.1875 10.3125 18.5 10.375 18.75 10.1875L24.7812 5.96875C26.3438 6.125 37.0938 7.6875 38.125 18.9375L16.5313 20.25C16.2188 20.25 16 20.5 16 20.8125C16 21.125 16.25 21.3438 16.5625 21.3438H16.5938L38.1562 20.0312V28.9375C38.1562 29.6562 37.5938 30.2812 36.875 30.375L33.375 30.75C33.0625 30.7813 32.8437 31.0625 32.875 31.3438C32.9062 31.6563 33.1875 31.875 33.4688 31.8438L36.9688 31.4688C38.25 31.3438 39.2188 30.25 39.2188 28.9688C39.2812 22.75 39.3125 20.1562 39.25 19.4375ZM23.75 14.4375C23.75 15.5312 22.6562 16.4062 21.2812 16.4062C19.9062 16.4062 18.8125 15.5312 18.8125 14.4375C18.8125 13.3438 19.9062 12.4688 21.2812 12.4688C22.6562 12.4688 23.75 13.3125 23.75 14.4375ZM22.6562 14.4375C22.6562 13.9688 22 13.5625 21.2812 13.5625C20.5625 13.5625 19.9062 13.9688 19.9062 14.4375C19.9062 14.9062 20.5625 15.3125 21.2812 15.3125C22 15.3125 22.6562 14.9062 22.6562 14.4375ZM31.125 31.0313H31.0312C30.7188 31.0625 30.5 31.3438 30.5312 31.625C30.5625 31.9375 30.8437 32.1563 31.125 32.125H31.2188C31.5312 32.0938 31.7188 31.8125 31.6875 31.5C31.6875 31.1875 31.4375 31 31.125 31.0313ZM29.5937 28.0938C29.3437 28.3438 29.4062 28.7812 29.6875 28.9375C29.875 29.0625 30.1562 29.0625 30.375 28.875C30.5937 28.6563 30.5937 28.3125 30.375 28.0938C30.125 27.875 29.7812 27.9062 29.5937 28.0938ZM30.7188 24.375C30.7188 23.0938 31.75 22.0312 33.0625 22.0312C34.3438 22.0312 35.4062 23.0625 35.4062 24.375C35.4062 25.6562 34.375 26.7188 33.0625 26.7188C31.75 26.7188 30.7188 25.6562 30.7188 24.375ZM31.8125 24.375C31.8125 25.0625 32.375 25.625 33.0625 25.625C33.75 25.625 34.3125 25.0625 34.3125 24.375C34.3125 23.6875 33.75 23.125 33.0625 23.125C32.3438 23.125 31.8125 23.6875 31.8125 24.375ZM23.4062 24.2188C23.625 24 23.625 23.6562 23.4062 23.4375C23.1875 23.25 22.8438 23.25 22.625 23.4375C22.4062 23.6562 22.4062 24 22.625 24.2188C22.8438 24.4375 23.1875 24.4375 23.4062 24.2188Z" fill="#3D2B2D"/>
</svg>
