<svg width="40" height="40" viewBox="0 0 40 40" fill="none" xmlns="http://www.w3.org/2000/svg">
<path d="M18.3483 25.3148L16.8588 25.46C16.3421 25.5104 15.8697 25.1524 15.7974 24.6538L12.5433 2.17671C12.4481 1.51814 12.8625 0.920914 13.4655 0.853165L15.7937 0.59224C16.3992 0.524186 16.947 1.01521 17.011 1.67897L19.1952 24.3208C19.2437 24.8228 18.8659 25.2644 18.3483 25.3148Z" fill="#FCCF3F"/>
<path d="M14.4812 27.0224L13.0017 27.096C12.4884 27.1216 12.0297 26.7493 11.9721 26.2583L9.36892 4.13096C9.29263 3.48307 9.72018 2.92186 10.3198 2.88768L12.6322 2.75554C13.233 2.72136 13.7616 3.22856 13.8065 3.87919L15.3467 26.0895C15.3809 26.5824 14.9948 26.9968 14.4812 27.0224Z" fill="#EFC03C"/>
<path d="M12.2693 28.572L10.8191 28.739C10.3165 28.797 9.83367 28.4616 9.7348 27.984L5.29908 6.51674C5.16968 5.88961 5.54047 5.31069 6.12488 5.23318L8.38135 4.93441C8.9682 4.85659 9.53033 5.31405 9.63012 5.94698L13.0423 27.6007C13.1183 28.0822 12.7734 28.5138 12.2693 28.572Z" fill="#FCCF3F"/>
<path d="M21.7281 25.3147L23.2177 25.46C23.7344 25.5103 24.2068 25.1524 24.2791 24.6537L27.5329 2.17696C27.6284 1.5184 27.214 0.920864 26.6106 0.85342L24.2825 0.59219C23.6773 0.524441 23.1295 1.01516 23.0654 1.67922L20.8813 24.3208C20.8328 24.8228 21.2103 25.2644 21.7281 25.3147Z" fill="#FCCF3F"/>
<path d="M25.5954 27.0224L27.0749 27.096C27.5882 27.1216 28.0468 26.7493 28.1045 26.2583L30.7077 4.13096C30.784 3.48307 30.3564 2.92186 29.7567 2.88768L27.4441 2.75554C26.8435 2.72136 26.315 3.22856 26.2701 3.87919L24.7299 26.0895C24.6957 26.5824 25.0815 26.9968 25.5954 27.0224Z" fill="#EFC03C"/>
<path d="M27.8069 28.572L29.2574 28.7389C29.7601 28.7969 30.2428 28.4615 30.3414 27.9839L34.7771 6.51699C34.9068 5.88985 34.536 5.31063 33.9516 5.23312L31.6952 4.93435C31.1083 4.85684 30.5462 5.31399 30.4464 5.94723L27.0339 27.6006C26.9579 28.0822 27.3028 28.5137 27.8069 28.572Z" fill="#FCCF3F"/>
<path d="M20.5462 27.7397H19.0679C18.5549 27.7397 18.1326 27.3491 18.12 26.8605L17.5573 4.85431C17.5408 4.21008 18.0175 3.67969 18.6175 3.67969H20.9286C21.5282 3.67969 22.0068 4.21008 21.9921 4.85431L21.4916 26.8605C21.4806 27.3491 21.0592 27.7397 20.5462 27.7397Z" fill="#EFC03C"/>
<path d="M20.6094 29.7645L19.2517 30.3215C18.7805 30.5147 18.2361 30.3206 18.0283 29.8835L8.68441 10.2214C8.41128 9.64648 8.63466 8.98608 9.18306 8.75689L11.2973 7.8728C11.8463 7.64331 12.4976 7.93872 12.7426 8.52648L21.1249 28.6125C21.3113 29.0587 21.0809 29.5711 20.6094 29.7645Z" fill="#FCCF3F"/>
<path d="M20.6235 33.2752L19.1577 33.343C18.649 33.3665 18.2016 33.0003 18.1531 32.5187L15.9705 10.8592C15.9067 10.226 16.3391 9.67908 16.9327 9.64765L19.2212 9.5268C19.8154 9.49537 20.329 9.9928 20.3622 10.6285L21.4969 32.3637C21.5219 32.8468 21.1328 33.252 20.6235 33.2752Z" fill="#EFC03C"/>
<path d="M26.9478 29.6418L28.3718 29.7055C28.8659 29.7278 29.309 29.3814 29.3667 28.9264L31.95 8.5267C32.025 7.93252 31.6176 7.41952 31.0436 7.39022L28.8299 7.2767C28.2549 7.2474 27.7468 7.71401 27.7007 8.31033L26.1193 28.7799C26.0839 29.2365 26.4532 29.6195 26.9478 29.6418Z" fill="#EFC03C"/>
<path d="M21.4672 32.9481L23.0141 33.1919C23.5509 33.2768 24.0563 32.9139 24.1481 32.3783L27.781 11.1577C27.8746 10.6117 27.5035 10.0948 26.9564 10.0087L24.8482 9.67636C24.301 9.59 23.789 9.9678 23.7099 10.5159L20.6383 31.8251C20.5608 32.3631 20.9301 32.8636 21.4672 32.9481Z" fill="#FCCF3F"/>
<path d="M27.2394 13.6914C26.9299 13.6914 26.655 13.884 26.5442 14.173C25.5402 16.7877 23.0066 18.6444 20.0381 18.6444C17.07 18.6444 14.5365 16.7877 13.5324 14.173C13.4213 13.884 13.1467 13.6914 12.8372 13.6914H6.01688C5.55607 13.6914 5.20603 14.1071 5.28446 14.5612L9.46231 38.796C9.52395 39.1528 9.8331 39.4131 10.195 39.4131H29.8816C30.2435 39.4131 30.5527 39.1528 30.6143 38.796L34.7921 14.5612C34.8706 14.1067 34.5205 13.6914 34.0594 13.6914H27.2394Z" fill="#FC4E51"/>
<path d="M34.0594 13.6914H29.3701C29.8312 13.6914 30.181 14.1071 30.1025 14.5612L25.9247 38.7963C25.863 39.1528 25.5539 39.4131 25.1923 39.4131H29.8816C30.2435 39.4131 30.5527 39.1528 30.6143 38.7963L34.7922 14.5612C34.8706 14.1067 34.5205 13.6914 34.0594 13.6914Z" fill="#EA3942"/>
<path d="M32.8575 25.7832H7.21887L8.03003 30.4896H32.0461L32.8575 25.7832Z" fill="#F3E8D7"/>
<path d="M32.8575 25.7832H28.1679L27.3564 30.4896H32.0461L32.8575 25.7832Z" fill="#E5D8C6"/>
<path d="M26.1455 28.2771C26.1455 31.6499 23.4112 34.3842 20.0381 34.3842C16.6653 34.3842 13.9309 31.6499 13.9309 28.2771C13.9309 24.904 16.6653 22.1699 20.0381 22.1699C23.4112 22.1699 26.1455 24.904 26.1455 28.2771Z" fill="#EFA335"/>
<path d="M22.7972 22.8281C22.9645 23.3854 23.0557 23.9759 23.0557 24.5875C23.0557 27.9606 20.3213 30.6946 16.9482 30.6946C15.9552 30.6946 15.0183 30.456 14.1895 30.0354C14.9451 32.5504 17.2772 34.3833 20.0381 34.3833C23.4112 34.3833 26.1453 31.6489 26.1453 28.2761C26.1456 25.8964 24.7833 23.8358 22.7972 22.8281Z" fill="#FD8F31"/>
<path d="M20.0381 21.584C16.3476 21.584 13.345 24.5866 13.345 28.2771C13.345 31.9676 16.3476 34.9702 20.0381 34.9702C23.7289 34.9702 26.7312 31.9676 26.7312 28.2771C26.7312 24.5866 23.7289 21.584 20.0381 21.584ZM20.0381 33.7983C16.9936 33.7983 14.5168 31.3215 14.5168 28.2771C14.5168 25.2327 16.9936 22.7559 20.0381 22.7559C23.0828 22.7559 25.5596 25.2327 25.5596 28.2771C25.5596 31.3215 23.0828 33.7983 20.0381 33.7983Z" fill="black"/>
<path d="M34.0593 13.1066H34.0136L35.3508 6.63449C35.4494 6.15781 35.3518 5.66739 35.0829 5.28928C34.8311 4.93467 34.4564 4.70823 34.0282 4.65146L31.7717 4.3527C31.6021 4.33012 31.433 4.33683 31.2694 4.36765L31.2893 4.1995C31.3466 3.71153 31.2063 3.22477 30.9038 2.86466C30.6206 2.52714 30.2251 2.32756 29.7899 2.30284L28.1191 2.20732C28.174 1.73277 28.0465 1.25548 27.7645 0.890487C27.4932 0.539536 27.1065 0.319505 26.6759 0.271287L24.3478 0.010057C23.9175 -0.0384659 23.4899 0.0897078 23.1438 0.370469C22.7709 0.672897 22.5298 1.12944 22.4819 1.62291L22.2701 3.81834C22.214 3.73502 22.1508 3.65659 22.0803 3.58457C21.7709 3.26811 21.3619 3.09385 20.9286 3.09385H18.6175C18.3102 3.09385 18.0163 3.18296 17.7605 3.34684L17.5942 1.62291C17.5466 1.12944 17.3052 0.672897 16.9323 0.370469C16.5865 0.0897078 16.1593 -0.0381606 15.7284 0.010057L13.4002 0.271287C12.9696 0.319505 12.5829 0.539536 12.3116 0.890487C12.0297 1.25548 11.9021 1.73277 11.957 2.20732L10.2862 2.30284C9.85133 2.32756 9.45551 2.52714 9.17231 2.86466C8.86988 3.22477 8.7295 3.71153 8.78688 4.1995L8.80671 4.36796C8.64314 4.33713 8.47438 4.33012 8.30439 4.3527L6.04793 4.65146C5.61977 4.70823 5.24532 4.93467 4.99324 5.28928C4.72439 5.66739 4.62673 6.15781 4.7253 6.63449L6.06258 13.1066H6.0168C5.62404 13.1066 5.25356 13.2788 5.00026 13.5794C4.74697 13.88 4.64016 14.2745 4.70699 14.6615L8.88484 38.8967C8.99531 39.536 9.54615 39.9999 10.195 39.9999H29.8815C30.5303 39.9999 31.0811 39.536 31.1913 38.8967L35.3695 14.6615C35.4363 14.2745 35.3292 13.88 35.0762 13.5794C34.8229 13.2788 34.4524 13.1066 34.0593 13.1066ZM31.0985 5.82303C31.2099 5.61551 31.4193 5.48734 31.6182 5.5145L33.8747 5.81296C34.0053 5.83036 34.0844 5.90665 34.1277 5.96799C34.2086 6.08182 34.2363 6.23837 34.2034 6.39737L32.8173 13.1063H31.9606L32.531 8.60135C32.5887 8.14755 32.4587 7.69253 32.1746 7.35318C31.8981 7.02237 31.5069 6.82797 31.0735 6.8057L30.9832 6.80112L31.0985 5.82303ZM30.2993 7.93942L31.0137 7.97604C31.1471 7.98306 31.2301 8.0502 31.2761 8.10513C31.3527 8.19668 31.3854 8.32058 31.3686 8.45395L30.7793 13.1066H28.0419L28.3587 11.2567C28.4243 10.8737 28.3474 10.4898 28.1453 10.1626L28.2848 8.35629C28.2982 8.18081 28.395 8.0264 28.529 7.93851C28.6092 7.88601 28.7029 7.85733 28.8 7.86282L30.2984 7.93942H30.2993ZM27.39 3.34074C27.3977 3.34104 27.4053 3.34043 27.4132 3.34104H27.4135L29.7234 3.47257C29.8632 3.48081 29.9547 3.55619 30.0066 3.61784C30.1021 3.73197 30.1455 3.89402 30.1256 4.06248L29.9459 5.59262C29.9459 5.59262 29.9456 5.59293 29.9456 5.59323L29.8107 6.741L28.8598 6.69248C27.968 6.6467 27.1868 7.35257 27.1163 8.26596L27.0266 9.42654L26.4785 9.34017L26.8545 3.91996C26.8764 3.59831 27.1206 3.3386 27.39 3.34074ZM27.2036 11.0589L26.8429 13.1662C26.4608 13.2846 26.1477 13.572 25.9972 13.9639C25.5395 15.1559 24.7423 16.1746 23.6919 16.91C23.5793 16.9888 23.4646 17.0626 23.348 17.1334L24.2901 10.5996C24.3056 10.4907 24.363 10.3949 24.4515 10.3299C24.54 10.2642 24.6483 10.238 24.757 10.2551L25.7564 10.4126C25.7567 10.4126 25.7574 10.4126 25.758 10.4129L26.8651 10.5874C26.9738 10.6045 27.069 10.6631 27.1331 10.7525C27.1972 10.8419 27.2222 10.9506 27.2036 11.0589ZM22.3406 15.2917L23.6483 1.73552C23.6663 1.55241 23.7511 1.3867 23.8821 1.2805C23.9529 1.22313 24.0691 1.15782 24.2171 1.17461L26.5456 1.43553C26.69 1.4517 26.784 1.53776 26.8371 1.60673C26.9369 1.73582 26.9793 1.91313 26.953 2.09318L26.9326 2.23417C26.9228 2.23722 26.9134 2.24089 26.9036 2.24394C26.8914 2.24791 26.8792 2.25218 26.8673 2.25645C26.8307 2.26896 26.7943 2.2827 26.7589 2.29795C26.7498 2.30162 26.7406 2.30558 26.7315 2.30986C26.6622 2.34068 26.5954 2.37608 26.531 2.41606C26.5252 2.41941 26.5197 2.42308 26.5139 2.42674C26.4739 2.45237 26.4345 2.47953 26.3967 2.50853C26.3933 2.51097 26.39 2.5131 26.3866 2.51585C26.3662 2.53141 26.3463 2.54759 26.3268 2.56407C26.3225 2.56773 26.3183 2.57139 26.314 2.57505C26.2804 2.60404 26.2481 2.63395 26.2166 2.66539C26.2087 2.67332 26.2011 2.68095 26.1931 2.68919C26.1773 2.70567 26.1611 2.72245 26.1458 2.73985C26.1291 2.75877 26.1126 2.77799 26.0967 2.79753C26.0818 2.81584 26.0674 2.83415 26.0531 2.85276C26.0424 2.86711 26.032 2.88175 26.0213 2.8964C26.0079 2.91532 25.9945 2.93485 25.9814 2.95469C25.9667 2.97727 25.9524 3.00016 25.9386 3.02336C25.9301 3.0377 25.9218 3.05204 25.9139 3.06669C25.8993 3.09294 25.8852 3.11949 25.8718 3.14665C25.8657 3.15946 25.8593 3.17259 25.8535 3.18571C25.8407 3.21317 25.8285 3.24125 25.8169 3.26963C25.8123 3.28123 25.8077 3.29252 25.8031 3.30412C25.7897 3.33952 25.7772 3.37553 25.7656 3.41184C25.7628 3.42069 25.7604 3.42985 25.758 3.439C25.7479 3.47227 25.739 3.50614 25.7308 3.54063C25.7293 3.54795 25.7271 3.55528 25.7256 3.56291C25.7168 3.60258 25.7094 3.64286 25.703 3.68345C25.7018 3.6926 25.7003 3.70206 25.6991 3.71122C25.6933 3.75333 25.6884 3.79606 25.6853 3.83909L25.3167 9.15707L24.9392 9.09787C24.5187 9.03103 24.0981 9.13418 23.7557 9.38687C23.413 9.63986 23.1908 10.0113 23.1301 10.4327L22.3241 16.0244L22.3406 15.2917ZM18.305 4.40336C18.366 4.34049 18.4698 4.26572 18.6175 4.26572H20.9286C21.0763 4.26572 21.1806 4.3408 21.2423 4.40397C21.3503 4.51444 21.4101 4.67374 21.4065 4.84098L21.1758 14.9758L20.9472 10.5978C20.9234 10.1413 20.7323 9.71798 20.4095 9.40579C20.0747 9.0823 19.6423 8.9172 19.19 8.94131L18.2491 8.99105L18.2293 8.22201C18.2293 8.22201 18.2293 8.22201 18.2293 8.22171L18.1429 4.83945C18.1387 4.67222 18.1979 4.51322 18.305 4.40336ZM19.2519 10.1114C19.4173 10.1037 19.5382 10.1934 19.595 10.2484C19.7042 10.3537 19.7689 10.4995 19.7771 10.6588L20.1632 18.0569C20.1217 18.0575 20.0799 18.059 20.0381 18.059C19.0493 18.059 18.0901 17.8347 17.2189 17.4044L16.5533 10.8001C16.5371 10.6408 16.5817 10.4867 16.6753 10.3775C16.7288 10.3155 16.8218 10.2398 16.9634 10.2322L19.2519 10.1114ZM13.2391 1.60673C13.2925 1.53746 13.3865 1.4517 13.5308 1.43553L15.859 1.17461C16.0076 1.15782 16.1233 1.22313 16.1944 1.2805C16.325 1.3867 16.4101 1.55241 16.4278 1.73552L17.0583 8.27237L17.0785 9.053L16.9015 9.06216C16.4678 9.08535 16.0717 9.28158 15.7858 9.61483C15.4846 9.96639 15.3393 10.4409 15.3872 10.9176L15.7095 14.1146L14.9825 12.3727L14.3908 3.83909C14.3878 3.79606 14.3829 3.75364 14.3771 3.71153C14.3759 3.70206 14.3743 3.69291 14.3731 3.68345C14.3667 3.64286 14.3594 3.60258 14.3505 3.5626C14.349 3.55589 14.3472 3.54887 14.3456 3.54215C14.3374 3.50675 14.3282 3.47227 14.3182 3.43778C14.3157 3.42985 14.3133 3.4213 14.3108 3.41337C14.2993 3.37583 14.2864 3.33921 14.2724 3.3029C14.2687 3.29313 14.2648 3.28336 14.2608 3.2736C14.248 3.24156 14.2343 3.21012 14.2199 3.1793C14.2172 3.1732 14.2147 3.16709 14.2117 3.1616C14.1955 3.12742 14.1778 3.09446 14.1595 3.06211C14.1537 3.05143 14.1476 3.04075 14.1415 3.03007C14.1229 2.99864 14.1036 2.96751 14.0835 2.9376C14.078 2.92936 14.0722 2.92143 14.0664 2.91319C14.0496 2.88877 14.0322 2.86497 14.0142 2.84178C14.0069 2.83201 13.9993 2.82225 13.9919 2.81278C13.9697 2.78501 13.9468 2.75816 13.923 2.73191C13.915 2.72306 13.9068 2.71452 13.8986 2.70567C13.8778 2.6837 13.8571 2.66264 13.8354 2.64219C13.829 2.63578 13.8226 2.62937 13.8159 2.62297C13.7893 2.59825 13.7621 2.57475 13.7341 2.55155C13.7255 2.54454 13.717 2.53782 13.7081 2.5308C13.6791 2.50761 13.6492 2.48533 13.619 2.46397C13.6151 2.46153 13.6111 2.45909 13.6074 2.45665C13.5778 2.4365 13.5476 2.41728 13.5168 2.39927C13.5104 2.39531 13.504 2.39164 13.4976 2.38798C13.4637 2.36814 13.4289 2.34983 13.3935 2.33274C13.3895 2.33061 13.3853 2.32878 13.3813 2.32695C13.3444 2.30955 13.3071 2.29307 13.269 2.27842C13.269 2.27812 13.2687 2.27812 13.2684 2.27812C13.229 2.26286 13.1887 2.24913 13.1478 2.23692C13.1463 2.23661 13.1451 2.236 13.1439 2.23539L13.1231 2.09318C13.0972 1.91313 13.1393 1.73582 13.2391 1.60673ZM10.0698 3.61784C10.1217 3.55619 10.213 3.48051 10.353 3.47288L12.6641 3.34074H12.6657C12.6684 3.34074 12.6714 3.34104 12.6742 3.34074C12.9489 3.3325 13.1994 3.59342 13.222 3.91996L13.5742 8.99746L13.2833 8.30044C13.1072 7.879 12.785 7.54452 12.3754 7.35928C12.3248 7.33609 12.2732 7.31625 12.2213 7.29825C12.2183 7.29733 12.2152 7.29611 12.2122 7.29489C12.1621 7.27811 12.1121 7.26437 12.0614 7.25217C12.0565 7.25125 12.0513 7.24972 12.0465 7.2485C11.997 7.23721 11.9476 7.22897 11.8978 7.22226C11.8917 7.22134 11.8853 7.22043 11.8792 7.21982C11.8304 7.21402 11.7813 7.21036 11.7324 7.20914C11.7254 7.20914 11.7187 7.20883 11.712 7.20853C11.7037 7.20853 11.6955 7.20792 11.6876 7.20792C11.6616 7.20792 11.636 7.21036 11.6101 7.21158C11.5881 7.2128 11.5658 7.2131 11.5438 7.21493C11.5109 7.21799 11.4782 7.22348 11.4453 7.22836C11.4248 7.23172 11.4041 7.23355 11.3836 7.23752C11.3479 7.24484 11.3125 7.2543 11.2768 7.26376C11.26 7.26834 11.2429 7.2717 11.2258 7.27658C11.1737 7.29245 11.1221 7.31076 11.0711 7.33212L10.3698 7.6254L10.2639 6.72604L9.95051 4.06278C9.93098 3.89402 9.97431 3.73197 10.0698 3.61784ZM9.40882 9.29714L9.75581 9.15188L10.1046 9.00631H10.1049L11.5234 8.41305C11.6766 8.34927 11.8203 8.39413 11.8923 8.42648C12.0306 8.48935 12.1404 8.6047 12.2021 8.7518L15.1199 15.7437C14.6813 15.2139 14.3295 14.6151 14.0795 13.9639C13.8796 13.4429 13.392 13.1063 12.8372 13.1063H10.7043L9.21382 9.96975C9.14515 9.8251 9.13508 9.66518 9.18666 9.5306C9.19734 9.50192 9.21321 9.46957 9.23518 9.43752C9.2721 9.38412 9.32704 9.33132 9.40882 9.29714ZM5.87306 6.39737C5.84011 6.23837 5.86757 6.08182 5.94844 5.96799C5.99208 5.90695 6.07112 5.83036 6.20174 5.81327L8.4582 5.5145C8.65657 5.48856 8.86622 5.61582 8.97792 5.82334L9.10182 6.87528L9.24525 8.09536L8.95686 8.21621C8.55616 8.38376 8.24916 8.70175 8.0923 9.1119C7.92659 9.54434 7.94978 10.0402 8.15547 10.4727L9.40699 13.1066H7.25917L5.87306 6.39737ZM34.2147 14.4625L32.3641 25.1974H28.532C28.2085 25.1974 27.9461 25.4595 27.9461 25.7833C27.9461 26.1068 28.2085 26.3692 28.532 26.3692H32.1621L31.5526 29.9038H28.6092C28.2854 29.9038 28.0233 30.1659 28.0233 30.4897C28.0233 30.8135 28.2854 31.0757 28.6092 31.0757H31.3506L30.0368 38.6974C30.0237 38.7731 29.9584 38.828 29.8815 38.828H10.195C10.118 38.828 10.0527 38.7731 10.0396 38.6974L8.72584 31.0757H11.4672C11.7907 31.0757 12.0532 30.8135 12.0532 30.4897C12.0532 30.1659 11.7907 29.9038 11.4672 29.9038H8.52381L7.91438 26.3692H11.5624C11.8859 26.3692 12.1484 26.1068 12.1484 25.7833C12.1484 25.4595 11.8859 25.1974 11.5624 25.1974H7.71235L5.86177 14.4625C5.8514 14.4027 5.8749 14.36 5.89656 14.3344C5.91793 14.3087 5.95638 14.2782 6.01711 14.2782H12.8372C12.9028 14.2782 12.9608 14.3197 12.9855 14.3838C13.5272 15.7946 14.4702 17.0001 15.7128 17.8698C16.9845 18.7603 18.4805 19.2309 20.0384 19.2309C20.1183 19.2309 20.1992 19.2291 20.281 19.2263C20.3191 19.2251 20.3576 19.2236 20.396 19.2217C20.4296 19.2199 20.4635 19.2181 20.4974 19.2159C20.8538 19.1946 21.2057 19.1488 21.5517 19.0783C21.553 19.078 21.5539 19.078 21.5548 19.0777C22.5591 18.8732 23.5119 18.4661 24.3636 17.8698C25.6063 17.0001 26.5493 15.7946 27.091 14.3838C27.1157 14.3197 27.174 14.2782 27.2393 14.2782H34.0596C34.1201 14.2782 34.1585 14.3087 34.1799 14.3341C34.2015 14.36 34.2247 14.4027 34.2147 14.4625Z" fill="black"/>
</svg>
