<svg width="40" height="40" viewBox="0 0 40 40" fill="none" xmlns="http://www.w3.org/2000/svg">
<g clip-path="url(#clip0_118_5040)">
<path d="M32.1977 13.4047V33.875C32.1977 36.2945 30.4617 38.3625 28.0797 38.7875C26.1625 39.1297 23.5125 39.4141 20 39.4141C19.2321 39.4141 18.5055 39.4008 17.818 39.3758L17.1742 37.6742L13.6031 37.4734L13.0571 38.9695C12.6524 38.9117 12.2742 38.8508 11.9203 38.7875C9.53831 38.3625 7.80237 36.2945 7.80237 33.875V13.4047C7.80237 7.55156 12.6805 7.23281 12.6805 7.23281V3.79297H27.3196V7.23281C27.3196 7.23281 32.1977 7.55156 32.1977 13.4047Z" fill="#EDF3F4"/>
<path d="M27.3194 7.23352V7.23328H27.3197V3.79313H27.3194V3.79297L12.6803 3.79313V6.6157H23.4598C23.8861 6.6157 24.2317 6.96133 24.2317 7.38766V8.12945C24.2317 8.48797 24.4806 8.79625 24.8298 8.87766C26.1323 9.18156 29.1096 10.3764 29.1096 14.9489V34.4927C29.1096 36.529 27.8807 38.3152 26.0728 39.0841C26.8154 38.9953 27.4831 38.8941 28.0798 38.7877C30.4612 38.3623 32.1973 36.2951 32.1973 33.8751V13.4051C32.1973 7.55234 27.3194 7.23352 27.3194 7.23352Z" fill="#CBE5E7"/>
<path d="M25.9817 25.8002V16.834C25.9817 16.834 19.2259 9.38181 7.98397 11.5881C7.86843 12.1252 7.80249 12.7276 7.80249 13.4049V25.8001H25.9817V25.8002Z" fill="#BCEA73"/>
<path d="M20.9327 15.6664C15.9174 17.9558 11.2465 16.6887 7.80249 14.819V33.8764C7.80249 36.2959 9.53866 38.3637 11.9205 38.7888C13.8377 39.131 16.4877 39.4155 20 39.4155C23.5123 39.4155 26.1623 39.131 28.0794 38.7888C30.4613 38.3637 32.1975 36.2959 32.1975 33.8764V13.4063C32.1975 13.3587 32.1963 13.3124 32.1956 13.2655C29.3198 13.1391 25.4673 13.5963 20.9327 15.6664Z" fill="#E2F4C6"/>
<path d="M16.5352 31.1542C17.0215 31.1993 17.5254 31.1318 18.0093 30.9358C19.6244 30.2814 20.4032 28.4415 19.7487 26.8264C17.3993 21.0288 18.9102 13.075 18.9257 12.9953C19.2644 11.2859 18.1528 9.62792 16.4434 9.28925C14.7341 8.95035 13.0732 10.0641 12.7346 11.7735C12.6556 12.1724 10.8342 21.6306 13.9 29.1966C14.3584 30.3275 15.3984 31.0486 16.5352 31.1542Z" fill="#158F5E"/>
<path d="M18.0094 30.9358C17.5251 31.1319 17.0212 31.1991 16.5352 31.1546C16.129 31.1163 15.7344 30.9999 15.3751 30.8131C15.4446 30.7913 15.5134 30.7663 15.5821 30.7381C17.1977 30.0842 17.9759 28.2444 17.3219 26.6288C14.9719 20.8311 16.4829 12.8772 16.4985 12.7975C16.7782 11.3866 16.0696 10.0108 14.8524 9.38424C15.3493 9.22174 15.8938 9.18033 16.443 9.28893C18.1524 9.62799 19.2641 11.2858 18.9259 12.9952C18.9102 13.0749 17.3993 21.0288 19.7485 26.8264C20.4032 28.4413 19.6243 30.2811 18.0094 30.9358Z" fill="#0C6842"/>
<path d="M18.9259 12.9953C18.9197 13.0281 18.6494 14.4484 18.5119 16.5141C16.2728 17.0695 14.1369 16.9766 12.1892 16.5211C12.3376 13.8281 12.7001 11.9469 12.7345 11.7734C13.0736 10.0641 14.7337 8.95079 16.4431 9.28907C18.1525 9.62813 19.2642 11.2859 18.9259 12.9953Z" fill="#26D192"/>
<path d="M16.443 9.28885C15.8939 9.18018 15.3501 9.22198 14.8533 9.38464C16.0699 10.0114 16.7782 11.3868 16.4985 12.7974C16.4914 12.8339 16.1724 14.5135 16.0517 16.8796C16.8544 16.8381 17.6758 16.7212 18.5118 16.5139C18.6493 14.4482 18.9196 13.0279 18.9258 12.9951C19.2641 11.2857 18.1524 9.62792 16.443 9.28885Z" fill="#1EB07C"/>
<path d="M28.9766 13.3908C29.0621 13.8653 29.1097 14.3883 29.1097 14.9654V34.5091C29.1097 36.545 27.8813 38.3308 26.0742 39.1C26.8162 39.0115 27.4834 38.9108 28.0796 38.8043C30.4615 38.3791 32.1977 36.3114 32.1977 33.8919V13.4219C32.1977 13.3742 32.1965 13.328 32.1958 13.281C31.2294 13.2385 30.1523 13.2625 28.9766 13.3908Z" fill="#BCEA73"/>
<path d="M27.86 4.22234H12.1401C11.7099 4.22234 11.3611 3.87352 11.3611 3.44328V1.365C11.3611 0.934766 11.7099 0.585938 12.1401 0.585938H27.86C28.2902 0.585938 28.6391 0.934766 28.6391 1.365V3.44328C28.6391 3.87352 28.2902 4.22234 27.86 4.22234Z" fill="#FCA863"/>
<path d="M28.6391 1.36484V3.44297C28.6391 3.87344 28.2899 4.22266 27.8602 4.22266H24.7352C25.1649 4.22266 25.5141 3.87344 25.5141 3.44297V1.36484C25.5141 0.934375 25.1649 0.585938 24.7352 0.585938H27.8602C28.2899 0.585938 28.6391 0.934375 28.6391 1.36484Z" fill="#FB8627"/>
<path d="M24.985 35.5716C24.5521 35.5874 24.1091 35.5027 23.6903 35.3051C22.2923 34.6453 21.6939 32.9774 22.3536 31.5793C24.7218 26.5611 23.7781 19.4418 23.7682 19.3705C23.5531 17.8397 24.6198 16.4264 26.1505 16.2112C27.6812 15.9958 29.0969 17.0646 29.3121 18.5953C29.3622 18.9524 30.5064 27.4196 27.4159 33.9684C26.9539 34.9474 25.9971 35.5345 24.985 35.5716Z" fill="#158F5E"/>
<path d="M27.4157 33.9683C26.954 34.948 25.9969 35.5347 24.9852 35.5714C24.5524 35.5878 24.1094 35.5027 23.6899 35.305C23.643 35.2831 23.5969 35.2597 23.5516 35.2347C24.1259 34.9683 24.6134 34.5073 24.9048 33.8902C27.9946 27.3417 26.8509 18.8745 26.8009 18.5175C26.6719 17.6027 26.1149 16.8534 25.361 16.4441C25.6055 16.3308 25.8704 16.2511 26.1509 16.2113C27.6813 15.9956 29.097 17.0644 29.3126 18.5956C29.3626 18.9527 30.5063 27.4198 27.4157 33.9683Z" fill="#0C6842"/>
<path d="M11.7816 34.1058C11.4303 33.8522 11.1329 33.5132 10.924 33.0998C10.2267 31.7202 10.7798 30.0366 12.1593 29.3393C17.1116 26.8361 20.7426 20.64 20.7787 20.5778C21.5497 19.238 23.2599 18.7787 24.5996 19.5497C25.9395 20.3206 26.3995 22.0337 25.6285 23.3735C25.4485 23.6861 21.1474 31.0686 14.6846 34.3353C13.7183 34.8236 12.6028 34.6985 11.7816 34.1058Z" fill="#1EB07C"/>
<path d="M25.6282 23.3741C25.4485 23.6866 21.1469 31.0687 14.6844 34.3359C13.718 34.8241 12.6024 34.6991 11.7813 34.1062C11.5868 33.9656 11.4086 33.7991 11.2532 33.6077C11.6493 33.5952 12.0485 33.4984 12.425 33.3077C18.8883 30.0413 23.1891 22.6593 23.3696 22.346C23.9649 21.3101 23.8258 20.0515 23.1118 19.1773C23.6157 19.1609 24.1305 19.2796 24.5993 19.5499C25.9391 20.321 26.3993 22.0343 25.6282 23.3741Z" fill="#158F5E"/>
<path d="M31.9124 9.62375C31.7557 9.34062 31.3989 9.23805 31.116 9.39492C30.8329 9.55172 30.7305 9.9082 30.8872 10.1913C31.2706 10.8838 31.5027 11.7123 31.5812 12.6609C28.9334 12.6258 26.2119 13.0836 23.4555 14.0273C22.2275 13.2163 20.9171 12.5362 19.5521 12.0015C19.3882 10.4108 18.2064 9.04055 16.5571 8.71383C15.5771 8.51945 14.5795 8.71898 13.7486 9.27578C13.2368 9.61867 12.8265 10.072 12.5412 10.5987C11.3146 10.5734 10.0651 10.657 8.81288 10.8487C9.87585 8.06398 12.5782 7.82773 12.7184 7.8175C13.0265 7.79727 13.2661 7.54156 13.2661 7.23281V4.80828H26.7336V7.23281C26.7336 7.53984 26.9727 7.79484 27.2789 7.81734C27.2892 7.81805 28.3226 7.90063 29.3623 8.56547C29.4601 8.62805 29.5694 8.65789 29.6775 8.65789C29.8707 8.65789 30.0598 8.56234 30.1716 8.38758C30.346 8.11492 30.2663 7.75258 29.9937 7.57828C29.1966 7.06859 28.4094 6.83578 27.9055 6.73102V4.80594C28.6369 4.78156 29.2248 4.18047 29.2248 3.44328V1.365C29.2249 0.612344 28.6126 0 27.8599 0H12.1401C11.3874 0 10.7751 0.612344 10.7751 1.365V3.44336C10.7751 4.18055 11.363 4.78164 12.0944 4.80602V6.73094C11.5716 6.83953 10.7441 7.08578 9.91679 7.63625C7.68499 9.12125 7.21655 11.593 7.21655 13.4051V33.875C7.21655 36.5798 9.15155 38.8884 11.8176 39.3643C12.5466 39.4944 13.3269 39.6065 14.1369 39.6973C14.1591 39.6998 14.1812 39.7011 14.203 39.7011C14.4973 39.7011 14.7509 39.4798 14.7845 39.1804C14.8206 38.8588 14.5892 38.5689 14.2676 38.5328C13.4827 38.4448 12.7277 38.3363 12.0235 38.2107C9.91718 37.8348 8.38843 36.0114 8.38843 33.8751V15.7752C9.45155 16.2891 10.5186 16.6882 11.5819 16.9712C11.5075 18.6605 11.5217 20.6228 11.7419 22.6609C11.7767 22.9826 12.0658 23.2142 12.3874 23.1805C12.7091 23.1457 12.9418 22.8566 12.907 22.5349C12.7026 20.6434 12.681 18.8208 12.7425 17.2339C13.0654 17.2941 13.3877 17.3445 13.7092 17.3827C14.2658 17.4489 14.8198 17.4819 15.3706 17.4819C16.2172 17.4819 17.0561 17.4032 17.8849 17.2477C17.8041 19.0238 17.8374 21.1539 18.1823 23.2684C17.0901 24.6487 15.6261 26.2604 13.9264 27.537C13.67 26.728 13.4515 25.871 13.276 24.979C13.2135 24.6616 12.9051 24.4548 12.588 24.5172C12.2705 24.5797 12.0637 24.8877 12.1262 25.2053C12.3349 26.2662 12.6017 27.2824 12.9201 28.2327C12.5854 28.4439 12.2435 28.6399 11.8949 28.8161C10.2292 29.658 9.55905 31.6982 10.401 33.364C10.6447 33.8459 11.0034 34.2666 11.4386 34.5806C12.0289 35.0068 12.7222 35.2238 13.4199 35.2237C13.9407 35.2237 14.4641 35.1028 14.9487 34.8578C18.1913 33.2188 20.8983 30.5744 22.838 28.266C22.5855 29.4078 22.2464 30.433 21.8236 31.3291C21.0271 33.0169 21.7523 35.0382 23.4401 35.8348C23.8918 36.0479 24.3889 36.1591 24.8853 36.1591C24.9257 36.1591 24.9661 36.1584 25.0065 36.157C26.2772 36.1102 27.4034 35.3675 27.9458 34.2184C31.1093 27.515 29.9435 18.878 29.8923 18.5136C29.7665 17.6183 29.2995 16.8252 28.5775 16.2805C27.8551 15.7355 26.964 15.5049 26.069 15.6309C24.5253 15.8479 23.3522 17.0938 23.1777 18.5919C22.0168 18.6023 20.8907 19.2081 20.2719 20.2834C20.2602 20.3034 19.87 20.9667 19.1826 21.9346C18.986 20.1637 18.9918 18.428 19.0718 16.9707C19.7823 16.7712 20.4843 16.5138 21.176 16.1981C24.7335 14.5741 28.2409 13.7795 31.6116 13.8334V33.875C31.6116 36.0113 30.0829 37.8347 27.9766 38.2106C25.6811 38.6204 22.9973 38.8281 20 38.8281C18.872 38.8281 17.7733 38.798 16.7344 38.7387C16.4112 38.7185 16.1345 38.9671 16.116 39.2902C16.0975 39.6134 16.3445 39.8902 16.6676 39.9086C17.7286 39.9692 18.8498 40 20 40C23.0662 40 25.8192 39.7861 28.1824 39.3642C30.8484 38.8884 32.7834 36.5798 32.7834 33.8749V13.405C32.7834 11.9398 32.4904 10.6676 31.9124 9.62375ZM11.9469 3.44328V1.365C11.9469 1.25852 12.0336 1.17188 12.1401 1.17188H27.8599C27.9664 1.17188 28.053 1.25844 28.053 1.365V3.44336C28.053 3.54984 27.9664 3.63648 27.8599 3.63648H12.1401C12.0336 3.63641 11.9469 3.54984 11.9469 3.44328ZM26.2322 16.7913C26.817 16.7087 27.3994 16.8598 27.8718 17.2162C28.3441 17.5725 28.6496 18.0912 28.7319 18.6766C28.7811 19.0269 29.9018 27.3278 26.8861 33.7182C26.5314 34.4696 25.7948 34.9554 24.9636 34.9859C24.6091 34.999 24.2644 34.928 23.9404 34.7752C22.8369 34.2543 22.3628 32.9328 22.8835 31.8293C23.6005 30.3101 24.0924 28.4658 24.347 26.3473C25.4402 24.8616 26.0692 23.782 26.1362 23.6655C26.5872 22.8819 26.7062 21.9693 26.4714 21.0959C26.2364 20.222 25.6755 19.4925 24.8918 19.0416C24.7114 18.9378 24.5251 18.8536 24.3356 18.7862C24.4246 17.7808 25.2021 16.9361 26.2322 16.7913ZM21.2865 20.8698C21.695 20.1599 22.4404 19.7625 23.2065 19.7625C23.5808 19.7625 23.9601 19.8575 24.3073 20.0573C24.8194 20.3519 25.1861 20.8287 25.3397 21.4001C25.4933 21.9714 25.4155 22.5684 25.1205 23.0809C24.9441 23.3874 20.7266 30.6244 14.4202 33.812C13.6785 34.1868 12.7989 34.1172 12.1245 33.6305C12.1245 33.6305 12.1245 33.6304 12.1244 33.6304C11.8366 33.4227 11.6086 33.1552 11.4469 32.8353C10.8965 31.7463 11.3346 30.4123 12.4237 29.8619C17.5278 27.282 21.2485 20.9352 21.2865 20.8698ZM8.38843 14.4649V13.405C8.38843 12.9277 8.42358 12.4915 8.48702 12.092C9.71241 11.8746 10.9366 11.7648 12.1391 11.7666C12.0624 12.179 11.8018 13.6805 11.6512 15.7761C10.5669 15.4692 9.47608 15.031 8.38843 14.4649ZM13.8474 16.2191C13.5012 16.178 13.1537 16.1226 12.8051 16.0537C12.967 13.6465 13.2859 12.0042 13.3092 11.8866C13.4426 11.2131 13.8304 10.6317 14.401 10.2493C14.9716 9.86695 15.6564 9.72984 16.3294 9.86336C17.7191 10.1386 18.626 11.4923 18.3505 12.8827C18.3455 12.9084 18.1065 14.1631 17.9599 16.036C16.6142 16.3213 15.2391 16.3843 13.8474 16.2191ZM20.6893 15.132C20.1859 15.3617 19.6765 15.5564 19.1622 15.7191C19.275 14.4605 19.4223 13.5522 19.4778 13.2337C20.3722 13.6041 21.2403 14.041 22.0732 14.5401C21.6126 14.7241 21.1513 14.9211 20.6893 15.132Z" fill="black"/>
<path d="M15.6953 29.2988H15.4187C15.0951 29.2988 14.8328 29.5611 14.8328 29.8848C14.8328 30.2084 15.0951 30.4707 15.4187 30.4707H15.6953C16.0189 30.4707 16.2813 30.2084 16.2813 29.8848C16.2813 29.5611 16.0189 29.2988 15.6953 29.2988Z" fill="black"/>
<path d="M21.3134 24.0234H21.5901C21.9137 24.0234 22.176 23.7612 22.176 23.4375C22.176 23.1138 21.9137 22.8516 21.5901 22.8516H21.3134C20.9898 22.8516 20.7274 23.1138 20.7274 23.4375C20.7274 23.7612 20.9897 24.0234 21.3134 24.0234Z" fill="black"/>
<path d="M14.6035 19.3141C14.3747 19.0854 14.0036 19.0854 13.7749 19.3141C13.5461 19.543 13.5461 19.914 13.7749 20.1428L13.9705 20.3384C14.0849 20.4528 14.2349 20.51 14.3848 20.51C14.5347 20.51 14.6847 20.4528 14.7991 20.3384C15.0279 20.1095 15.0279 19.7386 14.7991 19.5098L14.6035 19.3141Z" fill="black"/>
<path d="M14.4852 22.1272L14.6808 22.3228C14.7952 22.4372 14.9451 22.4944 15.0951 22.4944C15.2451 22.4944 15.3951 22.4372 15.5095 22.3227C15.7383 22.0939 15.7383 21.7229 15.5094 21.4941L15.3138 21.2985C15.085 21.0698 14.714 21.0698 14.4852 21.2986C14.2565 21.5274 14.2563 21.8984 14.4852 22.1272Z" fill="black"/>
<path d="M24.5487 30.3767L24.3531 30.5723C24.1242 30.8011 24.1242 31.1721 24.353 31.4009C24.4674 31.5153 24.6174 31.5725 24.7674 31.5725C24.9173 31.5725 25.0672 31.5153 25.1816 31.401L25.3773 31.2053C25.6061 30.9765 25.6062 30.6055 25.3774 30.3767C25.1485 30.1479 24.7775 30.1478 24.5487 30.3767Z" fill="black"/>
<path d="M25.1218 27.6813L24.9261 27.877C24.6973 28.1059 24.6973 28.4768 24.9261 28.7056C25.0405 28.82 25.1905 28.8772 25.3404 28.8772C25.4904 28.8772 25.6404 28.82 25.7547 28.7056L25.9504 28.51C26.1792 28.2811 26.1792 27.9102 25.9504 27.6813C25.7216 27.4526 25.3506 27.4526 25.1218 27.6813Z" fill="black"/>
<path d="M15.4115 12.2184C15.1827 11.9897 14.8117 11.9897 14.5829 12.2185C14.3542 12.4473 14.3542 12.8183 14.583 13.0471L14.7786 13.2427C14.893 13.3571 15.0429 13.4143 15.1929 13.4143C15.3429 13.4143 15.4929 13.3571 15.6073 13.2426C15.8361 13.0138 15.8361 12.6428 15.6072 12.4141L15.4115 12.2184Z" fill="black"/>
<path d="M13.7883 30.3027H13.5116C13.188 30.3027 12.9257 30.565 12.9257 30.8887C12.9257 31.2123 13.188 31.4746 13.5116 31.4746H13.7883C14.1119 31.4746 14.3743 31.2123 14.3743 30.8887C14.3743 30.565 14.1119 30.3027 13.7883 30.3027Z" fill="black"/>
</g>
<defs>
<clipPath id="clip0_118_5040">
<rect width="40" height="40" fill="white"/>
</clipPath>
</defs>
</svg>
