<svg width="40" height="40" viewBox="0 0 40 40" fill="none" xmlns="http://www.w3.org/2000/svg">
<g clip-path="url(#clip0_118_5258)">
<path d="M32.8286 10.2535L23.7041 1.12901C23.5403 0.965182 23.2735 0.976432 23.12 1.15003C20.7411 3.84237 20.8388 7.96995 23.4132 10.5444C23.4538 10.5849 23.4958 10.6231 23.5371 10.6624C24.4013 9.89307 25.5744 9.47776 26.8153 9.6126C28.4258 9.78768 29.7259 10.843 30.2917 12.2473C31.1985 11.9689 32.0587 11.4993 32.8076 10.8376C32.9813 10.6842 32.9924 10.4174 32.8286 10.2535Z" fill="#FFF5C6"/>
<path d="M25.9579 9.60637C26.238 9.58012 26.5247 9.5809 26.8153 9.61246C27.4658 9.68316 28.0653 9.89824 28.5867 10.2211C29.6415 10.1472 30.6753 9.70926 31.4798 8.90465L25.0527 2.47754C23.2808 4.24949 23.2808 7.1327 25.0527 8.90465C25.3301 9.18199 25.6347 9.41582 25.9579 9.60637Z" fill="#FFF9E2"/>
<path d="M26.6924 7.26516C27.5603 8.13305 28.9725 8.13305 29.8404 7.26516L26.6924 4.11719C25.8245 4.98508 25.8245 6.39727 26.6924 7.26516Z" fill="#FFF5C6"/>
<path d="M17.4727 15.7726C18.0696 15.5009 18.7381 15.3629 19.4382 15.3978C20.0328 15.4275 20.5923 15.5787 21.0947 15.8253C21.7283 14.1483 23.3878 12.9944 25.2746 13.0885C26.5112 13.1502 27.5973 13.7357 28.3296 14.6192C28.9235 13.9625 29.7095 13.5092 30.568 13.3194C30.3376 11.4041 28.8154 9.82952 26.8153 9.6121C25.1032 9.42601 23.5196 10.2867 22.6995 11.6805C21.8037 10.9632 20.6217 10.6091 19.3982 10.7984C18.2664 10.9736 17.3096 11.5815 16.6685 12.4273C17.4573 12.9446 17.734 14.2387 17.4727 15.7726Z" fill="#97D729"/>
<path d="M25.6821 16.2254C27.9799 16.2254 30.009 17.3708 31.2333 19.1208L31.2332 19.1208C32.5243 17.8415 34.1145 17.0912 35.6823 16.8946C35.4692 15.3274 34.3844 13.9429 32.7784 13.4255C31.1392 12.8975 29.4142 13.4205 28.3296 14.6201C27.5971 13.7365 26.511 13.1511 25.2746 13.0893C23.3878 12.9952 21.7282 14.1491 21.0946 15.8261C20.5922 15.5795 20.0327 15.4283 19.4381 15.3986C18.7379 15.3637 18.0696 15.5017 17.4726 15.7734C17.3517 16.4832 17.1164 17.2437 16.7626 18.0025C16.576 18.4027 16.3678 18.7779 16.1442 19.1238C15.9685 19.3959 15.9146 19.7287 15.9985 20.0417L16.5531 22.1117H18.9675C19.4016 18.7902 22.2422 16.2254 25.6821 16.2254Z" fill="#BBEC6C"/>
<path d="M6.68156 20.2986C6.02641 20.913 5.58172 21.5736 5.41656 22.1893H16.5741L15.9985 20.0412C15.9147 19.7283 15.9685 19.3954 16.1443 19.1233C16.3677 18.7773 16.576 18.4021 16.7627 18.002C17.9363 15.4849 17.8145 12.9441 16.4905 12.3266C15.6316 11.9262 14.478 12.4342 13.453 13.5273C13.4921 13.1832 13.5132 12.8265 13.5132 12.4602C13.5132 9.68305 12.3289 7.43164 10.868 7.43164C9.57719 7.43164 8.50297 9.18984 8.27024 11.515C8.00922 11.1637 7.71148 10.8165 7.37789 10.4829C5.41414 8.51914 2.98477 7.76453 1.9518 8.79758C0.918828 9.83055 1.67336 12.2599 3.63711 14.2237C3.9707 14.5573 4.31789 14.855 4.66922 15.116C2.34414 15.3487 0.585938 16.4229 0.585938 17.7137C0.585938 19.1746 2.83727 20.3589 5.61453 20.3589C5.98078 20.3589 6.3375 20.3377 6.68156 20.2986Z" fill="#05E39C"/>
<path d="M6.68156 20.2989C6.05406 20.8874 5.61984 21.5183 5.43914 22.1115H8.83789C8.50063 21.9339 8.24469 21.6883 8.09812 21.374C7.78508 20.7026 8.02719 19.851 8.66992 19.0216C8.86891 18.7649 8.6793 18.3917 8.35453 18.3959C8.31367 18.3964 8.27273 18.3966 8.23164 18.3966C5.45445 18.3966 3.20312 17.2124 3.20312 15.7515C3.20312 15.625 3.22055 15.5007 3.2532 15.3789C1.66641 15.8237 0.585938 16.7023 0.585938 17.7141C0.585938 19.1749 2.83727 20.3592 5.61453 20.3592C5.98078 20.3592 6.3375 20.338 6.68156 20.2989Z" fill="#0ED290"/>
<path d="M32.3964 22.1116H36.8372C37.8436 20.4842 38.1842 18.6264 37.8232 16.9818C35.6586 16.5066 33.1249 17.2463 31.2332 19.1207C31.8417 19.9904 32.2523 21.0089 32.3964 22.1116Z" fill="#00C285"/>
<path d="M36.8373 22.1112C37.8437 20.4838 38.1843 18.6261 37.8232 16.9814L32.6935 22.1112H36.8373Z" fill="#0ED290"/>
<path d="M32.3964 22.1109C31.9624 18.7894 29.1218 16.2246 25.682 16.2246C22.2421 16.2246 19.4015 18.7894 18.9675 22.1109H32.3964Z" fill="#FB2B3A"/>
<path d="M22.9488 22.1109C23.2955 19.4584 25.1765 17.2884 27.6724 16.5221C27.043 16.3289 26.3748 16.2246 25.6821 16.2246C22.2423 16.2246 19.4016 18.7894 18.9677 22.1109H22.9488Z" fill="#E41F2D"/>
<path d="M14.9008 7.91092C14.7998 8.01186 14.8096 8.17788 14.9205 8.2678C15.9094 9.06858 17.3637 9.00905 18.2834 8.08936C19.2032 7.16967 19.2626 5.71538 18.4619 4.72647C18.372 4.61553 18.206 4.60569 18.105 4.70671L14.9008 7.91092Z" fill="#FFF5C6"/>
<path d="M35.6962 7.94731C35.7972 8.04825 35.9632 8.03848 36.0531 7.92755C36.8539 6.93864 36.7944 5.48442 35.8747 4.56466C34.9549 3.64489 33.5007 3.58544 32.5118 4.38622C32.4008 4.47606 32.391 4.64208 32.492 4.74309L35.6962 7.94731Z" fill="#FFF5C6"/>
<path d="M3.20496 24.3447C3.69027 30.7878 7.69394 36.2487 13.3 38.8122C13.553 38.9279 13.8279 38.9881 14.1061 38.9881H26.911C27.1893 38.9881 27.4642 38.9279 27.7171 38.8122C33.3232 36.2486 37.3269 30.7878 37.8122 24.3447H3.20496Z" fill="#FEF0AE"/>
<path d="M9.15386 24.3447H3.20496C3.69027 30.7878 7.69394 36.2487 13.3 38.8122C13.553 38.9279 13.8279 38.9881 14.1061 38.9881H20.055C19.7768 38.9881 19.5019 38.9279 19.2489 38.8122C13.6429 36.2486 9.63917 30.7878 9.15386 24.3447Z" fill="#FEE97D"/>
<path d="M39.0152 24.3448H2.00186C1.78154 24.3448 1.60303 24.1663 1.60303 23.946V22.5102C1.60303 22.2898 1.78162 22.1113 2.00186 22.1113H39.0152C39.2355 22.1113 39.414 22.2899 39.414 22.5102V23.946C39.414 24.1663 39.2354 24.3448 39.0152 24.3448Z" fill="#FEDF30"/>
<path d="M9.251 23.946V22.5102C9.251 22.2898 9.42959 22.1113 9.64982 22.1113H2.00186C1.78154 22.1113 1.60303 22.2899 1.60303 22.5102V23.946C1.60303 24.1663 1.78162 24.3448 2.00186 24.3448H9.6499C9.42959 24.3449 9.251 24.1663 9.251 23.946Z" fill="#FED402"/>
<path d="M25.682 17.9307C25.3584 17.9307 25.0961 18.193 25.0961 18.5166V19.2194C25.0961 19.543 25.3584 19.8054 25.682 19.8054C26.0056 19.8054 26.2679 19.543 26.2679 19.2194V18.5166C26.2679 18.193 26.0056 17.9307 25.682 17.9307Z" fill="black"/>
<path d="M23.9494 18.8243C23.7876 18.5441 23.4292 18.448 23.149 18.6098C22.8688 18.7716 22.7728 19.13 22.9346 19.4102L23.286 20.0189C23.3945 20.2069 23.5914 20.312 23.7939 20.312C23.8933 20.312 23.9941 20.2866 24.0863 20.2334C24.3666 20.0716 24.4626 19.7132 24.3008 19.433L23.9494 18.8243Z" fill="black"/>
<path d="M28.2151 18.6099C27.9348 18.448 27.5765 18.5441 27.4147 18.8244L27.0633 19.4331C26.9015 19.7133 26.9976 20.0717 27.2778 20.2334C27.3701 20.2867 27.4708 20.312 27.5702 20.312C27.7727 20.312 27.9697 20.207 28.0782 20.019L28.4296 19.4103C28.5915 19.1301 28.4954 18.7717 28.2151 18.6099Z" fill="black"/>
<path d="M14.5518 8.72323C15.1247 9.18714 15.8145 9.41589 16.5021 9.41589C17.299 9.41589 18.0929 9.10854 18.6977 8.5037C19.8244 7.37698 19.9188 5.59464 18.9172 4.35776C18.7698 4.17565 18.5511 4.06425 18.3174 4.05198C18.084 4.03932 17.8558 4.12729 17.6908 4.29245L14.4865 7.49675C14.3215 7.66175 14.2338 7.89011 14.246 8.12331C14.2582 8.35706 14.3697 8.57573 14.5518 8.72323ZM18.22 5.42034C18.6022 6.15401 18.4767 7.06745 17.869 7.67503C17.2614 8.28253 16.3479 8.40823 15.6144 8.02597L18.22 5.42034Z" fill="black"/>
<path d="M35.2818 8.36181C35.4366 8.51665 35.6473 8.60337 35.8654 8.60337C35.8796 8.60337 35.894 8.60306 35.9083 8.60227C36.1421 8.59001 36.3608 8.4786 36.5083 8.29641C37.5099 7.05954 37.4155 5.2772 36.2888 4.15048C35.1621 3.02376 33.3797 2.92938 32.1429 3.93102C31.9607 4.07852 31.8493 4.2972 31.8371 4.53095C31.8248 4.76407 31.9125 4.99243 32.0775 5.15751L35.2818 8.36181ZM35.4602 4.97915C36.0678 5.58673 36.1934 6.50024 35.8111 7.23384L33.2055 4.62821C33.9391 4.24587 34.8526 4.37157 35.4602 4.97915Z" fill="black"/>
<path d="M39.0152 21.5254H37.8136C38.5078 20.0266 38.7309 18.3834 38.3956 16.8559C38.3466 16.6326 38.1723 16.4582 37.949 16.4092C37.3635 16.2807 36.761 16.2349 36.1561 16.2655C36.0673 15.9213 35.9402 15.5843 35.7741 15.2603C35.1858 14.1127 34.1857 13.2629 32.9582 12.8674C32.3281 12.6645 31.6756 12.5981 31.039 12.6569C31.035 12.641 31.0315 12.625 31.0273 12.6092C31.8028 12.3011 32.5379 11.8578 33.1956 11.2766C33.4 11.0959 33.522 10.8365 33.5305 10.5646C33.5387 10.2945 33.4341 10.0301 33.243 9.83907L24.1184 0.714698C23.9275 0.523683 23.6637 0.419073 23.393 0.427198C23.1211 0.435558 22.8616 0.557589 22.681 0.762042C20.1737 3.5997 20.2166 7.86876 22.7172 10.6596C22.6595 10.7257 22.6031 10.7932 22.5489 10.8627C21.5837 10.2788 20.4336 10.0457 19.3087 10.2198C18.2022 10.3909 17.2273 10.9285 16.5063 11.706C15.7809 11.4715 14.9365 11.6526 14.0963 12.208C14.0228 9.1811 12.6314 6.84571 10.8683 6.84571C9.53195 6.84571 8.39977 8.16642 7.90391 10.1818C7.86703 10.1438 7.82984 10.106 7.79242 10.0685C5.56625 7.84235 2.81883 7.10196 1.53766 8.38321C0.256484 9.66431 0.996797 12.4117 3.22297 14.638C3.26039 14.6754 3.2982 14.7127 3.33625 14.7495C1.3207 15.2454 0 16.3775 0 17.7139C0 19.477 2.33539 20.8684 5.36227 20.942C5.23352 21.1367 5.12523 21.3317 5.03734 21.5254H2.00187C1.45883 21.5254 1.01711 21.9672 1.01711 22.5102V23.946C1.01711 24.4891 1.45891 24.9308 2.00187 24.9308H2.67008C2.96898 27.7524 3.92969 30.4563 5.49289 32.842C7.35648 35.6859 9.97187 37.9348 13.0564 39.3452C13.3838 39.495 13.7469 39.5742 14.1062 39.5742H22.1484C22.472 39.5742 22.7344 39.3118 22.7344 38.9882C22.7344 38.6646 22.472 38.4023 22.1484 38.4023H14.1061C13.9138 38.4023 13.7193 38.3599 13.5437 38.2795C10.6603 36.9611 8.21531 34.8587 6.47305 32.1997C5.03539 30.0057 4.1443 27.523 3.85023 24.9308H37.1669C36.8728 27.523 35.9817 30.0056 34.5441 32.1997C32.8017 34.8587 30.3567 36.961 27.4734 38.2795C27.2978 38.3599 27.1033 38.4023 26.911 38.4023H24.8828C24.5592 38.4023 24.2969 38.6646 24.2969 38.9882C24.2969 39.3118 24.5592 39.5742 24.8828 39.5742H26.9109C27.2702 39.5742 27.6332 39.495 27.9607 39.3452C31.0452 37.9348 33.6605 35.6859 35.5241 32.842C37.0873 30.4563 38.048 27.7524 38.347 24.9308H39.0152C39.5582 24.9308 39.9999 24.4891 39.9999 23.946V22.5102C40 21.9672 39.5582 21.5254 39.0152 21.5254ZM37.3763 18.257C37.3844 19.3609 37.0782 20.4924 36.5002 21.5254H34.108L37.3763 18.257ZM36.5491 17.427L32.8083 21.1679C32.6296 20.4721 32.3515 19.8162 31.99 19.2154C33.3161 18.0527 34.9616 17.4149 36.5491 17.427ZM32.2717 10.5252C31.7564 10.9531 31.1891 11.2836 30.5935 11.5201C30.402 11.1701 30.1682 10.8455 29.898 10.5532C30.4517 10.3684 30.9804 10.0883 31.4564 9.70993L32.2717 10.5252ZM26.7689 5.02243L28.9355 7.18907C28.7279 7.28165 28.501 7.33032 28.2664 7.33032C27.8277 7.33032 27.4159 7.16009 27.1067 6.85103C26.6131 6.35743 26.5005 5.62501 26.7689 5.02243ZM23.4324 1.68595L24.2486 2.50212C23.8098 3.05564 23.4877 3.69626 23.3077 4.38314C23.2256 4.6961 23.4128 5.01642 23.7259 5.09853C24.0389 5.1804 24.3591 4.99345 24.4412 4.68032C24.5686 4.1947 24.7875 3.73876 25.0839 3.33735L25.9076 4.16103C25.2006 5.25032 25.3239 6.72532 26.2782 7.67954C26.8086 8.21001 27.5148 8.50212 28.2665 8.50212C28.8185 8.50212 29.3456 8.34407 29.7969 8.05032L30.6208 8.87423C30.052 9.29548 29.3951 9.544 28.722 9.62134C28.1699 9.31009 27.5477 9.10282 26.8787 9.03009C26.62 9.00196 26.3622 8.99532 26.1074 9.00868C25.8809 8.86118 25.6659 8.68907 25.4673 8.49048C25.0604 8.0836 24.7534 7.6036 24.5548 7.06384C24.4431 6.76017 24.1066 6.60446 23.8027 6.71618C23.4989 6.8279 23.3433 7.16462 23.455 7.46837C23.7126 8.16868 24.1109 8.79142 24.6386 9.31915C24.6389 9.31946 24.6392 9.3197 24.6395 9.32001C24.2681 9.46173 23.9153 9.64884 23.5891 9.87689C21.5259 7.57306 21.4492 4.07501 23.4324 1.68595ZM19.4878 11.378C20.4976 11.222 21.5347 11.4989 22.3331 12.1384C22.4659 12.2446 22.638 12.2881 22.8054 12.2573C22.9726 12.2265 23.1182 12.1247 23.2044 11.9781C23.933 10.7399 25.3259 10.0399 26.752 10.1951C28.3004 10.3634 29.5195 11.481 29.8936 12.9048C29.334 13.0991 28.8083 13.3958 28.3473 13.7877C27.5201 13.021 26.4405 12.5604 25.3037 12.5036C23.4048 12.4094 21.6621 13.4209 20.7945 15.0675C20.3685 14.9211 19.9242 14.8357 19.4674 14.8129C19.0126 14.7902 18.5696 14.8332 18.1462 14.9309C18.1814 13.885 17.9545 12.9872 17.4776 12.3874C18.0109 11.8614 18.706 11.4989 19.4878 11.378ZM17.9877 16.1961C18.3752 16.0556 18.792 15.9788 19.2246 15.9788C19.2857 15.9788 19.3473 15.9804 19.4089 15.9834C19.9092 16.0084 20.3895 16.1323 20.8363 16.3517C20.9845 16.4244 21.1566 16.4312 21.31 16.3706C21.4635 16.3099 21.5843 16.1872 21.6427 16.0327C22.2056 14.5425 23.6538 13.5944 25.2452 13.6741C26.2657 13.725 27.2255 14.2059 27.8784 14.9935C27.9869 15.1244 28.1469 15.2017 28.3168 15.2053C28.4874 15.2099 28.65 15.1386 28.764 15.0126C29.7276 13.947 31.2329 13.5428 32.5986 13.9827C33.5281 14.2822 34.2855 14.9258 34.731 15.7949C34.8348 15.9974 34.9182 16.2067 34.9822 16.4201C33.6724 16.6995 32.3965 17.3288 31.3057 18.2595C29.955 16.6584 27.9356 15.6391 25.6818 15.6391C22.1287 15.6391 19.1576 18.1712 18.4737 21.5253H17.0027L16.5644 19.8896C16.5238 19.7383 16.55 19.5749 16.6363 19.4413C16.8784 19.0666 17.0995 18.6656 17.2935 18.2497C17.6181 17.5541 17.8481 16.8598 17.9877 16.1961ZM30.0695 20.4641C29.9077 20.1838 29.5492 20.0879 29.2691 20.2496L28.6604 20.601C28.3802 20.7628 28.2841 21.1212 28.4459 21.4014C28.4728 21.448 28.5052 21.4893 28.5416 21.5253H22.8225C22.8589 21.4893 22.8912 21.4479 22.9181 21.4014C23.0799 21.1212 22.9839 20.7628 22.7037 20.601L22.095 20.2496C21.8148 20.0877 21.4564 20.1838 21.2946 20.4641C21.1328 20.7443 21.2288 21.1027 21.5091 21.2645L21.9609 21.5253H19.6747C20.3369 18.8227 22.7782 16.8109 25.682 16.8109C28.5859 16.8109 31.0273 18.8227 31.6894 21.5253H29.4031L29.855 21.2645C30.1352 21.1027 30.2313 20.7443 30.0695 20.4641ZM6.96359 10.8974C7.26766 11.2013 7.54906 11.5268 7.79992 11.8645C7.94422 12.0588 8.19336 12.1442 8.42633 12.0799C8.65961 12.0154 8.82922 11.8142 8.85336 11.5734C9.07617 9.34775 10.0527 8.01767 10.8681 8.01767C11.8421 8.01767 12.9273 9.8422 12.9273 12.4603C12.9273 12.7947 12.9083 13.1314 12.8708 13.4612C12.8423 13.7121 12.9777 13.9531 13.207 14.0592C13.4362 14.1651 13.7076 14.1124 13.8804 13.9281C14.7413 13.0102 15.6687 12.59 16.2429 12.8577C17.1256 13.2694 17.3381 15.3816 16.2316 17.7544C16.0603 18.1219 15.8653 18.4755 15.6522 18.8054C15.3865 19.2166 15.3065 19.7223 15.4325 20.1929L15.7895 21.5253H15.5081L13.3543 19.3715L13.9445 15.6451C13.9952 15.3255 13.777 15.0253 13.4575 14.9747C13.1381 14.9243 12.8377 15.1422 12.7871 15.4617L12.3301 18.3473L10.6151 16.6323L11.2053 12.9059C11.2559 12.5863 11.0378 12.2861 10.7183 12.2355C10.399 12.1849 10.0985 12.403 10.0479 12.7225L9.59086 15.6081L2.92914 8.94634C3.86734 8.78517 5.48125 9.41493 6.96359 10.8974ZM38.8281 23.7589H2.18898V22.6973H9.84375C10.1673 22.6973 10.4297 22.4349 10.4297 22.1113C10.4297 21.7877 10.1673 21.5254 9.84375 21.5254H6.38594C6.56797 21.2608 6.80055 20.9906 7.08234 20.7262C7.26656 20.5534 7.31938 20.282 7.21328 20.0527C7.11664 19.8438 6.90797 19.7128 6.68172 19.7128C6.65969 19.7128 6.6375 19.7141 6.61523 19.7166C6.28563 19.7541 5.94891 19.7731 5.61438 19.7731C2.99641 19.7731 1.17188 18.6879 1.17188 17.7139C1.17188 16.8984 2.50187 15.9219 4.72766 15.6992C4.96844 15.675 5.16961 15.5054 5.23406 15.2722C5.29852 15.039 5.21297 14.7901 5.01875 14.6458C4.68102 14.3949 4.35563 14.1135 4.05156 13.8095C3.16781 12.9257 2.52102 11.9236 2.23031 10.9879C2.08531 10.521 2.04328 10.1059 2.10016 9.77454L8.76234 16.4367L5.8768 16.8938C5.55719 16.9444 5.33914 17.2445 5.38977 17.5642C5.43547 17.8527 5.68453 18.0585 5.96773 18.0585C5.9982 18.0585 6.02906 18.0562 6.06016 18.0513L9.78656 17.461L11.5016 19.176L8.61602 19.6331C8.29641 19.6837 8.07836 19.9838 8.12898 20.3034C8.17469 20.592 8.42375 20.7978 8.70695 20.7978C8.73742 20.7978 8.76828 20.7955 8.79938 20.7906L12.5258 20.2003L13.8509 21.5255H12.5781C12.2545 21.5255 11.9922 21.7878 11.9922 22.1114C11.9922 22.435 12.2545 22.6974 12.5781 22.6974H38.8281V23.7589Z" fill="black"/>
</g>
<defs>
<clipPath id="clip0_118_5258">
<rect width="40" height="40" fill="white"/>
</clipPath>
</defs>
</svg>
