<svg width="40" height="40" viewBox="0 0 40 40" fill="none" xmlns="http://www.w3.org/2000/svg">
<g clip-path="url(#clip0_118_4922)">
<path d="M20.3101 11.3672C19.9438 11.2723 19.6899 10.9387 19.6899 10.5602V10.4283C19.6899 10.1361 20.0177 9.49318 20.0177 9.49318C20.159 7.74881 20.7202 6.056 21.6458 4.57373C21.9227 4.13045 21.5509 3.56803 21.036 3.65818C20.2922 3.78842 19.3442 4.04561 18.4602 4.55412C18.1579 5.07178 17.7904 5.30709 17.4303 5.30873C17.2443 4.29607 16.8954 3.32576 16.3919 2.45514C16.1434 2.02537 15.523 2.02537 15.2745 2.45514C14.7635 3.33865 14.4121 4.32475 14.2283 5.3535C13.783 5.46147 13.3491 5.15998 13.1991 4.58217C12.3012 4.05498 11.3323 3.79076 10.5748 3.65818C10.06 3.56803 9.68828 4.13045 9.96516 4.57373C11.0447 6.3024 11.6289 8.31756 11.6289 10.3669V10.5133C11.6289 10.8908 11.3764 11.2239 11.0113 11.3197C4.95367 12.9096 0.585938 17.5558 0.585938 24.2914C0.585938 27.345 1.48375 29.9692 3.02953 32.0739C6.76461 34.7923 10.3054 37.1012 15.6726 37.1012C24.0934 37.1012 31.0803 32.7122 31.0803 24.2914C31.0803 17.5362 26.3951 12.944 20.3101 11.3672Z" fill="#FC5144"/>
<path d="M31.0805 24.2926C31.0805 17.5371 26.6875 12.8832 20.6024 11.3066C20.2359 11.2121 19.982 10.8785 19.982 10.4996V10.3676C19.982 10.0754 19.9934 9.78398 20.0177 9.49414C18.7153 9.78555 17.4789 10.2598 16.3195 10.9113C14.1188 12.1488 12.3172 13.9645 10.9641 16.3082C9.86095 18.2184 9.20782 20.2277 9.02188 22.2801C8.84376 24.2504 9.09845 26.2129 9.77892 28.1152C10.4536 30.0009 11.537 31.7731 12.9557 33.3496C13.444 33.8922 13.0497 34.7579 12.3199 34.747C8.96899 34.6966 5.49056 33.7618 3.02954 32.0746C5.74673 35.7738 10.4656 37.8684 15.8328 37.8684C16.7915 37.8684 17.7295 37.8016 18.6391 37.6707C25.7195 36.652 31.0805 31.7543 31.0805 24.2926Z" fill="#E5423E"/>
<path d="M34.9671 15.1016L35.0148 15.0162C35.9819 13.341 37.4106 11.9695 39.1089 11.0659C39.5445 10.8341 39.506 10.199 39.0426 10.0297C38.3891 9.79094 37.5194 9.56008 36.5828 9.54774C36.1302 9.92727 35.6171 9.86594 35.3157 9.67727C35.6416 8.76173 35.8146 7.80376 35.8139 6.85438C35.8136 6.38579 35.3064 6.09305 34.9005 6.32704C34.0659 6.80813 33.3132 7.44829 32.6773 8.20251C32.2698 8.02383 32.1265 7.62126 32.1718 7.0368C31.6893 6.20555 31.0368 5.54922 30.491 5.09243C30.1128 4.77579 29.5435 5.06001 29.5605 5.55305C29.6271 7.47571 29.1536 9.39868 28.1865 11.0738L28.1 11.2266C27.9218 11.5352 27.5757 11.6552 27.232 11.5613C21.5299 10.002 15.7667 11.7388 12.5878 17.2448C8.61362 24.1284 11.7607 31.5644 18.6442 35.5386C25.5278 39.5128 33.5412 38.5202 37.5154 31.6366C40.7035 26.1146 39.3087 20.2371 35.0786 16.0764C34.8239 15.8259 34.9184 15.419 34.9671 15.1016Z" fill="#F9F2E8"/>
<path d="M37.5156 31.6363C33.5413 38.5199 25.5281 39.5121 18.6445 35.5379C16.9726 34.573 15.521 33.4035 14.339 32.0871C15.0921 32.7199 15.9132 33.3035 16.796 33.8277C23.6788 37.9168 31.6929 36.8957 35.6671 29.8137C38.3124 25.098 37.8023 20.1309 35.1335 16.1309C39.3202 20.2871 40.6898 26.1387 37.5156 31.6363Z" fill="#F9E4CF"/>
<path d="M28.0248 25.7412C29.6926 28.0266 30.6306 30.729 30.7373 33.5563C30.7574 34.088 31.3374 34.4009 31.7967 34.1322C32.7737 33.5608 33.6458 32.8064 34.3961 31.8815C34.3961 31.8815 34.7391 30.765 35.0439 30.2372C35.34 29.7243 36.1483 28.8588 36.1483 28.8588C36.6654 27.5198 36.8816 26.1743 36.8 24.8342C36.5935 24.4137 36.4777 23.9946 36.6382 23.5825C36.4754 22.7722 36.1955 21.9393 35.8171 21.1624C34.8744 19.2275 32.3219 18.7595 30.7237 20.2013L27.7354 22.8973C27.6105 23.01 27.5039 23.1417 27.4198 23.2875C27.1015 23.8388 27.1382 24.526 27.5134 25.0402L28.0248 25.7412Z" fill="#FC5144"/>
<path d="M28.4598 33.6437C28.3707 31.2799 27.5782 28.9964 26.1837 27.0855L26.15 27.0392C25.9146 26.7167 25.4252 26.7428 25.2255 27.0886L23.514 30.0533L23.2865 31.0651C22.7857 31.9326 22.9227 32.5871 22.8679 33.6002C23.2548 34.466 24.0536 35.1442 25.1054 35.2971C25.6597 35.3776 26.21 35.42 26.7525 35.4235C27.7225 35.43 28.4964 34.613 28.4598 33.6437Z" fill="#FC5144"/>
<path d="M21.4279 24.9454C20.3135 24.8259 18.8705 24.8947 18.8705 24.8947C17.6579 25.108 16.4791 25.5095 15.3784 26.0907L15.3782 26.0908C14.5211 26.5434 14.1997 27.6213 14.6896 28.4577C14.954 28.9091 15.2534 29.3487 15.5854 29.7739C16.8576 31.4029 19.3838 31.2053 20.4172 29.4153L21.4828 27.5701L21.8472 25.7706C22.0469 25.4248 21.8249 24.988 21.4279 24.9454Z" fill="#FC5144"/>
<path d="M14.3146 24.0752C15.4604 23.4701 16.6706 23.0291 17.9162 22.7577C19.2388 21.9437 20.5513 21.9328 21.7297 22.4586C21.9659 22.4721 22.2024 22.4913 22.4389 22.5167L23.2448 22.6031C23.8777 22.6709 24.4913 22.3592 24.8095 21.8078L24.8148 21.7987C24.8986 21.6535 24.9591 21.4962 24.9944 21.3323L25.8353 17.4191C26.2953 15.2785 24.5542 13.308 22.3724 13.4902C21.8552 13.5334 21.3491 13.613 20.8577 13.7327C20.4734 14.6064 19.474 14.5723 18.5531 14.6179C17.3268 15.2902 16.2491 16.2492 15.3648 17.4484L14.7498 19.12L13.7468 20.6046C13.4453 21.5438 13.2914 22.495 13.286 23.4456C13.2831 23.9778 13.8441 24.3237 14.3146 24.0752Z" fill="#FC5144"/>
<path d="M27.0255 14.8464L26.1476 14.3395C25.8957 14.1941 25.5854 14.1941 25.3336 14.3395L24.4557 14.8464C24.2039 14.9918 24.0487 15.2605 24.0487 15.5513V16.565C24.0487 16.8558 24.2039 17.1245 24.4557 17.2699L25.3336 17.7768C25.5855 17.9222 25.8958 17.9222 26.1476 17.7768L27.0255 17.2699C27.2774 17.1245 27.4325 16.8558 27.4325 16.565V15.5513C27.4325 15.2605 27.2774 14.9918 27.0255 14.8464Z" fill="#E5423E"/>
<path d="M20.043 29.5456L19.1651 29.0387C18.9132 28.8933 18.6029 28.8933 18.3511 29.0387L17.4732 29.5456C17.2213 29.691 17.0662 29.9597 17.0662 30.2505V31.2642C17.0662 31.555 17.2213 31.8237 17.4732 31.9691L18.3511 32.476C18.603 32.6214 18.9133 32.6214 19.1651 32.476L20.043 31.9691C20.2948 31.8237 20.45 31.555 20.45 31.2642V30.2505C20.45 29.9597 20.2948 29.6911 20.043 29.5456Z" fill="#D33145"/>
<path d="M22.6156 25.6085L21.571 27.4163L21.4827 27.5702L19.8609 27.0819C19.5507 26.9866 19.3156 26.7342 19.2429 26.4186L18.8702 24.8944C18.9624 24.878 19.0554 24.8631 19.1476 24.8491C20.1515 24.6967 21.1757 24.6733 22.196 24.7827C22.5929 24.8256 22.8148 25.2624 22.6156 25.6085Z" fill="#E5423E"/>
<path d="M30.1123 28.1874L29.371 27.496C29.1584 27.2977 28.856 27.2279 28.5779 27.3129L27.6085 27.6093C27.3304 27.6943 27.1188 27.9213 27.0534 28.2046L26.8253 29.1924C26.7599 29.4757 26.8506 29.7724 27.0633 29.9708L27.8046 30.6621C28.0173 30.8605 28.3196 30.9303 28.5977 30.8453L29.5671 30.5489C29.8452 30.4639 30.0569 30.2369 30.1223 29.9535L30.3503 28.9658C30.4158 28.6825 30.3251 28.3857 30.1123 28.1874Z" fill="#D33145"/>
<path d="M36.1482 28.8579C35.9459 29.3822 35.6968 29.9018 35.4007 30.4151C35.096 30.9432 34.7609 31.4322 34.396 31.8807L33.3788 31.4276C33.1062 31.3057 32.9194 31.0486 32.8882 30.751L32.7788 29.7166C32.7484 29.4197 32.8773 29.1283 33.1194 28.9533L33.9609 28.3416C34.2023 28.1658 34.5194 28.1322 34.7921 28.2541L36.1482 28.8579Z" fill="#D33145"/>
<path d="M25.5297 32.2527L24.9984 33.173C24.8461 33.4371 24.5648 33.5996 24.2594 33.5996H22.8679C22.5031 32.7832 22.5047 31.8004 23.0054 30.9332L23.514 30.0527H24.2594C24.5648 30.0527 24.8461 30.2152 24.9984 30.4793L25.5297 31.3996C25.682 31.6637 25.682 31.9887 25.5297 32.2527Z" fill="#D33145"/>
<path d="M21.7296 21.591V22.459C20.4585 22.3855 19.1929 22.484 17.9617 22.748V21.591C17.9617 21.0387 18.2562 20.5277 18.7351 20.252L19.5976 19.7715L20.3195 19.8598L20.9562 20.252C21.4343 20.5277 21.7296 21.0387 21.7296 21.591Z" fill="#E5423E"/>
<path d="M18.4924 22.9577L17.6145 22.4508C17.3627 22.3054 17.0523 22.3054 16.8005 22.4508L15.9227 22.9577C15.6708 23.1031 15.5156 23.3719 15.5156 23.6626V24.6763C15.5156 24.9671 15.6708 25.2358 15.9227 25.3812L16.8005 25.8881C17.0524 26.0335 17.3627 26.0335 17.6145 25.8881L18.4924 25.3812C18.7443 25.2358 18.8995 24.9671 18.8995 24.6763V23.6626C18.8994 23.3718 18.7442 23.1031 18.4924 22.9577Z" fill="#D33145"/>
<path d="M16.3796 18.8207V19.341C16.3796 19.798 16.1367 20.2199 15.7406 20.448L15.2906 20.7082C14.8687 20.952 14.3492 20.952 13.9265 20.7082L13.7468 20.6035C13.9781 19.8824 14.2968 19.1676 14.7023 18.4652C14.9085 18.1074 15.1296 17.7684 15.3648 17.4473L15.6984 17.6402C16.1203 17.884 16.3796 18.334 16.3796 18.8207Z" fill="#D33145"/>
<path d="M21.9391 15.2582L21.711 16.2465C21.6453 16.5293 21.4336 16.7566 21.1555 16.8418L20.932 16.934L19.2539 16.8254L18.6516 16.2637C18.4391 16.0652 18.3485 15.7684 18.4133 15.4848L18.5531 14.6176C19.2735 14.2238 20.0453 13.9277 20.8578 13.7324L21.7008 14.4801C21.9133 14.6785 22.0039 14.9754 21.9391 15.2582Z" fill="#E5423E"/>
<path d="M30.6169 20.8269L29.739 20.32C29.4872 20.1746 29.1769 20.1746 28.9251 20.32L28.0472 20.8269C27.7953 20.9722 27.6401 21.241 27.6401 21.5318V22.5455C27.6401 22.8362 27.7953 23.105 28.0472 23.2504L28.9251 23.7572C29.1769 23.9026 29.4872 23.9026 29.739 23.7572L30.6169 23.2504C30.8688 23.105 31.024 22.8362 31.024 22.5455V21.5318C31.024 21.241 30.8688 20.9722 30.6169 20.8269Z" fill="#D33145"/>
<path d="M32.8269 27.6003L31.949 27.0934C31.6971 26.948 31.3868 26.948 31.135 27.0934L30.2571 27.6003C30.0053 27.7457 29.8501 28.0144 29.8501 28.3052V29.3189C29.8501 29.6097 30.0053 29.8784 30.2571 30.0238L31.135 30.5307C31.3869 30.6761 31.6972 30.6761 31.949 30.5307L32.8269 30.0238C33.0788 29.8784 33.2339 29.6097 33.2339 29.3189V28.3052C33.2339 28.0144 33.0788 27.7457 32.8269 27.6003Z" fill="#E5423E"/>
<path d="M36.1804 23.0799L35.2473 22.6838C34.9796 22.5702 34.6716 22.608 34.4393 22.783L33.6298 23.3931C33.3975 23.5681 33.2763 23.8538 33.3118 24.1424L33.4353 25.1485C33.4707 25.4372 33.6575 25.685 33.9252 25.7986L34.8583 26.1947C35.1261 26.3083 35.434 26.2705 35.6663 26.0955L36.4758 25.4854C36.7081 25.3104 36.8293 25.0248 36.7939 24.7361L36.6703 23.73C36.6349 23.4413 36.4482 23.1935 36.1804 23.0799Z" fill="#E5423E"/>
<path d="M21.3943 17.1003L20.5164 16.5934C20.2645 16.448 19.9542 16.448 19.7024 16.5934L18.8245 17.1003C18.5726 17.2457 18.4175 17.5144 18.4175 17.8052V18.8189C18.4175 19.1097 18.5726 19.3784 18.8245 19.5238L19.7024 20.0307C19.9543 20.1761 20.2646 20.1761 20.5164 20.0307L21.3943 19.5238C21.6462 19.3784 21.8013 19.1097 21.8013 18.8189V17.8052C21.8013 17.5144 21.6462 17.2458 21.3943 17.1003Z" fill="#D33145"/>
<path d="M10.2325 6.35977C10.3267 6.58398 10.544 6.71891 10.7729 6.71891C10.8486 6.71891 10.9255 6.70414 10.9996 6.67305C11.2979 6.54773 11.4382 6.20422 11.3129 5.90586C11.074 5.3375 10.7879 4.78484 10.4621 4.2632C10.4532 4.24828 10.4603 4.23273 10.4737 4.23523C11.3721 4.3925 12.6156 4.75273 13.5979 5.57492C13.4713 6.44922 13.4577 7.34813 13.5661 8.24313C13.605 8.5643 13.8961 8.79289 14.2182 8.75437C14.5395 8.71547 14.7684 8.42352 14.7295 8.10219C14.5013 6.21766 14.875 4.31633 15.7817 2.74836C15.7868 2.73945 15.7989 2.71867 15.8331 2.71867C15.8674 2.71867 15.8794 2.73953 15.8846 2.74844C16.7913 4.31633 17.165 6.21766 16.9368 8.10219C16.8979 8.42344 17.1268 8.71547 17.448 8.75437C17.4719 8.75727 17.4957 8.75867 17.5192 8.75867C17.8114 8.75867 18.0642 8.54047 18.1002 8.24313C18.2103 7.33422 18.195 6.42117 18.0629 5.53406C19.0386 4.73969 20.2578 4.3893 21.1371 4.23531C21.1476 4.23336 21.1609 4.24437 21.1489 4.26328C20.0108 6.07406 19.3637 8.31961 19.3961 10.4987C19.3961 10.6624 19.4243 10.8205 19.4757 10.9684C19.2357 11.0397 18.9982 11.1177 18.7636 11.203C15.9781 12.2158 13.6671 14.2037 12.0805 16.9519C10.8789 19.033 10.2654 21.2172 10.2567 23.4438C10.2554 23.7673 10.5168 24.0307 10.8404 24.032H10.8427C11.1652 24.032 11.4273 23.7711 11.4286 23.4483C11.4365 21.4284 11.9973 19.4398 13.0954 17.5378C15.9787 12.5439 21.2056 10.5211 27.0777 12.1266C27.6768 12.2903 28.3129 12.0272 28.6251 11.4866C29.6495 9.77352 30.2224 7.62633 30.1477 5.56922C30.7964 6.11781 31.6126 6.97852 32.0204 8.08094C31.5077 8.7343 31.0748 9.46 30.7425 10.2395C30.6155 10.5371 30.7539 10.8813 31.0516 11.0083C31.3493 11.1352 31.6935 10.9969 31.8204 10.6991C32.5205 9.05742 33.7184 7.68508 35.1934 6.83484C35.2059 6.82773 35.2276 6.83156 35.2283 6.855C35.2296 8.5575 34.64 10.2811 33.5682 11.7083C33.3739 11.967 33.4261 12.3344 33.6849 12.5287C33.7904 12.6079 33.9139 12.6461 34.0363 12.6461C34.2143 12.6461 34.3901 12.5652 34.5053 12.412C35.0221 11.7238 35.4393 10.9738 35.7503 10.1901C36.8893 10.0114 38.0177 10.2841 38.8019 10.5659C37.0227 11.5139 35.4454 13.0391 34.4454 14.8312C34.1322 15.3735 34.2238 16.0574 34.6679 16.4943C35.2882 17.1045 35.8495 17.7581 36.3362 18.4372C36.4507 18.5968 36.6305 18.6818 36.813 18.6818C36.9312 18.6818 37.0505 18.6462 37.1539 18.5721C37.4169 18.3836 37.4773 18.0175 37.2888 17.7545C36.7631 17.021 36.1578 16.3159 35.4898 15.6588C35.4264 15.5964 35.4142 15.497 35.4604 15.4172C36.3326 13.8509 37.7488 12.4425 39.3845 11.5834C39.7946 11.3652 40.0296 10.9424 39.9975 10.4802C39.9656 10.0212 39.6769 9.63773 39.244 9.47961C38.4521 9.19031 37.335 8.90367 36.1403 8.97211C36.3114 8.27516 36.4008 7.56359 36.4003 6.8543C36.4 6.42266 36.1766 6.03602 35.8028 5.82016C35.4289 5.6043 34.9824 5.60414 34.6082 5.81969C33.985 6.17891 33.4058 6.61898 32.8821 7.12445C32.3453 6.03453 31.5261 5.19477 30.8675 4.64344C30.5141 4.34758 30.0378 4.28922 29.6243 4.49117C29.2079 4.69453 28.9593 5.1093 28.9754 5.57359C29.0479 7.38859 28.5549 9.31797 27.6103 10.9009C27.5644 10.9805 27.4725 11.0198 27.3869 10.9963C25.0764 10.3645 22.7811 10.2609 20.6469 10.6809C20.5985 10.6348 20.5682 10.5692 20.5682 10.4988C20.5385 8.59773 21.0942 6.54352 22.1431 4.88414C22.3964 4.47844 22.3882 3.9807 22.1218 3.58508C21.8571 3.19242 21.4028 2.99914 20.9354 3.08109C20.0484 3.23641 18.8579 3.56914 17.7929 4.2793C17.5807 3.53586 17.2818 2.82313 16.8993 2.1618C16.6767 1.7768 16.2782 1.54688 15.8334 1.54688C15.3886 1.54688 14.9901 1.7768 14.7675 2.1618C14.3796 2.83242 14.0774 3.55562 13.8646 4.31039C12.7899 3.58008 11.58 3.2393 10.6761 3.08102C10.209 2.99906 9.75434 3.19234 9.48973 3.58508C9.22316 3.98063 9.21504 4.47844 9.4684 4.88406C9.76074 5.3525 10.0179 5.84906 10.2325 6.35977Z" fill="black"/>
<path d="M37.9266 19.9008C37.6319 20.0343 37.5011 20.3814 37.6346 20.6763C39.2027 24.1393 38.9802 27.9277 37.008 31.3436C35.1959 34.4821 32.4496 36.4667 29.0659 37.0827C25.8425 37.6697 22.2453 36.9409 18.9372 35.0311C15.144 32.8411 12.5846 29.6529 11.7303 26.0536C11.6555 25.7388 11.3397 25.544 11.0249 25.6189C10.7101 25.6936 10.5154 26.0094 10.5901 26.3242C11.0516 28.2686 11.969 30.1072 13.3166 31.7891C14.6524 33.4562 16.3463 34.8884 18.3513 36.0459C18.8582 36.3386 19.3718 36.6052 19.8902 36.8455C18.595 37.1347 17.2368 37.2815 15.8331 37.2815C7.20077 37.2815 1.17187 31.9397 1.17187 24.2912C1.17187 18.1651 4.90569 13.5278 11.1599 11.8862C11.781 11.7233 12.2147 11.1586 12.2147 10.5131C12.2208 10.0245 12.184 9.32787 12.0954 8.72038C12.0488 8.40014 11.7517 8.17842 11.4312 8.22491C11.111 8.27147 10.8892 8.56881 10.9358 8.88905C10.9987 9.31444 11.0497 9.96576 11.0429 10.5131C11.0429 10.6263 10.9687 10.7248 10.8625 10.7527C7.67459 11.5894 4.98288 13.2307 3.07835 15.4989C1.06445 17.8973 0 20.9376 0 24.2912C0 28.4961 1.61578 32.0898 4.67265 34.6838C7.53717 37.1147 11.5007 38.4534 15.8331 38.4534C17.8917 38.4534 19.8629 38.1556 21.6954 37.5698C23.4089 38.1531 25.1464 38.4523 26.8364 38.4523C27.6636 38.4523 28.4798 38.3806 29.2757 38.2358C33.0086 37.5562 36.0333 35.3756 38.0227 31.9296C40.189 28.1776 40.4302 24.0094 38.702 20.1929C38.5688 19.8981 38.2215 19.7673 37.9266 19.9008Z" fill="black"/>
<path d="M23.1518 24.8162C22.9766 24.4717 22.6426 24.2413 22.2583 24.2002C21.3354 24.1012 20.4057 24.1074 19.4853 24.2147V23.6624C19.4853 23.4696 19.4448 23.2821 19.3706 23.11C20.3651 22.9957 21.3719 22.9914 22.3765 23.0992L23.1823 23.1855C24.0453 23.2783 24.8831 22.8522 25.3169 22.1006C25.393 21.9664 25.4832 21.7767 25.5672 21.4552L26.2271 18.3847C26.2478 18.406 27.2542 17.8145 27.3185 17.7785C27.7503 17.5293 28.0185 17.0647 28.0185 16.5661V15.5524C28.0185 15.0538 27.7503 14.5893 27.3185 14.34L26.4407 13.8332C26.0347 13.5988 25.5362 13.5849 25.119 13.7914C24.3449 13.1405 23.3496 12.8207 22.3237 12.9062C18.8766 13.1942 15.9899 15.0648 14.1953 18.1732C13.2133 19.874 12.7103 21.6467 12.7002 23.4421C12.6976 23.9017 12.9301 24.318 13.3219 24.5557C13.5278 24.6806 13.7571 24.7434 13.9871 24.7434C14.1922 24.7434 14.398 24.6934 14.5883 24.593C14.7008 24.5335 14.815 24.476 14.9297 24.4195V24.676C14.9297 24.9838 15.0321 25.2783 15.2118 25.5174C15.1761 25.5358 15.1401 25.5538 15.1047 25.5725C15.1033 25.5732 15.1021 25.5739 15.1008 25.5745C14.548 25.8677 14.1329 26.3806 13.9615 26.9824C13.7894 27.5862 13.8685 28.2152 14.184 28.7538C14.4602 29.2252 14.7763 29.6898 15.1236 30.1344C15.4868 30.5995 15.9505 30.9576 16.4803 31.1861C16.4576 31.6184 16.6953 32.1965 17.1802 32.4774L18.058 32.9842C18.274 33.1088 18.516 33.1711 18.758 33.1711C19.0001 33.1711 19.2421 33.1088 19.458 32.9842L20.3358 32.4774C20.7676 32.2281 21.0358 31.7635 21.0358 31.2649V30.2513C21.0358 30.0617 20.9968 29.8771 20.925 29.7073L23.1227 25.9007C23.3161 25.5663 23.3269 25.1607 23.1518 24.8162ZM16.2155 24.8736C16.1452 24.833 16.1015 24.7574 16.1015 24.6762V23.6624C16.1015 23.5812 16.1452 23.5056 16.2155 23.4649L17.0934 22.9581C17.1286 22.9377 17.168 22.9276 17.2074 22.9276C17.2469 22.9276 17.2863 22.9377 17.3215 22.9581L18.1994 23.4649C18.2697 23.5056 18.3133 23.5812 18.3133 23.6624V24.6761C18.3133 24.7574 18.2697 24.833 18.1994 24.8736L17.3215 25.3805C17.2511 25.4211 17.1637 25.421 17.0934 25.3805L16.2155 24.8736ZM20.7269 14.3733L21.3011 14.9088C21.3605 14.9642 21.3861 15.0477 21.3678 15.1269L21.1397 16.1146C21.1288 16.162 21.1018 16.2027 21.0661 16.2338L20.8094 16.0856C20.3776 15.8363 19.8412 15.8363 19.4094 16.0856L19.3541 16.1176L19.0512 15.8352C18.9919 15.7798 18.9663 15.6963 18.9845 15.617L19.1307 14.9837C19.6384 14.7306 20.1714 14.526 20.7269 14.3733ZM19.1175 19.016C19.0472 18.9754 19.0035 18.8997 19.0035 18.8185V17.8049C19.0035 17.7236 19.0472 17.648 19.1175 17.6074L19.9954 17.1006C20.0305 17.0802 20.07 17.0701 20.1094 17.0701C20.1488 17.0701 20.1883 17.0802 20.2234 17.1006L21.1012 17.6074C21.1716 17.648 21.2153 17.7237 21.2153 17.8049V18.8185C21.2153 18.8998 21.1716 18.9754 21.1013 19.016L20.2234 19.5229C20.153 19.5635 20.0656 19.5635 19.9954 19.5229L19.1175 19.016ZM18.5478 22.0412V21.5905C18.5478 21.2484 18.7319 20.9295 19.0281 20.7585L19.41 20.5381C19.6258 20.6625 19.8676 20.7247 20.1095 20.7247C20.2429 20.7247 20.3761 20.7051 20.5051 20.6672L20.6632 20.7585C20.9594 20.9295 21.1435 21.2484 21.1435 21.5905V21.8511C20.273 21.8377 19.4051 21.9011 18.5478 22.0412ZM25.7407 14.8177C25.7801 14.8177 25.8195 14.8278 25.8547 14.8481L26.7326 15.3549C26.8029 15.3956 26.8466 15.4713 26.8466 15.5524V16.5661C26.8466 16.6474 26.8029 16.723 26.7326 16.7636L25.8547 17.2704C25.7844 17.3111 25.697 17.311 25.6267 17.2704L24.7488 16.7635C24.6785 16.7229 24.6347 16.6472 24.6347 16.566V15.5524C24.6347 15.4711 24.6785 15.3955 24.7488 15.3549L25.6267 14.8481C25.6619 14.8278 25.7012 14.8177 25.7407 14.8177ZM22.4212 14.0741C22.9882 14.0268 23.5415 14.157 24.0148 14.439C23.6708 14.7016 23.4629 15.1138 23.4629 15.5525V16.5662C23.4629 17.0647 23.7311 17.5293 24.1629 17.7786C24.1525 17.7723 25.0259 18.2775 25.049 18.2899L24.4216 21.2092C24.4057 21.2721 24.3816 21.3762 24.3022 21.5148C24.1008 21.8656 23.7093 22.0639 23.3073 22.0204C22.8997 21.978 22.7185 21.9548 22.3155 21.9159V21.5906C22.3155 21.0031 22.0702 20.4474 21.6551 20.0497C22.0262 19.8524 22.3869 19.3542 22.3873 18.8186V17.8049C22.3873 17.465 22.2624 17.141 22.0462 16.8901C22.1569 16.7392 22.2384 16.5659 22.2817 16.3783L22.5097 15.3906C22.6167 14.9275 22.4787 14.44 22.1497 14.1009C22.2397 14.0907 22.3302 14.0817 22.4212 14.0741ZM15.7864 18.8739V19.3706C15.7864 19.5968 15.6647 19.8075 15.4688 19.9206L15.0387 20.169C14.8733 20.2645 14.6779 20.2885 14.4972 20.241C14.7301 19.6474 15.0739 18.942 15.4932 18.297C15.6755 18.4309 15.7864 18.645 15.7864 18.8739ZM14.0409 23.5569C14.0032 23.5767 13.9658 23.5758 13.9297 23.5539C13.9033 23.5378 13.8717 23.5066 13.872 23.4488C13.8759 22.7479 13.966 22.0493 14.1405 21.3567C14.3164 21.4089 14.4983 21.4361 14.6804 21.4361C15.0069 21.4361 15.3333 21.352 15.6246 21.1839L16.0547 20.9356C16.6119 20.6138 16.9582 20.0142 16.9582 19.3707V18.874C16.9582 18.2697 16.6655 17.7032 16.1837 17.3505C16.6733 16.7555 17.2189 16.2344 17.8131 15.7927C17.8369 16.052 17.9944 16.4763 18.3128 16.7491C18.0111 17.0122 17.8315 17.3971 17.8315 17.8049V18.8186C17.8315 19.2125 17.9994 19.5847 18.2826 19.8468C17.7194 20.2433 17.3758 20.8949 17.3758 21.5906V21.7668C17.0792 21.7311 16.7734 21.7897 16.5074 21.9433L15.6296 22.4501C15.379 22.5948 15.184 22.8122 15.0641 23.0664C14.718 23.2167 14.3744 23.3807 14.0409 23.5569ZM16.0472 29.4133C15.7318 29.0095 15.4451 28.5883 15.1951 28.1616C15.0429 27.9016 15.005 27.5969 15.0885 27.3037C15.1744 27.0021 15.3744 26.7554 15.6517 26.6089C15.6528 26.6084 15.6538 26.6078 15.6549 26.6073C15.8711 26.4932 16.0929 26.3854 16.3168 26.2852L16.5074 26.3953C16.7233 26.52 16.9654 26.5824 17.2074 26.5823C17.4494 26.5823 17.6915 26.5199 17.9073 26.3953L18.5501 26.0242L18.6716 26.5504C18.7912 27.0682 19.1812 27.4864 19.6894 27.6419L20.6031 27.9213L20.0522 28.8754L19.458 28.5323C19.0262 28.283 18.4897 28.283 18.058 28.5323L17.1801 29.0392C16.8595 29.2243 16.6294 29.5282 16.532 29.8766C16.3513 29.748 16.1877 29.5933 16.0472 29.4133ZM19.864 31.2652C19.864 31.3464 19.8204 31.422 19.7501 31.4627L18.8722 31.9695C18.8018 32.01 18.7144 32.01 18.6441 31.9695L17.7662 31.4627C17.6959 31.422 17.6522 31.3463 17.6522 31.2652V30.2515C17.6522 30.1702 17.696 30.0946 17.7662 30.054L18.6441 29.5471C18.6793 29.5268 18.7187 29.5167 18.7581 29.5167C18.7976 29.5167 18.837 29.5268 18.8722 29.5471L19.7501 30.054C19.8204 30.0946 19.864 30.1703 19.864 30.2515V31.2652ZM21.2046 26.8796L20.0321 26.5212C19.923 26.4878 19.8392 26.3981 19.8136 26.2868L19.6043 25.3804C20.4265 25.2833 21.2571 25.2752 22.082 25.3599L21.2046 26.8796Z" fill="black"/>
<path d="M29.7385 31.109C29.7674 31.1001 29.7958 31.0903 29.8238 31.0797C30.0091 31.8976 30.12 32.734 30.1518 33.5776C30.169 34.0333 30.4178 34.4363 30.8172 34.6554C31.0126 34.7627 31.2256 34.8162 31.4385 34.8162C31.6636 34.8162 31.8887 34.7564 32.0926 34.6372C33.6424 33.7307 34.9261 32.4087 35.9081 30.7079C37.0087 28.8016 37.5 26.7771 37.3781 24.7754C37.3165 23.5613 36.94 22.1187 36.3438 20.905C35.8178 19.8253 34.8361 19.074 33.6504 18.8439C32.4489 18.6108 31.2391 18.9465 30.3313 19.7654L30.1825 19.8996L30.0321 19.8128C29.6004 19.5636 29.0639 19.5636 28.6322 19.8128L27.7543 20.3196C27.3225 20.5688 27.0543 21.0334 27.0543 21.532V22.5457C27.0543 22.6172 27.0604 22.6879 27.0712 22.7575C27.0135 22.8328 26.9599 22.9113 26.9124 22.9937C26.4785 23.7453 26.5286 24.6838 27.0402 25.3848C27.3828 25.8574 27.7172 26.293 28.0729 26.8544L27.4374 27.0487C27.284 27.0956 27.1423 27.1683 27.0166 27.2612C26.9428 27.1485 26.7955 26.9286 26.6235 26.6922C26.3956 26.38 26.0298 26.2061 25.6432 26.2265C25.2573 26.2472 24.9115 26.4594 24.7183 26.794L22.4982 30.6392C21.9135 31.6519 21.8694 32.8853 22.38 33.9386C22.8871 34.9845 23.8745 35.7085 25.0213 35.8752C25.0499 35.8794 25.0783 35.8814 25.1063 35.8814C25.3927 35.8814 25.6431 35.6713 25.6855 35.3797C25.732 35.0594 25.5102 34.7621 25.1899 34.7156C24.683 34.6419 24.2341 34.4139 23.8881 34.067H24.3088C24.8074 34.067 25.272 33.7988 25.5213 33.3671L26.0281 32.4892C26.2774 32.0575 26.2774 31.521 26.0281 31.0893L25.5213 30.2114C25.3034 29.834 24.9211 29.5817 24.4953 29.5241L25.7074 27.4249L25.7106 27.4294C25.9555 27.7651 26.1822 28.1176 26.3889 28.4787L26.2546 29.0604C26.1424 29.5462 26.2993 30.0592 26.6639 30.3992C26.8639 30.5799 27.3275 31.0301 27.4968 31.168C27.7149 31.9829 27.8427 32.8214 27.8745 33.6643C27.8887 34.0401 27.7171 34.3976 27.4155 34.6209C27.1554 34.8135 27.1006 35.1804 27.2932 35.4404C27.4081 35.5957 27.5852 35.6778 27.7646 35.6778C27.8858 35.6778 28.008 35.6404 28.1128 35.5627C28.7257 35.109 29.0745 34.3827 29.0456 33.6201C29.0176 32.8758 28.9221 32.1346 28.762 31.4074C28.7645 31.4067 28.767 31.4062 28.7695 31.4054L29.7385 31.109ZM24.3086 30.6833C24.3899 30.6833 24.4655 30.727 24.5061 30.7973L25.0129 31.6752C25.0535 31.7455 25.0535 31.8329 25.0129 31.9033L24.5061 32.7812C24.4655 32.8515 24.3898 32.8951 24.3086 32.8951H23.249C23.1243 32.3311 23.213 31.7447 23.5129 31.2252L23.8258 30.6833H24.3086V30.6833ZM34.2711 28.816C34.3367 28.7683 34.4235 28.7591 34.4979 28.7922L35.3747 29.1826C35.2319 29.4986 35.0721 29.8121 34.8931 30.122C34.6935 30.4677 34.4798 30.7947 34.2535 31.1046L33.5982 30.8129C33.524 30.7798 33.4727 30.7091 33.4642 30.6283L33.4283 30.2869C33.6753 30.0294 33.8199 29.6827 33.8199 29.3172V29.1439L34.2711 28.816ZM32.648 29.3172C32.648 29.3985 32.6043 29.4741 32.5339 29.5147L31.656 30.0216C31.5858 30.0622 31.4984 30.0622 31.4281 30.0216L30.5501 29.5147C30.4798 29.4741 30.4361 29.3985 30.4361 29.3173V28.3037C30.4361 28.2224 30.4798 28.1468 30.5502 28.1062L31.4281 27.5993C31.4632 27.579 31.5026 27.5688 31.5421 27.5688C31.5814 27.5688 31.6209 27.579 31.656 27.5993L32.5339 28.1062H32.534C32.6043 28.1468 32.648 28.2224 32.648 28.3037V29.3172ZM31.5009 33.6256C31.451 33.6548 31.4081 33.6431 31.381 33.6282C31.344 33.6079 31.3244 33.5761 31.3228 33.5334C31.2922 32.7228 31.1951 31.918 31.0338 31.1277C31.1969 31.1912 31.3694 31.2234 31.5421 31.2234C31.7841 31.2234 32.0262 31.1611 32.242 31.0365L32.3428 30.9783C32.4538 31.3766 32.7375 31.7124 33.1217 31.8834L33.4774 32.0419C32.8859 32.6712 32.226 33.2015 31.5009 33.6256ZM36.0697 23.7574C36.137 24.1157 36.1817 24.476 36.2038 24.8372C36.1978 24.8912 36.1773 24.959 36.1153 25.0057L35.3057 25.6158C35.2407 25.6646 35.154 25.6752 35.0793 25.6436L34.1463 25.2475C34.0715 25.2158 34.0189 25.146 34.009 25.0653L33.8855 24.0592C33.8756 23.9786 33.9097 23.8981 33.9746 23.8492L34.7842 23.2391C34.8243 23.2089 34.8728 23.1933 34.9216 23.1933C34.9517 23.1933 34.982 23.1993 35.0106 23.2114L35.9437 23.6075C36.0147 23.6376 36.051 23.7015 36.0697 23.7574ZM28.226 21.5319C28.226 21.4507 28.2698 21.3751 28.3401 21.3344L29.218 20.8276C29.2531 20.8073 29.2925 20.7972 29.332 20.7972C29.3713 20.7972 29.4108 20.8073 29.446 20.8276L30.3238 21.3344C30.3942 21.3751 30.4379 21.4508 30.4379 21.5319V22.5456C30.4379 22.6269 30.3942 22.7025 30.3238 22.7431L29.446 23.2499C29.3757 23.2905 29.2883 23.2905 29.218 23.2499L28.3401 22.7431C28.2698 22.7025 28.226 22.6268 28.226 22.5456V21.5319ZM27.832 23.8029L28.632 24.2648C28.8479 24.3895 29.0899 24.4518 29.332 24.4518C29.574 24.4518 29.8161 24.3894 30.0319 24.2648L30.9098 23.758C31.3416 23.5087 31.6098 23.0442 31.6098 22.5456V21.5319C31.6098 21.1629 31.4625 20.8128 31.2111 20.5546C31.831 20.0442 32.6313 19.8399 33.4269 19.9943C34.2478 20.1537 34.9269 20.6726 35.2902 21.4182C35.4162 21.6769 35.5292 21.9379 35.6295 22.2011L35.4684 22.1326C35.0092 21.9377 34.477 22.0032 34.0788 22.3033L33.2693 22.9133C32.8711 23.2133 32.6615 23.7072 32.7223 24.202L32.8458 25.2081C32.9066 25.7029 33.2294 26.1313 33.6883 26.3262L34.6214 26.7222C34.7965 26.7965 34.9822 26.8329 35.1671 26.8329C35.467 26.8329 35.7646 26.7371 36.0109 26.5515L36.1538 26.4438C36.0861 26.9941 35.9663 27.5429 35.7945 28.0867L34.9745 27.7215C34.5684 27.5408 34.1004 27.5662 33.7178 27.7815C33.6024 27.4954 33.3944 27.2497 33.1198 27.0911L32.242 26.5842C31.8103 26.3349 31.2738 26.3349 30.842 26.5842L29.9642 27.091C29.9299 27.1108 29.897 27.1325 29.8647 27.155L29.7706 27.0672C29.666 26.9696 29.548 26.8907 29.4221 26.8304C29.0852 26.2101 28.4556 25.321 27.9867 24.6939C27.7968 24.4338 27.7438 24.1036 27.832 23.8029ZM27.3962 29.324L27.6242 28.3362C27.6424 28.2571 27.702 28.1932 27.7797 28.1694L28.7491 27.873C28.8268 27.8493 28.9119 27.869 28.9713 27.9244L29.2681 28.2012C29.2656 28.2351 29.2641 28.2692 29.2641 28.3035V29.3172C29.2641 29.5494 29.3229 29.774 29.4288 29.9732C29.4066 29.9934 28.5049 30.2565 28.4263 30.2847C28.3488 30.3084 28.2635 30.2887 28.2042 30.2334L27.4628 29.542C27.4035 29.4866 27.3779 29.4031 27.3962 29.324Z" fill="black"/>
</g>
<defs>
<clipPath id="clip0_118_4922">
<rect width="40" height="40" fill="white"/>
</clipPath>
</defs>
</svg>
