<svg width="24" height="24" viewBox="0 0 24 24" fill="none" xmlns="http://www.w3.org/2000/svg">
<path d="M23.1328 19.8984C23.1328 16.794 22.5983 13.7392 21.5441 10.819L20.7891 8.72752V6.44531C20.7891 5.5522 20.1194 4.81308 19.2559 4.70236L19.0371 4.26464C18.6499 3.49031 18.4453 2.62345 18.4453 1.75781C18.4453 0.788531 17.6568 0 16.6875 0C15.7182 0 14.9297 0.788531 14.9297 1.75781C14.9297 2.619 14.727 3.48131 14.3438 4.25255C13.9605 3.48127 13.7578 2.619 13.7578 1.75781C13.7578 0.788531 12.9693 0 12 0C11.0307 0 10.2422 0.788531 10.2422 1.75781C10.2422 2.619 10.0395 3.48131 9.65625 4.25255C9.273 3.48127 9.07031 2.619 9.07031 1.75781C9.07031 0.788531 8.28178 0 7.3125 0C6.34322 0 5.55469 0.788531 5.55469 1.75781C5.55469 2.62345 5.35008 3.49031 4.96294 4.26464L4.74408 4.70236C3.88059 4.81308 3.21094 5.5522 3.21094 6.44531V8.72752L2.45587 10.819C1.4017 13.7392 0.867188 16.794 0.867188 19.8984C0.867188 20.84 1.455 21.6464 2.28272 21.9714C2.38327 23.1067 3.33905 24 4.5 24H19.5C20.661 24 21.6167 23.1067 21.7173 21.9714C22.545 21.6464 23.1328 20.84 23.1328 19.8984ZM20.0859 6.44531V8.4375H18.9141V5.39062H19.0312C19.6128 5.39062 20.0859 5.86373 20.0859 6.44531ZM18.4429 19.5469C18.419 17.734 18.2098 15.9204 17.8201 14.1504C17.7784 13.9609 17.591 13.8409 17.4012 13.8827C17.2116 13.9245 17.0917 14.112 17.1335 14.3016C17.5373 16.1365 17.7421 18.0195 17.7421 19.8984C17.7421 20.7384 17.0588 21.4219 16.2187 21.4219H7.78125C6.9412 21.4219 6.25781 20.7384 6.25781 19.8984C6.25781 16.8756 6.77831 13.9012 7.80473 11.0578L8.49689 9.14062H15.5032L16.1953 11.0578C16.3966 11.6153 16.581 12.187 16.7437 12.7569C16.7969 12.9436 16.9916 13.0517 17.1781 12.9986C17.3648 12.9453 17.4731 12.7508 17.4198 12.564C17.2718 12.0453 17.1054 11.5258 16.9258 11.0156H18.4627C18.7088 11.0156 18.9303 11.1711 19.0139 11.4025L19.1192 11.6944C19.9618 14.0282 20.4384 16.4657 20.5359 18.9393C20.5422 19.0992 20.4844 19.2509 20.3732 19.3665C20.2615 19.4827 20.1112 19.5468 19.95 19.5468H18.4429V19.5469ZM14.8125 23.2969H9.1875C8.46778 23.2969 7.86352 22.7951 7.70503 22.1231C7.73039 22.1239 7.7557 22.125 7.78125 22.125H16.2188C16.2443 22.125 16.2696 22.1239 16.295 22.1231C16.1365 22.7951 15.5322 23.2969 14.8125 23.2969ZM8.25094 5.39062C8.02973 5.68463 7.89844 6.04987 7.89844 6.44531V8.4375H5.78906V5.39062H8.25094ZM13.5234 5.39062V8.4375H12.3516V5.39062H13.5234ZM15.3984 6.44531V8.4375H14.2266V5.39062H14.3438C14.9253 5.39062 15.3984 5.86373 15.3984 6.44531ZM11.6484 8.4375H10.4766V5.39062H11.6484V8.4375ZM9.65625 5.39062H9.77344V8.4375H8.60156V6.44531C8.60156 5.86373 9.07472 5.39062 9.65625 5.39062ZM15.7491 5.39062H18.2109V8.4375H16.1016V6.44531C16.1016 6.04987 15.9703 5.68463 15.7491 5.39062ZM14.9668 4.57908C15.4025 3.70762 15.6328 2.73206 15.6328 1.75781C15.6328 1.17623 16.106 0.703125 16.6875 0.703125C17.269 0.703125 17.7422 1.17623 17.7422 1.75781C17.7422 2.73206 17.9725 3.70762 18.4082 4.57908L18.4624 4.6875H14.9126L14.9668 4.57908ZM10.2793 4.57908C10.715 3.70762 10.9453 2.73206 10.9453 1.75781C10.9453 1.17623 11.4185 0.703125 12 0.703125C12.5815 0.703125 13.0547 1.17623 13.0547 1.75781C13.0547 2.73206 13.285 3.70763 13.7207 4.57913L13.7749 4.6875H10.2251L10.2793 4.57908ZM5.59181 4.57908C6.02752 3.70762 6.25781 2.73206 6.25781 1.75781C6.25781 1.17623 6.73097 0.703125 7.3125 0.703125C7.89403 0.703125 8.36719 1.17623 8.36719 1.75781C8.36719 2.73206 8.59748 3.70763 9.03319 4.57913L9.08737 4.6875H5.53758L5.59181 4.57908ZM4.96875 5.39062H5.08594V8.4375H3.91406V6.44531C3.91406 5.86373 4.38722 5.39062 4.96875 5.39062ZM1.57031 19.8984C1.57031 16.8756 2.09081 13.9012 3.11723 11.0578L3.80939 9.14062H7.74933L7.32628 10.3125H5.53734C4.99594 10.3125 4.50872 10.6546 4.32487 11.1638L4.2195 11.4558C3.73097 12.8092 3.35841 14.2099 3.11222 15.6192C3.0788 15.8105 3.20677 15.9926 3.39802 16.026C3.41855 16.0296 3.43884 16.0313 3.45895 16.0313C3.62658 16.0313 3.77503 15.911 3.80484 15.7402C4.04409 14.3709 4.40611 13.0097 4.88091 11.6945L4.98628 11.4026C5.06981 11.1711 5.2913 11.0156 5.53739 11.0156H7.07367C6.10486 13.7657 5.59528 16.6329 5.55731 19.5469H4.05005C3.88889 19.5469 3.73852 19.4828 3.62681 19.3666C3.51562 19.251 3.45788 19.0993 3.46416 18.9394C3.4853 18.4031 3.52477 17.8616 3.58148 17.3298C3.60202 17.1367 3.46223 16.9635 3.26916 16.943C3.0757 16.9222 2.90287 17.0622 2.8823 17.2553C2.82398 17.8026 2.78339 18.3599 2.76159 18.9117C2.74767 19.2645 2.87498 19.5991 3.11995 19.854C3.36548 20.1094 3.69581 20.25 4.05005 20.25H5.58267C5.6543 20.6995 5.86102 21.1042 6.15966 21.4219H3.09375C2.2537 21.4219 1.57031 20.7384 1.57031 19.8984ZM3.01753 22.1231C3.04289 22.1239 3.0682 22.125 3.09375 22.125H6.98897C7.06059 22.5745 7.26731 22.9792 7.56595 23.2969H4.5C3.78028 23.2969 3.17602 22.7951 3.01753 22.1231ZM19.5 23.2969H16.4341C16.7327 22.9792 16.9395 22.5745 17.0111 22.125H20.9062C20.9318 22.125 20.9571 22.1239 20.9825 22.1231C20.824 22.7951 20.2197 23.2969 19.5 23.2969ZM20.9062 21.4219H17.8403C18.1389 21.1042 18.3457 20.6995 18.4173 20.25H19.95C20.3042 20.25 20.6345 20.1094 20.8801 19.854C21.1251 19.5991 21.2523 19.2645 21.2385 18.9117C21.1381 16.3659 20.6476 13.8574 19.7806 11.4557L19.6752 11.1638C19.4913 10.6546 19.0041 10.3125 18.4627 10.3125H16.6738L16.2507 9.14062H20.1907L20.8828 11.0578C21.9092 13.9012 22.4297 16.8756 22.4297 19.8984C22.4297 20.7384 21.7463 21.4219 20.9062 21.4219Z" fill="white"/>
<path d="M15.093 11.4557L14.9877 11.1638C14.8038 10.6546 14.3166 10.3125 13.7752 10.3125H10.2248C9.68344 10.3125 9.19617 10.6546 9.01233 11.1639L8.907 11.4557C8.03995 13.8573 7.54945 16.3659 7.44909 18.9117C7.43517 19.2645 7.56248 19.5991 7.80745 19.854C8.05298 20.1094 8.38331 20.25 8.73754 20.25H15.2624C15.6167 20.25 15.947 20.1094 16.1925 19.854C16.4375 19.5991 16.5648 19.2645 16.5509 18.9117C16.4505 16.366 15.96 13.8574 15.093 11.4557ZM15.6857 19.3666C15.5739 19.4828 15.4236 19.5469 15.2625 19.5469H8.73754C8.57639 19.5469 8.42601 19.4828 8.31431 19.3666C8.20312 19.251 8.14537 19.0993 8.15165 18.9394C8.24915 16.4657 8.72578 14.0282 9.56836 11.6944L9.67368 11.4026C9.75722 11.1711 9.97875 11.0156 10.2248 11.0156H13.7752C14.0213 11.0156 14.2428 11.1711 14.3263 11.4026L14.4317 11.6945C15.2742 14.0282 15.7508 16.4658 15.8483 18.9393C15.8546 19.0993 15.7969 19.251 15.6857 19.3666Z" fill="white"/>
<path d="M13.1722 12.8789C13.0642 12.7604 12.9522 12.6461 12.839 12.539C12.3705 12.0955 11.6379 12.0936 11.1711 12.5346C10.5616 13.1105 9.53912 14.3126 9.53912 15.8936C9.53912 16.5607 9.80148 17.1854 10.2779 17.6526C10.7424 18.1081 11.353 18.3572 12.0022 18.3572C12.0187 18.3572 12.0353 18.357 12.0519 18.3567C12.4094 18.3497 12.7513 18.2659 13.0681 18.1077C14.0045 17.6398 14.5586 16.5966 14.4468 15.5119C14.3285 14.3646 13.6918 13.4504 13.1784 12.8856C13.1763 12.8833 13.1742 12.8811 13.1722 12.8789ZM12.7537 17.4786C12.5311 17.5899 12.2903 17.6488 12.038 17.6537C11.5596 17.6633 11.1105 17.4843 10.7701 17.1506C10.4297 16.8167 10.2422 16.3703 10.2422 15.8936C10.2422 15.3282 10.4256 14.2063 11.6539 13.0457C11.751 12.9539 11.8758 12.9081 12.0011 12.9081C12.1283 12.9081 12.256 12.9553 12.3556 13.0496C12.4582 13.1468 12.5599 13.2508 12.6579 13.3585C12.6599 13.3608 12.662 13.3631 12.6642 13.3653C13.1055 13.8526 13.649 14.6311 13.7472 15.5841C13.8293 16.3793 13.43 17.1407 12.7537 17.4786Z" fill="white"/>
</svg>
