<svg width="60" height="60" viewBox="0 0 60 60" fill="none" xmlns="http://www.w3.org/2000/svg">
<path d="M29.5796 50.1513C0.532328 47.9513 1.44504 6.46427 30.5072 5.41312C36.1864 5.39993 41.6554 7.55971 45.7931 11.4497C45.8829 11.534 45.9884 11.5997 46.1035 11.6433C46.2187 11.6868 46.3413 11.7072 46.4644 11.7033C46.5874 11.6995 46.7085 11.6714 46.8207 11.6207C46.9329 11.5701 47.0341 11.4978 47.1184 11.408C47.2026 11.3183 47.2684 11.2128 47.3119 11.0976C47.3554 10.9825 47.3759 10.8598 47.372 10.7368C47.3681 10.6137 47.3401 10.4926 47.2894 10.3804C47.2387 10.2682 47.1665 10.1671 47.0767 10.0828C42.5916 5.86578 36.6632 3.52421 30.507 3.53815C-0.999677 4.68279 -1.97027 49.6461 29.5039 52.0245C29.7498 52.0303 29.9881 51.9393 30.1674 51.7711C30.3468 51.6029 30.4529 51.3709 30.4629 51.1251C30.4728 50.8794 30.3858 50.6396 30.2205 50.4575C30.0553 50.2753 29.8251 50.1653 29.5796 50.1513Z" fill="#CD0B09"/>
<path d="M30.5073 9.47274C6.74095 10.3374 5.96995 44.2068 29.6926 46.0911C29.9353 46.0877 30.1673 45.9902 30.3396 45.8193C30.512 45.6484 30.6114 45.4174 30.617 45.1747C30.6225 44.932 30.5338 44.6967 30.3694 44.5181C30.205 44.3395 29.9778 44.2315 29.7355 44.217C25.5105 44.0247 21.5227 42.2094 18.6031 39.1494C15.6836 36.0894 14.0574 32.0208 14.0636 27.7915C14.0317 13.2146 31.9755 5.82547 42.1882 16.2171C42.3645 16.3877 42.6007 16.4825 42.8461 16.481C43.0915 16.4795 43.3265 16.3819 43.5008 16.2092C43.6751 16.0364 43.7747 15.8022 43.7783 15.5569C43.7819 15.3115 43.6892 15.0745 43.5202 14.8967C41.8211 13.1723 39.7949 11.8044 37.5605 10.873C35.326 9.94167 32.9281 9.46561 30.5073 9.47274Z" fill="#CD0B09"/>
<path d="M53.3156 29.6344C53.3067 29.3885 53.2015 29.156 53.0228 28.987C52.844 28.8179 52.606 28.7259 52.3601 28.7307C52.1141 28.7355 51.8799 28.8368 51.7079 29.0127C51.5359 29.1886 51.4399 29.425 51.4406 29.671L51.8718 51.7142C51.8751 51.9681 51.8276 52.2201 51.7322 52.4555C51.6369 52.6909 51.4955 52.9049 51.3164 53.0849C51.1373 53.265 50.9241 53.4075 50.6892 53.5041C50.4544 53.6008 50.2026 53.6496 49.9487 53.6477C49.6947 53.6459 49.4437 53.5934 49.2103 53.4933C48.9769 53.3932 48.7658 53.2476 48.5893 53.0649C48.4129 52.8822 48.2747 52.6662 48.1828 52.4295C48.0909 52.1927 48.0471 51.94 48.0541 51.6862L48.8789 38.5562C49.1273 36.041 47.4155 33.6442 47.3593 31.1881C46.8732 25.541 47.9095 19.8669 50.3603 14.7562C50.4078 14.6777 50.4792 14.6164 50.564 14.5813C50.6488 14.5462 50.7427 14.5391 50.8318 14.561C50.9209 14.583 51.0007 14.6328 51.0596 14.7032C51.1184 14.7736 51.1533 14.861 51.159 14.9526L51.3746 25.921C51.3838 26.1667 51.4891 26.3989 51.6678 26.5678C51.8465 26.7366 52.0844 26.8285 52.3301 26.8237C52.5759 26.8188 52.81 26.7177 52.982 26.5421C53.1539 26.3664 53.2501 26.1302 53.2496 25.8844L53.0336 14.9105C53.0144 14.3106 52.7634 13.7416 52.3335 13.3229C51.9035 12.9042 51.328 12.6684 50.7278 12.6652C50.3037 12.6609 49.887 12.7761 49.5254 12.9977C49.1637 13.2193 48.8718 13.5383 48.683 13.918C46.0579 19.3306 44.9546 25.3553 45.491 31.3469C45.4844 33.7181 47.1083 36.0182 47.0083 38.4348L46.1823 51.5759C46.1406 52.3464 46.3357 53.1112 46.7413 53.7676C47.1469 54.4241 47.7436 54.9407 48.4514 55.2481C49.0362 55.4857 49.6704 55.5758 50.2982 55.5103C50.926 55.4449 51.5281 55.2261 52.0514 54.873C52.5746 54.52 53.0029 54.0436 53.2986 53.4859C53.5943 52.9282 53.7482 52.3064 53.7467 51.6752L53.3156 29.6344Z" fill="#CD0B09"/>
<path d="M41.1387 21.0322C40.8901 21.0322 40.6516 21.131 40.4758 21.3068C40.3 21.4826 40.2012 21.7211 40.2012 21.9697V30.9735C40.2012 31.0825 40.1701 31.1892 40.1115 31.2811L37.7156 35.0467C37.2215 35.8258 36.9986 36.7463 37.0816 37.6651L38.4274 52.3419C38.4535 52.6267 38.4199 52.9138 38.3287 53.1849C38.2376 53.456 38.091 53.7052 37.8982 53.9164C37.7054 54.1277 37.4706 54.2964 37.209 54.4118C36.9473 54.5273 36.6645 54.5869 36.3785 54.5869C36.0924 54.5869 35.8096 54.5273 35.5479 54.4118C35.2863 54.2964 35.0515 54.1277 34.8587 53.9164C34.6659 53.7052 34.5193 53.456 34.4282 53.1849C34.337 52.9138 34.3034 52.6267 34.3295 52.3419L35.6753 37.6651C35.758 36.7462 35.5353 35.8257 35.0418 35.0462L32.6454 31.2816C32.5869 31.1895 32.5557 31.0826 32.5557 30.9735V21.9698C32.5557 21.7211 32.4569 21.4827 32.2811 21.3068C32.1053 21.131 31.8668 21.0323 31.6182 21.0323C31.3695 21.0323 31.1311 21.131 30.9553 21.3068C30.7794 21.4827 30.6807 21.7211 30.6807 21.9698V30.9735C30.6806 31.4392 30.8133 31.8953 31.0634 32.2882L33.4593 36.0524C33.731 36.4814 33.8538 36.9881 33.8086 37.4939L32.4628 52.1707C32.4128 52.7151 32.477 53.2639 32.6511 53.782C32.8252 54.3002 33.1054 54.7764 33.4739 55.1802C33.8423 55.584 34.2909 55.9066 34.7911 56.1273C35.2912 56.3479 35.8319 56.4619 36.3785 56.4619C36.9252 56.4619 37.4658 56.3479 37.9659 56.1272C38.4661 55.9065 38.9147 55.584 39.2831 55.1801C39.6516 54.7763 39.9318 54.3001 40.1059 53.7819C40.2799 53.2637 40.3441 52.7149 40.2941 52.1706L38.9483 37.4939C38.903 36.9883 39.0258 36.4819 39.2976 36.0533L41.6935 32.2877C41.9436 31.895 42.0764 31.4391 42.0762 30.9735V21.9697C42.0762 21.7211 41.9774 21.4826 41.8016 21.3068C41.6258 21.131 41.3874 21.0322 41.1387 21.0322Z" fill="#CD0B09"/>
<path d="M35.6782 29.5708V21.9696C35.6746 21.7234 35.5742 21.4885 35.3988 21.3156C35.2234 21.1428 34.987 21.0459 34.7407 21.0459C34.4945 21.0459 34.2581 21.1428 34.0827 21.3156C33.9073 21.4885 33.8069 21.7234 33.8032 21.9696V29.5707C33.8069 29.817 33.9072 30.0519 34.0827 30.2247C34.2581 30.3975 34.4944 30.4944 34.7407 30.4944C34.987 30.4944 35.2233 30.3976 35.3988 30.2247C35.5742 30.0519 35.6746 29.817 35.6782 29.5708Z" fill="#CD0B09"/>
<path d="M38.9541 29.5708V21.9696C38.9504 21.7234 38.8501 21.4885 38.6747 21.3156C38.4992 21.1428 38.2629 21.0459 38.0166 21.0459C37.7703 21.0459 37.534 21.1428 37.3585 21.3156C37.1831 21.4885 37.0828 21.7234 37.0791 21.9696V29.5707C37.0827 29.817 37.1831 30.0519 37.3585 30.2247C37.534 30.3975 37.7703 30.4944 38.0166 30.4944C38.2628 30.4944 38.4992 30.3976 38.6746 30.2247C38.8501 30.0519 38.9504 29.817 38.9541 29.5708Z" fill="#CD0B09"/>
</svg>
