<svg width="64" height="63" viewBox="0 0 64 63" fill="none" xmlns="http://www.w3.org/2000/svg">
<g clip-path="url(#clip0_1035_3779)">
<circle cx="31.6207" cy="31.4483" r="30.4483" fill="white" stroke="#939393" stroke-width="2"/>
<g clip-path="url(#clip1_1035_3779)">
<path d="M42.9893 32.7764V32.7578C42.9893 27.2505 39.2635 22.5976 34.2003 21.1857V20.4531C34.2003 18.6762 32.7546 17.2305 30.9776 17.2305C29.2006 17.2305 27.7549 18.6762 27.7549 20.4531V21.1857C22.6917 22.5976 18.9659 27.2505 18.9659 32.7578V33.6367H18.087C17.6016 33.6367 17.2081 34.0302 17.2081 34.5156C17.2081 36.9388 19.1795 38.9102 21.6026 38.9102H34.9105C35.064 42.167 37.7615 44.7695 41.0557 44.7695C44.4481 44.7695 47.2081 42.0096 47.2081 38.6172C47.2081 35.9 45.4374 33.5889 42.9893 32.7764ZM29.5128 20.4531C29.5128 19.6454 30.1699 18.9883 30.9776 18.9883C31.7853 18.9883 32.4424 19.6454 32.4424 20.4531V20.8356C31.9622 20.7769 31.4734 20.7461 30.9776 20.7461C30.4818 20.7461 29.993 20.7769 29.5128 20.8356V20.4531ZM20.7237 32.7578C20.7237 27.1038 25.3236 22.5039 30.9776 22.5039C36.5345 22.5039 41.0728 26.9471 41.2272 32.4674C41.1702 32.4658 41.1131 32.4648 41.0557 32.4648C39.7091 32.4648 38.4624 32.9 37.4482 33.6367H20.7237V32.7578ZM35.08 37.1523H21.6026C20.4567 37.1523 19.4792 36.4176 19.1165 35.3945H35.8171C35.4856 35.9315 35.2343 36.5231 35.08 37.1523ZM41.0557 43.0117C38.6326 43.0117 36.6612 41.0403 36.6612 38.6172C36.6612 36.194 38.6326 34.2227 41.0557 34.2227C43.4789 34.2227 45.4503 36.194 45.4503 38.6172C45.4503 41.0403 43.4789 43.0117 41.0557 43.0117Z" fill="#939393"/>
<path d="M41.0557 35.9805C40.5703 35.9805 40.1768 36.374 40.1768 36.8594V37.7383H39.2979C38.8125 37.7383 38.419 38.1318 38.419 38.6172C38.419 39.1026 38.8125 39.4961 39.2979 39.4961H41.0557C41.5411 39.4961 41.9346 39.1026 41.9346 38.6172V36.8594C41.9346 36.374 41.5411 35.9805 41.0557 35.9805Z" fill="#939393"/>
</g>
</g>
<defs>
<clipPath id="clip0_1035_3779">
<rect width="62.8966" height="62.8966" fill="white" transform="translate(0.172424)"/>
</clipPath>
<clipPath id="clip1_1035_3779">
<rect width="30" height="30" fill="white" transform="translate(17.2081 16)"/>
</clipPath>
</defs>
</svg>
