<svg width="64" height="63" viewBox="0 0 64 63" fill="none" xmlns="http://www.w3.org/2000/svg">
<g clip-path="url(#clip0_633_341)">
<circle cx="32.0345" cy="31.4483" r="30.4483" fill="white" stroke="#CD0B09" stroke-width="2"/>
<g clip-path="url(#clip1_633_341)">
<path d="M42.5198 35.2191H42.3651L40.6729 31.2722C40.9598 31.398 41.269 31.4649 41.5823 31.4691C41.7066 31.4691 41.8258 31.4197 41.9137 31.3318C42.0016 31.2439 42.051 31.1247 42.051 31.0004V27.2504C42.051 27.126 42.0016 27.0068 41.9137 26.9189C41.8258 26.831 41.7066 26.7816 41.5823 26.7816C41.0941 26.7843 40.619 26.9393 40.2232 27.225C39.8274 27.5107 39.5307 27.9129 39.3745 28.3754C39.2365 28.1828 39.0605 28.0206 38.8573 27.8988C38.6541 27.7771 38.4281 27.6983 38.1932 27.6675C37.8955 27.6291 37.5931 27.6482 37.3026 27.7238H36.8948C36.1026 27.7238 35.751 27.255 35.1979 26.491L34.9213 26.1019C35.205 26.0874 35.4798 25.9985 35.7182 25.8441C35.8991 25.7128 36.0522 25.5471 36.1689 25.3564C36.2855 25.1658 36.3634 24.954 36.3979 24.7332C36.5503 24.6454 36.6835 24.528 36.7898 24.3879C36.896 24.2478 36.9732 24.0879 37.0166 23.9175C37.0365 23.7832 37.0233 23.646 36.9784 23.5178C36.9335 23.3896 36.8582 23.2742 36.7588 23.1816C36.5674 22.8539 36.4626 22.4829 36.4542 22.1035C36.5752 22.0962 36.6887 22.0424 36.7708 21.9532C36.853 21.8641 36.8974 21.7466 36.8948 21.6254C36.8948 21.1285 36.7961 20.6366 36.6045 20.1783C36.4128 19.7199 36.132 19.3042 35.7783 18.9553C35.4246 18.6064 35.0051 18.3313 34.5441 18.1459C34.0832 17.9605 33.59 17.8685 33.0932 17.8754C32.1183 17.8945 31.1887 18.2904 30.4993 18.9798C29.8098 19.6693 29.414 20.5989 29.3948 21.5738C29.386 22.0708 29.4769 22.5645 29.6621 23.0259C29.8472 23.4872 30.1229 23.9067 30.4729 24.2597C30.5766 24.3628 30.6862 24.4598 30.801 24.5504C28.9917 24.991 28.0401 26.6879 27.5526 28.1597C27.4139 28.0199 27.2488 27.909 27.067 27.8334C26.8852 27.7578 26.6901 27.7189 26.4932 27.7191H21.5151C21.2651 27.7187 21.019 27.7811 20.7995 27.9007C20.58 28.0203 20.3941 28.1932 20.2588 28.4035C20.1911 28.5079 20.1676 28.635 20.1935 28.7567C20.2195 28.8785 20.2927 28.9849 20.3971 29.0527C20.5015 29.1205 20.6286 29.1439 20.7504 29.118C20.8721 29.0921 20.9786 29.0188 21.0463 28.9144C21.0968 28.8362 21.1663 28.772 21.2482 28.7277C21.3302 28.6835 21.422 28.6606 21.5151 28.6613H22.3635V30.0675C22.3635 30.1919 22.4129 30.3111 22.5008 30.399C22.5887 30.4869 22.708 30.5363 22.8323 30.5363H25.176C25.3003 30.5363 25.4196 30.4869 25.5075 30.399C25.5954 30.3111 25.6448 30.1919 25.6448 30.0675V28.6566H26.4932C26.5665 28.6566 26.639 28.671 26.7067 28.6991C26.7744 28.7271 26.8358 28.7682 26.8876 28.82C26.9394 28.8718 26.9805 28.9333 27.0086 29.001C27.0366 29.0686 27.051 29.1412 27.051 29.2144V32.791C27.0498 32.9381 26.9905 33.0788 26.886 33.1824C26.7815 33.286 26.6403 33.3441 26.4932 33.3441H21.5151C21.3808 33.3478 21.2499 33.3021 21.1471 33.2157C21.0443 33.1293 20.9767 33.0082 20.9573 32.8754H21.8948C22.0191 32.8754 22.1383 32.826 22.2262 32.7381C22.3141 32.6502 22.3635 32.5309 22.3635 32.4066C22.3635 32.2823 22.3141 32.1631 22.2262 32.0751C22.1383 31.9872 22.0191 31.9379 21.8948 31.9379H20.9573V31.0004H21.426C21.5503 31.0004 21.6696 30.951 21.7575 30.8631C21.8454 30.7752 21.8948 30.6559 21.8948 30.5316C21.8948 30.4073 21.8454 30.2881 21.7575 30.2001C21.6696 30.1122 21.5503 30.0629 21.426 30.0629H19.0823C18.958 30.0629 18.8387 30.1122 18.7508 30.2001C18.6629 30.2881 18.6135 30.4073 18.6135 30.5316C18.6135 30.6559 18.6629 30.7752 18.7508 30.8631C18.8387 30.951 18.958 31.0004 19.0823 31.0004H20.0198V31.9379H18.1448C18.0205 31.9379 17.9012 31.9872 17.8133 32.0751C17.7254 32.1631 17.676 32.2823 17.676 32.4066C17.676 32.5309 17.7254 32.6502 17.8133 32.7381C17.9012 32.826 18.0205 32.8754 18.1448 32.8754H20.0198C20.0413 33.2551 20.2072 33.6122 20.4834 33.8736C20.7597 34.1351 21.1254 34.281 21.5057 34.2816H23.8495C23.6326 34.4943 23.4478 34.7375 23.301 35.0035C22.6751 36.2311 22.3535 37.5912 22.3635 38.9691C22.3635 39.0934 22.4129 39.2127 22.5008 39.3006C22.5887 39.3885 22.708 39.4379 22.8323 39.4379H24.2713C24.3913 40.3387 24.8343 41.1654 25.5181 41.7641C26.2018 42.3628 27.0797 42.6929 27.9885 42.6929C28.8973 42.6929 29.7752 42.3628 30.459 41.7641C31.1427 41.1654 31.5858 40.3387 31.7057 39.4379H38.8026C38.8928 40.154 39.1878 40.8289 39.6522 41.3815C40.1165 41.9342 40.7305 42.341 41.4204 42.5533C42.1103 42.7656 42.8468 42.7742 43.5415 42.5782C44.2362 42.3822 44.8596 41.9898 45.3368 41.4482C45.814 40.9066 46.1247 40.2388 46.2317 39.525C46.3387 38.8111 46.2374 38.0816 45.94 37.4239C45.6426 36.7662 45.1617 36.2083 44.555 35.8172C43.9483 35.4261 43.2416 35.2184 42.5198 35.2191ZM24.7073 29.5941H23.301V28.6566H24.7073V29.5941ZM41.1135 27.7988V30.4519C40.8388 30.3553 40.6009 30.1758 40.4326 29.9382C40.2643 29.7005 40.1739 29.4165 40.1739 29.1254C40.1739 28.8342 40.2643 28.5502 40.4326 28.3126C40.6009 28.0749 40.8388 27.8954 41.1135 27.7988ZM38.0573 28.591C38.241 28.6185 38.4118 28.7022 38.546 28.8306C38.6803 28.959 38.7716 29.1258 38.8073 29.3082L38.9291 29.5941C38.2765 29.9296 37.5484 30.091 36.8151 30.0629C36.7505 29.7844 36.7843 29.4922 36.9108 29.2358C37.0373 28.9795 37.2486 28.7748 37.5088 28.6566C37.6856 28.5993 37.8722 28.5785 38.0573 28.5957V28.591ZM35.7463 24.016C35.6683 24.0553 35.6028 24.1156 35.5573 24.1902C35.5117 24.2647 35.4879 24.3505 35.4885 24.4379C35.4851 24.5559 35.457 24.6718 35.4062 24.7784C35.3553 24.8849 35.2828 24.9797 35.1932 25.0566C34.926 25.2347 34.4291 25.1925 33.787 24.9394C33.7527 24.9356 33.7181 24.9356 33.6838 24.9394L33.6135 24.8785V23.0832C33.6135 22.8209 33.7177 22.5693 33.9032 22.3838C34.0887 22.1983 34.3403 22.0941 34.6026 22.0941H35.4885C35.5033 22.7009 35.6938 23.2903 36.037 23.791C35.9522 23.8817 35.8542 23.9591 35.7463 24.0207V24.016ZM30.3323 21.5832C30.3557 20.8559 30.6551 20.1648 31.1697 19.6502C31.6842 19.1357 32.3753 18.8363 33.1026 18.8129H33.1448C33.8097 18.8124 34.4534 19.0476 34.9614 19.4767C35.4694 19.9057 35.8089 20.5009 35.9198 21.1566H34.6026C34.092 21.1578 33.6027 21.3612 33.2417 21.7222C32.8806 22.0833 32.6773 22.5726 32.676 23.0832V24.4004C32.014 24.2885 31.4137 23.9435 30.9839 23.4277C30.554 22.9118 30.3229 22.2592 30.3323 21.5879V21.5832ZM31.7385 25.3754C33.2713 25.3754 33.8338 26.1769 34.4292 27.0207C34.8604 27.6394 35.3667 28.3144 36.2104 28.5535C35.945 28.9823 35.825 29.4854 35.8682 29.9879C35.2864 29.8608 34.7377 29.6132 34.2573 29.2613C33.777 28.9093 33.3756 28.4606 33.0792 27.9441C33.0536 27.8821 33.0151 27.8264 32.9662 27.7806C32.9173 27.7348 32.8591 27.7 32.7956 27.6786C32.7321 27.6572 32.6647 27.6496 32.5981 27.6564C32.5314 27.6632 32.467 27.6843 32.4091 27.7181C32.3513 27.7519 32.3014 27.7978 32.2627 27.8525C32.2241 27.9073 32.1977 27.9697 32.1852 28.0355C32.1727 28.1014 32.1745 28.1691 32.1905 28.2342C32.2064 28.2993 32.2361 28.3602 32.2776 28.4129C32.4475 28.698 32.642 28.9678 32.8588 29.2191L32.8167 29.2472C32.3797 29.7498 32.0723 30.3517 31.9213 31.0004H27.9885V30.5316C28.0213 30.2457 28.5557 25.3754 31.7385 25.3754ZM27.9885 32.7863V31.9379H32.2073C32.301 31.9379 34.551 31.966 34.551 34.2816V36.6254H32.676V35.6879C32.6879 35.3769 32.6354 35.0668 32.5218 34.7771C32.4082 34.4874 32.236 34.2243 32.0159 34.0042C31.7959 33.7842 31.5327 33.612 31.243 33.4984C30.9533 33.3848 30.6432 33.3323 30.3323 33.3441H27.8807C27.9523 33.1669 27.9889 32.9774 27.9885 32.7863ZM27.9885 41.7816C27.3244 41.7809 26.6819 41.5452 26.1748 41.1163C25.6678 40.6873 25.3289 40.0927 25.2182 39.4379H26.1791C26.2871 39.8351 26.5227 40.1857 26.8497 40.4357C27.1767 40.6857 27.5769 40.8211 27.9885 40.8211C28.4001 40.8211 28.8003 40.6857 29.1273 40.4357C29.4543 40.1857 29.69 39.8351 29.7979 39.4379H30.7588C30.6481 40.0927 30.3093 40.6873 29.8022 41.1163C29.2952 41.5452 28.6527 41.7809 27.9885 41.7816ZM27.1823 39.4379H28.7948C28.7118 39.5778 28.5938 39.6936 28.4524 39.7741C28.3111 39.8546 28.1512 39.897 27.9885 39.897C27.8259 39.897 27.666 39.8546 27.5246 39.7741C27.3833 39.6936 27.2653 39.5778 27.1823 39.4379ZM23.301 38.5004C23.3608 37.4214 23.6518 36.368 24.1542 35.4113C24.3407 35.0644 24.6192 34.7755 24.959 34.5762C25.2988 34.377 25.6869 34.275 26.0807 34.2816H30.3323C30.5196 34.2715 30.707 34.3009 30.8822 34.368C31.0574 34.435 31.2165 34.5383 31.3492 34.6709C31.4819 34.8036 31.5851 34.9627 31.6522 35.1379C31.7193 35.3131 31.7487 35.5005 31.7385 35.6879V37.0941C31.7385 37.6012 31.903 38.0947 32.2073 38.5004H23.301ZM34.0823 38.5004C33.7921 38.4995 33.5094 38.409 33.2727 38.2412C33.0361 38.0733 32.8571 37.8364 32.7604 37.5629H35.0198C35.1421 37.555 35.2648 37.5727 35.3799 37.615C35.4951 37.6572 35.6001 37.723 35.6883 37.8081C35.7766 37.8933 35.8461 37.9959 35.8924 38.1095C35.9387 38.223 35.9608 38.345 35.9573 38.4675C35.8019 38.4883 35.6453 38.4992 35.4885 38.5004H34.0823ZM37.087 37.9519C37.0192 38.0285 36.9421 38.0963 36.8573 38.1535C36.8058 37.7991 36.647 37.469 36.4023 37.2075C36.1576 36.946 35.8387 36.7658 35.4885 36.691V34.2816C35.5308 33.5168 35.2861 32.7637 34.8023 32.1698C34.3185 31.5759 33.6305 31.1839 32.8729 31.0707C32.9931 30.6502 33.1989 30.2592 33.4776 29.9222C33.4897 29.9058 33.5007 29.8886 33.5104 29.8707C34.238 30.4608 35.1135 30.8402 36.0417 30.9675L37.3635 36.7144C37.4378 37.1472 37.3384 37.5919 37.087 37.9519ZM38.301 36.5222L37.012 31.0004C37.8051 31.0077 38.5889 30.8278 39.2995 30.4754L41.512 35.6316L39.4682 38.5004H37.8323C38.038 38.2184 38.1854 37.8982 38.2659 37.5585C38.3464 37.2189 38.3583 36.8666 38.301 36.5222ZM42.5198 38.5004H41.7135C41.8167 38.3216 41.976 38.1819 42.1667 38.103C42.3573 38.024 42.5687 38.0101 42.7681 38.0635C42.9674 38.117 43.1436 38.2347 43.2692 38.3984C43.3948 38.5621 43.4629 38.7627 43.4629 38.9691C43.4629 39.1755 43.3948 39.3761 43.2692 39.5398C43.1436 39.7035 42.9674 39.8212 42.7681 39.8747C42.5687 39.9281 42.3573 39.9142 42.1667 39.8352C41.976 39.7563 41.8167 39.6166 41.7135 39.4379H42.5198C42.6441 39.4379 42.7633 39.3885 42.8512 39.3006C42.9391 39.2127 42.9885 39.0934 42.9885 38.9691C42.9885 38.8448 42.9391 38.7256 42.8512 38.6376C42.7633 38.5497 42.6441 38.5004 42.5198 38.5004ZM40.6166 38.5004L40.7807 38.2707C40.7524 38.3456 40.7289 38.4224 40.7104 38.5004H40.6166ZM42.5198 41.7816C41.8556 41.7809 41.2131 41.5452 40.7061 41.1163C40.199 40.6873 39.8602 40.0927 39.7495 39.4379H40.7104C40.8131 39.8333 41.042 40.1843 41.3625 40.4376C41.683 40.6909 42.0774 40.8327 42.4858 40.8413C42.8943 40.8498 43.2943 40.7248 43.6251 40.4852C43.956 40.2455 44.1995 39.9044 44.3187 39.5137C44.4378 39.1229 44.4261 38.704 44.2854 38.3205C44.1446 37.937 43.8824 37.61 43.5387 37.3892C43.195 37.1684 42.7886 37.0658 42.3813 37.0972C41.974 37.1285 41.5881 37.2921 41.2823 37.5629L42.2807 36.1566C42.3604 36.1566 42.4401 36.1566 42.5198 36.1566C43.2657 36.1566 43.9811 36.4529 44.5085 36.9804C45.036 37.5078 45.3323 38.2232 45.3323 38.9691C45.3323 39.715 45.036 40.4304 44.5085 40.9578C43.9811 41.4853 43.2657 41.7816 42.5198 41.7816Z" fill="#CD0B09"/>
</g>
</g>
<defs>
<clipPath id="clip0_633_341">
<rect width="62.8966" height="62.8966" fill="white" transform="translate(0.586182)"/>
</clipPath>
<clipPath id="clip1_633_341">
<rect width="30" height="30" fill="white" transform="translate(17.2073 16)"/>
</clipPath>
</defs>
</svg>
