<svg width="63" height="63" viewBox="0 0 63 63" fill="none" xmlns="http://www.w3.org/2000/svg">
<g clip-path="url(#clip0_1035_3754)">
<circle cx="31.4483" cy="31.4483" r="30.4483" fill="white" stroke="#939393" stroke-width="2"/>
<path d="M44.843 32.7038C44.8424 32.1615 44.6268 31.6416 44.2433 31.2581C43.8598 30.8747 43.3399 30.659 42.7976 30.6584H35.6631C36.3097 29.7928 36.6597 28.7418 36.6612 27.6614V24.522C36.6612 23.9795 36.4457 23.4593 36.0621 23.0757C35.6785 22.6921 35.1583 22.4766 34.6158 22.4766C34.0733 22.4766 33.553 22.6921 33.1694 23.0757C32.7858 23.4593 32.5703 23.9795 32.5703 24.522V26.3434C32.5703 26.9101 32.4588 27.4712 32.2419 27.9947C32.0251 28.5182 31.7073 28.9939 31.3066 29.3946C30.906 29.7953 30.4303 30.1131 29.9068 30.3299C29.3833 30.5468 28.8222 30.6584 28.2555 30.6584H27.7976V29.6357C27.7976 29.5452 27.7617 29.4585 27.6977 29.3946C27.6338 29.3307 27.5471 29.2947 27.4567 29.2947H22.0021C21.9117 29.2947 21.825 29.3307 21.7611 29.3946C21.6971 29.4585 21.6612 29.5452 21.6612 29.6357V30.3175H17.9112C17.8208 30.3175 17.7341 30.3534 17.6702 30.4173C17.6062 30.4813 17.5703 30.568 17.5703 30.6584C17.5703 30.7488 17.6062 30.8355 17.6702 30.8994C17.7341 30.9634 17.8208 30.9993 17.9112 30.9993H21.6612V43.272H17.9112C17.8208 43.272 17.7341 43.3079 17.6702 43.3719C17.6062 43.4358 17.5703 43.5225 17.5703 43.6129C17.5703 43.7033 17.6062 43.7901 17.6702 43.854C17.7341 43.9179 17.8208 43.9538 17.9112 43.9538H21.6612V44.6357C21.6612 44.7261 21.6971 44.8128 21.7611 44.8767C21.825 44.9406 21.9117 44.9766 22.0021 44.9766H27.4567C27.5471 44.9766 27.6338 44.9406 27.6977 44.8767C27.7617 44.8128 27.7976 44.7261 27.7976 44.6357V43.8817C29.067 44.6007 30.5014 44.978 31.9604 44.9766H38.0249C38.42 44.9772 38.8069 44.8633 39.1385 44.6484C39.4702 44.4336 39.7324 44.1272 39.8933 43.7663C40.0543 43.4054 40.1071 43.0056 40.0453 42.6153C39.9835 42.225 39.8098 41.861 39.5453 41.5675H40.0703C40.4663 41.5681 40.854 41.4536 41.186 41.2379C41.5181 41.0221 41.7803 40.7145 41.9407 40.3524C42.1011 39.9904 42.1527 39.5895 42.0893 39.1986C42.026 38.8077 41.8503 38.4437 41.5837 38.1508C41.9659 38.1237 42.3327 37.9895 42.6421 37.7636C42.9516 37.5377 43.1912 37.2292 43.3335 36.8734C43.4758 36.5177 43.515 36.1291 43.4467 35.7521C43.3784 35.3751 43.2054 35.0249 42.9473 34.7417C43.4621 34.7037 43.9434 34.4725 44.2949 34.0946C44.6465 33.7167 44.8422 33.22 44.843 32.7038ZM27.1158 44.2947H22.343V29.9766H27.1158V44.2947ZM42.7976 34.0675H39.3885C39.2981 34.0675 39.2114 34.1034 39.1474 34.1673C39.0835 34.2313 39.0476 34.318 39.0476 34.4084C39.0476 34.4988 39.0835 34.5855 39.1474 34.6494C39.2114 34.7134 39.2981 34.7493 39.3885 34.7493H41.4339C41.7956 34.7493 42.1425 34.893 42.3982 35.1487C42.6539 35.4044 42.7976 35.7513 42.7976 36.1129C42.7976 36.4746 42.6539 36.8214 42.3982 37.0772C42.1425 37.3329 41.7956 37.4766 41.4339 37.4766H38.0249C37.9344 37.4766 37.8477 37.5125 37.7838 37.5764C37.7199 37.6403 37.6839 37.7271 37.6839 37.8175C37.6839 37.9079 37.7199 37.9946 37.7838 38.0585C37.8477 38.1225 37.9344 38.1584 38.0249 38.1584H40.0703C40.432 38.1584 40.7788 38.302 41.0345 38.5578C41.2903 38.8135 41.4339 39.1604 41.4339 39.522C41.4339 39.8837 41.2903 40.2305 41.0345 40.4863C40.7788 40.742 40.432 40.8857 40.0703 40.8857H35.9794C35.889 40.8857 35.8023 40.9216 35.7383 40.9855C35.6744 41.0494 35.6385 41.1361 35.6385 41.2266C35.6385 41.317 35.6744 41.4037 35.7383 41.4676C35.8023 41.5316 35.889 41.5675 35.9794 41.5675H38.0249C38.3865 41.5675 38.7334 41.7111 38.9891 41.9669C39.2448 42.2226 39.3885 42.5694 39.3885 42.9311C39.3885 43.2928 39.2448 43.6396 38.9891 43.8953C38.7334 44.1511 38.3865 44.2947 38.0249 44.2947H31.9604C30.4856 44.2948 29.0415 43.874 27.7976 43.0818V31.3402H28.2555C29.5807 31.3402 30.8516 30.8137 31.7887 29.8766C32.7257 28.9395 33.2521 27.6686 33.2521 26.3434V24.522C33.2521 24.1604 33.3958 23.8135 33.6515 23.5578C33.9073 23.302 34.2541 23.1584 34.6158 23.1584C34.9774 23.1584 35.3243 23.302 35.58 23.5578C35.8357 23.8135 35.9794 24.1604 35.9794 24.522V27.6614C35.978 28.641 35.6449 29.5912 35.0342 30.3571L34.6908 30.7862C34.6506 30.8363 34.6255 30.8968 34.6182 30.9606C34.6109 31.0244 34.6218 31.0889 34.6496 31.1468C34.6773 31.2047 34.7209 31.2536 34.7752 31.2878C34.8296 31.322 34.8925 31.3402 34.9567 31.3402H42.7976C43.1592 31.3402 43.5061 31.4839 43.7618 31.7396C44.0176 31.9953 44.1612 32.3422 44.1612 32.7038C44.1612 33.0655 44.0176 33.4123 43.7618 33.6681C43.5061 33.9238 43.1592 34.0675 42.7976 34.0675Z" fill="#939393"/>
<path d="M34.6163 21.1143C34.7067 21.1143 34.7934 21.0784 34.8574 21.0145C34.9213 20.9506 34.9572 20.8639 34.9572 20.7734V17.3643C34.9572 17.2739 34.9213 17.1872 34.8574 17.1233C34.7934 17.0594 34.7067 17.0234 34.6163 17.0234C34.5259 17.0234 34.4392 17.0594 34.3752 17.1233C34.3113 17.1872 34.2754 17.2739 34.2754 17.3643V20.7734C34.2754 20.8639 34.3113 20.9506 34.3752 21.0145C34.4392 21.0784 34.5259 21.1143 34.6163 21.1143Z" fill="#939393"/>
<path d="M31.4822 22.2126C31.5137 22.2449 31.5514 22.2707 31.5929 22.2883C31.6344 22.306 31.679 22.3152 31.7242 22.3155C31.7693 22.3158 31.814 22.3071 31.8558 22.29C31.8975 22.2729 31.9355 22.2476 31.9674 22.2157C31.9993 22.1838 32.0246 22.1458 32.0417 22.1041C32.0588 22.0623 32.0675 22.0176 32.0672 21.9725C32.067 21.9273 32.0577 21.8827 32.04 21.8412C32.0224 21.7996 31.9966 21.762 31.9643 21.7305L29.5538 19.3199C29.5224 19.2871 29.4848 19.2609 29.4432 19.2429C29.4015 19.2249 29.3567 19.2153 29.3113 19.2149C29.266 19.2144 29.221 19.223 29.179 19.2401C29.1369 19.2572 29.0988 19.2826 29.0667 19.3147C29.0346 19.3467 29.0092 19.3849 28.9921 19.4269C28.9749 19.4689 28.9663 19.5139 28.9668 19.5593C28.9673 19.6047 28.9768 19.6495 28.9948 19.6911C29.0128 19.7328 29.039 19.7704 29.0717 19.8018L31.4822 22.2126Z" fill="#939393"/>
<path d="M27.1163 25.2053H30.5254C30.6158 25.2053 30.7025 25.1693 30.7664 25.1054C30.8304 25.0415 30.8663 24.9548 30.8663 24.8643C30.8663 24.7739 30.8304 24.6872 30.7664 24.6233C30.7025 24.5594 30.6158 24.5234 30.5254 24.5234H27.1163C27.0259 24.5234 26.9392 24.5594 26.8752 24.6233C26.8113 24.6872 26.7754 24.7739 26.7754 24.8643C26.7754 24.9548 26.8113 25.0415 26.8752 25.1054C26.9392 25.1693 27.0259 25.2053 27.1163 25.2053Z" fill="#939393"/>
<path d="M37.5085 22.3126C37.5533 22.3127 37.5976 22.3039 37.639 22.2867C37.6804 22.2696 37.7179 22.2445 37.7495 22.2128L40.1602 19.8019C40.2213 19.7375 40.2548 19.6517 40.2536 19.5629C40.2524 19.4741 40.2166 19.3892 40.1538 19.3264C40.091 19.2636 40.0062 19.2278 39.9173 19.2266C39.8285 19.2254 39.7427 19.2589 39.6783 19.32L37.2676 21.7307C37.2199 21.7784 37.1875 21.8391 37.1743 21.9052C37.1612 21.9713 37.1679 22.0399 37.1937 22.1022C37.2195 22.1644 37.2632 22.2177 37.3193 22.2551C37.3753 22.2926 37.4411 22.3126 37.5085 22.3126Z" fill="#939393"/>
<path d="M38.3652 24.8643C38.3652 24.9548 38.4012 25.0415 38.4651 25.1054C38.529 25.1693 38.6157 25.2053 38.7061 25.2053H42.1152C42.2056 25.2053 42.2924 25.1693 42.3563 25.1054C42.4202 25.0415 42.4561 24.9548 42.4561 24.8643C42.4561 24.7739 42.4202 24.6872 42.3563 24.6233C42.2924 24.5594 42.2056 24.5234 42.1152 24.5234H38.7061C38.6157 24.5234 38.529 24.5594 38.4651 24.6233C38.4012 24.6872 38.3652 24.7739 38.3652 24.8643Z" fill="#939393"/>
<path d="M25.0696 41.2266C24.8673 41.2266 24.6696 41.2865 24.5014 41.3989C24.3332 41.5113 24.2021 41.671 24.1247 41.8579C24.0473 42.0448 24.0271 42.2504 24.0665 42.4488C24.106 42.6472 24.2034 42.8294 24.3464 42.9725C24.4895 43.1155 24.6717 43.2129 24.8701 43.2524C25.0685 43.2918 25.2741 43.2716 25.461 43.1942C25.6479 43.1168 25.8076 42.9857 25.92 42.8175C26.0323 42.6493 26.0923 42.4516 26.0923 42.2493C26.092 41.9781 25.9842 41.7182 25.7925 41.5264C25.6007 41.3347 25.3408 41.2269 25.0696 41.2266ZM25.0696 42.5902C25.0022 42.5902 24.9363 42.5702 24.8802 42.5327C24.8241 42.4953 24.7804 42.442 24.7546 42.3797C24.7288 42.3175 24.7221 42.2489 24.7352 42.1828C24.7484 42.1167 24.7809 42.0559 24.8285 42.0082C24.8762 41.9606 24.937 41.9281 25.0031 41.9149C25.0692 41.9018 25.1378 41.9085 25.2001 41.9343C25.2624 41.9601 25.3156 42.0038 25.3531 42.0599C25.3905 42.116 25.4105 42.1819 25.4105 42.2493C25.4104 42.3397 25.3745 42.4263 25.3106 42.4903C25.2467 42.5542 25.16 42.5901 25.0696 42.5902Z" fill="#939393"/>
</g>
<defs>
<clipPath id="clip0_1035_3754">
<rect width="62.8966" height="62.8966" fill="white"/>
</clipPath>
</defs>
</svg>
