<svg width="63" height="63" viewBox="0 0 63 63" fill="none" xmlns="http://www.w3.org/2000/svg">
<g clip-path="url(#clip0_1035_3790)">
<circle cx="31.4483" cy="31.4483" r="30.4483" fill="white" stroke="#939393" stroke-width="2"/>
<g clip-path="url(#clip1_1035_3790)">
<path d="M30.9376 21.5625V20.625C30.9376 18.0405 28.8346 15.9375 26.2501 15.9375C23.6655 15.9375 21.5626 18.0405 21.5626 20.625V21.5625H15.9376V40.3125C15.9376 42.3843 17.6157 44.0625 19.6876 44.0625H29.7002C28.9408 43.5278 28.2564 42.8998 27.6655 42.1875H19.6876C18.6562 42.1875 17.8126 41.3434 17.8126 40.3125V23.4375H21.5626V25.3125H23.4376V23.4375H29.0626V25.3125H30.9376V23.4375H34.6876V25.3592C34.997 25.3308 35.3065 25.3125 35.6251 25.3125C35.9437 25.3125 36.2531 25.3308 36.5626 25.3592V21.5625H30.9376ZM23.4376 21.5625V20.625C23.4376 19.0741 24.6992 17.8125 26.2501 17.8125C27.801 17.8125 29.0626 19.0741 29.0626 20.625V21.5625H23.4376ZM35.6251 44.0625C30.9724 44.0625 27.1876 40.2777 27.1876 35.625C27.1876 30.9723 30.9724 27.1875 35.6251 27.1875C40.2778 27.1875 44.0626 30.9723 44.0626 35.625C44.0626 40.2777 40.2778 44.0625 35.6251 44.0625ZM35.6251 29.0625C32.0069 29.0625 29.0626 32.0068 29.0626 35.625C29.0626 39.2432 32.0069 42.1875 35.6251 42.1875C39.2432 42.1875 42.1876 39.2432 42.1876 35.625C42.1876 32.0068 39.2432 29.0625 35.6251 29.0625ZM34.6876 38.8257L31.4869 35.625L32.8126 34.2993L34.6876 36.1743L38.4376 32.4243L39.7632 33.75L34.6876 38.8257Z" fill="#939393"/>
</g>
</g>
<defs>
<clipPath id="clip0_1035_3790">
<rect width="62.8966" height="62.8966" fill="white"/>
</clipPath>
<clipPath id="clip1_1035_3790">
<rect width="30" height="30" fill="white" transform="translate(15.0001 15)"/>
</clipPath>
</defs>
</svg>
