<svg width="64" height="63" viewBox="0 0 64 63" fill="none" xmlns="http://www.w3.org/2000/svg">
<g clip-path="url(#clip0_1040_5998)">
<circle cx="32.0345" cy="31.4483" r="30.4483" fill="white" stroke="#CD0B09" stroke-width="2"/>
<path d="M34.43 27.042C33.7735 26.7531 33.0858 26.5411 32.3806 26.4102L32.21 27.3317C32.8437 27.4496 33.4617 27.6402 34.0517 27.8998L34.43 27.042Z" fill="#CD0B09"/>
<path d="M46.3437 31.0402C46.1579 30.8559 45.9347 30.7137 45.6892 30.6231C45.4437 30.5325 45.1816 30.4957 44.9206 30.5152C44.3142 29.8246 43.5674 29.2714 42.7301 28.8924C41.8928 28.5135 40.9843 28.3175 40.0653 28.3177C40.0278 28.3177 39.9917 28.3223 39.9547 28.3233C38.19 26.2579 35.7864 24.8405 33.125 24.2958V24.2344C33.1482 23.7251 32.969 23.2273 32.6265 22.8496C32.284 22.472 31.806 22.2452 31.2969 22.2188H30.0191C29.5099 22.2452 29.0319 22.472 28.6894 22.8496C28.3469 23.2273 28.1677 23.7251 28.1909 24.2344V24.3089C25.9535 24.781 23.8913 25.8657 22.2347 27.442C20.5782 29.0183 19.3924 31.0241 18.8098 33.2353H18.4156C18.2913 33.2353 18.1721 33.2847 18.0842 33.3726C17.9963 33.4605 17.9469 33.5797 17.9469 33.7041V35.9377C17.9469 36.062 17.9963 36.1812 18.0842 36.2691C18.1721 36.357 18.2913 36.4064 18.4156 36.4064H19.5336L20.7439 38.4136C20.7856 38.4827 20.8445 38.5398 20.9148 38.5795C20.9851 38.6192 21.0644 38.64 21.1452 38.64H34.8495C35.717 39.8371 36.9685 40.7008 38.3955 41.0871C39.8225 41.4735 41.3389 41.3591 42.6918 40.763C44.0447 40.1669 45.1524 39.1252 45.8304 37.8115C46.5084 36.4978 46.7158 34.9913 46.4178 33.5433C46.7253 33.1945 46.8887 32.7419 46.8749 32.2771C46.8612 31.8123 46.6713 31.3702 46.3437 31.0402ZM45.6805 32.9728L40.5406 38.1117C40.3695 38.2749 40.1421 38.3659 39.9057 38.3659C39.6693 38.3659 39.4419 38.2749 39.2708 38.1117L36.4062 35.2448C36.2545 35.0738 36.1738 34.8513 36.1804 34.6228C36.1871 34.3942 36.2807 34.1768 36.4421 34.0149C36.6035 33.853 36.8205 33.7587 37.0491 33.7513C37.2776 33.7438 37.5003 33.8239 37.6719 33.975L39.5741 35.8739C39.662 35.9618 39.7812 36.0111 39.9055 36.0111C40.0298 36.0111 40.149 35.9618 40.2369 35.8739L44.4087 31.702C44.4917 31.6169 44.5907 31.5492 44.7001 31.5026C44.8094 31.4561 44.927 31.4318 45.0458 31.431C45.1646 31.4303 45.2824 31.4531 45.3924 31.4982C45.5023 31.5434 45.6022 31.6099 45.6862 31.6939C45.7703 31.7779 45.8368 31.8778 45.8819 31.9878C45.927 32.0977 45.9499 32.2155 45.9491 32.3344C45.9484 32.4532 45.924 32.5707 45.8775 32.6801C45.831 32.7894 45.7632 32.8884 45.6781 32.9714L45.6805 32.9728ZM30.0191 23.1553H31.3001C31.5436 23.1792 31.7692 23.2937 31.9324 23.4759C32.0956 23.6582 32.1845 23.8951 32.1814 24.1397C31.6767 24.076 31.1685 24.0436 30.6598 24.0427C30.1504 24.0464 29.6417 24.0824 29.1369 24.1505C29.1316 23.904 29.2196 23.6646 29.3831 23.4802C29.5466 23.2957 29.7737 23.1797 30.0191 23.1553ZM30.6598 24.9792C32.1797 24.9778 33.6842 25.2841 35.0826 25.8795C36.481 26.4749 37.7445 27.3471 38.7969 28.4437C38.2609 28.5525 37.7411 28.7294 37.25 28.9702C36.7173 28.4392 36.1229 27.974 35.4795 27.5845L34.9962 28.3884C35.5021 28.6928 35.9746 29.0493 36.4062 29.452C35.0991 30.3502 34.1655 31.6952 33.7812 33.2339H19.7694C20.4477 30.8652 21.8757 28.7804 23.8392 27.292C25.8028 25.8037 28.196 24.9922 30.6598 24.9792ZM21.41 37.702L20.6281 36.4064H29.3173V35.4689H18.8844V34.1728H33.612C33.5919 34.3805 33.5801 34.59 33.5801 34.8028C33.5811 35.8101 33.8184 36.8031 34.273 37.702H21.41ZM40.0662 40.35C39.1549 40.3506 38.2574 40.1267 37.4531 39.698C36.6489 39.2694 35.9626 38.6492 35.455 37.8922C34.9474 37.1353 34.6341 36.265 34.5427 35.3582C34.4514 34.4514 34.5849 33.5361 34.9314 32.6932C35.2779 31.8503 35.8267 31.1057 36.5294 30.5252C37.232 29.9448 38.0668 29.5464 38.96 29.3653C39.8532 29.1842 40.7773 29.226 41.6505 29.4868C42.5237 29.7477 43.3192 30.2197 43.9667 30.8611C43.8894 30.9149 43.8164 30.9746 43.7483 31.0397L39.9045 34.8834L38.3356 33.3141C38.1661 33.1396 37.9636 33.0006 37.7399 32.9051C37.5161 32.8096 37.2757 32.7595 37.0324 32.7578C36.7892 32.756 36.548 32.8026 36.3229 32.8949C36.0978 32.9872 35.8933 33.1232 35.7213 33.2952C35.5493 33.4672 35.4132 33.6717 35.3209 33.8968C35.2286 34.1218 35.1819 34.363 35.1836 34.6062C35.1853 34.8495 35.2354 35.09 35.3308 35.3137C35.4263 35.5374 35.5653 35.74 35.7397 35.9095L38.6094 38.7745C38.7798 38.945 38.9821 39.0802 39.2048 39.1724C39.4274 39.2646 39.6661 39.3121 39.9071 39.3121C40.1481 39.3121 40.3868 39.2646 40.6094 39.1724C40.8321 39.0802 41.0344 38.945 41.2048 38.7745L45.59 34.3894C45.6003 34.5272 45.6144 34.6645 45.6144 34.8028C45.6126 36.2739 45.0274 37.6841 43.9871 38.7242C42.9468 39.7642 41.5363 40.3491 40.0653 40.3505L40.0662 40.35Z" fill="#CD0B09"/>
</g>
<defs>
<clipPath id="clip0_1040_5998">
<rect width="62.8966" height="62.8966" fill="white" transform="translate(0.586182)"/>
</clipPath>
</defs>
</svg>
