<svg width="63" height="63" viewBox="0 0 63 63" fill="none" xmlns="http://www.w3.org/2000/svg">
<g clip-path="url(#clip0_1035_3800)">
<circle cx="31.4483" cy="31.4483" r="30.4483" fill="white" stroke="#939393" stroke-width="2"/>
<g clip-path="url(#clip1_1035_3800)">
<path d="M31.972 22.5625V21.625C31.972 19.0405 29.869 16.9375 27.2845 16.9375C24.7 16.9375 22.597 19.0405 22.597 21.625V22.5625H16.972V41.3125C16.972 43.3843 18.6501 45.0625 20.722 45.0625H30.7346C29.9752 44.5278 29.2909 43.8998 28.6999 43.1875H20.722C19.6906 43.1875 18.847 42.3434 18.847 41.3125V24.4375H22.597V26.3125H24.472V24.4375H30.097V26.3125H31.972V24.4375H35.722V26.3592C36.0314 26.3308 36.3409 26.3125 36.6595 26.3125C36.9781 26.3125 37.2875 26.3308 37.597 26.3592V22.5625H31.972ZM24.472 22.5625V21.625C24.472 20.0741 25.7336 18.8125 27.2845 18.8125C28.8354 18.8125 30.097 20.0741 30.097 21.625V22.5625H24.472ZM36.6595 45.0625C32.0068 45.0625 28.222 41.2777 28.222 36.625C28.222 31.9723 32.0068 28.1875 36.6595 28.1875C41.3122 28.1875 45.097 31.9723 45.097 36.625C45.097 41.2777 41.3122 45.0625 36.6595 45.0625ZM36.6595 30.0625C33.0413 30.0625 30.097 33.0068 30.097 36.625C30.097 40.2432 33.0413 43.1875 36.6595 43.1875C40.2776 43.1875 43.222 40.2432 43.222 36.625C43.222 33.0068 40.2776 30.0625 36.6595 30.0625Z" fill="#939393"/>
<g clip-path="url(#clip2_1035_3800)">
<path d="M41.0345 33.8L40.2345 33L37.0345 36.2L33.8345 33L33.0345 33.8L36.2345 37L33.0345 40.2L33.8345 41L37.0345 37.8L40.2345 41L41.0345 40.2L37.8345 37L41.0345 33.8Z" fill="#939393"/>
</g>
</g>
</g>
<defs>
<clipPath id="clip0_1035_3800">
<rect width="62.8966" height="62.8966" fill="white"/>
</clipPath>
<clipPath id="clip1_1035_3800">
<rect width="30" height="30" fill="white" transform="translate(16.0345 16)"/>
</clipPath>
<clipPath id="clip2_1035_3800">
<rect width="8" height="8" fill="white" transform="translate(33.0345 33)"/>
</clipPath>
</defs>
</svg>
