<svg width="63" height="63" viewBox="0 0 63 63" fill="none" xmlns="http://www.w3.org/2000/svg">
<g clip-path="url(#clip0_1036_3866)">
<circle cx="31.4483" cy="31.4483" r="30.4483" fill="white" stroke="#939393" stroke-width="2"/>
<g clip-path="url(#clip1_1036_3866)">
<path d="M31.9375 22.5625V21.625C31.9375 19.0405 29.8345 16.9375 27.25 16.9375C24.6655 16.9375 22.5625 19.0405 22.5625 21.625V22.5625H16.9375V41.3125C16.9375 43.3843 18.6157 45.0625 20.6875 45.0625H30.7002C29.9407 44.5278 29.2564 43.8998 28.6654 43.1875H20.6875C19.6562 43.1875 18.8125 42.3434 18.8125 41.3125V24.4375H22.5625V26.3125H24.4375V24.4375H30.0625V26.3125H31.9375V24.4375H35.6875V26.3592C35.9969 26.3308 36.3064 26.3125 36.625 26.3125C36.9436 26.3125 37.2531 26.3308 37.5625 26.3592V22.5625H31.9375ZM24.4375 22.5625V21.625C24.4375 20.0741 25.6991 18.8125 27.25 18.8125C28.8009 18.8125 30.0625 20.0741 30.0625 21.625V22.5625H24.4375ZM36.625 45.0625C31.9723 45.0625 28.1875 41.2777 28.1875 36.625C28.1875 31.9723 31.9723 28.1875 36.625 28.1875C41.2777 28.1875 45.0625 31.9723 45.0625 36.625C45.0625 41.2777 41.2777 45.0625 36.625 45.0625ZM36.625 30.0625C33.0068 30.0625 30.0625 33.0068 30.0625 36.625C30.0625 40.2432 33.0068 43.1875 36.625 43.1875C40.2432 43.1875 43.1875 40.2432 43.1875 36.625C43.1875 33.0068 40.2432 30.0625 36.625 30.0625Z" fill="#939393"/>
<path d="M40.8524 36.6236C40.6938 36.2484 40.4667 35.9116 40.1775 35.6224C39.8884 35.3333 39.5515 35.1062 39.1764 34.9475C38.7877 34.7831 38.3752 34.6998 37.9501 34.6998H34.5365L36.4684 32.7682C36.6441 32.5925 36.6441 32.3076 36.4684 32.1318C36.2927 31.9561 36.0078 31.9561 35.832 32.1318L33.1318 34.8316C33.0474 34.916 33 35.0304 33 35.1498C33 35.2691 33.0474 35.3836 33.1318 35.468L35.832 38.1682C35.9199 38.2561 36.035 38.3 36.1502 38.3C36.2654 38.3 36.3805 38.2561 36.4684 38.1682C36.6441 37.9925 36.6441 37.7075 36.4684 37.5318L34.5364 35.5998H37.9501C39.1908 35.5998 40.2002 36.6092 40.2002 37.8499C40.2002 39.0906 39.1908 40.1 37.9501 40.1H34.3501C34.1016 40.1 33.9001 40.3015 33.9001 40.55C33.9001 40.7985 34.1016 41 34.3501 41H37.9501C38.3752 41 38.7877 40.9167 39.1764 40.7523C39.5516 40.5936 39.8884 40.3665 40.1776 40.0774C40.4667 39.7882 40.6938 39.4514 40.8525 39.0762C41.0168 38.6876 41.1002 38.275 41.1002 37.8499C41.1002 37.4248 41.0168 37.0122 40.8524 36.6236Z" fill="#939393"/>
</g>
</g>
<defs>
<clipPath id="clip0_1036_3866">
<rect width="62.8966" height="62.8966" fill="white"/>
</clipPath>
<clipPath id="clip1_1036_3866">
<rect width="30" height="30" fill="white" transform="translate(16 16)"/>
</clipPath>
</defs>
</svg>
