<svg width="21" height="21" viewBox="0 0 21 21" fill="none" xmlns="http://www.w3.org/2000/svg">
<g clip-path="url(#clip0_263_4122)">
<path d="M12.5359 2.40503H10.5359C10.2596 2.40503 10.0359 2.6287 10.0359 2.90503C10.0359 3.18136 10.2596 3.40503 10.5359 3.40503H12.5359C12.8122 3.40503 13.0359 3.18136 13.0359 2.90503C13.0359 2.6287 12.8122 2.40503 12.5359 2.40503Z" fill="black"/>
<path d="M14.7026 0.738037H6.70264C5.59998 0.738037 4.70264 1.63538 4.70264 2.73804V18.738C4.70264 19.8407 5.59998 20.738 6.70264 20.738H14.7026C15.8053 20.738 16.7026 19.8407 16.7026 18.738V2.73804C16.7026 1.63538 15.8053 0.738037 14.7026 0.738037ZM15.7026 18.738C15.7026 19.2904 15.255 19.738 14.7026 19.738H6.70264C6.15029 19.738 5.70264 19.2904 5.70264 18.738V2.73804C5.70264 2.18569 6.15029 1.73804 6.70264 1.73804H14.7026C15.255 1.73804 15.7026 2.18569 15.7026 2.73804V18.738Z" fill="black"/>
<path d="M10.7026 19.0718C11.2549 19.0718 11.7026 18.6241 11.7026 18.0718C11.7026 17.5195 11.2549 17.0718 10.7026 17.0718C10.1504 17.0718 9.70264 17.5195 9.70264 18.0718C9.70264 18.6241 10.1504 19.0718 10.7026 19.0718Z" fill="black"/>
<path d="M8.86914 3.40503C9.14528 3.40503 9.36914 3.18117 9.36914 2.90503C9.36914 2.62889 9.14528 2.40503 8.86914 2.40503C8.593 2.40503 8.36914 2.62889 8.36914 2.90503C8.36914 3.18117 8.593 3.40503 8.86914 3.40503Z" fill="black"/>
</g>
<defs>
<clipPath id="clip0_263_4122">
<rect width="20" height="20" fill="white" transform="translate(0.702637 0.739014)"/>
</clipPath>
</defs>
</svg>
