<svg width="123" height="123" viewBox="0 0 123 123" fill="none" xmlns="http://www.w3.org/2000/svg">
<circle cx="61.1286" cy="61.1286" r="61.1286" fill="#F4F4F4"/>
<g clip-path="url(#clip0_50_1227)">
<path d="M61.2369 37.3242C60.6275 37.3198 60.1304 37.8103 60.126 38.4186C60.1216 39.027 60.6109 39.524 61.2204 39.5284C61.8287 39.5328 62.3258 39.0435 62.3302 38.4351C62.3346 37.8268 61.8453 37.3298 61.2369 37.3242Z" fill="#CD0B09"/>
<path d="M61.1871 43.9367C56.9318 43.9065 53.447 47.3394 53.4148 51.5933C53.3827 55.847 56.8174 59.3336 61.0714 59.3656C61.0911 59.3657 61.1107 59.3659 61.1304 59.3659C65.3572 59.3659 68.8117 55.9432 68.8437 51.709C68.8757 47.4556 65.4411 43.9688 61.1871 43.9367ZM61.1302 57.1618C61.1163 57.1618 61.1018 57.1617 61.0879 57.1616C58.0494 57.1387 55.5959 54.6482 55.6188 51.6098C55.6416 48.5852 58.109 46.1406 61.1282 46.1406C61.1421 46.1406 61.1567 46.1407 61.1706 46.1408C64.2091 46.1637 66.6626 48.6542 66.6396 51.6925C66.6167 54.7172 64.1495 57.1618 61.1302 57.1618Z" fill="#CD0B09"/>
<path d="M65.9374 38.1594C65.3641 37.9559 64.7338 38.2562 64.5304 38.83C64.3271 39.4037 64.6274 40.0336 65.201 40.237C70.0554 41.9575 73.2905 46.5808 73.2517 51.7415C73.2472 52.3501 73.7369 52.8472 74.3455 52.8519C74.3483 52.8519 74.3511 52.8519 74.354 52.8519C74.9586 52.8519 75.4512 52.3639 75.4559 51.758C75.5017 45.6584 71.6765 40.1935 65.9374 38.1594Z" fill="#CD0B09"/>
<path d="M67.8909 74.402C75.2211 64.9665 79.8022 60.0463 79.864 51.7913C79.9416 41.4049 71.5126 32.915 61.1271 32.915C50.8627 32.915 42.4717 41.2278 42.3937 51.5102C42.3307 59.9891 46.9968 64.9026 54.3776 74.4004C47.035 75.4977 42.3937 78.2547 42.3937 81.627C42.3937 83.8859 44.4817 85.913 48.2732 87.3347C51.7241 88.6287 56.2897 89.3414 61.1288 89.3414C65.968 89.3414 70.5335 88.6287 73.9845 87.3347C77.776 85.9129 79.864 83.8858 79.864 81.6269C79.864 78.2565 75.227 75.5001 67.8909 74.402ZM44.5977 51.5269C44.6665 42.4535 52.0697 35.1192 61.1273 35.1192C70.2921 35.1192 77.7283 42.612 77.6599 51.7748C77.6013 59.6144 72.7431 64.4456 64.987 74.5564C63.6036 76.3589 62.3331 78.0632 61.1305 79.7303C59.9314 78.0622 58.6863 76.3885 57.2821 74.5557C49.2054 64.0216 44.538 59.5555 44.5977 51.5269ZM61.1288 87.1374C51.6674 87.1374 44.5977 84.2282 44.5977 81.627C44.5977 79.6979 48.824 77.261 55.93 76.4171C57.5008 78.4781 58.878 80.3506 60.2287 82.2629C60.435 82.5549 60.7702 82.7289 61.1278 82.7291C61.1282 82.7291 61.1285 82.7291 61.1288 82.7291C61.4861 82.7291 61.8213 82.5558 62.0279 82.2643C63.3658 80.3769 64.7807 78.4583 66.338 76.4183C73.4374 77.2631 77.6599 79.6992 77.6599 81.6271C77.6598 84.2282 70.5903 87.1374 61.1288 87.1374Z" fill="#CD0B09"/>
</g>
<defs>
<clipPath id="clip0_50_1227">
<rect width="56.4264" height="56.4264" fill="white" transform="translate(32.9155 32.915)"/>
</clipPath>
</defs>
</svg>
