<svg width="53" height="52" viewBox="0 0 53 52" fill="none" xmlns="http://www.w3.org/2000/svg">
<g clip-path="url(#clip0_263_4220)">
<path d="M26.3456 4.06985C25.784 4.06579 25.3259 4.51778 25.3218 5.07844C25.3177 5.63911 25.7687 6.09719 26.3304 6.10125C26.8911 6.10532 27.3491 5.65435 27.3532 5.09368C27.3573 4.53301 26.9063 4.07493 26.3456 4.06985Z" fill="#CD0B09"/>
<path d="M26.2996 10.1635C22.3778 10.1357 19.1661 13.2995 19.1364 17.22C19.1069 21.1403 22.2724 24.3536 26.1929 24.3831C26.2111 24.3832 26.2292 24.3833 26.2474 24.3833C30.1429 24.3833 33.3266 21.229 33.356 17.3266C33.3856 13.4065 30.2202 10.1931 26.2996 10.1635ZM26.2472 22.352C26.2344 22.352 26.221 22.3519 26.2082 22.3518C23.4078 22.3307 21.1466 20.0354 21.1677 17.2352C21.1888 14.4476 23.4627 12.1946 26.2453 12.1946C26.2581 12.1946 26.2715 12.1947 26.2843 12.1948C29.0847 12.2159 31.3459 14.5112 31.3247 17.3114C31.3036 20.099 29.0298 22.352 26.2472 22.352Z" fill="#CD0B09"/>
<path d="M30.6776 4.83846C30.1493 4.65096 29.5684 4.92774 29.3809 5.45651C29.1935 5.98529 29.4703 6.56576 29.9989 6.75326C34.4728 8.33887 37.4544 12.5998 37.4186 17.3561C37.4145 17.9169 37.8657 18.3751 38.4267 18.3794C38.4293 18.3794 38.4319 18.3794 38.4345 18.3794C38.9918 18.3794 39.4458 17.9296 39.45 17.3713C39.4923 11.7497 35.9669 6.71314 30.6776 4.83846Z" fill="#CD0B09"/>
<path d="M32.4783 38.2396C39.2341 29.5437 43.456 25.0091 43.513 17.4011C43.5845 7.82885 35.8162 0.00439453 26.2447 0.00439453C16.7848 0.00439453 9.0515 7.66562 8.97959 17.1421C8.92149 24.9564 13.2219 29.4848 20.0242 38.2382C13.2571 39.2495 8.97959 41.7904 8.97959 44.8984C8.97959 46.9803 10.9039 48.8484 14.3982 50.1587C17.5787 51.3513 21.7865 52.0082 26.2463 52.0082C30.7061 52.0082 34.9139 51.3513 38.0943 50.1587C41.5887 48.8483 43.513 46.9802 43.513 44.8983C43.513 41.7921 39.2394 39.2517 32.4783 38.2396ZM11.0109 17.1575C11.0743 8.79529 17.8972 2.0358 26.2449 2.0358C34.6913 2.0358 41.5447 8.94135 41.4817 17.386C41.4277 24.6111 36.9503 29.0636 29.8021 38.3819C28.5271 40.0432 27.3562 41.6139 26.2478 43.1504C25.1427 41.613 23.9952 40.0704 22.7011 38.3813C15.2574 28.6729 10.9558 24.5568 11.0109 17.1575ZM26.2463 49.9769C17.5264 49.9769 11.0109 47.2957 11.0109 44.8984C11.0109 43.1205 14.9059 40.8746 21.4549 40.0969C22.9026 41.9963 24.1718 43.722 25.4167 45.4844C25.6068 45.7536 25.9158 45.9139 26.2454 45.9141C26.2457 45.9141 26.246 45.9141 26.2463 45.9141C26.5756 45.9141 26.8845 45.7544 27.0749 45.4858C28.308 43.7463 29.6119 41.978 31.0472 40.098C37.5902 40.8765 41.4817 43.1217 41.4817 44.8985C41.4816 47.2957 34.9662 49.9769 26.2463 49.9769Z" fill="#CD0B09"/>
</g>
<defs>
<clipPath id="clip0_263_4220">
<rect width="52.0038" height="52.0038" fill="white" transform="translate(0.243896 0.00537109)"/>
</clipPath>
</defs>
</svg>
