<svg width="24" height="24" viewBox="0 0 24 24" fill="none" xmlns="http://www.w3.org/2000/svg">
<g clip-path="url(#clip0_263_4240)">
<path d="M16.2756 14.1199L12.9294 11.6102V6.49789C12.9294 5.98386 12.5139 5.56836 11.9998 5.56836C11.4858 5.56836 11.0703 5.98386 11.0703 6.49789V12.075C11.0703 12.3678 11.2079 12.6439 11.4421 12.8186L15.1602 15.6072C15.3275 15.7326 15.5227 15.7931 15.7169 15.7931C16.0004 15.7931 16.2793 15.6657 16.4615 15.4203C16.7702 15.0103 16.6865 14.4275 16.2756 14.1199Z" fill="#CD0B09"/>
<path d="M12 0.00146484C5.3828 0.00146484 0 5.38426 0 12.0015C0 18.6187 5.3828 24.0015 12 24.0015C18.6172 24.0015 24 18.6187 24 12.0015C24 5.38426 18.6172 0.00146484 12 0.00146484ZM12 22.1424C6.40898 22.1424 1.85902 17.5925 1.85902 12.0015C1.85902 6.41045 6.40898 1.86048 12 1.86048C17.592 1.86048 22.141 6.41045 22.141 12.0015C22.141 17.5925 17.591 22.1424 12 22.1424Z" fill="#CD0B09"/>
</g>
<defs>
<clipPath id="clip0_263_4240">
<rect width="24" height="24" fill="white" transform="translate(0 0.000244141)"/>
</clipPath>
</defs>
</svg>
