<svg width="21" height="21" viewBox="0 0 21 21" fill="none" xmlns="http://www.w3.org/2000/svg">
<g clip-path="url(#clip0_263_4139)">
<path d="M20.4425 16.167L16.3944 13.4674C15.8807 13.1276 15.1921 13.2394 14.8123 13.7243L13.6331 15.2404C13.4816 15.4403 13.2061 15.4982 12.9869 15.3764L12.7626 15.2528C12.019 14.8475 11.0939 14.3429 9.2298 12.4782C7.36574 10.6135 6.86015 9.6876 6.45486 8.94541L6.33187 8.7211C6.20841 8.50192 6.26528 8.22528 6.46517 8.07253L7.98026 6.89372C8.46503 6.51389 8.577 5.82548 8.23756 5.31161L5.53796 1.26354C5.19008 0.740256 4.49214 0.58317 3.95359 0.906911L2.26083 1.92375C1.72896 2.23644 1.33874 2.74285 1.17201 3.33686C0.56245 5.55786 1.02101 9.39096 6.66752 15.0381C11.1592 19.5295 14.503 20.7373 16.8014 20.7373C17.3303 20.7396 17.8572 20.6707 18.3678 20.5327C18.9619 20.3661 19.4684 19.9759 19.7809 19.4438L20.7988 17.7521C21.123 17.2134 20.966 16.5151 20.4425 16.167ZM20.2245 17.4101L19.209 19.1029C18.9846 19.4869 18.6203 19.7692 18.1925 19.8908C16.1421 20.4537 12.56 19.9874 7.13909 14.5666C1.71822 9.14569 1.252 5.56388 1.81492 3.5132C1.93662 3.08483 2.21931 2.72008 2.60379 2.49535L4.29654 1.47983C4.53022 1.33923 4.83314 1.40738 4.9841 1.63446L6.45056 3.83612L7.68139 5.68218C7.82879 5.90507 7.78036 6.20382 7.57008 6.36876L6.05464 7.54756C5.59346 7.90021 5.46176 8.53828 5.7457 9.04469L5.86604 9.26333C6.29199 10.0445 6.82156 11.0164 8.75494 12.9495C10.6883 14.8825 11.6599 15.4121 12.4407 15.838L12.6597 15.9587C13.166 16.2426 13.8042 16.1109 14.1568 15.6497L15.3356 14.1343C15.5006 13.9241 15.7992 13.8757 16.0222 14.023L20.0699 16.7226C20.2971 16.8734 20.3653 17.1765 20.2245 17.4101Z" fill="black"/>
<path d="M12.2998 4.07304C15.4275 4.07651 17.9621 6.61117 17.9657 9.73887C17.9657 9.92295 18.1149 10.0721 18.2989 10.0721C18.483 10.0721 18.6322 9.92295 18.6322 9.73887C18.6283 6.24318 15.7955 3.41032 12.2998 3.40649C12.1158 3.40649 11.9666 3.55569 11.9666 3.73977C11.9666 3.92384 12.1158 4.07304 12.2998 4.07304Z" fill="black"/>
<path d="M12.2998 6.0723C14.3236 6.07469 15.9636 7.71468 15.966 9.73844C15.966 9.92251 16.1152 10.0717 16.2992 10.0717C16.4833 10.0717 16.6325 9.92251 16.6325 9.73844C16.6297 7.34668 14.6915 5.4085 12.2998 5.40576C12.1158 5.40576 11.9666 5.55496 11.9666 5.73903C11.9666 5.92311 12.1158 6.0723 12.2998 6.0723Z" fill="black"/>
<path d="M12.2998 8.0723C13.2197 8.0734 13.9651 8.81883 13.9663 9.73874C13.9663 9.92281 14.1155 10.072 14.2995 10.072C14.4836 10.072 14.6328 9.92281 14.6328 9.73874C14.6313 8.45088 13.5877 7.40721 12.2998 7.40576C12.1158 7.40576 11.9666 7.55496 11.9666 7.73903C11.9666 7.92311 12.1158 8.0723 12.2998 8.0723Z" fill="black"/>
</g>
<defs>
<clipPath id="clip0_263_4139">
<rect width="20" height="20" fill="white" transform="translate(0.967041 0.73999)"/>
</clipPath>
</defs>
</svg>
