<svg width="40" height="40" viewBox="0 0 40 40" fill="none" xmlns="http://www.w3.org/2000/svg">
<g clip-path="url(#clip0_186_9357)">
<path fill-rule="evenodd" clip-rule="evenodd" d="M24.6885 11.4568C23.9548 11.4568 23.0891 11.6279 22.0914 11.97C21.0936 12.3124 20.3746 12.4836 19.9344 12.4838C19.5921 12.4838 18.9 12.3321 17.8582 12.0288C16.8165 11.7254 15.9288 11.5738 15.1951 11.5738C13.4735 11.5738 12.0478 12.2978 10.918 13.7458C9.78815 15.1931 9.22325 17.0662 9.22325 19.3652C9.22769 20.6376 9.41547 21.9028 9.78081 23.1217C10.1829 24.4536 10.7393 25.7339 11.4389 26.9365C12.1823 28.2375 12.9306 29.2132 13.6838 29.8637C14.437 30.5142 15.1951 30.8394 15.9581 30.8394C16.4667 30.8394 17.1295 30.6706 17.9463 30.3331C18.7631 29.9956 19.4796 29.8268 20.0959 29.8269C20.7121 29.8269 21.4677 29.9883 22.3628 30.3112C23.2578 30.6343 23.9597 30.7958 24.4684 30.7956C25.114 30.7956 25.7596 30.551 26.4052 30.0618C27.0507 29.5726 27.6963 28.834 28.342 27.846C28.7506 27.2288 29.1206 26.5869 29.4498 25.9239C29.7458 25.3284 29.9936 24.7101 30.1908 24.075C29.3006 23.8112 28.5083 23.1803 27.8138 22.1823C27.1236 21.1989 26.7593 20.0239 26.772 18.8226C26.7749 18.0076 26.9577 17.2034 27.3076 16.4674C27.6646 15.6994 28.386 14.8558 29.4718 13.9365C28.7773 13.0756 28.0437 12.447 27.2709 12.0507C26.4703 11.6481 25.5845 11.4444 24.6885 11.4568ZM24.4391 5.79313C22.6881 6.19368 21.4335 6.93709 20.6754 8.02336C19.9173 9.10909 19.5285 10.3953 19.509 11.882C20.272 11.843 20.8834 11.7207 21.3432 11.5151C21.8485 11.2775 22.306 10.9493 22.693 10.5468C23.2955 9.96083 23.7702 9.25638 24.087 8.47788C24.3804 7.73446 24.5272 7.0498 24.5272 6.42389C24.5272 6.32616 24.5222 6.22842 24.5125 6.13014C24.4991 6.01568 24.4745 5.90279 24.4391 5.79313ZM20 0.669922C30.6919 0.669922 39.3594 9.33711 39.3594 20.0295C39.3594 30.7213 30.6919 39.3886 20 39.3886C9.30812 39.3886 0.640625 30.7213 0.640625 20.0295C0.640625 9.33714 9.3081 0.669922 20 0.669922Z" fill="black"/>
</g>
<defs>
<clipPath id="clip0_186_9357">
<rect width="40" height="40" fill="white"/>
</clipPath>
</defs>
</svg>
