<svg width="61" height="60" viewBox="0 0 61 60" fill="none" xmlns="http://www.w3.org/2000/svg">
<g clip-path="url(#clip0_50_878)">
<path d="M57.9949 10.6165C56.4439 10.1499 55.0129 9.36677 53.7801 8.347L60.1265 2.0006C60.5841 1.54298 60.5841 0.800947 60.1265 0.343213C59.6688 -0.114404 58.927 -0.114404 58.4691 0.343213L52.1227 6.68974C51.1031 5.45704 50.32 4.0263 49.8536 2.47579C49.4161 1.0181 48.0438 8.78888e-05 46.5163 8.78888e-05C46.3424 8.78888e-05 46.1779 0.0119238 46.0191 0.0352441C44.9959 0.181377 44.0889 0.766846 43.531 1.64165C42.982 2.50228 42.8349 3.55063 43.1273 4.51849C43.1773 4.68396 43.2298 4.84837 43.2842 5.01196C42.9318 4.89548 42.5593 4.83395 42.1771 4.83395C41.2376 4.83395 40.3545 5.1997 39.6902 5.86392C38.3197 7.23454 38.3197 9.46462 39.6902 10.8351L40.6047 11.7497C40.5762 11.7494 40.548 11.7475 40.5194 11.7475C38.3283 11.7475 36.2685 12.6008 34.7192 14.15C33.0971 15.7721 32.2994 17.91 32.3226 20.0406L31.4052 19.1232C30.7421 18.4584 29.859 18.0922 28.9184 18.0922C27.9779 18.0922 27.0947 18.4584 26.4327 19.1222C25.7688 19.7863 25.4031 20.6689 25.4031 21.6078C25.4031 22.5467 25.7689 23.4295 26.4327 24.0934L27.3474 25.008C27.3184 25.0077 27.2899 25.0059 27.2609 25.0059C25.0697 25.0059 23.0099 25.8591 21.4606 27.4084C19.9114 28.9577 19.0581 31.0176 19.0581 33.2087C19.0581 33.2372 19.0599 33.2654 19.0602 33.2939L18.1457 32.3793C17.4815 31.7152 16.5987 31.3494 15.66 31.3494C14.7213 31.3494 13.8386 31.7151 13.1744 32.3793C12.1917 33.3622 11.9136 34.7867 12.3399 36.0197C12.1608 35.9595 11.9809 35.9018 11.8004 35.8472C11.4746 35.7484 11.1378 35.6982 10.7992 35.6982C9.06075 35.6982 7.56345 37.005 7.31642 38.7378C7.07044 40.4617 8.09618 42.0747 9.7552 42.5732C11.2899 43.0347 12.7295 43.8095 13.9755 44.8368L0.813916 57.9988C0.356299 58.4564 0.356299 59.1984 0.813916 59.6561C1.04278 59.8849 1.34267 59.9994 1.64255 59.9994C1.94243 59.9994 2.24243 59.8849 2.47118 59.6561L15.633 46.4943C16.6604 47.7403 17.4351 49.1799 17.8965 50.7141C18.3407 52.1941 19.6823 53.1886 21.2349 53.1886C21.4061 53.1886 21.5751 53.1765 21.7321 53.1534C22.7559 53.0073 23.6629 52.4215 24.2207 51.5462C24.7693 50.6853 24.9159 49.637 24.623 48.6706C24.5685 48.4902 24.5109 48.3106 24.4508 48.1317C24.8168 48.2584 25.2053 48.3251 25.6042 48.3251C26.5435 48.3251 27.4265 47.9594 28.0905 47.2954C28.7545 46.6315 29.1201 45.7487 29.1201 44.8098C29.1201 43.8709 28.7545 42.9881 28.0905 42.3241L27.1759 41.4096C27.2044 41.4098 27.2327 41.4117 27.2613 41.4117C29.4523 41.4117 31.5121 40.5584 33.0615 39.0091C34.6834 37.387 35.4813 35.249 35.4579 33.1186L36.3765 34.0371C36.3768 34.0374 36.3772 34.0378 36.3775 34.0381C37.0428 34.7016 37.9251 35.067 38.8621 35.067C39.799 35.067 40.6813 34.7016 41.3478 34.037C42.7183 32.6663 42.7183 30.4363 41.3478 29.0659L40.4331 28.1512C40.4621 28.1516 40.4907 28.1533 40.5196 28.1533C42.7107 28.1533 44.7705 27.3001 46.3198 25.7509C47.8692 24.2015 48.7224 22.1417 48.7224 19.9507C48.7224 19.9221 48.7206 19.8938 48.7203 19.8654L49.6347 20.7798C50.2988 21.444 51.1816 21.8099 52.1205 21.8099C53.0594 21.8099 53.9422 21.444 54.6061 20.7799C55.2701 20.1159 55.6359 19.2329 55.6359 18.2936C55.6359 17.9113 55.5742 17.5385 55.4576 17.1858C55.6212 17.2401 55.7855 17.2925 55.951 17.3426C56.2767 17.4413 56.6131 17.4915 56.9509 17.4915C58.6904 17.4915 60.1881 16.1842 60.4348 14.4508C60.6804 12.7278 59.6542 11.1152 57.9949 10.6165ZM22.2441 50.2864C22.0542 50.5844 21.7469 50.7836 21.396 50.8338C21.3466 50.8411 21.2923 50.8447 21.2348 50.8447C20.725 50.8447 20.2856 50.5214 20.1411 50.0397C19.4568 47.7642 18.1983 45.6648 16.5018 43.9681C14.8052 42.2716 12.7056 41.0131 10.4301 40.3289C9.8895 40.1663 9.55587 39.6365 9.63685 39.0689C9.71899 38.4931 10.2296 38.0421 10.7993 38.0421C10.9072 38.0421 11.015 38.0583 11.1211 38.0905C13.546 38.8235 15.8185 40.1311 17.6944 41.872L18.5978 42.7754C20.3389 44.6513 21.6465 46.9238 22.3795 49.3495C22.5091 49.7765 22.3503 50.1198 22.2441 50.2864ZM26.4329 45.6381C25.9758 46.0952 25.232 46.0952 24.775 45.6381L20.2842 41.1472C20.1296 40.9813 19.971 40.8166 19.8122 40.6577C19.6533 40.4989 19.4888 40.3404 19.3227 40.1858L14.8319 35.6949C14.3747 35.2379 14.3747 34.4941 14.8319 34.0371C15.0534 33.8156 15.3475 33.6936 15.6603 33.6936C15.9729 33.6936 16.2672 33.8156 16.4886 34.0371L21.4601 39.0086C21.4604 39.0089 21.4605 39.009 21.4607 39.0092C21.4609 39.0095 21.4611 39.0096 21.4613 39.0098L26.433 43.9814C26.6542 44.2026 26.7761 44.4968 26.7761 44.8097C26.7761 45.1225 26.6542 45.4168 26.4329 45.6381ZM31.4041 37.352C30.2976 38.4586 28.8262 39.0681 27.2611 39.0681C25.696 39.0681 24.2247 38.4586 23.1182 37.352C20.8336 35.0675 20.8336 31.3506 23.1182 29.066C24.2248 27.9594 25.6962 27.3499 27.2611 27.3499C28.8262 27.3499 30.2976 27.9594 31.4041 29.066C33.6884 31.3503 33.6884 35.0674 31.4041 37.352ZM39.6912 32.3785C39.4684 32.6007 39.1738 32.7232 38.8618 32.7232C38.5502 32.7232 38.2559 32.6012 38.0333 32.3796L28.0901 22.4363C27.8689 22.2151 27.747 21.9209 27.747 21.6081C27.747 21.2952 27.8689 21.0009 28.0913 20.7785C28.3115 20.5577 28.6053 20.4362 28.9185 20.4362C29.2319 20.4362 29.5257 20.5578 29.7469 20.7797L39.6902 30.7229C40.1468 31.1797 40.1468 31.9228 39.6912 32.3785ZM44.6623 24.0934C43.5558 25.2 42.0844 25.8095 40.5194 25.8095C38.9543 25.8095 37.4829 25.2 36.3765 24.0934C34.092 21.8089 34.092 18.092 36.3765 15.8074C37.4829 14.7008 38.9543 14.0913 40.5194 14.0913C42.0844 14.0913 43.5558 14.7007 44.6623 15.8074C45.7689 16.914 46.3785 18.3854 46.3785 19.9503C46.3785 21.5152 45.769 22.9869 44.6623 24.0934ZM52.9484 19.1225C52.727 19.344 52.433 19.4659 52.1202 19.4659C51.8075 19.4659 51.5133 19.3439 51.292 19.1224L46.3197 14.1502L41.3475 9.17821C40.8909 8.72142 40.8909 7.9781 41.3474 7.52142C41.569 7.29993 41.8636 7.17794 42.1771 7.17794C42.4904 7.17794 42.7842 7.29958 43.0054 7.52142L46.958 11.474C47.2796 11.8469 47.6096 12.2029 47.9375 12.5297C48.2663 12.8597 48.6224 13.1898 48.9956 13.5117L52.9484 17.4647C53.1698 17.686 53.2918 17.9804 53.2918 18.2936C53.2918 18.6069 53.1699 18.901 52.9484 19.1225ZM58.1142 14.12C58.0321 14.6962 57.5209 15.1477 56.9505 15.1477C56.8434 15.1477 56.7358 15.1316 56.6303 15.0996C54.4056 14.426 52.3737 13.3128 50.5901 11.7916L48.6787 9.88017C47.1572 8.09646 46.044 6.06466 45.3705 3.84009C45.2412 3.41247 45.4005 3.06888 45.5068 2.90224C45.6968 2.60423 46.0042 2.40501 46.3556 2.35485C46.4054 2.34747 46.458 2.34396 46.5162 2.34396C47.0171 2.34396 47.4663 2.67524 47.6089 3.15021C48.2935 5.42622 49.5518 7.52563 51.248 9.22181C52.9442 10.9179 55.0437 12.1762 57.3199 12.8608C57.861 13.0236 58.1951 13.5529 58.1142 14.12Z" fill="#CD0B09"/>
<path d="M29.7478 34.0381C29.2905 33.5802 28.5486 33.5798 28.0906 34.037C27.6331 34.4939 26.889 34.4938 26.4316 34.037C25.9737 33.5798 25.2318 33.5801 24.7743 34.0381C24.3169 34.4959 24.3175 35.238 24.7754 35.6953C25.4607 36.3797 26.3608 36.722 27.261 36.722C28.1613 36.722 29.0614 36.3798 29.7467 35.6953C30.2047 35.238 30.2051 34.4959 29.7478 34.0381Z" fill="#CD0B09"/>
<path d="M43.0063 20.7803C42.549 20.3225 41.8069 20.3218 41.349 20.7793C40.8915 21.236 40.1472 21.2359 39.6899 20.7793C39.2321 20.322 38.4899 20.3223 38.0327 20.7803C37.5753 21.2382 37.5758 21.9802 38.0337 22.4376C38.7192 23.1221 39.619 23.4643 40.5194 23.4643C41.4195 23.4643 42.3199 23.1219 43.0052 22.4377C43.4631 21.9803 43.4636 21.2384 43.0063 20.7803Z" fill="#CD0B09"/>
</g>
<defs>
<clipPath id="clip0_50_878">
<rect width="60" height="60" fill="white" transform="translate(0.470703)"/>
</clipPath>
</defs>
</svg>
