<svg width="60" height="60" viewBox="0 0 60 60" fill="none" xmlns="http://www.w3.org/2000/svg">
<path d="M60 37.4927C60 34.9123 58.342 32.7132 56.0362 31.9006V28.9682C56.407 28.8313 56.7641 28.651 57.0996 28.4258C58.434 27.529 59.1994 26.1136 59.1994 24.5412C59.1994 23.5579 58.8954 22.6273 58.3305 21.8445C58.6162 21.1674 58.7022 20.4158 58.5635 19.6751C57.5601 14.3083 54.1141 9.3956 48.8603 5.84106C43.6276 2.30118 36.9296 0.351562 30 0.351562C23.0704 0.351562 16.3724 2.30118 11.1397 5.84106C5.88593 9.39514 2.43988 14.3083 1.43646 19.6751C1.26251 20.6039 1.4415 21.5497 1.92581 22.3439C1.56097 23.0132 1.371 23.7584 1.371 24.5412C1.371 26.1136 2.13638 27.5299 3.47122 28.4262C3.63052 28.5333 3.79578 28.629 3.96378 28.7164V31.9006C1.65802 32.7132 0 34.9123 0 37.4927V37.7307C0 39.44 0.728302 40.9818 1.88965 42.0648C1.5509 42.7167 1.371 43.4418 1.371 44.1884C1.371 45.3616 1.79764 46.447 2.56805 47.2952V51.524C2.56805 56.0417 6.24344 59.7176 10.7616 59.7176H49.2384C53.7566 59.7176 57.4319 56.0417 57.4319 51.524V47.8267C58.5594 46.9281 59.1994 45.6239 59.1994 44.1879C59.1994 43.2875 58.9458 42.4352 58.472 41.6982C59.4209 40.6471 60 39.2555 60 37.7307V37.4927ZM57.6562 37.4927V37.7307C57.6562 38.9406 57.0529 40.0117 56.1319 40.6613C55.5318 41.0843 54.8062 41.315 54.072 41.315H35.9001L43.3731 33.9084H54.0715C56.0481 33.9084 57.6562 35.5165 57.6562 37.4927ZM17.7617 33.9084L17.9475 34.0947L19.1496 35.2963L16.6333 37.8131L12.7286 33.9084H17.7617ZM28.8263 41.6583L21.6367 34.4691C21.6367 34.4687 21.6362 34.4682 21.6357 34.4678L21.0764 33.9084H40.0388L32.2069 41.6537C32.2064 41.6542 32.206 41.6547 32.2055 41.6556C32.2046 41.6565 32.2032 41.6574 32.2023 41.6583L30.5141 43.3466L28.8263 41.6583ZM3.73993 20.1054C4.62753 15.3593 7.72202 10.9827 12.453 7.78198C17.3021 4.50165 23.5336 2.69531 30 2.69531C36.4664 2.69531 42.6979 4.50165 47.547 7.78198C52.278 10.9827 55.372 15.3593 56.2601 20.1054C56.4244 20.9857 55.7213 21.8266 54.8277 21.8266H5.17227C4.27734 21.8266 3.57559 20.9857 3.73993 20.1054ZM3.80127 23.9154C4.2366 24.0839 4.70581 24.1704 5.17227 24.1704H54.8277C55.4745 24.1704 56.125 24.0028 56.689 23.6856C56.7993 23.9566 56.8556 24.2482 56.8556 24.5407C56.8556 25.3194 56.4684 26.0262 55.7927 26.4798C55.1019 26.944 54.2221 27.0552 53.432 26.8053C53.0415 26.6817 52.673 26.5224 52.2702 26.4363C51.8344 26.3429 51.3885 26.3017 50.9431 26.3017C48.8498 26.3017 47.7264 27.0946 46.8242 27.7313C46.0323 28.2907 45.407 28.7325 44.0575 28.7325C42.708 28.7325 42.0827 28.2907 41.2907 27.7318C40.3885 27.0941 39.2656 26.3017 37.1718 26.3017C35.0784 26.3017 33.9555 27.0946 33.0533 27.7318C32.2614 28.2907 31.636 28.7325 30.2866 28.7325C28.9371 28.7325 28.3113 28.2907 27.5194 27.7313C26.6171 27.0941 25.4942 26.3017 23.4009 26.3017C21.3075 26.3017 20.1842 27.0946 19.2819 27.7313C18.49 28.2907 17.8642 28.7325 16.5152 28.7325C15.1653 28.7325 14.5399 28.2907 13.7476 27.7313C12.8453 27.0941 11.7224 26.3017 9.6286 26.3017C8.80051 26.3017 8.05389 26.4423 7.34573 26.7311C6.5094 27.0726 5.5307 26.9861 4.77814 26.4803C4.10248 26.0266 3.71521 25.3198 3.71521 24.5412C3.71475 24.3256 3.74405 24.1159 3.80127 23.9154ZM6.54053 29.2754C7.1553 29.2456 7.73209 29.0904 8.30429 28.8725C8.87512 28.6546 9.49768 28.6116 10.1024 28.6656C11.1369 28.7576 11.7027 29.1573 12.3958 29.6461C13.298 30.2834 14.4209 31.0762 16.5147 31.0762C18.6081 31.0762 19.731 30.2834 20.6332 29.6461C21.4252 29.0872 22.0509 28.6455 23.4004 28.6455C24.7499 28.6455 25.3752 29.0872 26.1671 29.6461C27.0694 30.2834 28.1927 31.0762 30.2861 31.0762C32.3795 31.0762 33.5023 30.2834 34.4046 29.6461C35.1965 29.0872 35.8223 28.6455 37.1713 28.6455C38.5208 28.6455 39.1466 29.0872 39.9385 29.6461C40.8408 30.2834 41.9637 31.0762 44.057 31.0762C46.1504 31.0762 47.2733 30.2834 48.1755 29.6461C48.9679 29.0872 49.5932 28.6455 50.9427 28.6455C51.4215 28.6455 51.8916 28.7251 52.338 28.9005C52.7733 29.0717 53.2265 29.1948 53.692 29.2493V31.5651H42.8911C42.8906 31.5651 42.8906 31.5651 42.8902 31.5651H42.8897H18.2506C18.2497 31.5651 18.2483 31.5651 18.2474 31.5651C18.246 31.5651 18.2446 31.5651 18.2437 31.5651H6.30753V29.2818C6.38535 29.2813 6.46271 29.279 6.54053 29.2754ZM2.34375 37.4927C2.34375 35.5165 3.95187 33.9084 5.92804 33.9084H9.41437L15.8047 40.2992C16.0245 40.519 16.3225 40.6421 16.6333 40.6421C16.9441 40.6421 17.2421 40.519 17.4619 40.2992L20.8072 36.9539L25.1683 41.315H5.92804C5.30869 41.315 4.69299 41.1511 4.15558 40.844C3.07434 40.2264 2.34375 39.0628 2.34375 37.7307V37.4927ZM3.90839 43.304C4.55338 43.5379 5.24185 43.6588 5.92804 43.6588H27.5121L29.6855 45.8322C30.135 46.2822 30.8881 46.2831 31.339 45.8359L33.5358 43.6588H54.0715C54.7325 43.6588 55.3926 43.5466 56.017 43.3305C56.1479 43.2852 56.2816 43.2394 56.4047 43.1763C56.4445 43.1557 56.5022 43.1099 56.5494 43.1131C56.6144 43.1177 56.6313 43.2005 56.6547 43.2527C56.7815 43.5324 56.8492 43.8387 56.8547 44.1458C56.8744 45.2513 56.0783 46.1765 55.0388 46.4777C54.4432 46.6507 53.7982 46.6122 53.2242 46.3779C52.5174 46.089 51.7708 45.9485 50.9427 45.9485C48.8493 45.9485 47.7264 46.7413 46.8242 47.3785C46.0318 47.9379 45.4065 48.3797 44.057 48.3797C42.708 48.3797 42.0822 47.9379 41.2903 47.3785C40.388 46.7413 39.2651 45.9485 37.1718 45.9485C35.0784 45.9485 33.9555 46.7413 33.0528 47.3785C32.2609 47.9379 31.6356 48.3797 30.2861 48.3797C28.9366 48.3797 28.3113 47.9379 27.5189 47.3785C26.6167 46.7413 25.4938 45.9485 23.4004 45.9485C21.3071 45.9485 20.1842 46.7413 19.2815 47.3785C18.4895 47.9379 17.8642 48.3797 16.5147 48.3797C15.1648 48.3797 14.5395 47.9375 13.7476 47.3785C12.8448 46.7413 11.722 45.9485 9.62814 45.9485C8.80005 45.9485 8.05344 46.089 7.34573 46.3783C6.58081 46.6905 5.68909 46.6493 4.96719 46.2428C4.32861 45.8835 3.853 45.2673 3.7413 44.5354C3.70789 44.3188 3.70605 44.0973 3.73489 43.8799C3.74313 43.8167 3.85071 43.2829 3.90839 43.304ZM55.0882 51.524C55.0882 54.7495 52.4638 57.3738 49.2384 57.3738H10.7616C7.53616 57.3738 4.9118 54.7495 4.9118 51.524V48.7445C5.87402 49.0173 6.91269 48.9981 7.90237 48.669C7.92252 48.6621 7.94266 48.6552 7.96234 48.6488C8.05252 48.6172 8.1427 48.5847 8.23151 48.5481C8.65265 48.376 9.1095 48.2927 9.62814 48.2927C10.9781 48.2927 11.6034 48.734 12.3953 49.2934C13.298 49.9306 14.4209 50.7234 16.5147 50.7234C18.6081 50.7234 19.731 49.9306 20.6332 49.2934C21.4252 48.734 22.0509 48.2927 23.4 48.2927C24.7495 48.2927 25.3752 48.734 26.1671 49.2934C27.0694 49.9306 28.1923 50.7234 30.2861 50.7234C32.3795 50.7234 33.5023 49.9306 34.4046 49.2934C35.1965 48.734 35.8223 48.2927 37.1713 48.2927C38.5208 48.2927 39.1466 48.734 39.938 49.2934C40.8403 49.9306 41.9637 50.7234 44.057 50.7234C46.1504 50.7234 47.2733 49.9306 48.1755 49.2934C48.9674 48.734 49.5932 48.2927 50.9427 48.2927C51.292 48.2927 51.6422 48.3316 51.9795 48.4254C52.3004 48.5147 52.6035 48.6557 52.9243 48.7463C53.6211 48.9427 54.3732 48.9844 55.0877 48.8681V51.524H55.0882Z" fill="#CD0B09"/>
</svg>
