<svg width="61" height="60" viewBox="0 0 61 60" fill="none" xmlns="http://www.w3.org/2000/svg">
<g clip-path="url(#clip0_50_870)">
<path d="M17.6321 26.6033C13.5126 28.6123 10.1945 32.0131 8.28907 36.1792C8.0199 36.7677 8.27876 37.463 8.86737 37.7322C9.02534 37.8045 9.19103 37.8387 9.35404 37.8387C9.7984 37.8387 10.2235 37.5845 10.4204 37.154C12.1006 33.4803 15.0267 30.4815 18.6595 28.7099C19.2412 28.4262 19.4828 27.7247 19.1991 27.1429C18.9154 26.5612 18.2138 26.3195 17.6321 26.6033Z" fill="#CD0B09"/>
<path d="M60.1748 40.6433C60.1748 37.8465 59.1502 35.1562 57.2898 33.068L55.9736 31.5904C55.679 31.2596 55.3739 30.9322 55.0658 30.6089C55.0015 29.482 54.8169 28.3592 54.5071 27.2631L53.541 23.8446C53.358 23.197 53.3494 22.5101 53.5163 21.8582L53.8847 20.4181C54.2218 19.1003 53.8889 17.7265 53.0617 16.7124L55.084 13.2099C55.2092 12.993 55.4442 12.8637 55.6693 12.8866C57.3805 13.0652 59.0326 12.1405 59.7783 10.5851C60.661 8.74441 60.0341 6.51757 58.3203 5.40515C57.5157 4.88298 56.5833 4.66666 55.6666 4.76498C55.2936 3.92196 54.6398 3.22249 53.7853 2.78692C51.965 1.85894 49.7232 2.42939 48.5704 4.11414C47.5963 5.53768 47.6209 7.4302 48.6316 8.82351C48.7644 9.00655 48.7695 9.27514 48.6442 9.49204L46.6221 12.9945C45.3303 12.7853 43.9741 13.1838 43.0014 14.1346L41.9385 15.1737C41.4573 15.6441 40.8581 15.9801 40.2059 16.1454L36.7622 17.018C35.2713 17.3958 33.852 17.9947 32.5478 18.7793C30.4852 18.4511 28.3848 18.2826 26.2964 18.2826C19.3195 18.2826 12.7602 20.9996 7.82685 25.9329C2.89354 30.8662 0.176758 37.426 0.176758 44.4029C0.176758 46.4533 0.991301 48.3159 2.31196 49.6881H1.34859C0.874938 49.6881 0.447803 49.9734 0.266286 50.4108C0.0847687 50.8484 0.184375 51.3521 0.518934 51.6875L6.1291 57.3123C6.34894 57.5328 6.6474 57.6566 6.95876 57.6566H53.3977C53.7092 57.6566 54.0079 57.5325 54.2277 57.312L59.8329 51.6872C60.1673 51.3518 60.2668 50.848 60.0851 50.4106C59.9035 49.9732 59.4765 49.6881 59.0029 49.6881H55.6979C58.4175 47.605 60.1748 44.3257 60.1748 40.6433ZM50.5288 7.44731C50.0981 6.85366 50.0884 6.04603 50.5047 5.43773C50.9862 4.73404 51.9597 4.4869 52.7208 4.87489C53.2667 5.1532 53.6207 5.68358 53.6679 6.29375C53.6977 6.67917 53.9156 7.02498 54.2504 7.21821C54.5851 7.41133 54.9935 7.42727 55.3422 7.26028C55.894 6.99615 56.5303 7.03752 57.0444 7.37102C57.7611 7.83612 58.0337 8.80289 57.665 9.57173C57.3463 10.2364 56.6421 10.6319 55.9127 10.5556C54.7646 10.4355 53.6433 11.0177 53.0542 12.038L51.1685 15.304L48.7883 13.9298L50.6739 10.6636C51.2632 9.64368 51.2062 8.38103 50.5288 7.44731ZM37.3381 19.2901L40.7818 18.4175C41.8341 18.1507 42.8007 17.6087 43.577 16.8498L44.6399 15.8106C44.9957 15.4627 45.4675 15.2816 45.9435 15.2816C46.2623 15.2816 46.583 15.3628 46.8716 15.5296L47.019 15.6147L50.7423 17.7643C51.4616 18.1799 51.8202 19.0322 51.6143 19.8372L51.2458 21.2773C50.9768 22.329 50.9905 23.4372 51.2858 24.4821L52.2519 27.9005C53.2259 31.3474 52.7574 35.1031 50.9665 38.2051C49.277 41.1312 46.5494 43.2243 43.2857 44.0988C40.0221 44.9731 36.6131 44.5244 33.687 42.8351C27.6466 39.3476 25.5695 31.596 29.057 25.5556C30.8479 22.4535 33.8662 20.1699 37.3381 19.2901ZM35.4491 49.6881C34.8019 49.6881 34.2773 50.2128 34.2773 50.86C34.2773 51.5072 34.8019 52.0318 35.4491 52.0318H56.1809L52.9111 55.313H7.44507L4.17248 52.0318H24.9025C25.5497 52.0318 26.0743 51.5072 26.0743 50.86C26.0743 50.2128 25.5497 49.6881 24.9025 49.6881H7.80564C4.89141 49.6881 2.52043 47.3172 2.52043 44.4028C2.52043 31.2925 13.1865 20.6266 26.2967 20.6266C27.4889 20.6266 28.6852 20.6862 29.8753 20.8005C28.7626 21.8438 27.798 23.0489 27.0273 24.3837C25.0248 27.852 24.4929 31.8925 25.5294 35.7607C26.5659 39.6291 29.0469 42.8623 32.5151 44.8646C34.8705 46.2244 37.4442 46.8703 39.9865 46.8703C45.1719 46.8703 50.2224 44.181 52.9962 39.3767C53.9731 37.6848 54.6146 35.8272 54.9079 33.9174L55.5399 34.6269C57.0174 36.2854 57.8311 38.4221 57.8311 40.6433C57.8311 45.6307 53.7736 49.6881 48.7863 49.6881H35.4491Z" fill="#CD0B09"/>
<path d="M30.1758 49.6875C29.8676 49.6875 29.5652 49.8129 29.3473 50.0309C29.1293 50.2488 29.0039 50.5512 29.0039 50.8594C29.0039 51.1676 29.1293 51.4699 29.3473 51.6879C29.5652 51.9059 29.8676 52.0312 30.1758 52.0312C30.484 52.0312 30.7863 51.9059 31.0043 51.6879C31.2223 51.4699 31.3477 51.1676 31.3477 50.8594C31.3477 50.5512 31.2223 50.2488 31.0043 50.0309C30.7863 49.8128 30.484 49.6875 30.1758 49.6875Z" fill="#CD0B09"/>
</g>
<defs>
<clipPath id="clip0_50_870">
<rect width="60" height="60" fill="white" transform="translate(0.176758)"/>
</clipPath>
</defs>
</svg>
