<svg width="24" height="24" viewBox="0 0 24 24" fill="none" xmlns="http://www.w3.org/2000/svg">
<g clip-path="url(#clip0_400_16076)">
<path d="M23.6301 11.0016C22.1235 10.2521 20.7298 9.29446 19.4898 8.1569C20.1268 5.74845 20.5993 3.2995 20.9043 0.826977C20.9758 0.250977 20.6551 0.0650971 20.5555 0.0219371C20.2748 -0.0849109 19.9577 0.0202605 19.7965 0.273657C17.6074 2.89282 14.609 2.59398 11.4343 2.27582C8.23495 1.95582 4.93411 1.63118 2.48699 4.44038C2.14478 4.01322 1.58085 3.83124 1.05351 3.97778L0.998427 3.99322C0.272778 4.19703 -0.151087 4.94963 0.0507872 5.67582L4.93435 23.1515C5.07603 23.6573 5.53643 24.0074 6.06171 24.0089C6.1688 24.0087 6.27537 23.994 6.37851 23.9651L6.80583 23.8458C7.10526 23.7621 7.35958 23.5629 7.51211 23.292C7.66463 23.0211 7.70327 22.7007 7.61951 22.4013L6.10703 16.9882C8.30967 14.1559 11.379 14.4558 14.6265 14.7802C17.8703 15.1042 21.2211 15.4386 23.6825 12.495L23.6837 12.4935C23.9255 12.1921 24.025 11.8009 23.9567 11.4206C23.9207 11.2369 23.7994 11.0813 23.6301 11.0016ZM6.81483 22.8995C6.76676 22.9858 6.68606 23.0492 6.59083 23.0755L6.16347 23.1948C5.9655 23.2498 5.76033 23.1342 5.70487 22.9364L0.821067 5.46058C0.737706 5.15962 0.913424 4.84793 1.21407 4.76346L1.26875 4.74822C1.31821 4.73429 1.36936 4.72725 1.42075 4.7273C1.67446 4.72771 1.89708 4.89648 1.96599 5.14066L2.00931 5.2957V5.29654L4.51047 14.2467L6.84919 22.6163C6.87597 22.7115 6.8636 22.8134 6.81483 22.8995ZM23.068 11.9825C20.8785 14.6008 17.8797 14.3014 14.7063 13.984C11.5449 13.668 8.28227 13.342 5.84419 16.0463L3.65899 8.22714L2.83327 5.27222C5.03599 2.44046 8.10511 2.74746 11.3551 3.07194C14.441 3.37974 17.6265 3.6985 20.05 1.18814C19.7513 3.46818 19.3061 5.72663 18.7172 7.94946C18.6375 8.23686 18.7279 8.54461 18.9504 8.74322C20.2218 9.90723 21.645 10.8937 23.1812 11.6758C23.1727 11.7866 23.1335 11.8927 23.068 11.9825Z" fill="#CD0B09"/>
</g>
<defs>
<clipPath id="clip0_400_16076">
<rect width="24" height="24" fill="white"/>
</clipPath>
</defs>
</svg>
