<svg width="40" height="40" viewBox="0 0 40 40" fill="none" xmlns="http://www.w3.org/2000/svg">
<g clip-path="url(#clip0_1086_1273)">
<path fill-rule="evenodd" clip-rule="evenodd" d="M6.2376 27.5615H3.08189C2.77739 27.5615 2.53749 27.3123 2.53749 27.0078C2.53749 26.7126 2.77739 26.4634 3.08189 26.4634H6.2376C6.5421 26.4634 6.78201 26.7126 6.78201 27.0078C6.78201 27.3123 6.5421 27.5615 6.2376 27.5615ZM36.4937 37.7945H25.1626C23.2249 37.7945 21.6563 36.2258 21.6563 34.2881V33.6514V33.633V21.8314V21.8129V18.8141C21.6563 18.2328 21.7209 17.7345 21.8316 17.2916V17.2639C22.0531 16.4058 22.4406 15.7783 22.8466 15.114C23.6401 13.8221 24.5352 12.3642 24.609 8.52572C23.7324 8.52572 23.0311 7.81523 23.0311 6.94787V3.78293C23.0311 2.90635 23.7324 2.20508 24.609 2.20508H37.0473C37.9146 2.20508 38.6251 2.90635 38.6251 3.78293V6.94787C38.6251 7.81523 37.9146 8.52572 37.0473 8.52572H37.0381C37.1211 12.3642 38.0161 13.8221 38.8005 15.114C39.4187 16.1197 40 17.0609 40 18.8141V34.2881C40 36.2258 38.4221 37.7945 36.4937 37.7945ZM25.1534 7.42769H25.1626H36.4937H37.0473C37.3149 7.42769 37.5271 7.21546 37.5271 6.94787V3.78293C37.5271 3.51534 37.3149 3.29389 37.0473 3.29389H24.609C24.3414 3.29389 24.12 3.51534 24.12 3.78293V6.94787C24.12 7.21546 24.3414 7.42769 24.609 7.42769H25.1534ZM25.707 8.52572C25.624 12.6872 24.5998 14.3481 23.7785 15.686C23.5663 16.0367 23.3725 16.3504 23.2065 16.6918C26.5283 16.1013 28.6597 16.2766 29.7116 17.2454C30.0254 17.5315 31.5755 18.3158 38.3945 16.5995C38.2468 16.295 38.0623 15.9998 37.8685 15.686C37.0473 14.3481 36.0323 12.6872 35.9492 8.52572H25.707ZM22.8189 17.8821C22.7728 18.1589 22.7451 18.4634 22.7451 18.8141V21.287H38.902V18.8141C38.902 18.3619 38.8558 17.9744 38.782 17.6238C35.8016 18.3804 33.4579 18.7587 31.7693 18.7587C30.4221 18.7587 29.4902 18.528 28.9735 18.0482C28.4014 17.5223 26.8604 17.0794 22.8189 17.8821ZM22.7451 34.1866V34.2881C22.7451 35.6168 23.8339 36.7057 25.1626 36.7057H36.4937C37.8224 36.7057 38.902 35.6168 38.902 34.2881V34.1866H22.7451ZM22.7451 33.0886H38.902V22.3758H22.7451V33.0886ZM26.0577 6.6526C25.7532 6.6526 25.5133 6.40346 25.5133 6.10819V4.62261C25.5133 4.31811 25.7532 4.0782 26.0577 4.0782C26.3622 4.0782 26.6021 4.31811 26.6021 4.62261V6.10819C26.6021 6.40346 26.3622 6.6526 26.0577 6.6526ZM29.2318 6.6526C28.9366 6.6526 28.6874 6.40346 28.6874 6.10819V4.62261C28.6874 4.31811 28.9366 4.0782 29.2318 4.0782C29.5363 4.0782 29.7855 4.31811 29.7855 4.62261V6.10819C29.7855 6.40346 29.5363 6.6526 29.2318 6.6526ZM32.4152 6.6526C32.1107 6.6526 31.8708 6.40346 31.8708 6.10819V4.62261C31.8708 4.31811 32.1107 4.0782 32.4152 4.0782C32.7197 4.0782 32.9596 4.31811 32.9596 4.62261V6.10819C32.9596 6.40346 32.7197 6.6526 32.4152 6.6526ZM35.5986 6.6526C35.2941 6.6526 35.045 6.40346 35.045 6.10819V4.62261C35.045 4.31811 35.2941 4.0782 35.5986 4.0782C35.8939 4.0782 36.143 4.31811 36.143 4.62261V6.10819C36.143 6.40346 35.8939 6.6526 35.5986 6.6526ZM29.8408 32.7472C29.4625 32.7472 29.0842 32.7195 28.7151 32.6641C28.5121 32.6365 28.346 32.498 28.2814 32.3043C28.2168 32.1105 28.2537 31.8983 28.3922 31.7506C30.1638 29.8221 30.4683 28.9456 31.0865 26.6757C31.5202 25.0978 32.5075 24.1751 33.8085 24.1474H33.8916C34.1499 24.1474 34.3991 24.1751 34.6298 24.2397C34.7958 24.009 34.8328 23.5569 34.8143 23.3077C34.7958 23.0032 35.0173 22.7449 35.3218 22.7264C35.6171 22.6987 35.8847 22.9202 35.9123 23.2247C35.9216 23.3446 35.9677 24.1197 35.6078 24.738C35.9769 25.0424 36.263 25.4669 36.4291 25.9836C36.9366 27.4969 36.3645 29.8314 34.2976 31.3631C34.233 31.4092 32.4429 32.7472 29.8408 32.7472ZM29.8593 25.6884H25.5871C25.2918 25.6884 25.0427 25.4392 25.0427 25.1347C25.0427 24.8395 25.2918 24.5903 25.5871 24.5903H29.8593C30.1638 24.5903 30.4037 24.8395 30.4037 25.1347C30.4037 25.4392 30.1638 25.6884 29.8593 25.6884ZM28.7428 27.5615H25.5871C25.2918 27.5615 25.0427 27.3123 25.0427 27.0078C25.0427 26.7126 25.2918 26.4634 25.5871 26.4634H28.7428C29.0473 26.4634 29.2964 26.7126 29.2964 27.0078C29.2964 27.3123 29.0473 27.5615 28.7428 27.5615ZM14.8374 37.7945H3.50634C1.57785 37.7945 0 36.2258 0 34.2881V33.633V21.8314V18.8141C0 18.2328 0.0645905 17.7345 0.175317 17.2916C0.175317 17.2824 0.175317 17.2731 0.184544 17.2639C0.39677 16.4058 0.793541 15.7691 1.19031 15.114C1.98385 13.8221 2.87889 12.3642 2.96194 8.52572H2.95271C2.08535 8.52572 1.37486 7.81523 1.37486 6.94787V3.78293C1.37486 2.90635 2.08535 2.20508 2.95271 2.20508H15.391C16.2676 2.20508 16.9689 2.90635 16.9689 3.78293V6.94787C16.9689 7.81523 16.2676 8.52572 15.391 8.52572C15.4648 12.3642 16.3599 13.8221 17.1534 15.114C17.4764 15.6399 17.7809 16.1474 18.0115 16.7656C18.0115 16.7749 18.0115 16.7841 18.0208 16.7933C18.2145 17.3469 18.3437 17.9929 18.3437 18.8141V21.8314V33.633V34.2881C18.3437 36.2258 16.7751 37.7945 14.8374 37.7945ZM3.50634 7.42769H14.8374H15.391C15.6586 7.42769 15.88 7.21546 15.88 6.94787V3.78293C15.88 3.51534 15.6586 3.29389 15.391 3.29389H2.95271C2.68512 3.29389 2.46367 3.51534 2.46367 3.78293V6.94787C2.46367 7.21546 2.68512 7.42769 2.95271 7.42769H3.50634ZM4.05075 8.52572C3.9677 12.6872 2.95271 14.3481 2.12226 15.686C1.91003 16.0367 1.71626 16.3504 1.5594 16.6918C4.87197 16.1013 7.01269 16.2766 8.06459 17.2454C8.37832 17.5315 9.91926 18.3158 16.7474 16.5995C16.5905 16.295 16.4152 15.9998 16.2215 15.686C15.391 14.3481 14.376 12.6872 14.293 8.52572H4.05075ZM1.17186 17.8729C1.12572 18.1589 1.09804 18.4634 1.09804 18.8141V21.287H17.2549V18.8141C17.2549 18.3619 17.2088 17.9744 17.1257 17.6238C14.1453 18.3804 11.8016 18.7587 10.113 18.7587C8.77509 18.7587 7.84314 18.528 7.32641 18.0482C6.7451 17.5223 5.21338 17.0794 1.17186 17.8729ZM1.09804 22.3758V33.0886H17.2549V22.3758H1.09804ZM1.09804 34.1866V34.2881C1.09804 35.6168 2.17762 36.7057 3.50634 36.7057H14.8374C16.1661 36.7057 17.2549 35.6168 17.2549 34.2881V34.1866H1.09804ZM4.40138 6.6526C4.09689 6.6526 3.85698 6.40346 3.85698 6.10819V4.62261C3.85698 4.31811 4.09689 4.0782 4.40138 4.0782C4.70588 4.0782 4.94579 4.31811 4.94579 4.62261V6.10819C4.94579 6.40346 4.70588 6.6526 4.40138 6.6526ZM7.58477 6.6526C7.28028 6.6526 7.04037 6.40346 7.04037 6.10819V4.62261C7.04037 4.31811 7.28028 4.0782 7.58477 4.0782C7.88927 4.0782 8.12918 4.31811 8.12918 4.62261V6.10819C8.12918 6.40346 7.88927 6.6526 7.58477 6.6526ZM10.7589 6.6526C10.4637 6.6526 10.2145 6.40346 10.2145 6.10819V4.62261C10.2145 4.31811 10.4637 4.0782 10.7589 4.0782C11.0634 4.0782 11.3126 4.31811 11.3126 4.62261V6.10819C11.3126 6.40346 11.0634 6.6526 10.7589 6.6526ZM13.9423 6.6526C13.6378 6.6526 13.3979 6.40346 13.3979 6.10819V4.62261C13.3979 4.31811 13.6378 4.0782 13.9423 4.0782C14.2468 4.0782 14.4867 4.31811 14.4867 4.62261V6.10819C14.4867 6.40346 14.2468 6.6526 13.9423 6.6526ZM10.4544 31.7045C9.79931 31.7045 9.16263 31.5938 8.55363 31.3539C8.47981 31.3354 8.41523 31.2985 8.35986 31.2431L8.35063 31.2339L8.34141 31.2247H8.33218C8.27682 31.1601 8.23991 31.0955 8.21223 31.0217C7.45559 29.0471 7.93541 26.8141 9.43022 25.3285C10.436 24.3135 11.7832 23.7599 13.2134 23.7599C13.8777 23.7599 14.5236 23.8798 15.1419 24.1197C15.2803 24.1751 15.4002 24.2858 15.4556 24.4335C16.2122 26.3989 15.7416 28.6411 14.2376 30.1451C13.2318 31.1509 11.8847 31.7045 10.4544 31.7045ZM9.78085 30.5603C10.0023 30.5972 10.233 30.6157 10.4544 30.6157C11.5986 30.6157 12.669 30.1728 13.4717 29.37C14.5975 28.2351 14.9942 26.5649 14.5144 25.0517C14.09 24.9225 13.6563 24.8487 13.2134 24.8487C12.0784 24.8487 11.0081 25.2916 10.1961 26.0944C9.22722 27.0724 8.79354 28.4565 9.00577 29.7852L12.3645 26.4265C12.5767 26.2143 12.9273 26.2143 13.1396 26.4265C13.3518 26.6388 13.3518 26.9894 13.1396 27.2016L9.78085 30.5603ZM7.35409 25.6884H3.08189C2.77739 25.6884 2.53749 25.4392 2.53749 25.1347C2.53749 24.8395 2.77739 24.5903 3.08189 24.5903H7.35409C7.65859 24.5903 7.8985 24.8395 7.8985 25.1347C7.8985 25.4392 7.65859 25.6884 7.35409 25.6884Z" fill="#333333"/>
<path fill-rule="evenodd" clip-rule="evenodd" d="M23.2064 16.6915C26.5282 16.1009 28.6597 16.2763 29.7116 17.2451C30.0253 17.5312 31.5755 18.3155 38.3944 16.5992C38.2468 16.2947 38.0622 15.9994 37.8685 15.6857C37.0473 14.3478 36.0323 12.6869 35.9492 8.52539H25.707C25.624 12.6869 24.5997 14.3478 23.7785 15.6857C23.5663 16.0363 23.3725 16.3501 23.2064 16.6915Z" fill="#CCCCCC"/>
<path fill-rule="evenodd" clip-rule="evenodd" d="M25.1627 7.42676H36.4937H37.0473C37.3149 7.42676 37.5271 7.21454 37.5271 6.94695V3.78201C37.5271 3.51442 37.3149 3.29297 37.0473 3.29297H24.609C24.3414 3.29297 24.12 3.51442 24.12 3.78201V6.94695C24.12 7.21454 24.3414 7.42676 24.609 7.42676H25.1534H25.1627ZM32.9597 4.62169V6.10727C32.9597 6.40254 32.7198 6.65168 32.4153 6.65168C32.1108 6.65168 31.8709 6.40254 31.8709 6.10727V4.62169C31.8709 4.31719 32.1108 4.07728 32.4153 4.07728C32.7198 4.07728 32.9597 4.31719 32.9597 4.62169ZM29.7855 6.10727C29.7855 6.40254 29.5364 6.65168 29.2319 6.65168C28.9366 6.65168 28.6875 6.40254 28.6875 6.10727V4.62169C28.6875 4.31719 28.9366 4.07728 29.2319 4.07728C29.5364 4.07728 29.7855 4.31719 29.7855 4.62169V6.10727ZM26.6021 6.10727C26.6021 6.40254 26.3622 6.65168 26.0577 6.65168C25.7532 6.65168 25.5133 6.40254 25.5133 6.10727V4.62169C25.5133 4.31719 25.7532 4.07728 26.0577 4.07728C26.3622 4.07728 26.6021 4.31719 26.6021 4.62169V6.10727ZM35.5987 6.65168C35.2942 6.65168 35.045 6.40254 35.045 6.10727V4.62169C35.045 4.31719 35.2942 4.07728 35.5987 4.07728C35.8939 4.07728 36.1431 4.31719 36.1431 4.62169V6.10727C36.1431 6.40254 35.8939 6.65168 35.5987 6.65168Z" fill="#FF3131"/>
<path fill-rule="evenodd" clip-rule="evenodd" d="M38.782 17.6229C35.8016 18.3795 33.4579 18.7579 31.7693 18.7579C30.4222 18.7579 29.4902 18.5272 28.9735 18.0474C28.4014 17.5214 26.8605 17.0785 22.8189 17.8813C22.7728 18.1581 22.7451 18.4626 22.7451 18.8132V21.2861H38.902V18.8132C38.902 18.3611 38.8558 17.9735 38.782 17.6229Z" fill="#FFA721"/>
<path fill-rule="evenodd" clip-rule="evenodd" d="M38.902 22.375H22.7451V33.0878H38.902V22.375ZM36.4291 25.9828C36.9366 27.4961 36.3645 29.8306 34.2976 31.3623C34.233 31.4084 32.4429 32.7464 29.8408 32.7464C29.4625 32.7464 29.0842 32.7187 28.7151 32.6634C28.5121 32.6357 28.346 32.4973 28.2814 32.3035C28.2169 32.1097 28.2538 31.8975 28.3922 31.7499C30.1638 29.8214 30.4683 28.9448 31.0865 26.6749C31.5202 25.097 32.5075 24.1743 33.8086 24.1466H33.8916C34.15 24.1466 34.3991 24.1743 34.6298 24.2389C34.7959 24.0082 34.8328 23.5561 34.8143 23.3069C34.7959 23.0025 35.0173 22.7441 35.3218 22.7256C35.6171 22.698 35.8847 22.9194 35.9124 23.2239C35.9216 23.3439 35.9677 24.1189 35.6079 24.7372C35.977 25.0417 36.263 25.4661 36.4291 25.9828ZM30.4037 25.1339C30.4037 25.4384 30.1638 25.6876 29.8593 25.6876H25.5871C25.2918 25.6876 25.0427 25.4384 25.0427 25.1339C25.0427 24.8387 25.2918 24.5895 25.5871 24.5895H29.8593C30.1638 24.5895 30.4037 24.8387 30.4037 25.1339ZM28.7428 26.4627C29.0473 26.4627 29.2964 26.7118 29.2964 27.0071C29.2964 27.3116 29.0473 27.5607 28.7428 27.5607H25.5871C25.2918 27.5607 25.0427 27.3116 25.0427 27.0071C25.0427 26.7118 25.2918 26.4627 25.5871 26.4627H28.7428Z" fill="#FF3131"/>
<path fill-rule="evenodd" clip-rule="evenodd" d="M33.8362 25.2363C32.8212 25.264 32.3506 26.1867 32.1476 26.9618C31.5756 29.0564 31.1972 30.1175 29.9331 31.6492C32.12 31.6216 33.624 30.4958 33.6424 30.4866C35.2941 29.2594 35.7739 27.4693 35.3956 26.3251C35.2572 25.9191 34.8881 25.2363 33.8916 25.2363H33.8362Z" fill="#FFA721"/>
<path fill-rule="evenodd" clip-rule="evenodd" d="M38.902 34.1875H22.7451V34.289C22.7451 35.6177 23.8339 36.7065 25.1626 36.7065H36.4937C37.8224 36.7065 38.902 35.6177 38.902 34.289V34.1875Z" fill="#FFA721"/>
<path fill-rule="evenodd" clip-rule="evenodd" d="M14.8374 36.7065C16.1661 36.7065 17.2549 35.6177 17.2549 34.289V34.1875H1.09802V34.289C1.09802 35.6177 2.17761 36.7065 3.50633 36.7065H14.8374Z" fill="#FFA721"/>
<path fill-rule="evenodd" clip-rule="evenodd" d="M13.4718 29.3709C14.5975 28.236 14.9943 26.5659 14.5145 25.0526C14.09 24.9234 13.6563 24.8496 13.2134 24.8496C12.0785 24.8496 11.0081 25.2925 10.1961 26.0953C9.22726 27.0734 8.79358 28.4575 9.0058 29.7862L12.3645 26.4275C12.5767 26.2152 12.9274 26.2152 13.1396 26.4275C13.3518 26.6397 13.3518 26.9903 13.1396 27.2026L9.78089 30.5613C10.0023 30.5982 10.233 30.6166 10.4545 30.6166C11.5987 30.6166 12.669 30.1737 13.4718 29.3709Z" fill="#7DD63E"/>
<path fill-rule="evenodd" clip-rule="evenodd" d="M15.4556 24.4327C16.2122 26.3981 15.7416 28.6403 14.2376 30.1443C13.2318 31.1501 11.8846 31.7037 10.4544 31.7037C9.79929 31.7037 9.16261 31.593 8.55362 31.3531C8.4798 31.3346 8.41521 31.2977 8.35984 31.2424L8.35062 31.2331L8.34139 31.2239H8.33216C8.2768 31.1593 8.23989 31.0947 8.21221 31.0209C7.45558 29.0463 7.93539 26.8133 9.4302 25.3277C10.436 24.3127 11.7831 23.7591 13.2134 23.7591C13.8777 23.7591 14.5236 23.879 15.1419 24.1189C15.2803 24.1743 15.4002 24.285 15.4556 24.4327ZM6.23758 27.5607H3.08187C2.77738 27.5607 2.53747 27.3116 2.53747 27.0071C2.53747 26.7118 2.77738 26.4627 3.08187 26.4627H6.23758C6.54208 26.4627 6.78199 26.7118 6.78199 27.0071C6.78199 27.3116 6.54208 27.5607 6.23758 27.5607ZM17.2549 33.0878V22.375H1.09802V33.0878H17.2549ZM7.35408 25.6876H3.08187C2.77738 25.6876 2.53747 25.4384 2.53747 25.1339C2.53747 24.8387 2.77738 24.5895 3.08187 24.5895H7.35408C7.65858 24.5895 7.89848 24.8387 7.89848 25.1339C7.89848 25.4384 7.65858 25.6876 7.35408 25.6876Z" fill="#FF3131"/>
<path fill-rule="evenodd" clip-rule="evenodd" d="M1.09802 21.2862H17.2549V18.8133C17.2549 18.3612 17.2087 17.9736 17.1257 17.623C14.1453 18.3796 11.8016 18.758 10.113 18.758C8.77507 18.758 7.84312 18.5273 7.3264 18.0475C6.74508 17.5215 5.21336 17.0786 1.17184 17.8721C1.1257 18.1582 1.09802 18.4627 1.09802 18.8133V21.2862Z" fill="#FFA721"/>
<path fill-rule="evenodd" clip-rule="evenodd" d="M8.06464 17.2451C8.37836 17.5312 9.91931 18.3155 16.7475 16.5992C16.5906 16.2947 16.4153 15.9994 16.2215 15.6857C15.3911 14.3478 14.3761 12.6869 14.293 8.52539H4.0508C3.96775 12.6869 2.95276 14.3478 2.12231 15.6857C1.91008 16.0363 1.71631 16.3501 1.55945 16.6915C4.87202 16.1009 7.01274 16.2763 8.06464 17.2451Z" fill="#CCCCCC"/>
<path fill-rule="evenodd" clip-rule="evenodd" d="M3.5063 7.42676H14.8373H15.391C15.6585 7.42676 15.88 7.21454 15.88 6.94695V3.78201C15.88 3.51442 15.6585 3.29297 15.391 3.29297H2.95267C2.68508 3.29297 2.46362 3.51442 2.46362 3.78201V6.94695C2.46362 7.21454 2.68508 7.42676 2.95267 7.42676H3.5063ZM11.3125 6.10727C11.3125 6.40254 11.0634 6.65168 10.7589 6.65168C10.4636 6.65168 10.2145 6.40254 10.2145 6.10727V4.62169C10.2145 4.31719 10.4636 4.07728 10.7589 4.07728C11.0634 4.07728 11.3125 4.31719 11.3125 4.62169V6.10727ZM8.12914 6.10727C8.12914 6.40254 7.88923 6.65168 7.58473 6.65168C7.28023 6.65168 7.04032 6.40254 7.04032 6.10727V4.62169C7.04032 4.31719 7.28023 4.07728 7.58473 4.07728C7.88923 4.07728 8.12914 4.31719 8.12914 4.62169V6.10727ZM4.94575 6.10727C4.94575 6.40254 4.70584 6.65168 4.40134 6.65168C4.09684 6.65168 3.85693 6.40254 3.85693 6.10727V4.62169C3.85693 4.31719 4.09684 4.07728 4.40134 4.07728C4.70584 4.07728 4.94575 4.31719 4.94575 4.62169V6.10727ZM13.9423 6.65168C13.6378 6.65168 13.3979 6.40254 13.3979 6.10727V4.62169C13.3979 4.31719 13.6378 4.07728 13.9423 4.07728C14.2468 4.07728 14.4867 4.31719 14.4867 4.62169V6.10727C14.4867 6.40254 14.2468 6.65168 13.9423 6.65168Z" fill="#FF3131"/>
</g>
<defs>
<clipPath id="clip0_1086_1273">
<rect width="40" height="40" fill="white"/>
</clipPath>
</defs>
</svg>
