<svg width="40" height="40" viewBox="0 0 40 40" fill="none" xmlns="http://www.w3.org/2000/svg">
<path d="M33.75 25.6255H33.5437L31.2875 20.363C31.6701 20.5306 32.0824 20.6199 32.5 20.6255C32.6658 20.6255 32.8247 20.5596 32.9419 20.4424C33.0592 20.3252 33.125 20.1662 33.125 20.0005V15.0005C33.125 14.8347 33.0592 14.6757 32.9419 14.5585C32.8247 14.4413 32.6658 14.3755 32.5 14.3755C31.8491 14.379 31.2156 14.5857 30.6879 14.9666C30.1601 15.3476 29.7645 15.8838 29.5563 16.5005C29.3723 16.2437 29.1376 16.0274 28.8667 15.8651C28.5958 15.7028 28.2944 15.5978 27.9813 15.5567C27.5843 15.5054 27.1811 15.5309 26.7937 15.6317H26.25C25.1938 15.6317 24.725 15.0067 23.9875 13.988L23.6188 13.4692C23.997 13.4499 24.3634 13.3314 24.6813 13.1255C24.9224 12.9504 25.1266 12.7295 25.2821 12.4753C25.4377 12.2211 25.5414 11.9386 25.5875 11.6442C25.7906 11.5272 25.9683 11.3707 26.11 11.1839C26.2517 10.9971 26.3545 10.7839 26.4125 10.5567C26.4389 10.3776 26.4214 10.1947 26.3615 10.0237C26.3017 9.85282 26.2012 9.69899 26.0687 9.57547C25.8135 9.13855 25.6737 8.64385 25.6625 8.13797C25.8239 8.12831 25.9752 8.05651 26.0847 7.93764C26.1943 7.81877 26.2535 7.66208 26.25 7.50047C26.2501 6.83804 26.1185 6.18219 25.8629 5.57104C25.6074 4.95989 25.2329 4.40561 24.7613 3.94041C24.2897 3.47521 23.7304 3.10835 23.1158 2.86116C22.5012 2.61397 21.8436 2.49136 21.1812 2.50047C19.8814 2.52606 18.6419 3.05382 17.7226 3.97312C16.8033 4.89242 16.2756 6.13189 16.25 7.43172C16.2383 8.09441 16.3595 8.75272 16.6064 9.3678C16.8533 9.98288 17.2209 10.5423 17.6875 11.013C17.8258 11.1504 17.9719 11.2798 18.125 11.4005C15.7125 11.988 14.4437 14.2505 13.7937 16.213C13.6088 16.0266 13.3887 15.8787 13.1463 15.7779C12.9038 15.677 12.6438 15.6252 12.3812 15.6255H5.74375C5.41043 15.6249 5.08233 15.7082 4.78963 15.8677C4.49693 16.0271 4.24903 16.2576 4.06875 16.538C3.97841 16.6772 3.94708 16.8466 3.98166 17.009C4.01624 17.1713 4.11389 17.3133 4.25312 17.4036C4.39236 17.4939 4.56179 17.5253 4.72412 17.4907C4.88646 17.4561 5.02841 17.3585 5.11875 17.2192C5.18609 17.1149 5.27869 17.0293 5.38794 16.9703C5.4972 16.9113 5.61958 16.8808 5.74375 16.8817H6.875V18.7567C6.875 18.9225 6.94085 19.0815 7.05806 19.1987C7.17527 19.3159 7.33424 19.3817 7.5 19.3817H10.625C10.7908 19.3817 10.9497 19.3159 11.0669 19.1987C11.1842 19.0815 11.25 18.9225 11.25 18.7567V16.8755H12.3812C12.4789 16.8755 12.5756 16.8947 12.6659 16.9321C12.7561 16.9695 12.8381 17.0242 12.9072 17.0933C12.9762 17.1624 13.031 17.2444 13.0684 17.3346C13.1058 17.4248 13.125 17.5216 13.125 17.6192V22.388C13.1234 22.5841 13.0443 22.7717 12.905 22.9098C12.7657 23.048 12.5774 23.1255 12.3812 23.1255H5.74375C5.56476 23.1304 5.39017 23.0695 5.25309 22.9543C5.116 22.8391 5.02595 22.6776 5 22.5005H6.25C6.41576 22.5005 6.57473 22.4346 6.69194 22.3174C6.80915 22.2002 6.875 22.0412 6.875 21.8755C6.875 21.7097 6.80915 21.5507 6.69194 21.4335C6.57473 21.3163 6.41576 21.2505 6.25 21.2505H5V20.0005H5.625C5.79076 20.0005 5.94973 19.9346 6.06694 19.8174C6.18415 19.7002 6.25 19.5412 6.25 19.3755C6.25 19.2097 6.18415 19.0507 6.06694 18.9335C5.94973 18.8163 5.79076 18.7505 5.625 18.7505H2.5C2.33424 18.7505 2.17527 18.8163 2.05806 18.9335C1.94085 19.0507 1.875 19.2097 1.875 19.3755C1.875 19.5412 1.94085 19.7002 2.05806 19.8174C2.17527 19.9346 2.33424 20.0005 2.5 20.0005H3.75V21.2505H1.25C1.08424 21.2505 0.925268 21.3163 0.808058 21.4335C0.690848 21.5507 0.625 21.7097 0.625 21.8755C0.625 22.0412 0.690848 22.2002 0.808058 22.3174C0.925268 22.4346 1.08424 22.5005 1.25 22.5005H3.75C3.7787 23.0068 3.99986 23.483 4.36818 23.8315C4.7365 24.1801 5.22414 24.3747 5.73125 24.3755H8.85625C8.56703 24.6591 8.32069 24.9833 8.125 25.338C7.29037 26.9747 6.86165 28.7882 6.875 30.6255C6.875 30.7912 6.94085 30.9502 7.05806 31.0674C7.17527 31.1846 7.33424 31.2505 7.5 31.2505H9.41875C9.5787 32.4516 10.1694 33.5538 11.0811 34.3521C11.9927 35.1504 13.1632 35.5905 14.375 35.5905C15.5868 35.5905 16.7573 35.1504 17.6689 34.3521C18.5806 33.5538 19.1713 32.4516 19.3312 31.2505H28.7938C28.9141 32.2054 29.3074 33.1052 29.9265 33.8421C30.5457 34.5789 31.3643 35.1214 32.2842 35.4044C33.2041 35.6874 34.1861 35.6989 35.1124 35.4376C36.0386 35.1762 36.8698 34.6531 37.506 33.931C38.1423 33.2088 38.5566 32.3184 38.6993 31.3667C38.842 30.4149 38.7069 29.4421 38.3103 28.5652C37.9137 27.6883 37.2725 26.9444 36.4636 26.423C35.6547 25.9015 34.7124 25.6246 33.75 25.6255ZM10 18.1255H8.125V16.8755H10V18.1255ZM31.875 15.7317V19.2692C31.5088 19.1404 31.1915 18.901 30.9671 18.5842C30.7427 18.2674 30.6222 17.8887 30.6222 17.5005C30.6222 17.1122 30.7427 16.7336 30.9671 16.4167C31.1915 16.0999 31.5088 15.8606 31.875 15.7317ZM27.8 16.788C28.045 16.8246 28.2726 16.9363 28.4517 17.1075C28.6307 17.2787 28.7524 17.5011 28.8 17.7442L28.9625 18.1255C28.0923 18.5728 27.1215 18.7881 26.1438 18.7505C26.0577 18.3792 26.1028 17.9896 26.2714 17.6478C26.44 17.306 26.7217 17.0331 27.0688 16.8755C27.3045 16.799 27.5533 16.7714 27.8 16.7942V16.788ZM24.7188 10.688C24.6147 10.7404 24.5274 10.8208 24.4667 10.9202C24.4059 11.0196 24.3742 11.134 24.375 11.2505C24.3704 11.4078 24.333 11.5625 24.2652 11.7045C24.1974 11.8466 24.1007 11.9729 23.9812 12.0755C23.625 12.313 22.9625 12.2567 22.1062 11.9192C22.0606 11.9142 22.0144 11.9142 21.9688 11.9192L21.875 11.838V9.44422C21.875 9.09447 22.0139 8.75904 22.2613 8.51173C22.5086 8.26441 22.844 8.12547 23.1938 8.12547H24.375C24.3947 8.93451 24.6487 9.72047 25.1062 10.388C24.9932 10.5089 24.8626 10.6122 24.7188 10.6942V10.688ZM17.5 7.44422C17.5313 6.4745 17.9304 5.55303 18.6165 4.86698C19.3026 4.18092 20.224 3.78173 21.1938 3.75047H21.25C22.1366 3.74989 22.9948 4.06348 23.6721 4.63557C24.3495 5.20766 24.8022 6.00125 24.95 6.87547H23.1938C22.513 6.87712 21.8606 7.14829 21.3792 7.62967C20.8978 8.11104 20.6266 8.76345 20.625 9.44422V11.2005C19.7422 11.0513 18.9419 10.5913 18.3688 9.90355C17.7957 9.21578 17.4875 8.34566 17.5 7.45047V7.44422ZM19.375 12.5005C21.4188 12.5005 22.1688 13.5692 22.9625 14.6942C23.5375 15.5192 24.2125 16.4192 25.3375 16.738C24.9836 17.3098 24.8236 17.9805 24.8813 18.6505C24.1055 18.481 23.3739 18.151 22.7334 17.6817C22.0929 17.2123 21.5578 16.6141 21.1625 15.9255C21.1285 15.8429 21.0771 15.7685 21.0119 15.7074C20.9466 15.6464 20.8691 15.6 20.7844 15.5714C20.6998 15.5429 20.61 15.5328 20.5211 15.5419C20.4322 15.551 20.3463 15.579 20.2692 15.6241C20.192 15.6692 20.1255 15.7304 20.074 15.8034C20.0225 15.8764 19.9872 15.9596 19.9706 16.0474C19.954 16.1352 19.9563 16.2255 19.9776 16.3123C19.9988 16.3991 20.0385 16.4803 20.0938 16.5505C20.3203 16.9307 20.5796 17.2904 20.8687 17.6255L20.8125 17.663C20.2299 18.3331 19.8201 19.1356 19.6187 20.0005H14.375V19.3755C14.4187 18.9942 15.1313 12.5005 19.375 12.5005ZM14.375 22.3817V21.2505H20C20.125 21.2505 23.125 21.288 23.125 24.3755V27.5005H20.625V26.2505C20.6408 25.8359 20.5708 25.4224 20.4193 25.0361C20.2679 24.6499 20.0382 24.299 19.7448 24.0056C19.4515 23.7122 19.1006 23.4826 18.7143 23.3312C18.328 23.1797 17.9146 23.1097 17.5 23.1255H14.2313C14.3267 22.8892 14.3755 22.6366 14.375 22.3817ZM14.375 34.3755C13.4895 34.3746 12.6328 34.0603 11.9567 33.4884C11.2807 32.9164 10.8288 32.1236 10.6812 31.2505H11.9625C12.1064 31.7801 12.4206 32.2476 12.8566 32.5809C13.2926 32.9143 13.8262 33.0948 14.375 33.0948C14.9238 33.0948 15.4574 32.9143 15.8934 32.5809C16.3294 32.2476 16.6436 31.7801 16.7875 31.2505H18.0688C17.9212 32.1236 17.4693 32.9164 16.7933 33.4884C16.1172 34.0603 15.2605 34.3746 14.375 34.3755ZM13.3 31.2505H15.45C15.3393 31.437 15.182 31.5915 14.9935 31.6988C14.8051 31.8062 14.5919 31.8626 14.375 31.8626C14.1581 31.8626 13.9449 31.8062 13.7565 31.6988C13.568 31.5915 13.4107 31.437 13.3 31.2505ZM8.125 30.0005C8.20474 28.5619 8.59266 27.1573 9.2625 25.8817C9.51128 25.4192 9.88252 25.034 10.3356 24.7683C10.7887 24.5026 11.3061 24.3667 11.8313 24.3755H17.5C17.7498 24.3619 17.9996 24.4012 18.2332 24.4906C18.4669 24.5801 18.679 24.7177 18.8559 24.8946C19.0328 25.0715 19.1704 25.2836 19.2599 25.5172C19.3493 25.7509 19.3885 26.0007 19.375 26.2505V28.1255C19.375 28.8016 19.5943 29.4595 20 30.0005H8.125ZM22.5 30.0005C22.1132 29.9994 21.7361 29.8787 21.4206 29.6549C21.105 29.4311 20.8664 29.1152 20.7375 28.7505H23.75C23.9132 28.74 24.0767 28.7636 24.2302 28.82C24.3837 28.8763 24.5238 28.964 24.6414 29.0775C24.7591 29.1911 24.8517 29.3279 24.9135 29.4793C24.9752 29.6307 25.0047 29.7933 25 29.9567C24.7928 29.9844 24.584 29.999 24.375 30.0005H22.5ZM26.5063 29.2692C26.4159 29.3714 26.313 29.4617 26.2 29.538C26.1314 29.0654 25.9197 28.6253 25.5934 28.2767C25.2672 27.928 24.8419 27.6877 24.375 27.588V24.3755C24.4314 23.3557 24.1051 22.3516 23.4601 21.5597C22.815 20.7678 21.8976 20.2452 20.8875 20.0942C21.0477 19.5336 21.3222 19.0123 21.6937 18.563C21.7099 18.5411 21.7245 18.5181 21.7375 18.4942C22.7076 19.2811 23.8749 19.787 25.1125 19.9567L26.875 27.6192C26.974 28.1963 26.8415 28.7892 26.5063 29.2692ZM28.125 27.363L26.4062 20.0005C27.4638 20.0102 28.5088 19.7704 29.4563 19.3005L32.4062 26.1755L29.6813 30.0005H27.5C27.7743 29.6245 27.9709 29.1976 28.0782 28.7447C28.1855 28.2918 28.2014 27.8221 28.125 27.363ZM33.75 30.0005H32.675C32.8126 29.7622 33.025 29.5759 33.2792 29.4706C33.5334 29.3653 33.8153 29.3468 34.0811 29.4181C34.3468 29.4893 34.5817 29.6462 34.7492 29.8645C34.9167 30.0828 35.0075 30.3503 35.0075 30.6255C35.0075 30.9006 34.9167 31.1681 34.7492 31.3864C34.5817 31.6047 34.3468 31.7617 34.0811 31.8329C33.8153 31.9041 33.5334 31.8856 33.2792 31.7803C33.025 31.675 32.8126 31.4888 32.675 31.2505H33.75C33.9158 31.2505 34.0747 31.1846 34.1919 31.0674C34.3092 30.9502 34.375 30.7912 34.375 30.6255C34.375 30.4597 34.3092 30.3007 34.1919 30.1835C34.0747 30.0663 33.9158 30.0005 33.75 30.0005ZM31.2125 30.0005L31.4313 29.6942C31.3935 29.7942 31.3622 29.8965 31.3375 30.0005H31.2125ZM33.75 34.3755C32.8645 34.3746 32.0078 34.0603 31.3317 33.4884C30.6557 32.9164 30.2038 32.1236 30.0562 31.2505H31.3375C31.4744 31.7777 31.7797 32.2457 32.207 32.5835C32.6343 32.9213 33.1602 33.1102 33.7048 33.1217C34.2493 33.1331 34.7827 32.9664 35.2238 32.6469C35.6649 32.3274 35.9896 31.8725 36.1485 31.3516C36.3074 30.8306 36.2918 30.2719 36.1041 29.7606C35.9164 29.2493 35.5668 28.8133 35.1086 28.5189C34.6504 28.2245 34.1085 28.0878 33.5654 28.1296C33.0224 28.1714 32.5078 28.3894 32.1 28.7505L33.4313 26.8755C33.5375 26.8755 33.6437 26.8755 33.75 26.8755C34.7446 26.8755 35.6984 27.2706 36.4016 27.9738C37.1049 28.6771 37.5 29.6309 37.5 30.6255C37.5 31.62 37.1049 32.5739 36.4016 33.2771C35.6984 33.9804 34.7446 34.3755 33.75 34.3755Z" fill="#2C2220"/>
</svg>
