<svg width="60" height="60" viewBox="0 0 60 60" fill="none" xmlns="http://www.w3.org/2000/svg">
<path d="M58.9305 52.802L45.8909 39.7614L48.4748 16.5532C48.5668 15.7189 48.2993 14.885 47.7391 14.26C47.1789 13.635 46.379 13.2782 45.5397 13.2788H40.8361L42.4217 8.99023L52.005 2.28105C52.4312 1.96326 52.5278 1.36426 52.223 0.928622C51.9182 0.49298 51.3224 0.378393 50.8777 0.669902L41.0417 7.55515C40.8776 7.66976 40.7523 7.83173 40.6827 8.01941L38.7391 13.2788H22.2145C21.5362 11.1321 20.4097 9.15405 18.9096 7.47548C18.1102 6.67648 17.125 6.08841 16.0423 5.764C16.5051 4.77019 16.7582 3.69172 16.7859 2.5958C16.8064 2.05089 16.5998 1.52192 16.2155 1.13515C15.8304 0.74664 15.2993 0.538749 14.7528 0.562689C13.0842 0.551589 11.4702 1.15683 10.2204 2.26236C9.36042 3.19115 8.81045 4.36429 8.6466 5.61941C5.99874 3.2381 4.68464 3.0158 4.3089 3.0158C3.75734 3.01177 3.30309 3.44813 3.28497 3.99941C3.27565 4.25604 3.37071 4.50549 3.54845 4.69083C3.7262 4.87617 3.97145 4.98159 4.22824 4.98302C4.23906 4.98302 5.14693 5.14728 7.20267 6.96793C5.98774 7.14481 4.85552 7.68759 3.95677 8.524C2.85229 9.77306 2.24837 11.3862 2.26103 13.0535C2.23988 13.5862 2.43683 14.1045 2.80641 14.4888C3.17599 14.873 3.68625 15.09 4.21939 15.0896H4.29513C5.39131 15.0615 6.47003 14.8084 7.46431 14.346C7.7865 15.4303 8.37603 16.4162 9.17874 17.2132C11.0027 18.8369 13.1722 20.0242 15.523 20.6853L16.5558 29.9755C15.8841 30.4738 15.2955 31.0754 14.8119 31.7578C14.6989 31.6231 14.5787 31.4947 14.4518 31.3732C13.4805 30.4996 12.3024 29.8881 11.0289 29.5968C9.22398 29.1512 6.2466 29.5791 4.06792 30.0197C3.4511 30.1444 2.95971 30.6105 2.80265 31.2199C2.6456 31.8292 2.85049 32.4748 3.33021 32.882C4.04037 33.485 4.87349 34.1499 5.73415 34.7578C4.06223 35.341 2.66851 36.5277 1.82628 38.0853C0.154146 40.981 -0.172411 45.1358 0.95972 49.2001C2.65447 55.2473 7.11611 59.5083 11.4145 59.5083C11.9423 59.5089 12.4681 59.4428 12.9794 59.3115C13.3472 59.2164 13.7057 59.0883 14.0505 58.9289C14.3946 59.0887 14.7524 59.2168 15.1197 59.3115C16.8877 59.7146 18.7424 59.4445 20.322 58.5542C20.8777 59.1615 21.6627 59.508 22.4859 59.5092H41.0545C41.8675 59.5056 42.6433 59.1676 43.1997 58.5748C44.9031 59.1902 46.7001 59.5063 48.5112 59.5092H48.5673C52.3281 59.5114 55.9642 58.1606 58.8115 55.7037C59.2331 55.3393 59.4849 54.8165 59.5069 54.2597C59.5294 53.7155 59.322 53.1868 58.9355 52.803L58.9305 52.802ZM46.122 42.7751L38.7017 42.7663C38.8863 40.8408 39.6395 39.0138 40.8656 37.5178L46.122 42.7751ZM46.1279 44.7424L40.8833 49.9869C39.6529 48.4897 38.8932 46.6618 38.6997 44.7335L46.1279 44.7424ZM47.5187 46.1312L47.5286 53.5594C45.6 53.3658 43.7719 52.6061 42.2741 51.3758L47.5187 46.1312ZM49.4958 53.5584L49.4859 46.1371L54.7433 51.3945C53.2474 52.6205 51.421 53.3744 49.4958 53.5604V53.5584ZM45.5397 15.246C45.8196 15.2465 46.0861 15.3653 46.2735 15.5732C46.4609 15.781 46.5517 16.0584 46.5233 16.3368L45.7896 22.927L43.1269 24.2607C41.1143 25.2517 38.7743 25.3365 36.6951 24.4938L40.1092 15.246H45.5397ZM34.8735 23.7394C33.8732 23.4014 32.825 23.227 31.7692 23.223C30.2508 23.2184 28.7526 23.5705 27.3951 24.2509C25.1937 25.3447 22.6071 25.3447 20.4056 24.2509L17.7499 22.924L17.0151 16.3378C16.9862 16.0591 17.0767 15.7813 17.2642 15.5732C17.4517 15.365 17.7186 15.2461 17.9987 15.246H38.0122L34.8735 23.7394ZM11.6112 3.6522C12.5185 2.91554 13.653 2.51584 14.8217 2.52105C14.8349 3.69231 14.4371 4.83113 13.6974 5.73941C12.7952 6.48354 11.6573 6.88179 10.4879 6.86269C10.4686 5.69299 10.8668 4.5547 11.6112 3.6522ZM4.22824 13.1214C4.2161 11.9531 4.61354 10.8176 5.35152 9.91187C6.25231 9.16866 7.38846 8.77077 8.55611 8.78957C8.57547 9.95827 8.17952 11.0959 7.43874 12.0001C6.53276 12.738 5.39665 13.1348 4.22824 13.1214ZM10.5666 15.8165C9.80247 15.0508 9.31932 14.0495 9.19546 12.9748C10.054 11.7612 10.5177 10.3125 10.5233 8.82597C12.0043 8.81461 13.4461 8.34944 14.6545 7.49318C15.7356 7.61767 16.7432 8.10278 17.5148 8.87023C18.6589 10.1601 19.5466 11.6564 20.1302 13.2788H17.9987C17.1592 13.2781 16.3592 13.6351 15.799 14.2603C15.2387 14.8855 14.9713 15.7198 15.0637 16.5542L15.285 18.542C13.546 17.9576 11.9417 17.0309 10.5666 15.8165ZM16.8263 32.3981L17.1371 35.1945C16.7565 35.3706 16.3872 35.5704 16.0315 35.7925C15.7636 35.9611 15.4746 36.0934 15.1719 36.186C15.3432 34.7893 15.9182 33.473 16.8263 32.3981ZM10.5558 31.503C11.4959 31.7152 12.3682 32.1588 13.0935 32.7935C13.4688 33.0663 13.6888 33.504 13.6837 33.9679L13.6748 33.9974C13.5853 34.3063 13.1928 34.5876 12.6115 34.7538C11.6735 34.9764 10.6947 34.9612 9.76398 34.7096C8.05237 34.042 6.4805 33.0605 5.12923 31.8158C6.90493 31.3886 8.74276 31.2827 10.5558 31.503ZM15.6056 57.4043C15.2316 57.3059 14.8719 57.1594 14.5355 56.9686C14.2402 56.8029 13.8806 56.8007 13.5833 56.9627C13.2396 57.155 12.8732 57.3034 12.4925 57.4043C8.79119 58.3506 4.46726 54.4348 2.85316 48.6699C1.85972 45.1063 2.11251 41.5171 3.52792 39.0699C4.1738 37.8327 5.29864 36.9144 6.64005 36.5292C7.67614 36.2798 8.76521 36.3737 9.74333 36.7968C10.1813 36.9736 10.6018 37.191 10.9994 37.446C11.6281 37.8461 12.3303 38.1166 13.065 38.2417V39.8263C13.065 40.3695 13.5053 40.8099 14.0486 40.8099C14.5918 40.8099 15.0322 40.3695 15.0322 39.8263V38.2417C15.7609 38.1182 16.4578 37.8507 17.082 37.4548C17.1745 37.3968 17.2699 37.3496 17.3643 37.2955L19.5282 56.7532C18.3536 57.4679 16.9482 57.7012 15.6056 57.4043ZM22.484 57.541C21.98 57.5441 21.5553 57.1656 21.5004 56.6647L18.0105 25.2532L19.5263 26.0106C22.2814 27.3807 25.5193 27.3807 28.2745 26.0106C30.1176 25.11 32.2377 24.9574 34.1909 25.5847L23.9614 53.2653C23.7729 53.7749 24.0331 54.3407 24.5427 54.5292C25.0522 54.7177 25.6181 54.4575 25.8066 53.9479L36.0105 26.3371C38.5983 27.3753 41.5061 27.2597 44.0033 26.0194L45.5269 25.2561L44.1096 37.9801L39.46 33.3306C39.0702 32.953 38.5459 32.7466 38.0033 32.7571C37.446 32.7791 36.9228 33.0313 36.5584 33.4535C31.1875 39.7149 31.5437 49.056 37.3758 54.8902C38.4202 55.9337 39.6054 56.826 40.8971 57.541H22.484ZM57.521 54.2135C55.016 56.3667 51.8204 57.5477 48.5171 57.541H48.5102C46.7085 57.5439 44.9238 57.1923 43.2577 56.5063H43.2528H43.2381C39.1427 54.8086 36.1108 51.2488 35.0864 46.9354C34.062 42.6221 35.1696 38.0792 38.0643 34.7214L39.4689 36.126C37.6625 38.2536 36.6725 40.9549 36.6764 43.746C36.6894 50.2771 41.981 55.5683 48.5122 55.5807C51.3035 55.5844 54.005 54.5945 56.1332 52.7883L57.521 54.2135Z" fill="#CD0B09"/>
</svg>
