<svg width="24" height="24" viewBox="0 0 24 24" fill="none" xmlns="http://www.w3.org/2000/svg">
<path d="M21.1875 2.25H2.8125C1.26169 2.25 0 3.51169 0 5.0625V7.38258L10.3215 15.0598C10.8234 15.4332 11.4117 15.6199 12 15.6199C12.5883 15.6199 13.1766 15.4332 13.6785 15.0598L24 7.38258V5.0625C24 3.51169 22.7383 2.25 21.1875 2.25ZM22.125 6.44044L12.5595 13.5553C12.2249 13.8043 11.7751 13.8043 11.4405 13.5553L1.875 6.44044V5.0625C1.875 4.54556 2.29556 4.125 2.8125 4.125H21.1875C21.7044 4.125 22.125 4.54556 22.125 5.0625V6.44044ZM22.125 11.114L24 9.71939V18.9375C24 20.4883 22.7383 21.75 21.1875 21.75H2.8125C1.26169 21.75 0 20.4883 0 18.9375V9.71939L1.875 11.114V18.9375C1.875 19.4544 2.29556 19.875 2.8125 19.875H21.1875C21.7044 19.875 22.125 19.4544 22.125 18.9375V11.114Z" fill="#CD0B09"/>
</svg>
