<svg width="40" height="40" viewBox="0 0 40 40" fill="none" xmlns="http://www.w3.org/2000/svg">
<path fill-rule="evenodd" clip-rule="evenodd" d="M5 9.9987C5 9.07823 5.7462 8.33203 6.66667 8.33203H33.3333C34.2538 8.33203 35 9.07823 35 9.9987C35 10.9192 34.2538 11.6654 33.3333 11.6654H6.66667C5.7462 11.6654 5 10.9192 5 9.9987ZM5 19.9987C5 19.0782 5.7462 18.332 6.66667 18.332H23.3333C24.2538 18.332 25 19.0782 25 19.9987C25 20.9192 24.2538 21.6654 23.3333 21.6654H6.66667C5.7462 21.6654 5 20.9192 5 19.9987ZM5 29.9987C5 29.0782 5.7462 28.332 6.66667 28.332H15C15.9205 28.332 16.6667 29.0782 16.6667 29.9987C16.6667 30.9192 15.9205 31.6654 15 31.6654H6.66667C5.7462 31.6654 5 30.9192 5 29.9987Z" fill="#2C2220"/>
</svg>
