<svg width="348" height="348" viewBox="0 0 348 348" fill="none" xmlns="http://www.w3.org/2000/svg">
<rect width="348" height="348" fill="#EAEAEA"/>
<path d="M207.05 184.5L196.25 173.6C196.2 173.537 196.134 173.488 196.06 173.458C195.986 173.427 195.905 173.416 195.825 173.425C195.744 173.428 195.665 173.447 195.592 173.482C195.519 173.516 195.454 173.565 195.4 173.625L188.2 181.25C187.734 181.745 187.173 182.14 186.55 182.411C185.926 182.682 185.254 182.822 184.575 182.825C183.895 182.822 183.223 182.682 182.6 182.411C181.977 182.14 181.415 181.745 180.95 181.25L165.5 164.775C165.39 164.677 165.247 164.622 165.1 164.622C164.952 164.622 164.81 164.677 164.7 164.775L140.65 183.525L137.55 179.5L161.5 160.75C162.599 159.895 163.978 159.483 165.366 159.594C166.754 159.705 168.05 160.331 169 161.35L184.425 177.825L191.575 170.2C192.086 169.648 192.705 169.207 193.392 168.902C194.08 168.596 194.823 168.434 195.575 168.425C196.327 168.405 197.076 168.542 197.773 168.826C198.47 169.11 199.1 169.535 199.625 170.075L210.425 180.975L207.05 184.5Z" fill="#C2C2C2"/>
<path d="M201.7 211.5H146.3C143.701 211.5 141.208 210.467 139.37 208.63C137.532 206.792 136.5 204.299 136.5 201.7V146.3C136.5 143.701 137.532 141.208 139.37 139.37C141.208 137.532 143.701 136.5 146.3 136.5H201.7C204.299 136.5 206.792 137.532 208.63 139.37C210.467 141.208 211.5 143.701 211.5 146.3V201.7C211.5 204.299 210.467 206.792 208.63 208.63C206.792 210.467 204.299 211.5 201.7 211.5ZM146.3 141.5C145.027 141.5 143.806 142.006 142.906 142.906C142.006 143.806 141.5 145.027 141.5 146.3V201.7C141.5 202.33 141.624 202.955 141.865 203.537C142.107 204.119 142.46 204.648 142.906 205.094C143.352 205.54 143.881 205.893 144.463 206.135C145.045 206.376 145.67 206.5 146.3 206.5H201.7C202.33 206.5 202.955 206.376 203.537 206.135C204.119 205.893 204.648 205.54 205.094 205.094C205.54 204.648 205.893 204.119 206.135 203.537C206.376 202.955 206.5 202.33 206.5 201.7V146.3C206.5 145.67 206.376 145.045 206.135 144.463C205.893 143.881 205.54 143.352 205.094 142.906C204.648 142.46 204.119 142.107 203.537 141.865C202.955 141.624 202.33 141.5 201.7 141.5H146.3Z" fill="#C2C2C2"/>
<path d="M184.825 163.575C187.587 163.575 189.825 161.337 189.825 158.575C189.825 155.814 187.587 153.575 184.825 153.575C182.064 153.575 179.825 155.814 179.825 158.575C179.825 161.337 182.064 163.575 184.825 163.575Z" fill="#C2C2C2"/>
<path d="M139 182.75L162.825 163.575L167.225 163.05L181.65 178.45C181.65 178.45 184.15 181.875 186.275 179.525L193.45 171.9C193.45 171.9 194.875 168.775 197.925 171.9C200.975 175.025 209 185.25 209 185.25L208.825 203.325C208.825 203.325 208.075 209 200.725 209C193.375 209 145.725 208.225 145.725 208.225C145.725 208.225 139 209.875 139 201.7C139 193.525 139 182.75 139 182.75Z" fill="#C2C2C2"/>
</svg>
