<svg width="21" height="21" viewBox="0 0 21 21" fill="none" xmlns="http://www.w3.org/2000/svg">
<path d="M4.6875 20.9739H0.328125V6.95823H4.6875V20.9739ZM2.48438 5.08323C1.125 5.08323 0 3.91136 0 2.50511C0 0.583233 2.0625 -0.635517 3.75 0.348858C4.54688 0.770733 5.01562 1.61448 5.01562 2.50511C5.01562 3.91136 3.89062 5.08323 2.48438 5.08323ZM16.6406 20.9739V14.177C16.6406 12.5364 16.5938 10.4739 14.3438 10.4739C12.0938 10.4739 11.7656 12.2082 11.7656 14.0364V20.9739H7.40625V6.95823H11.5781V8.88011H11.625C12.2344 7.80198 13.6406 6.63011 15.75 6.63011C20.1562 6.63011 21 9.53636 21 13.2864V20.9739H16.6406Z" fill="white"/>
</svg>
