<svg width="25" height="24" viewBox="0 0 25 24" fill="none" xmlns="http://www.w3.org/2000/svg">
<g clip-path="url(#clip0_410_815)">
<path d="M1.56123 24.0017C1.44045 24.0017 1.31868 23.9784 1.20268 23.9303C0.85242 23.7852 0.624023 23.4434 0.624023 23.0643L0.624539 12.1162C0.550438 1.39692 13.595 -4.05311 21.152 3.54417C28.6289 11.1305 23.2308 24.0111 12.5671 24.0017C10.6782 24.0017 8.87495 23.5781 7.20755 22.7425C5.61431 21.944 3.68538 22.266 2.40761 23.5438L2.22425 23.7271C2.04493 23.9065 1.80514 24.0017 1.56123 24.0017ZM5.37039 20.4326C6.2807 20.4326 7.19649 20.6399 8.04756 21.0664C9.4544 21.7715 10.9793 22.1284 12.5777 22.1269C21.5383 22.1401 26.1303 11.1943 19.8199 4.86332C13.4189 -1.54239 2.45289 3.04575 2.49929 12.1027C2.49929 12.1057 2.49933 12.1087 2.49933 12.1117L2.49891 21.1608C3.38719 20.6804 4.37539 20.4326 5.37039 20.4326ZM9.81052 12.003C9.81052 12.6501 9.2859 13.1748 8.63877 13.1748C7.08447 13.113 7.0849 10.8928 8.63877 10.8313C9.2859 10.8313 9.81052 11.3559 9.81052 12.003ZM12.6696 10.8313C12.0224 10.8313 11.4978 11.3559 11.4978 12.003C11.5596 13.5573 13.7798 13.5569 13.8413 12.003C13.8413 11.3559 13.3167 10.8313 12.6696 10.8313ZM16.7004 10.8313C16.0533 10.8313 15.5286 11.3559 15.5286 12.003C15.5904 13.5573 17.8106 13.5569 17.8721 12.003C17.8721 11.3559 17.3475 10.8313 16.7004 10.8313Z" fill="#CD0B09"/>
</g>
<defs>
<clipPath id="clip0_410_815">
<rect width="24" height="24" fill="white" transform="translate(0.624023 0.00195312)"/>
</clipPath>
</defs>
</svg>
