<svg width="24" height="24" viewBox="0 0 24 24" fill="none" xmlns="http://www.w3.org/2000/svg">
<g clip-path="url(#clip0_186_9475)">
<path d="M15.9756 0H7.99018C6.58094 0.00159801 5.43896 1.14358 5.43756 2.55282V21.4473C5.43896 22.8566 6.58094 23.9985 7.99018 23.9999H15.9756C17.3849 23.9985 18.5269 22.8566 18.5285 21.4473V2.55282C18.5269 1.14358 17.3849 0.00159801 15.9756 0ZM17.4374 21.4473C17.4366 22.2543 16.7826 22.9083 15.9756 22.9091H7.99018C7.18319 22.9083 6.5292 22.2543 6.5284 21.4473V2.55282C6.5292 1.74563 7.18319 1.09164 7.99018 1.09084H15.9756C16.7826 1.09164 17.4366 1.74563 17.4374 2.55282V21.4473Z" fill="#CD0B09"/>
<path d="M13.619 2.18164H10.3463C10.0451 2.18164 9.80078 2.42574 9.80078 2.72696C9.80078 3.02819 10.0451 3.27248 10.3463 3.27248H13.619C13.9203 3.27248 14.1644 3.02819 14.1644 2.72696C14.1644 2.42574 13.9203 2.18164 13.619 2.18164Z" fill="#CD0B09"/>
<path d="M13.0735 20.7276C13.0735 21.3302 12.5851 21.8186 11.9826 21.8186C11.38 21.8186 10.8916 21.3302 10.8916 20.7276C10.8916 20.1251 11.38 19.6367 11.9826 19.6367C12.5851 19.6367 13.0735 20.1251 13.0735 20.7276Z" fill="#CD0B09"/>
</g>
<defs>
<clipPath id="clip0_186_9475">
<rect width="24" height="24" fill="white"/>
</clipPath>
</defs>
</svg>
