<svg width="40" height="40" viewBox="0 0 40 40" fill="none" xmlns="http://www.w3.org/2000/svg">
<path d="M34.1363 2.10352H32.8922C32.5422 2.13016 32.2116 2.27473 31.9544 2.51358C31.6973 2.75244 31.5287 3.07147 31.4764 3.41852H21.0348C19.9446 3.41928 18.8714 3.6901 17.9114 4.20679L13.6481 6.50598H6.89362C6.33527 6.50664 5.79997 6.72873 5.40516 7.12355C5.01035 7.51836 4.78825 8.05365 4.7876 8.612V9.24338C4.7883 9.66223 4.9138 10.0714 5.14807 10.4186C5.38234 10.7658 5.71477 11.0353 6.1029 11.1927C5.578 13.3069 3.53428 18.7678 3.67489 20.9291L3.67492 34.5123C3.67547 35.0094 3.87318 35.486 4.2247 35.8375C4.57621 36.189 5.05281 36.3867 5.54992 36.3873L29.1891 36.3918C29.355 36.3883 29.5131 36.3208 29.6304 36.2035C29.7477 36.0862 29.8152 35.9281 29.8187 35.7623V20.0308C29.8188 19.9707 29.8102 19.911 29.7931 19.8535L27.3277 11.5225C27.9914 11.4032 28.6034 11.0858 29.0833 10.6121C29.5632 10.1384 29.8884 9.53045 30.0162 8.86835H31.4158C31.3966 9.28926 31.5386 9.70164 31.8129 10.0215C32.0873 10.3413 32.4732 10.5444 32.8922 10.5895H34.1363C34.971 10.5895 35.625 9.76587 35.625 8.71454V3.97852C35.625 2.92718 34.971 2.10352 34.1363 2.10352ZM6.0376 9.24338V8.612C6.03783 8.38504 6.12809 8.16744 6.28857 8.00696C6.44906 7.84647 6.66666 7.75621 6.89362 7.75598H21.868L19.5285 10.0997H6.89362C6.66662 10.0994 6.44901 10.0091 6.28853 9.84857C6.12805 9.68803 6.0378 9.47038 6.0376 9.24338ZM4.92492 34.5123C5.05112 32.4746 4.56722 19.9397 5.31265 18.2577L7.36038 11.3497H18.6768C18.5064 11.8731 18.5071 12.4371 18.6789 12.96C18.8507 13.4829 19.1846 13.9374 19.6321 14.2578C20.0797 14.5781 20.6177 14.7475 21.168 14.7415C21.7184 14.7354 22.2525 14.5542 22.6929 14.2241L24.8623 12.5678L22.9776 19.5684C22.9663 19.8628 22.9409 34.871 22.9563 35.1375L5.54992 35.1373C5.38423 35.1371 5.22538 35.0711 5.10822 34.954C4.99106 34.8368 4.92514 34.678 4.92492 34.5123ZM26.3818 33.8403L27.6788 35.1373H25.0877L26.3818 33.8403ZM28.5687 20.1214V34.2596L27.0126 32.7035V20.7934C27.0093 20.6298 26.9421 20.474 26.8252 20.3595C26.7084 20.2449 26.5512 20.1808 26.3876 20.1808C26.224 20.1808 26.0669 20.2449 25.95 20.3595C25.8332 20.474 25.7659 20.6298 25.7626 20.7934V32.6908L24.2062 34.2509V19.8135L26.2409 12.2555L28.5687 20.1214ZM31.4038 7.61833H29.45C29.2843 7.61834 29.1253 7.68419 29.0081 7.8014C28.8909 7.91861 28.8251 8.07758 28.825 8.24333C28.8245 8.79515 28.605 9.3242 28.2148 9.71439C27.8246 10.1046 27.2956 10.3241 26.7437 10.3246C26.6894 10.3332 25.8852 10.3107 25.8619 10.3369C25.8298 10.1463 22.035 13.1964 21.9341 13.2305C21.6637 13.4311 21.3277 13.5225 20.993 13.4866C20.6582 13.4506 20.3493 13.29 20.1276 13.0366C19.9059 12.7832 19.7878 12.4556 19.7967 12.119C19.8057 11.7824 19.941 11.4616 20.1758 11.2203L23.8171 7.57256C23.9025 7.4844 23.9603 7.37318 23.9832 7.25261C24.0062 7.13203 23.9934 7.00737 23.9464 6.89399C23.8994 6.78061 23.8202 6.68346 23.7187 6.61451C23.6171 6.54556 23.4976 6.50783 23.3749 6.50597H16.2819C17.6423 5.81372 19.4387 4.55847 21.0348 4.66858L31.4038 4.6685L31.4038 7.61833ZM34.375 8.71454C34.3876 8.83018 34.3725 8.94715 34.3311 9.05582C34.2896 9.16449 34.2228 9.26174 34.1363 9.33954L32.8958 9.33985C32.8081 9.26281 32.7403 9.16573 32.6982 9.05686C32.656 8.94799 32.6408 8.83055 32.6538 8.71454V4.05561C32.6179 3.72042 32.8266 3.34215 32.8946 3.35352L34.1327 3.35321C34.2206 3.43008 34.2886 3.52712 34.3308 3.63603C34.373 3.74494 34.3882 3.86246 34.375 3.97852V8.71454Z" fill="white"/>
</svg>
