<svg width="61" height="60" viewBox="0 0 61 60" fill="none" xmlns="http://www.w3.org/2000/svg">
<g clip-path="url(#clip0_50_856)">
<path d="M59.1198 14.9811C58.3331 13.1254 57.2482 11.396 55.8949 9.84093C55.5759 9.47455 55.0205 9.4361 54.6543 9.75487C54.2879 10.0736 54.2494 10.6291 54.5682 10.9955C55.2074 11.7299 55.7806 12.5066 56.2839 13.3193C55.3565 13.2728 54.3299 13.4858 53.3649 13.9428C52.0589 14.5614 51.0899 15.5 50.6025 16.5025C43.1982 8.21294 31.2231 4.62376 19.9447 7.41582C19.9118 4.95344 21.6329 2.72858 24.1147 2.2302C30.6677 0.914649 44.121 2.05633 52.1839 8.68623C52.5593 8.99481 53.1133 8.94064 53.4216 8.56559C53.7301 8.19043 53.676 7.63635 53.301 7.32789C48.3791 3.28078 42.1241 1.50014 37.7438 0.71921C32.8313 -0.156805 27.4763 -0.238287 23.7686 0.506185C20.1962 1.22346 17.8009 4.60981 18.237 8.18914C9.55683 16.9801 4.67345 34.8211 2.52609 42.9093C2.4024 43.3754 2.36816 43.9331 2.36816 44.4069V56.5502C2.54015 61.1463 9.10921 61.1535 9.28402 56.5502V52.2877C11.5273 53.606 14.4773 51.8825 14.4413 49.2641V45.049C14.4413 45.021 14.4529 44.9957 14.4733 44.9795C16.7392 43.1655 19.016 41.403 21.2402 39.741C21.3115 39.7097 21.3547 39.7337 21.3697 39.8129V43.3813C21.5434 47.981 28.1117 47.9816 28.2855 43.3813V34.7353C28.2855 34.705 28.2994 34.6775 28.3225 34.6616C38.8154 27.4626 47.4702 22.8522 54.7811 20.567C56.9398 19.904 60.4009 17.7758 59.1198 14.9811ZM12.8567 19.2997C14.2267 16.6561 15.7558 14.0733 17.5606 11.7007C20.4625 12.1404 22.5958 14.2289 22.5958 16.7106C22.5556 21.3481 15.8901 23.3294 12.2708 20.4569C12.4629 20.0689 12.6582 19.6831 12.8567 19.2997ZM27.3278 33.2111C26.8264 33.5551 26.527 34.1248 26.527 34.735V43.3812C26.527 44.3263 25.7648 45.0951 24.8277 45.0951C23.8906 45.0951 23.1284 44.3263 23.1284 43.3812V39.8128C23.1284 38.3671 21.378 37.4431 20.1877 38.3322C17.9477 40.0059 15.6553 41.7804 13.3742 43.6067C12.9346 43.9584 12.6827 44.4842 12.6827 45.049V49.2641C12.6827 50.2091 11.9204 50.978 10.9833 50.978C10.0462 50.978 9.2839 50.2091 9.2839 49.2641V48.1856C9.2839 47.7 8.89021 47.3063 8.4046 47.3063C7.919 47.3063 7.5253 47.7 7.5253 48.1856V56.55C7.5253 57.4951 6.76301 58.264 5.82603 58.264C4.88905 58.264 4.12664 57.4951 4.12664 56.55C4.16334 56.1021 4.02183 43.3587 4.23884 43.3086C5.69332 37.4109 8.04233 29.4631 11.4967 22.0665C16.3108 25.5302 24.3538 22.6332 24.3542 16.7104C24.3542 13.6485 22.0578 11.0386 18.806 10.1669C19.1812 9.73799 19.4575 9.45451 19.6135 9.30081C24.3368 8.13837 28.9011 7.94235 33.1833 8.71871C41.5349 10.0253 47.7267 15.716 51.2045 19.9445C44.4038 22.5171 36.5544 26.881 27.3278 33.2111ZM55.4835 18.4664C55.4674 18.474 55.4514 18.4815 55.4353 18.4889L54.4244 18.8311C53.6037 18.9907 52.8528 19.0003 52.2731 18.5445C52.2249 18.4762 52.1583 18.3837 52.0732 18.2695C51.7081 17.4281 52.8431 16.1358 54.1179 15.5321C55.0436 15.113 55.9928 14.9151 56.8904 15.2045C57.2033 15.3171 57.4144 15.4861 57.5182 15.707C57.5185 15.7077 57.5188 15.7084 57.5191 15.7091C57.9111 16.55 56.7682 17.8579 55.4835 18.4664Z" fill="#CD0B09"/>
<path d="M26.2071 29.3462C25.5511 29.7793 24.8997 30.2168 24.2544 30.658C21.576 25.7752 13.3424 25.5671 10.2898 30.2654C10.0204 30.6695 10.1296 31.2154 10.5337 31.4847C10.9377 31.7543 11.4837 31.645 11.753 31.241C14.1316 27.573 20.7705 27.8024 22.785 31.6391C19.8621 33.7082 17.0056 35.888 14.2623 38.1903C12.2602 37.3092 10.992 35.5861 10.992 33.6914C10.992 33.2058 10.5983 32.8121 10.1127 32.8121C9.62709 32.8121 9.2334 33.2058 9.2334 33.6914C9.2334 36.0429 10.5997 38.1801 12.8112 39.4287C11.517 40.5449 9.9019 41.9541 9.8808 41.9725C9.51489 42.2919 9.47714 42.8473 9.79638 43.2132C10.1984 43.5843 10.6119 43.6124 11.037 43.2976C16.184 38.813 21.4709 34.5795 27.1758 30.8137C27.5811 30.5461 27.6927 30.0007 27.4251 29.5954C27.1578 29.1904 26.6122 29.0785 26.2071 29.3462Z" fill="#CD0B09"/>
<path d="M46.2227 18.3545C45.8183 18.5287 45.424 18.7006 45.0387 18.8706C44.0853 15.7145 40.7045 13.74 37.3846 13.7759C30.4685 13.7033 26.587 21.3428 32.0503 25.6985C31.3838 26.104 30.6974 26.5269 29.9821 26.971C29.5695 27.2272 29.4427 27.7693 29.6988 28.1819C29.9514 28.5888 30.5022 28.7181 30.9097 28.4651C36.6078 24.9273 40.4568 22.7538 46.9185 19.9698C47.9718 19.4718 47.307 17.9309 46.2227 18.3545ZM31.2268 20.6287C31.4607 14.4199 41.7782 13.7496 43.4106 19.58C40.0832 21.1336 36.8325 22.841 33.6531 24.6785C32.1251 23.7147 31.2268 22.2296 31.2268 20.6287Z" fill="#CD0B09"/>
<path d="M13.4342 35.1935C13.8864 35.3842 14.418 35.148 14.5924 34.6934C14.9575 33.5872 13.4106 33.0035 12.9491 34.0702C12.784 34.5039 12.9991 35.0196 13.4342 35.1935Z" fill="#CD0B09"/>
<path d="M35.7604 18.8784C36.174 19.1502 36.7427 19.0266 37.0003 18.6019C37.5589 17.5795 36.1402 16.7265 35.4959 17.6929C35.2576 18.0887 35.3725 18.6231 35.7604 18.8784Z" fill="#CD0B09"/>
<path d="M40.2085 19.8938C40.62 20.1648 41.1947 20.0418 41.4496 19.6169C41.9971 18.6285 40.6468 17.7603 39.9733 18.6633C39.6996 19.0654 39.8078 19.6201 40.2085 19.8938Z" fill="#CD0B09"/>
<path d="M17.2632 19.8946C17.659 20.1716 18.2322 20.0417 18.4892 19.6409C19.0726 18.6421 17.7031 17.7449 17.0205 18.6765C16.7563 19.0738 16.8625 19.6307 17.2632 19.8946Z" fill="#CD0B09"/>
<path d="M17.5755 15.3872C17.9789 15.6531 18.5396 15.5406 18.8015 15.1323C19.3852 14.1324 18.0163 13.2363 17.3327 14.1679C17.0655 14.5699 17.1789 15.1167 17.5755 15.3872Z" fill="#CD0B09"/>
</g>
<defs>
<clipPath id="clip0_50_856">
<rect width="60" height="60" fill="white" transform="translate(0.882324)"/>
</clipPath>
</defs>
</svg>
