<svg width="24" height="24" viewBox="0 0 24 24" fill="none" xmlns="http://www.w3.org/2000/svg">
<g clip-path="url(#clip0_400_16089)">
<path d="M21.5 22H2.5C1.1 22 0 20.9 0 19.5V7.5C0 6.1 1.1 5 2.5 5H21.5C22.9 5 24 6.1 24 7.5V19.5C24 20.9 22.9 22 21.5 22ZM2.5 6C1.7 6 1 6.7 1 7.5V19.5C1 20.3 1.7 21 2.5 21H21.5C22.3 21 23 20.3 23 19.5V7.5C23 6.7 22.3 6 21.5 6H2.5Z" fill="#CD0B09"/>
<path d="M15.5 6C15.2 6 15 5.8 15 5.5V3.5C15 3.2 14.8 3 14.5 3H9.5C9.2 3 9 3.2 9 3.5V5.5C9 5.8 8.8 6 8.5 6C8.2 6 8 5.8 8 5.5V3.5C8 2.7 8.7 2 9.5 2H14.5C15.3 2 16 2.7 16 3.5V5.5C16 5.8 15.8 6 15.5 6Z" fill="#CD0B09"/>
<path d="M12.0002 13.9984C11.9002 13.9984 11.9002 13.9984 11.8002 13.9984L0.300231 9.99844C0.100231 9.89844 -0.0997686 9.59844 0.000231445 9.29844C0.100231 9.09844 0.400231 8.89844 0.700231 8.99844L12.0002 12.9984L23.3002 8.99844C23.6002 8.89844 23.8002 8.99844 23.9002 9.29844C24.0002 9.59844 23.9002 9.79844 23.6002 9.89844L12.1002 13.8984C12.1002 13.9984 12.1002 13.9984 12.0002 13.9984Z" fill="#CD0B09"/>
</g>
<defs>
<clipPath id="clip0_400_16089">
<rect width="24" height="24" fill="white"/>
</clipPath>
</defs>
</svg>
