<svg width="61" height="60" viewBox="0 0 61 60" fill="none" xmlns="http://www.w3.org/2000/svg">
<g clip-path="url(#clip0_50_892)">
<path d="M53.0313 53.3903C52.7567 53.0094 52.3125 52.7821 51.8429 52.7821H50.8695V23.6307C50.8695 23.1454 50.4761 22.7518 49.9906 22.7518C49.5051 22.7518 49.1117 23.1454 49.1117 23.6307V52.782H47.848C47.8481 52.6746 47.8445 52.5672 47.837 52.4596C47.6806 50.1922 45.7773 48.3488 43.5037 48.2626C42.5735 48.2271 41.6687 48.4733 40.8891 48.9739C40.7156 49.0854 40.4814 49.085 40.3065 48.9729C39.5792 48.506 38.7362 48.2593 37.8685 48.2593C37.0009 48.2593 36.1578 48.506 35.4304 48.9729C35.2558 49.0849 35.021 49.085 34.8464 48.9729C34.3695 48.6669 33.8403 48.4548 33.2877 48.3455V45.4399H36.9007C38.2164 45.4399 39.313 44.4955 39.5082 43.1944L43.6932 15.294C43.8578 14.1964 43.537 13.0846 42.8127 12.2438C42.0884 11.4028 41.0367 10.9205 39.9268 10.9205H33.2877V5.39789H49.1115V19.5292C49.1115 20.0146 49.5049 20.4081 49.9904 20.4081C50.4759 20.4081 50.8693 20.0146 50.8693 19.5292V5.39789H51.225C52.0327 5.39789 52.6898 4.74082 52.6898 3.93305V1.46484C52.6898 0.65707 52.0327 0 51.225 0H9.95176C9.14398 0 8.48691 0.65707 8.48691 1.46484V3.93305C8.48691 4.74082 9.14398 5.39789 9.95176 5.39789H10.3075V52.782H9.33418C8.86461 52.782 8.42035 53.0093 8.14578 53.3903C7.87121 53.7711 7.79598 54.2645 7.94445 54.71L9.24043 58.5976C9.5198 59.4364 10.3017 60 11.1859 60H49.9912C50.8753 60 51.6573 59.4364 51.9369 58.5977L53.2327 54.71C53.381 54.2645 53.3059 53.7711 53.0313 53.3903ZM33.8971 50.4521C34.6513 50.9362 35.6257 50.9362 36.3801 50.4521C36.8237 50.1675 37.3385 50.017 37.8687 50.017C38.399 50.017 38.9138 50.1675 39.3574 50.4521C40.1118 50.9364 41.0863 50.9366 41.8394 50.4527C42.3147 50.1475 42.8661 49.9973 43.4373 50.019C44.8257 50.0716 45.988 51.1968 46.0834 52.5805C46.088 52.6478 46.0903 52.7149 46.0902 52.7818H33.2879V50.1601C33.5015 50.232 33.7062 50.3297 33.8971 50.4521ZM31.5301 52.782H29.6469V45.4398H31.5301V52.782ZM36.9009 43.682H24.2761C23.8374 43.682 23.4719 43.3672 23.4069 42.9335L22.1448 34.5191H32.4078C32.8932 34.5191 33.2867 34.1256 33.2867 33.6402C33.2867 33.1548 32.8932 32.7613 32.4078 32.7613H21.8811L20.7796 25.4183H36.0478C36.5333 25.4183 36.9267 25.0248 36.9267 24.5394C36.9267 24.054 36.5333 23.6605 36.0478 23.6605H20.516L19.9518 19.8995C20.2248 19.9364 20.5317 19.9584 20.8811 19.9584C22.2956 19.9584 23.0363 19.6007 23.69 19.2851C24.2667 19.0065 24.7222 18.7866 25.7343 18.7866C26.7466 18.7866 27.2021 19.0065 27.7789 19.2851C28.4326 19.6007 29.1733 19.9584 30.5878 19.9584C32.0022 19.9584 32.7431 19.6007 33.3966 19.2851C33.9733 19.0065 34.4288 18.7866 35.4411 18.7866C36.4535 18.7866 36.909 19.0065 37.4859 19.2851C38.1395 19.6007 38.8803 19.9584 40.295 19.9584C40.6448 19.9584 40.9521 19.9364 41.2252 19.8994L39.842 29.1214H28.768C28.2826 29.1214 27.8891 29.515 27.8891 30.0004C27.8891 30.4857 28.2826 30.8793 28.768 30.8793H39.5783L38.477 38.2213H25.1286C24.6432 38.2213 24.2497 38.6148 24.2497 39.1002C24.2497 39.5856 24.6432 39.9791 25.1286 39.9791H38.2133L37.7702 42.9334C37.705 43.3672 37.3395 43.682 36.9009 43.682ZM41.4809 13.3908C41.8709 13.8436 42.0438 14.4423 41.9551 15.0333L41.5028 18.0489C41.1995 18.1376 40.8212 18.2007 40.295 18.2007C39.2826 18.2007 38.8271 17.9808 38.2502 17.7022C37.5966 17.3866 36.8558 17.0289 35.4411 17.0289C34.0266 17.0289 33.2858 17.3866 32.6322 17.7022C32.0555 17.9808 31.6 18.2007 30.5878 18.2007C29.5755 18.2007 29.12 17.9808 28.5432 17.7022C27.8895 17.3866 27.1488 17.0289 25.7342 17.0289C24.3198 17.0289 23.579 17.3866 22.9254 17.7022C22.3487 17.9808 21.8932 18.2007 20.881 18.2007C20.3553 18.2007 19.9773 18.1377 19.6741 18.0491L19.2218 15.0334C19.1332 14.4424 19.3059 13.8437 19.6959 13.3909C20.0859 12.9381 20.6523 12.6784 21.2499 12.6784H39.9271C40.5247 12.6783 41.0911 12.938 41.4809 13.3908ZM31.5301 10.9205H29.6469V5.39789H31.5301V10.9205ZM12.0652 5.39789H15.7754C16.2608 5.39789 16.6543 5.00437 16.6543 4.51898C16.6543 4.03359 16.2608 3.64008 15.7754 3.64008H10.2447V1.75781H50.9323V3.64008H19.8771C19.3917 3.64008 18.9982 4.03359 18.9982 4.51898C18.9982 5.00437 19.3917 5.39789 19.8771 5.39789H27.8892V10.9204H21.25C20.1402 10.9204 19.0884 11.4027 18.3642 12.2436C17.64 13.0846 17.319 14.1963 17.4836 15.2939L21.6686 43.1943C21.8639 44.4954 22.9604 45.4398 24.2762 45.4398H27.8892V48.3454C27.3365 48.4547 26.8073 48.6669 26.3305 48.9729C26.1559 49.0849 25.9211 49.085 25.7464 48.9729C25.0189 48.5061 24.176 48.2593 23.3083 48.2593C22.4407 48.2593 21.5977 48.506 20.8705 48.9728C20.6957 49.085 20.4615 49.0855 20.2878 48.9739C19.5084 48.4733 18.6034 48.2265 17.6734 48.2626C15.3999 48.3488 13.4966 50.1923 13.3401 52.4596C13.3327 52.5672 13.3291 52.6747 13.3292 52.782H12.0652V5.39789ZM50.2692 58.0418C50.2292 58.1617 50.1175 58.2422 49.9912 58.2422H11.1859C11.0595 58.2422 10.9479 58.1617 10.9079 58.0419L9.74047 54.5399H19.877C20.3623 54.5399 20.7559 54.1464 20.7559 53.661C20.7559 53.1756 20.3623 52.7821 19.877 52.7821H15.0869C15.0868 52.7152 15.089 52.6479 15.0937 52.5806C15.1891 51.1969 16.3515 50.0719 17.7399 50.0193C18.3102 49.9977 18.8623 50.1477 19.3378 50.453C20.0909 50.9367 21.0652 50.9365 21.8198 50.4523C22.2634 50.1676 22.778 50.0171 23.3083 50.0171C23.8386 50.0171 24.3534 50.1676 24.797 50.4521C25.5511 50.9362 26.5257 50.9362 27.2799 50.4521C27.4708 50.3297 27.6757 50.2318 27.8893 50.1602V52.782H23.9787C23.4934 52.782 23.0998 53.1755 23.0998 53.6609C23.0998 54.1463 23.4934 54.5398 23.9787 54.5398H51.4366L50.2692 58.0418Z" fill="#CD0B09"/>
</g>
<defs>
<clipPath id="clip0_50_892">
<rect width="60" height="60" fill="white" transform="translate(0.588379)"/>
</clipPath>
</defs>
</svg>
