<svg width="60" height="60" viewBox="0 0 60 60" fill="none" xmlns="http://www.w3.org/2000/svg">
<path d="M30 40C28.6193 40 27.5 41.1193 27.5 42.5C27.5 43.8807 28.6193 45 30 45C31.3807 45 32.5 43.8807 32.5 42.5C32.5 41.1193 31.3807 40 30 40Z" fill="#939393"/>
<path d="M28.125 35C28.125 36.0355 28.9645 36.875 30 36.875C31.0355 36.875 31.875 36.0355 31.875 35H28.125ZM31.875 17.5C31.875 16.4645 31.0355 15.625 30 15.625C28.9645 15.625 28.125 16.4645 28.125 17.5H31.875ZM53.125 30C53.125 42.7715 42.7715 53.125 30 53.125V56.875C44.8428 56.875 56.875 44.8428 56.875 30H53.125ZM30 53.125C17.2284 53.125 6.875 42.7715 6.875 30H3.125C3.125 44.8428 15.1574 56.875 30 56.875V53.125ZM6.875 30C6.875 17.2284 17.2284 6.875 30 6.875V3.125C15.1574 3.125 3.125 15.1574 3.125 30H6.875ZM30 6.875C42.7715 6.875 53.125 17.2284 53.125 30H56.875C56.875 15.1574 44.8428 3.125 30 3.125V6.875ZM31.875 35V17.5H28.125V35H31.875Z" fill="#939393"/>
</svg>
