<svg width="40" height="40" viewBox="0 0 40 40" fill="none" xmlns="http://www.w3.org/2000/svg">
<g clip-path="url(#clip0_50_846)">
<path d="M20.0001 0C31.0458 0 40 8.95422 40 19.9999C40 31.0455 31.0458 40.0001 20.0001 40.0001C8.95447 40.0001 -0.000118256 31.0455 -0.000118256 19.9999C0.0123329 8.95935 8.95923 0.0124511 20.0001 0ZM20.0001 37.9999C29.9413 37.9999 38.0001 29.941 38.0001 19.9999C38.0001 10.0587 29.9413 1.99988 20.0001 1.99988C10.059 1.99988 2.00013 10.0587 2.00013 19.9999C2.01148 29.9363 10.0637 37.9885 20.0001 37.9999Z" fill="#2C2220"/>
<path d="M22.3417 12.2472C22.7577 11.8836 23.3894 11.9261 23.7531 12.3417C24.1163 12.7577 24.0739 13.3895 23.6582 13.7531L16.5186 19.9999L23.6586 26.2471C24.0746 26.6108 24.1167 27.2425 23.7534 27.6581C23.3898 28.0742 22.7581 28.1166 22.342 27.753L14.3422 20.7529C14.125 20.5632 14.0005 20.2885 14.0005 19.9999C14.0005 19.7114 14.125 19.4371 14.3422 19.247L22.3417 12.2472Z" fill="#2C2220"/>
</g>
<defs>
<clipPath id="clip0_50_846">
<rect width="40" height="40" fill="white" transform="matrix(-1 0 0 1 40 0)"/>
</clipPath>
</defs>
</svg>
