<svg width="25" height="25" viewBox="0 0 25 25" fill="none" xmlns="http://www.w3.org/2000/svg">
<g clip-path="url(#clip0_410_799)">
<path d="M17.333 0.703125H3.83301C2.17851 0.703125 0.833008 2.04862 0.833008 3.70312V12.7031C0.833008 14.3576 2.17851 15.7031 3.83301 15.7031V19.4531C3.83301 19.7456 4.00401 20.0126 4.26951 20.1341C4.37001 20.1806 4.47651 20.2031 4.58301 20.2031C4.75851 20.2031 4.93251 20.1416 5.07051 20.0216L10.1105 15.7031H17.333C18.9875 15.7031 20.333 14.3576 20.333 12.7031V3.70312C20.333 2.04862 18.9875 0.703125 17.333 0.703125ZM18.833 12.7031C18.833 13.5296 18.1595 14.2031 17.333 14.2031H9.83301C9.65451 14.2031 9.48051 14.2661 9.34551 14.3846L5.33301 17.8226V14.9531C5.33301 14.5391 4.99701 14.2031 4.58301 14.2031H3.83301C3.00651 14.2031 2.33301 13.5296 2.33301 12.7031V3.70312C2.33301 2.87663 3.00651 2.20312 3.83301 2.20312H17.333C18.1595 2.20312 18.833 2.87663 18.833 3.70312V12.7031Z" fill="#CD0B09"/>
<path d="M22.8275 5.37719C22.4345 5.24219 22.01 5.44919 21.8735 5.84219C21.7385 6.23369 21.9455 6.65969 22.3385 6.79619C22.9325 7.00019 23.333 7.56569 23.333 8.20169V17.2017C23.333 18.0282 22.6595 18.7017 21.833 18.7017H21.083C20.669 18.7017 20.333 19.0377 20.333 19.4517V22.3212L16.3205 18.8832C16.1855 18.7647 16.0115 18.7017 15.833 18.7017H9.18799C8.77399 18.7017 8.43799 19.0377 8.43799 19.4517C8.43799 19.8657 8.77249 20.2017 9.18799 20.2017H15.5555L20.5955 24.5202C20.7335 24.6402 20.9075 24.7017 21.083 24.7017C21.1895 24.7017 21.296 24.6792 21.3965 24.6327C21.662 24.5112 21.833 24.2442 21.833 23.9517V20.2017C23.4875 20.2017 24.833 18.8562 24.833 17.2017V8.20169C24.833 6.92669 24.0275 5.79119 22.8275 5.37719Z" fill="#CD0B09"/>
<path d="M15.083 5.20312H6.08301C5.66901 5.20312 5.33301 5.53913 5.33301 5.95312C5.33301 6.36713 5.66901 6.70312 6.08301 6.70312H15.083C15.497 6.70312 15.833 6.36713 15.833 5.95312C15.833 5.53913 15.497 5.20312 15.083 5.20312Z" fill="#CD0B09"/>
<path d="M12.083 8.20312H6.08301C5.66901 8.20312 5.33301 8.53913 5.33301 8.95312C5.33301 9.36713 5.66901 9.70312 6.08301 9.70312H12.083C12.497 9.70312 12.833 9.36713 12.833 8.95312C12.833 8.53913 12.497 8.20312 12.083 8.20312Z" fill="#CD0B09"/>
</g>
<defs>
<clipPath id="clip0_410_799">
<rect width="24" height="24" fill="white" transform="translate(0.833008 0.703125)"/>
</clipPath>
</defs>
</svg>
