<svg width="25" height="20" viewBox="0 0 25 20" fill="none" xmlns="http://www.w3.org/2000/svg">
<path d="M22.4062 4.82812C22.4062 5.0625 22.4062 5.25 22.4062 5.48438C22.4062 12 17.4844 19.4531 8.4375 19.4531C5.625 19.4531 3.04688 18.6562 0.890625 17.25C1.26562 17.2969 1.64062 17.3438 2.0625 17.3438C4.35938 17.3438 6.46875 16.5469 8.15625 15.2344C6 15.1875 4.17188 13.7812 3.5625 11.8125C3.89062 11.8594 4.17188 11.9062 4.5 11.9062C4.92188 11.9062 5.39062 11.8125 5.76562 11.7188C3.51562 11.25 1.82812 9.28125 1.82812 6.89062V6.84375C2.48438 7.21875 3.28125 7.40625 4.07812 7.45312C2.71875 6.5625 1.875 5.0625 1.875 3.375C1.875 2.4375 2.10938 1.59375 2.53125 0.890625C4.96875 3.84375 8.625 5.8125 12.7031 6.04688C12.6094 5.67188 12.5625 5.29688 12.5625 4.92188C12.5625 2.20312 14.7656 0 17.4844 0C18.8906 0 20.1562 0.5625 21.0938 1.54688C22.1719 1.3125 23.25 0.890625 24.1875 0.328125C23.8125 1.5 23.0625 2.4375 22.0312 3.04688C23.0156 2.95312 24 2.67188 24.8438 2.29688C24.1875 3.28125 23.3438 4.125 22.4062 4.82812Z" fill="white"/>
</svg>
