<svg width="30" height="30" viewBox="0 0 30 30" fill="none" xmlns="http://www.w3.org/2000/svg">
<path fill-rule="evenodd" clip-rule="evenodd" d="M15 1.5625C10.3463 1.5625 6.5625 5.38 6.5625 10.0888C6.5625 11.6838 7.265 13.6625 8.2875 15.6363C10.5388 19.9825 14.2887 24.36 14.2887 24.36C14.4662 24.5675 14.7262 24.6875 15 24.6875C15.2738 24.6875 15.5338 24.5675 15.7113 24.36C15.7113 24.36 19.4613 19.9825 21.7125 15.6363C22.735 13.6625 23.4375 11.6838 23.4375 10.0888C23.4375 5.38 19.6538 1.5625 15 1.5625ZM15 3.4375C18.625 3.4375 21.5625 6.42125 21.5625 10.0888C21.5625 11.9213 20.4 14.3088 19.0575 16.535C17.6175 18.9225 15.9325 21.115 15 22.275C14.0675 21.115 12.3825 18.9225 10.9425 16.535C9.6 14.3088 8.4375 11.9213 8.4375 10.0888C8.4375 6.42125 11.375 3.4375 15 3.4375Z" fill="#CD0B09"/>
<path fill-rule="evenodd" clip-rule="evenodd" d="M15 6.5625C13.1025 6.5625 11.5625 8.1025 11.5625 10C11.5625 11.8975 13.1025 13.4375 15 13.4375C16.8975 13.4375 18.4375 11.8975 18.4375 10C18.4375 8.1025 16.8975 6.5625 15 6.5625ZM15 8.4375C15.8625 8.4375 16.5625 9.1375 16.5625 10C16.5625 10.8625 15.8625 11.5625 15 11.5625C14.1375 11.5625 13.4375 10.8625 13.4375 10C13.4375 9.1375 14.1375 8.4375 15 8.4375Z" fill="#CD0B09"/>
<path fill-rule="evenodd" clip-rule="evenodd" d="M20.98 21.7228C21.9963 22.0278 22.8337 22.4053 23.4125 22.8478C23.7875 23.1328 24.0625 23.4115 24.0625 23.7515C24.0625 23.9515 23.9487 24.1328 23.7887 24.314C23.5238 24.6128 23.13 24.8815 22.6425 25.1315C20.92 26.0128 18.135 26.564 15 26.564C11.865 26.564 9.08 26.0128 7.3575 25.1315C6.87 24.8815 6.47625 24.6128 6.21125 24.314C6.05125 24.1328 5.9375 23.9515 5.9375 23.7515C5.9375 23.4115 6.2125 23.1328 6.5875 22.8478C7.16625 22.4053 8.00375 22.0278 9.02 21.7228C9.515 21.574 9.79625 21.0503 9.6475 20.5553C9.49875 20.059 8.975 19.7778 8.48 19.9265C6.9325 20.3928 5.73 21.0315 5.0075 21.7378C4.3725 22.3565 4.0625 23.049 4.0625 23.7515C4.0625 24.629 4.55875 25.504 5.5675 26.234C7.3375 27.514 10.8925 28.439 15 28.439C19.1075 28.439 22.6625 27.514 24.4325 26.234C25.4412 25.504 25.9375 24.629 25.9375 23.7515C25.9375 23.049 25.6275 22.3565 24.9925 21.7378C24.27 21.0315 23.0675 20.3928 21.52 19.9265C21.025 19.7778 20.5012 20.059 20.3525 20.5553C20.2037 21.0503 20.485 21.574 20.98 21.7228Z" fill="#CD0B09"/>
</svg>
