<svg width="16" height="16" viewBox="0 0 16 16" fill="none" xmlns="http://www.w3.org/2000/svg">
<path d="M8.03083 1.25001C7.85802 1.24876 7.71708 1.38782 7.71583 1.56032C7.71458 1.73282 7.85333 1.87376 8.02614 1.87501C8.19864 1.87626 8.33958 1.73751 8.34083 1.56501C8.34208 1.39251 8.20333 1.25157 8.03083 1.25001Z" fill="black"/>
<path d="M8.01644 3.12506C6.80985 3.11649 5.82169 4.0899 5.81256 5.29612C5.80347 6.50228 6.77741 7.49091 7.98363 7.5C7.98922 7.50003 7.99479 7.50006 8.00038 7.50006C9.19891 7.50006 10.1784 6.52956 10.1875 5.32894C10.1966 4.12284 9.22269 3.13415 8.01644 3.12506ZM8.00032 6.87509C7.99638 6.87509 7.99225 6.87506 7.98832 6.87503C7.12672 6.86853 6.43103 6.16234 6.43753 5.30081C6.444 4.44315 7.14363 3.74996 7.99975 3.74996C8.00369 3.74996 8.00782 3.74999 8.01175 3.75003C8.87335 3.75653 9.56904 4.46272 9.56254 5.32425C9.55604 6.18191 8.85644 6.87509 8.00032 6.87509Z" fill="black"/>
<path d="M9.36329 1.4868C9.20073 1.42911 9.02201 1.51427 8.96433 1.67696C8.90667 1.83965 8.99182 2.01824 9.15448 2.07593C10.531 2.56377 11.4483 3.87474 11.4373 5.33809C11.436 5.51065 11.5749 5.65162 11.7475 5.65293C11.7482 5.65293 11.749 5.65293 11.7499 5.65293C11.9213 5.65293 12.061 5.51456 12.0623 5.34278C12.0753 3.61318 10.9906 2.06358 9.36329 1.4868Z" fill="black"/>
<path d="M9.91754 11.7638C11.9961 9.08836 13.295 7.6932 13.3126 5.35245C13.3346 2.40735 10.9445 0 7.99963 0C5.08912 0 2.7098 2.35713 2.68768 5.27276C2.6698 7.67698 3.9929 9.07024 6.08578 11.7634C4.00374 12.0745 2.68768 12.8563 2.68768 13.8125C2.68768 14.4531 3.27974 15.0278 4.35484 15.431C5.33337 15.7979 6.62797 16 8.00013 16C9.37229 16 10.6669 15.7979 11.6454 15.431C12.7205 15.0278 13.3126 14.453 13.3126 13.8125C13.3126 12.8568 11.9977 12.0752 9.91754 11.7638ZM3.31265 5.27748C3.33215 2.70469 5.43137 0.625001 7.99969 0.625001C10.5984 0.625001 12.707 2.74963 12.6876 5.34779C12.671 7.57073 11.2934 8.94064 9.09413 11.8076C8.70185 12.3187 8.3416 12.802 8.0006 13.2747C7.6606 12.8017 7.30753 12.3271 6.90937 11.8074C4.61918 8.82042 3.29571 7.55405 3.31265 5.27748ZM8.00013 15.375C5.31728 15.375 3.31265 14.5501 3.31265 13.8125C3.31265 13.2655 4.51103 12.5745 6.52597 12.3352C6.97137 12.9197 7.36188 13.4506 7.74488 13.9928C7.80338 14.0757 7.89844 14.125 7.99985 14.125C7.99994 14.125 8.00003 14.125 8.00013 14.125C8.10144 14.125 8.19647 14.0759 8.25506 13.9932C8.63444 13.4581 9.03563 12.914 9.47722 12.3356C11.4903 12.5751 12.6876 13.2659 12.6876 13.8126C12.6876 14.5501 10.683 15.375 8.00013 15.375Z" fill="black"/>
</svg>
