<svg width="16" height="16" viewBox="0 0 16 16" fill="none" xmlns="http://www.w3.org/2000/svg">
<path fill-rule="evenodd" clip-rule="evenodd" d="M10.6668 13.3346C10.8509 13.3346 11.0002 13.1854 11.0002 13.0013C11.0002 12.8172 10.8509 12.668 10.6668 12.668C10.4827 12.668 10.3335 12.8172 10.3335 13.0013C10.3335 13.1854 10.4827 13.3346 10.6668 13.3346ZM10.6668 14.3346C11.4032 14.3346 12.0002 13.7377 12.0002 13.0013C12.0002 12.2649 11.4032 11.668 10.6668 11.668C9.93046 11.668 9.3335 12.2649 9.3335 13.0013C9.3335 13.7377 9.93046 14.3346 10.6668 14.3346Z" fill="black"/>
<path fill-rule="evenodd" clip-rule="evenodd" d="M6.66683 13.3346C6.85093 13.3346 7.00016 13.1854 7.00016 13.0013C7.00016 12.8172 6.85093 12.668 6.66683 12.668C6.48273 12.668 6.3335 12.8172 6.3335 13.0013C6.3335 13.1854 6.48273 13.3346 6.66683 13.3346ZM6.66683 14.3346C7.4032 14.3346 8.00016 13.7377 8.00016 13.0013C8.00016 12.2649 7.4032 11.668 6.66683 11.668C5.93046 11.668 5.3335 12.2649 5.3335 13.0013C5.3335 13.7377 5.93046 14.3346 6.66683 14.3346Z" fill="black"/>
<path fill-rule="evenodd" clip-rule="evenodd" d="M1.91752 2.05669C2.0707 1.82692 2.38113 1.76484 2.6109 1.91801L3.38957 2.43712C3.63827 2.60292 3.81384 2.85783 3.88007 3.14929L5.2519 9.1854C5.33814 9.5648 5.67544 9.83403 6.06454 9.83403H11.2692C11.6583 9.83403 11.9956 9.5648 12.0819 9.1854L13.1425 4.51873C13.261 3.99727 12.8646 3.5007 12.3298 3.5007H7.16687C6.89074 3.5007 6.66687 3.27685 6.66687 3.00071C6.66687 2.72456 6.89074 2.50071 7.16687 2.50071H12.3298C13.5063 2.50071 14.3783 3.5931 14.1176 4.74033L13.057 9.407C12.8673 10.2417 12.1252 10.834 11.2692 10.834H6.06454C5.20854 10.834 4.46647 10.2417 4.27677 9.407L2.90494 3.3709C2.89547 3.32928 2.87039 3.29286 2.83486 3.26917L2.0562 2.75006C1.82643 2.59689 1.76435 2.28645 1.91752 2.05669Z" fill="black"/>
<path fill-rule="evenodd" clip-rule="evenodd" d="M6.66336 6.6878C6.85853 6.49244 7.17509 6.49227 7.37046 6.68744L7.96019 7.27657L9.96336 5.2734C10.1586 5.07814 10.4752 5.07814 10.6705 5.2734C10.8657 5.46867 10.8657 5.78524 10.6705 5.9805L8.31393 8.33707C8.11873 8.53224 7.80229 8.53234 7.60699 8.33724L6.66369 7.3949C6.46836 7.19974 6.46819 6.88314 6.66336 6.6878Z" fill="black"/>
</svg>
