<svg width="30" height="30" viewBox="0 0 30 30" fill="none" xmlns="http://www.w3.org/2000/svg">
<g clip-path="url(#clip0_410_456)">
<path d="M21.8636 28.1349C21.5909 28.1349 21.4091 28.3168 21.4091 28.5895V29.0895H0.909091V5.6804H5.5C5.27273 6.40767 5.31818 6.90767 5.31818 7.40767C5.31818 7.6804 5.5 7.86222 5.77273 7.86222H16.5909C16.8636 7.86222 17.0455 7.6804 17.0455 7.40767C17.0455 6.90767 17.0909 6.40767 16.8636 5.6804H21.4545V8.81676C21.4545 9.08949 21.6364 9.27131 21.9091 9.27131C22.1818 9.27131 22.3636 9.08949 22.3636 8.81676V5.22585C22.3636 4.95313 22.1818 4.77131 21.9091 4.77131H16.4545C16 3.95313 15.2727 3.31676 14.3636 2.86222C14.2727 1.27131 12.8636 -0.046875 11.1818 -0.046875C9.5 -0.046875 8.09091 1.22585 8 2.86222C7.09091 3.27131 6.40909 3.95313 5.90909 4.77131H0.454545C0.181818 4.77131 0 4.95313 0 5.22585V29.544C0 29.8168 0.181818 29.9986 0.454545 29.9986H21.8636C22.1364 29.9986 22.3182 29.8168 22.3182 29.544V28.5895C22.3182 28.3622 22.0909 28.1349 21.8636 28.1349ZM8.59091 3.58949C8.77273 3.49858 8.90909 3.31676 8.86364 3.04403C8.86364 1.86222 9.86364 0.90767 11.1364 0.90767C12.4091 0.90767 13.4091 1.86222 13.4091 3.04403C13.3636 3.31676 13.5 3.49858 13.6818 3.58949C15.1364 4.13494 16.0455 5.45313 16.0909 6.95313H6.22727C6.22727 5.49858 7.18182 4.1804 8.59091 3.58949Z" fill="#2C2220"/>
<path d="M11.1365 5.31499C12.091 5.31499 12.9092 4.54226 12.9092 3.54226C12.9092 2.54226 12.1365 1.76953 11.1365 1.76953C10.182 1.76953 9.36377 2.54226 9.36377 3.54226C9.36377 4.54226 10.182 5.31499 11.1365 5.31499ZM11.1365 2.67862C11.591 2.67862 12.0001 3.04226 12.0001 3.54226C12.0001 4.04226 11.6365 4.40589 11.1365 4.40589C10.682 4.40589 10.2729 4.04226 10.2729 3.54226C10.2729 3.04226 10.682 2.67862 11.1365 2.67862Z" fill="#2C2220"/>
<path d="M6.68164 10.5913C6.68164 10.3185 6.49982 10.1367 6.2271 10.1367H3.13619C2.86346 10.1367 2.68164 10.3185 2.68164 10.5913V13.9094C2.68164 14.1822 2.86346 14.364 3.13619 14.364H6.2271C6.49982 14.364 6.68164 14.1822 6.68164 13.9094V10.5913ZM5.77255 13.4094H3.59073V11.0004H5.77255V13.4094Z" fill="#2C2220"/>
<path d="M6.68164 16.6811C6.68164 16.4084 6.49982 16.2266 6.2271 16.2266H3.13619C2.86346 16.2266 2.68164 16.4084 2.68164 16.6811V19.9993C2.68164 20.272 2.86346 20.4538 3.13619 20.4538H6.2271C6.49982 20.4538 6.68164 20.272 6.68164 19.9993V16.6811ZM5.77255 19.5447H3.59073V17.1357H5.77255V19.5447Z" fill="#2C2220"/>
<path d="M6.2271 22.3633H3.13619C2.86346 22.3633 2.68164 22.5451 2.68164 22.8178V26.136C2.68164 26.4087 2.86346 26.5906 3.13619 26.5906H6.2271C6.49982 26.5906 6.68164 26.4087 6.68164 26.136V22.8178C6.68164 22.5451 6.45437 22.3633 6.2271 22.3633ZM5.77255 25.6815H3.59073V23.2724H5.77255V25.6815Z" fill="#2C2220"/>
<path d="M29.7272 14.5447L21.4545 10.0447C21.3181 9.95384 21.1363 9.95384 21.0454 10.0447C20.4999 10.3175 13.909 13.8629 12.8181 14.4538C12.6817 14.5447 12.5908 14.7266 12.5908 14.8629V22.1357C12.5908 22.272 12.6817 22.4538 12.8181 22.4993L21.0454 27.6811C21.1817 27.772 21.3635 27.772 21.4999 27.6811L29.7726 23.272C29.909 23.1811 29.9999 23.0447 29.9999 22.8629V14.9538C29.9999 14.8175 29.909 14.6357 29.7272 14.5447ZM21.2726 10.9538L28.6363 14.9538L26.7272 15.9993L19.3635 11.9538L21.2726 10.9538ZM24.909 17.2266L17.2726 13.0902L18.3635 12.4993L26.2272 16.8175V19.0447L25.1363 19.6357V17.6357C25.1363 17.4538 25.0454 17.272 24.909 17.2266ZM16.3181 13.5902L23.7272 17.6357L21.2726 18.9993L13.9545 14.8629L16.3181 13.5902ZM13.4545 21.8175V15.5902L20.7726 19.7266V26.4538L13.4545 21.8175ZM21.7272 26.4993V19.772L24.2272 18.4084V20.4084C24.2272 20.5902 24.3181 20.7266 24.4545 20.8175C24.5908 20.9084 24.7726 20.9084 24.909 20.8175L26.909 19.7266C27.0454 19.6357 27.1363 19.4993 27.1363 19.3175V16.8175L29.0908 15.772V22.6357L21.7272 26.4993Z" fill="#2C2220"/>
<path d="M14.9091 12.2241C14.9091 11.9513 14.7273 11.7695 14.4545 11.7695H7.95455C7.68182 11.7695 7.5 11.9513 7.5 12.2241C7.5 12.4968 7.68182 12.6786 7.95455 12.6786H14.4545C14.6818 12.6786 14.9091 12.4968 14.9091 12.2241Z" fill="#2C2220"/>
<path d="M11.6819 17.9062H7.90914C7.63641 17.9062 7.45459 18.0881 7.45459 18.3608C7.45459 18.6335 7.63641 18.8153 7.90914 18.8153H11.6819C11.9546 18.8153 12.1364 18.6335 12.1364 18.3608C12.1364 18.0881 11.9091 17.9062 11.6819 17.9062Z" fill="#2C2220"/>
<path d="M7.18164 24.4545C7.18164 24.7273 7.36346 24.9091 7.63619 24.9091H13.5907C13.8635 24.9091 14.0453 24.7273 14.0453 24.4545C14.0453 24.1818 13.8635 24 13.5907 24H7.63619C7.40891 24 7.18164 24.2273 7.18164 24.4545Z" fill="#2C2220"/>
</g>
<defs>
<clipPath id="clip0_410_456">
<rect width="30" height="30" fill="white"/>
</clipPath>
</defs>
</svg>
