<svg width="64" height="63" viewBox="0 0 64 63" fill="none" xmlns="http://www.w3.org/2000/svg">
<g clip-path="url(#clip0_593_1858)">
<circle cx="31.9483" cy="31.4483" r="30.4483" fill="white" stroke="#939393" stroke-width="2"/>
<g clip-path="url(#clip1_593_1858)">
<path d="M46.7945 21.6736C46.4058 21.2141 45.8615 20.9334 45.2616 20.8833L24.1353 19.1193C23.5354 19.0692 22.9522 19.2557 22.4927 19.6444C22.035 20.0315 21.7547 20.5731 21.703 21.17L21.278 25.1576H19.5809C18.3384 25.1576 17.3276 26.1684 17.3276 27.4108V40.6355C17.3276 41.8779 18.3384 42.8887 19.5809 42.8887H40.7807C42.0232 42.8887 43.034 41.8779 43.034 40.6355V38.4902L43.7863 38.553C43.8498 38.5583 43.9129 38.5609 43.9754 38.5609C45.1337 38.5609 46.1211 37.6698 46.2192 36.4951L47.3197 23.3163C47.3697 22.7165 47.1832 22.1331 46.7945 21.6736ZM19.5809 26.3295H40.7807C41.377 26.3295 41.8622 26.8146 41.8622 27.4108V28.6159H18.4995V27.4108C18.4995 26.8146 18.9846 26.3295 19.5809 26.3295ZM18.4995 29.7877H41.8622V32.2187H18.4995V29.7877ZM40.7807 41.7169H19.5809C18.9846 41.7169 18.4995 41.2318 18.4995 40.6355V33.3906H41.8622V40.6355C41.8622 41.2318 41.377 41.7169 40.7807 41.7169ZM46.1518 23.2188L45.0514 36.3976C45.0018 36.9918 44.4779 37.435 43.8838 37.3852L43.034 37.3143V27.4108C43.034 26.1684 42.0232 25.1576 40.7807 25.1576H22.4566L22.869 21.2881C22.8695 21.2837 22.8699 21.2793 22.8702 21.2747C22.9199 20.6805 23.4435 20.2373 24.0378 20.2872L45.1642 22.0512C45.4521 22.0752 45.7133 22.2099 45.8998 22.4304C46.0863 22.651 46.1759 22.9309 46.1518 23.2188Z" fill="#939393"/>
<path d="M39.4102 35.1328H33.771C33.4474 35.1328 33.1851 35.3951 33.1851 35.7187V39.3978C33.1851 39.7214 33.4474 39.9837 33.771 39.9837H39.4102C39.7338 39.9837 39.9961 39.7214 39.9961 39.3978V35.7187C39.9961 35.3951 39.7338 35.1328 39.4102 35.1328ZM38.8242 38.8119H34.3569V36.3047H38.8242V38.8119Z" fill="#939393"/>
</g>
</g>
<defs>
<clipPath id="clip0_593_1858">
<rect width="62.8966" height="62.8966" fill="white" transform="translate(0.5)"/>
</clipPath>
<clipPath id="clip1_593_1858">
<rect width="30" height="30" fill="white" transform="translate(17.3276 16)"/>
</clipPath>
</defs>
</svg>
