<svg width="24" height="24" viewBox="0 0 24 24" fill="none" xmlns="http://www.w3.org/2000/svg">
<path d="M14.2163 22.7509C13.709 22.7509 13.2558 22.3802 12.8155 22.0202C12.5465 21.7999 12.1778 21.4984 11.9998 21.4984C11.822 21.4984 11.4532 21.7999 11.1842 22.0202C10.702 22.4144 10.155 22.8627 9.55275 22.7247C8.93125 22.5834 8.627 21.9299 8.3585 21.3537C8.2245 21.0654 8.0215 20.6297 7.87725 20.5599C7.72425 20.4852 7.24925 20.6004 6.935 20.6759C6.32325 20.8232 5.63025 20.9892 5.14025 20.5984C4.6485 20.2057 4.65725 19.4904 4.6655 18.8597C4.6695 18.5379 4.6755 18.0519 4.572 17.9219C4.46975 17.7939 3.9965 17.6927 3.68325 17.6257C3.06375 17.4932 2.36225 17.3429 2.08725 16.7729C1.81625 16.2117 2.1325 15.5752 2.411 15.0137C2.55575 14.7227 2.77425 14.2824 2.736 14.1137C2.7015 13.9624 2.325 13.6702 2.076 13.4767C1.57175 13.0857 1 12.6417 1 11.9997C1 11.3577 1.57175 10.9139 2.07625 10.5224C2.32525 10.3292 2.70175 10.0369 2.73625 9.88541C2.7745 9.71666 2.556 9.27641 2.4115 8.98516C2.13275 8.42366 1.81675 7.78741 2.088 7.22566C2.363 6.65591 3.0645 6.50566 3.68375 6.37316C3.997 6.30616 4.47025 6.20491 4.57225 6.07716C4.67625 5.94691 4.67025 5.46066 4.66625 5.13891C4.65825 4.50816 4.6495 3.79316 5.141 3.40041C5.63075 3.00941 6.32425 3.17591 6.93575 3.32291C7.2505 3.39841 7.725 3.51266 7.87775 3.43916C8.02225 3.36941 8.225 2.93391 8.35925 2.64541C8.6275 2.06891 8.9315 1.41566 9.553 1.27441C10.1545 1.13791 10.7025 1.58441 11.1845 1.97891C11.4537 2.19916 11.8225 2.50066 12.0002 2.50066C12.178 2.50066 12.5468 2.19916 12.8158 1.97916C13.2983 1.58441 13.845 1.13691 14.4475 1.27441C15.0688 1.41566 15.373 2.06916 15.6415 2.64566C15.7758 2.93391 15.9785 3.36966 16.123 3.43941C16.2762 3.51316 16.7505 3.39866 17.0648 3.32316C17.6765 3.17616 18.3698 3.00966 18.8598 3.40066C19.3515 3.79341 19.3427 4.50841 19.3345 5.13941C19.3305 5.46116 19.3245 5.94741 19.428 6.07716C19.5302 6.20491 20.0035 6.30641 20.3167 6.37341C20.9362 6.50591 21.6378 6.65591 21.9128 7.22591C22.1838 7.78741 21.8675 8.42391 21.589 8.98541C21.4443 9.27666 21.2257 9.71666 21.264 9.88541C21.2985 10.0369 21.675 10.3292 21.924 10.5224C22.4282 10.9139 23 11.3577 23 11.9997C23 12.6417 22.4282 13.0854 21.9237 13.4769C21.6747 13.6702 21.2983 13.9622 21.2638 14.1142C21.2255 14.2829 21.444 14.7229 21.5885 15.0142C21.8672 15.5757 22.1833 16.2119 21.912 16.7737C21.637 17.3434 20.9355 17.4937 20.3162 17.6259C20.003 17.6932 19.5297 17.7944 19.4275 17.9222C19.3237 18.0524 19.3298 18.5387 19.3337 18.8604C19.3417 19.4909 19.3505 20.2059 18.859 20.5987C18.3692 20.9897 17.6758 20.8229 17.0643 20.6762C16.7495 20.6007 16.275 20.4859 16.1222 20.5602C15.9777 20.6297 15.775 21.0654 15.6407 21.3537C15.3725 21.9304 15.0685 22.5837 14.447 22.7249C14.369 22.7427 14.292 22.7509 14.2163 22.7509ZM7.7225 19.5372C7.92975 19.5372 8.1285 19.5707 8.31175 19.6589C8.7775 19.8834 9.0255 20.4162 9.26525 20.9314C9.384 21.1864 9.631 21.7169 9.77425 21.7494C9.9075 21.7729 10.3425 21.4162 10.551 21.2457C11.0005 20.8782 11.465 20.4982 11.9998 20.4982C12.5345 20.4982 12.9992 20.8784 13.4485 21.2457C13.657 21.4162 14.079 21.7659 14.2257 21.7494C14.3685 21.7167 14.6158 21.1864 14.7343 20.9314C14.9738 20.4162 15.2218 19.8839 15.6877 19.6589C16.1617 19.4302 16.7388 19.5694 17.2975 19.7037C17.5662 19.7682 18.1265 19.9029 18.2345 19.8169C18.3443 19.7294 18.337 19.1507 18.3335 18.8727C18.3263 18.2997 18.3188 17.7074 18.6458 17.2979C18.9708 16.8909 19.548 16.7674 20.1065 16.6479C20.38 16.5894 20.9487 16.4677 21.011 16.3389C21.069 16.2182 20.8145 15.7052 20.6922 15.4587C20.436 14.9424 20.1707 14.4084 20.2882 13.8924C20.402 13.3919 20.8637 13.0334 21.31 12.6869C21.5515 12.4999 22 12.1519 22 11.9997C22 11.8474 21.5515 11.4994 21.3105 11.3122C20.864 10.9657 20.4023 10.6074 20.2885 10.1067C20.1712 9.59066 20.4365 9.05666 20.6928 8.54041C20.815 8.29391 21.0697 7.78116 21.0115 7.66016C20.9492 7.53116 20.3805 7.40966 20.1073 7.35116C19.5487 7.23166 18.9713 7.10816 18.6462 6.70141C18.3195 6.29216 18.327 5.69966 18.3342 5.12691C18.3377 4.84891 18.345 4.26991 18.2353 4.18241C18.1278 4.09641 17.5673 4.23116 17.298 4.29566C16.7395 4.42991 16.1625 4.56891 15.6882 4.34016C15.2225 4.11541 14.9745 3.58291 14.7347 3.06791C14.616 2.81291 14.3693 2.28241 14.2257 2.24991C14.0883 2.22616 13.6572 2.58316 13.4487 2.75341C12.9995 3.12116 12.535 3.50116 12.0002 3.50116C11.4655 3.50116 11.001 3.12091 10.5515 2.75341C10.343 2.58291 9.908 2.22766 9.77425 2.24966C9.63125 2.28216 9.384 2.81266 9.2655 3.06766C9.02575 3.58266 8.778 4.11516 8.31225 4.33991C7.83825 4.56841 7.26125 4.42991 6.70225 4.29541C6.4335 4.23066 5.87275 4.09616 5.76525 4.18191C5.6555 4.26966 5.66275 4.84841 5.66625 5.12641C5.6735 5.69941 5.681 6.29191 5.354 6.70091C5.029 7.10791 4.45175 7.23141 3.89325 7.35091C3.61975 7.40941 3.051 7.53116 2.98875 7.65991C2.93075 7.78066 3.18525 8.29366 3.3075 8.54016C3.56375 9.05641 3.829 9.59041 3.7115 10.1064C3.59775 10.6069 3.136 10.9654 2.68975 11.3119C2.4485 11.4994 2 11.8474 2 11.9997C2 12.1519 2.4485 12.5002 2.6895 12.6872C3.136 13.0337 3.59775 13.3917 3.7115 13.8924C3.82875 14.4084 3.5635 14.9422 3.30725 15.4587C3.185 15.7052 2.93025 16.2179 2.9885 16.3389C3.05075 16.4682 3.6195 16.5897 3.893 16.6482C4.45125 16.7677 5.02875 16.8912 5.35375 17.2982C5.6805 17.7074 5.673 18.2997 5.66575 18.8727C5.66225 19.1507 5.655 19.7297 5.76475 19.8172C5.87225 19.9019 6.43275 19.7684 6.702 19.7037C7.04425 19.6212 7.394 19.5372 7.7225 19.5372ZM8.8535 15.8532L15.8535 8.85316C16.0487 8.65791 16.0487 8.34141 15.8535 8.14616C15.6583 7.95091 15.3417 7.95091 15.1465 8.14616L8.1465 15.1462C7.95125 15.3414 7.95125 15.6579 8.1465 15.8532C8.24425 15.9509 8.372 15.9997 8.5 15.9997C8.628 15.9997 8.75575 15.9509 8.8535 15.8532ZM9.5 11.2497C8.53525 11.2497 7.75 10.4647 7.75 9.49966C7.75 8.53466 8.53525 7.74966 9.5 7.74966C10.4648 7.74966 11.25 8.53466 11.25 9.49966C11.25 10.4647 10.4648 11.2497 9.5 11.2497ZM9.5 8.74966C9.0865 8.74966 8.75 9.08616 8.75 9.49966C8.75 9.91316 9.0865 10.2497 9.5 10.2497C9.9135 10.2497 10.25 9.91316 10.25 9.49966C10.25 9.08616 9.9135 8.74966 9.5 8.74966ZM14.5 16.2497C13.5352 16.2497 12.75 15.4644 12.75 14.4997C12.75 13.5349 13.5352 12.7497 14.5 12.7497C15.4648 12.7497 16.25 13.5349 16.25 14.4997C16.25 15.4644 15.4648 16.2497 14.5 16.2497ZM14.5 13.7497C14.0865 13.7497 13.75 14.0862 13.75 14.4997C13.75 14.9132 14.0865 15.2497 14.5 15.2497C14.9135 15.2497 15.25 14.9132 15.25 14.4997C15.25 14.0862 14.9135 13.7497 14.5 13.7497Z" fill="#CD0B09"/>
</svg>
