<svg width="64" height="63" viewBox="0 0 64 63" fill="none" xmlns="http://www.w3.org/2000/svg">
<g clip-path="url(#clip0_617_327)">
<circle cx="32.3619" cy="31.4483" r="30.4483" fill="white" stroke="#939393" stroke-width="2"/>
<path d="M45.7566 32.7038C45.756 32.1615 45.5403 31.6416 45.1569 31.2581C44.7734 30.8747 44.2535 30.659 43.7112 30.6584H36.5767C37.2233 29.7928 37.5733 28.7418 37.5748 27.6614V24.522C37.5748 23.9795 37.3593 23.4593 36.9757 23.0757C36.5921 22.6921 36.0718 22.4766 35.5293 22.4766C34.9869 22.4766 34.4666 22.6921 34.083 23.0757C33.6994 23.4593 33.4839 23.9795 33.4839 24.522V26.3434C33.4839 26.9101 33.3723 27.4712 33.1555 27.9947C32.9387 28.5182 32.6209 28.9939 32.2202 29.3946C31.8195 29.7953 31.3439 30.1131 30.8203 30.3299C30.2968 30.5468 29.7357 30.6584 29.1691 30.6584H28.7112V29.6357C28.7112 29.5452 28.6752 29.4585 28.6113 29.3946C28.5474 29.3307 28.4607 29.2947 28.3703 29.2947H22.9157C22.8253 29.2947 22.7386 29.3307 22.6746 29.3946C22.6107 29.4585 22.5748 29.5452 22.5748 29.6357V30.3175H18.8248C18.7344 30.3175 18.6477 30.3534 18.5837 30.4173C18.5198 30.4813 18.4839 30.568 18.4839 30.6584C18.4839 30.7488 18.5198 30.8355 18.5837 30.8994C18.6477 30.9634 18.7344 30.9993 18.8248 30.9993H22.5748V43.272H18.8248C18.7344 43.272 18.6477 43.3079 18.5837 43.3719C18.5198 43.4358 18.4839 43.5225 18.4839 43.6129C18.4839 43.7033 18.5198 43.7901 18.5837 43.854C18.6477 43.9179 18.7344 43.9538 18.8248 43.9538H22.5748V44.6357C22.5748 44.7261 22.6107 44.8128 22.6746 44.8767C22.7386 44.9406 22.8253 44.9766 22.9157 44.9766H28.3703C28.4607 44.9766 28.5474 44.9406 28.6113 44.8767C28.6752 44.8128 28.7112 44.7261 28.7112 44.6357V43.8817C29.9806 44.6007 31.415 44.978 32.874 44.9766H38.9384C39.3336 44.9772 39.7204 44.8633 40.0521 44.6484C40.3838 44.4336 40.646 44.1272 40.8069 43.7663C40.9679 43.4054 41.0207 43.0056 40.9589 42.6153C40.8971 42.225 40.7234 41.861 40.4589 41.5675H40.9839C41.3799 41.5681 41.7675 41.4536 42.0996 41.2379C42.4317 41.0221 42.6939 40.7145 42.8543 40.3524C43.0147 39.9904 43.0663 39.5895 43.0029 39.1986C42.9395 38.8077 42.7639 38.4437 42.4973 38.1508C42.8795 38.1237 43.2463 37.9895 43.5557 37.7636C43.8652 37.5377 44.1048 37.2292 44.247 36.8734C44.3893 36.5177 44.4286 36.1291 44.3603 35.7521C44.292 35.3751 44.119 35.0249 43.8609 34.7417C44.3756 34.7037 44.857 34.4725 45.2085 34.0946C45.56 33.7167 45.7558 33.22 45.7566 32.7038ZM28.0293 44.2947H23.2566V29.9766H28.0293V44.2947ZM43.7112 34.0675H40.3021C40.2117 34.0675 40.1249 34.1034 40.061 34.1673C39.9971 34.2313 39.9612 34.318 39.9612 34.4084C39.9612 34.4988 39.9971 34.5855 40.061 34.6494C40.1249 34.7134 40.2117 34.7493 40.3021 34.7493H42.3475C42.7092 34.7493 43.056 34.893 43.3118 35.1487C43.5675 35.4044 43.7112 35.7513 43.7112 36.1129C43.7112 36.4746 43.5675 36.8214 43.3118 37.0772C43.056 37.3329 42.7092 37.4766 42.3475 37.4766H38.9384C38.848 37.4766 38.7613 37.5125 38.6974 37.5764C38.6334 37.6403 38.5975 37.7271 38.5975 37.8175C38.5975 37.9079 38.6334 37.9946 38.6974 38.0585C38.7613 38.1225 38.848 38.1584 38.9384 38.1584H40.9839C41.3455 38.1584 41.6924 38.302 41.9481 38.5578C42.2039 38.8135 42.3475 39.1604 42.3475 39.522C42.3475 39.8837 42.2039 40.2305 41.9481 40.4863C41.6924 40.742 41.3455 40.8857 40.9839 40.8857H36.893C36.8026 40.8857 36.7159 40.9216 36.6519 40.9855C36.588 41.0494 36.5521 41.1361 36.5521 41.2266C36.5521 41.317 36.588 41.4037 36.6519 41.4676C36.7159 41.5316 36.8026 41.5675 36.893 41.5675H38.9384C39.3001 41.5675 39.6469 41.7111 39.9027 41.9669C40.1584 42.2226 40.3021 42.5694 40.3021 42.9311C40.3021 43.2928 40.1584 43.6396 39.9027 43.8953C39.6469 44.1511 39.3001 44.2947 38.9384 44.2947H32.874C31.3992 44.2948 29.9551 43.874 28.7112 43.0818V31.3402H29.1691C30.4943 31.3402 31.7652 30.8137 32.7022 29.8766C33.6393 28.9395 34.1657 27.6686 34.1657 26.3434V24.522C34.1657 24.1604 34.3094 23.8135 34.5651 23.5578C34.8208 23.302 35.1677 23.1584 35.5293 23.1584C35.891 23.1584 36.2378 23.302 36.4936 23.5578C36.7493 23.8135 36.893 24.1604 36.893 24.522V27.6614C36.8916 28.641 36.5585 29.5912 35.9478 30.3571L35.6043 30.7862C35.5642 30.8363 35.5391 30.8968 35.5318 30.9606C35.5245 31.0244 35.5353 31.0889 35.5631 31.1468C35.5909 31.2047 35.6345 31.2536 35.6888 31.2878C35.7431 31.322 35.806 31.3402 35.8703 31.3402H43.7112C44.0728 31.3402 44.4197 31.4839 44.6754 31.7396C44.9311 31.9953 45.0748 32.3422 45.0748 32.7038C45.0748 33.0655 44.9311 33.4123 44.6754 33.6681C44.4197 33.9238 44.0728 34.0675 43.7112 34.0675Z" fill="#939393"/>
<path d="M35.5299 21.1134C35.6203 21.1134 35.707 21.0775 35.7709 21.0135C35.8349 20.9496 35.8708 20.8629 35.8708 20.7725V17.3634C35.8708 17.273 35.8349 17.1862 35.7709 17.1223C35.707 17.0584 35.6203 17.0225 35.5299 17.0225C35.4395 17.0225 35.3527 17.0584 35.2888 17.1223C35.2249 17.1862 35.189 17.273 35.189 17.3634V20.7725C35.189 20.8629 35.2249 20.9496 35.2888 21.0135C35.3527 21.0775 35.4395 21.1134 35.5299 21.1134Z" fill="#939393"/>
<path d="M32.3958 22.2116C32.4273 22.2439 32.4649 22.2697 32.5065 22.2874C32.548 22.305 32.5926 22.3143 32.6377 22.3145C32.6829 22.3148 32.7276 22.3062 32.7694 22.289C32.8111 22.2719 32.8491 22.2466 32.881 22.2147C32.9129 22.1828 32.9381 22.1449 32.9553 22.1031C32.9724 22.0614 32.9811 22.0166 32.9808 21.9715C32.9805 21.9264 32.9713 21.8817 32.9536 21.8402C32.9359 21.7987 32.9102 21.7611 32.8779 21.7296L30.4674 19.3189C30.436 19.2861 30.3984 19.26 30.3567 19.2419C30.3151 19.2239 30.2703 19.2144 30.2249 19.2139C30.1795 19.2134 30.1345 19.222 30.0925 19.2391C30.0505 19.2563 30.0123 19.2816 29.9803 19.3137C29.9482 19.3458 29.9228 19.3839 29.9057 19.4259C29.8885 19.4679 29.8799 19.5129 29.8804 19.5583C29.8809 19.6037 29.8904 19.6485 29.9084 19.6902C29.9264 19.7318 29.9526 19.7694 29.9853 19.8008L32.3958 22.2116Z" fill="#939393"/>
<path d="M28.0299 25.2043H31.439C31.5294 25.2043 31.6161 25.1684 31.68 25.1044C31.744 25.0405 31.7799 24.9538 31.7799 24.8634C31.7799 24.773 31.744 24.6862 31.68 24.6223C31.6161 24.5584 31.5294 24.5225 31.439 24.5225H28.0299C27.9395 24.5225 27.8527 24.5584 27.7888 24.6223C27.7249 24.6862 27.689 24.773 27.689 24.8634C27.689 24.9538 27.7249 25.0405 27.7888 25.1044C27.8527 25.1684 27.9395 25.2043 28.0299 25.2043Z" fill="#939393"/>
<path d="M38.4223 22.3116C38.467 22.3117 38.5114 22.3029 38.5528 22.2858C38.5941 22.2686 38.6317 22.2435 38.6633 22.2118L41.074 19.801C41.1351 19.7365 41.1686 19.6507 41.1674 19.5619C41.1662 19.4731 41.1304 19.3882 41.0676 19.3254C41.0048 19.2626 40.9199 19.2268 40.8311 19.2256C40.7423 19.2244 40.6565 19.2579 40.592 19.319L38.1814 21.7297C38.1337 21.7774 38.1012 21.8381 38.0881 21.9042C38.0749 21.9704 38.0817 22.0389 38.1075 22.1012C38.1333 22.1635 38.177 22.2167 38.233 22.2542C38.2891 22.2916 38.3549 22.3116 38.4223 22.3116Z" fill="#939393"/>
<path d="M39.2788 24.8634C39.2788 24.9538 39.3147 25.0405 39.3787 25.1044C39.4426 25.1684 39.5293 25.2043 39.6197 25.2043H43.0288C43.1192 25.2043 43.2059 25.1684 43.2699 25.1044C43.3338 25.0405 43.3697 24.9538 43.3697 24.8634C43.3697 24.773 43.3338 24.6862 43.2699 24.6223C43.2059 24.5584 43.1192 24.5225 43.0288 24.5225H39.6197C39.5293 24.5225 39.4426 24.5584 39.3787 24.6223C39.3147 24.6862 39.2788 24.773 39.2788 24.8634Z" fill="#939393"/>
<path d="M25.9832 41.2266C25.7809 41.2266 25.5832 41.2865 25.415 41.3989C25.2468 41.5113 25.1157 41.671 25.0383 41.8579C24.9609 42.0448 24.9406 42.2504 24.9801 42.4488C25.0196 42.6472 25.117 42.8294 25.26 42.9725C25.403 43.1155 25.5853 43.2129 25.7837 43.2524C25.982 43.2918 26.1877 43.2716 26.3746 43.1942C26.5614 43.1168 26.7212 42.9857 26.8335 42.8175C26.9459 42.6493 27.0059 42.4516 27.0059 42.2493C27.0056 41.9781 26.8978 41.7182 26.706 41.5264C26.5143 41.3347 26.2543 41.2269 25.9832 41.2266ZM25.9832 42.5902C25.9158 42.5902 25.8498 42.5702 25.7938 42.5327C25.7377 42.4953 25.694 42.442 25.6682 42.3797C25.6424 42.3175 25.6357 42.2489 25.6488 42.1828C25.662 42.1167 25.6944 42.0559 25.7421 42.0082C25.7898 41.9606 25.8505 41.9281 25.9167 41.9149C25.9828 41.9018 26.0513 41.9085 26.1136 41.9343C26.1759 41.9601 26.2292 42.0038 26.2666 42.0599C26.3041 42.116 26.3241 42.1819 26.3241 42.2493C26.324 42.3397 26.2881 42.4263 26.2241 42.4903C26.1602 42.5542 26.0736 42.5901 25.9832 42.5902Z" fill="#939393"/>
</g>
<defs>
<clipPath id="clip0_617_327">
<rect width="62.8966" height="62.8966" fill="white" transform="translate(0.913574)"/>
</clipPath>
</defs>
</svg>
