<svg width="64" height="63" viewBox="0 0 64 63" fill="none" xmlns="http://www.w3.org/2000/svg">
<g clip-path="url(#clip0_595_2332)">
<circle cx="32.2749" cy="31.4483" r="30.4483" fill="white" stroke="#CD0B09" stroke-width="2"/>
<path d="M31.7642 21.5625V20.625C31.7642 18.0405 29.6612 15.9375 27.0767 15.9375C24.4921 15.9375 22.3892 18.0405 22.3892 20.625V21.5625H16.7642V40.3125C16.7642 42.3843 18.4423 44.0625 20.5142 44.0625H30.5268C29.7674 43.5278 29.083 42.8998 28.4921 42.1875H20.5142C19.4828 42.1875 18.6392 41.3434 18.6392 40.3125V23.4375H22.3892V25.3125H24.2642V23.4375H29.8892V25.3125H31.7642V23.4375H35.5142V25.3592C35.8236 25.3308 36.1331 25.3125 36.4517 25.3125C36.7703 25.3125 37.0797 25.3308 37.3892 25.3592V21.5625H31.7642ZM24.2642 21.5625V20.625C24.2642 19.0741 25.5258 17.8125 27.0767 17.8125C28.6276 17.8125 29.8892 19.0741 29.8892 20.625V21.5625H24.2642ZM36.4517 44.0625C31.799 44.0625 28.0142 40.2777 28.0142 35.625C28.0142 30.9723 31.799 27.1875 36.4517 27.1875C41.1044 27.1875 44.8892 30.9723 44.8892 35.625C44.8892 40.2777 41.1044 44.0625 36.4517 44.0625ZM36.4517 29.0625C32.8335 29.0625 29.8892 32.0068 29.8892 35.625C29.8892 39.2432 32.8335 42.1875 36.4517 42.1875C40.0698 42.1875 43.0142 39.2432 43.0142 35.625C43.0142 32.0068 40.0698 29.0625 36.4517 29.0625ZM35.5142 38.8257L32.3135 35.625L33.6392 34.2993L35.5142 36.1743L39.2642 32.4243L40.5898 33.75L35.5142 38.8257Z" fill="#CD0B09"/>
</g>
<defs>
<clipPath id="clip0_595_2332">
<rect width="62.8966" height="62.8966" fill="white" transform="translate(0.82666)"/>
</clipPath>
</defs>
</svg>
